<svg version="1.1" viewBox="0.0 0.0 600.0 371.0" fill="none" stroke="none" stroke-linecap="square" stroke-miterlimit="10" width="600" height="371" xmlns:xlink="http://www.w3.org/1999/xlink" xmlns="http://www.w3.org/2000/svg"><path fill="#ffffff" d="M0 0L600.0 0L600.0 371.0L0 371.0L0 0Z" fill-rule="nonzero"/><path stroke="#cccccc" stroke-width="1.0" stroke-linecap="butt" d="M52.5 88.5L52.5 332.5" fill-rule="nonzero"/><path stroke="#cccccc" stroke-width="1.0" stroke-linecap="butt" d="M212.5 88.5L212.5 332.5" fill-rule="nonzero"/><path stroke="#cccccc" stroke-width="1.0" stroke-linecap="butt" d="M372.5 88.5L372.5 332.5" fill-rule="nonzero"/><path stroke="#cccccc" stroke-width="1.0" stroke-linecap="butt" d="M533.5 88.5L533.5 332.5" fill-rule="nonzero"/><path stroke="#333333" stroke-width="1.0" stroke-linecap="butt" d="M52.5 332.5L581.5 332.5" fill-rule="nonzero"/><path stroke="#cccccc" stroke-width="1.0" stroke-linecap="butt" d="M52.5 271.5L581.5 271.5" fill-rule="nonzero"/><path stroke="#cccccc" stroke-width="1.0" stroke-linecap="butt" d="M52.5 210.5L581.5 210.5" fill-rule="nonzero"/><path stroke="#cccccc" stroke-width="1.0" stroke-linecap="butt" d="M52.5 149.5L581.5 149.5" fill-rule="nonzero"/><path stroke="#cccccc" stroke-width="1.0" stroke-linecap="butt" d="M52.5 88.5L581.5 88.5" fill-rule="nonzero"/><clipPath id="id_0"><path d="M52.55 88.28333L581.45 88.28333L581.45 332.45L52.55 332.45L52.55 88.28333Z" clip-rule="nonzero"/></clipPath><path stroke="#4285f4" stroke-width="2.0" stroke-linecap="butt" clip-path="url(#id_0)" d="M52.55 258.09882L212.77272 197.84457L261.00458 191.53531L324.76358 187.55661L372.99542 185.77176L484.9863 185.70338L581.45 184.28479" fill-rule="nonzero"/><path stroke="#ea4335" stroke-width="2.0" stroke-linecap="butt" clip-path="url(#id_0)" d="M52.55 248.56776L212.77272 143.25258L261.00458 128.0825L324.76358 117.705414L372.99542 115.73133L484.9863 112.826965L581.45 112.33863" fill-rule="nonzero"/><path fill="#000000" fill-opacity="0.0" clip-path="url(#id_0)" d="M55.55 258.09882C55.55 259.75568 54.206856 261.09882 52.55 261.09882C50.893147 261.09882 49.55 259.75568 49.55 258.09882C49.55 256.44196 50.893147 255.09882 52.55 255.09882C54.206856 255.09882 55.55 256.44196 55.55 258.09882Z" fill-rule="nonzero"/><path fill="#000000" fill-opacity="0.0" clip-path="url(#id_0)" d="M215.77272 197.84457C215.77272 199.50143 214.42957 200.84457 212.77272 200.84457C211.11586 200.84457 209.77272 199.50143 209.77272 197.84457C209.77272 196.18773 211.11586 194.84457 212.77272 194.84457C214.42957 194.84457 215.77272 196.18773 215.77272 197.84457Z" fill-rule="nonzero"/><path fill="#000000" fill-opacity="0.0" clip-path="url(#id_0)" d="M264.00458 191.53531C264.00458 193.19217 262.6614 194.53531 261.00458 194.53531C259.34772 194.53531 258.00458 193.19217 258.00458 191.53531C258.00458 189.87846 259.34772 188.53531 261.00458 188.53531C262.6614 188.53531 264.00458 189.87846 264.00458 191.53531Z" fill-rule="nonzero"/><path fill="#000000" fill-opacity="0.0" clip-path="url(#id_0)" d="M327.76358 187.55661C327.76358 189.21347 326.42044 190.55661 324.76358 190.55661C323.10675 190.55661 321.76358 189.21347 321.76358 187.55661C321.76358 185.89977 323.10675 184.55661 324.76358 184.55661C326.42044 184.55661 327.76358 185.89977 327.76358 187.55661Z" fill-rule="nonzero"/><path fill="#000000" fill-opacity="0.0" clip-path="url(#id_0)" d="M375.99542 185.77176C375.99542 187.42862 374.65228 188.77176 372.99542 188.77176C371.3386 188.77176 369.99542 187.42862 369.99542 185.77176C369.99542 184.1149 371.3386 182.77176 372.99542 182.77176C374.65228 182.77176 375.99542 184.1149 375.99542 185.77176Z" fill-rule="nonzero"/><path fill="#000000" fill-opacity="0.0" clip-path="url(#id_0)" d="M487.9863 185.70338C487.9863 187.36024 486.64316 188.70338 484.9863 188.70338C483.32947 188.70338 481.9863 187.36024 481.9863 185.70338C481.9863 184.04654 483.32947 182.70338 484.9863 182.70338C486.64316 182.70338 487.9863 184.04654 487.9863 185.70338Z" fill-rule="nonzero"/><path fill="#000000" fill-opacity="0.0" clip-path="url(#id_0)" d="M584.45 184.28479C584.45 185.94164 583.1069 187.28479 581.45 187.28479C579.79315 187.28479 578.45 185.94164 578.45 184.28479C578.45 182.62793 579.79315 181.28479 581.45 181.28479C583.1069 181.28479 584.45 182.62793 584.45 184.28479Z" fill-rule="nonzero"/><path fill="#000000" fill-opacity="0.0" clip-path="url(#id_0)" d="M55.55 248.56776C55.55 250.22461 54.206856 251.56776 52.55 251.56776C50.893147 251.56776 49.55 250.22461 49.55 248.56776C49.55 246.9109 50.893147 245.56776 52.55 245.56776C54.206856 245.56776 55.55 246.9109 55.55 248.56776Z" fill-rule="nonzero"/><path fill="#000000" fill-opacity="0.0" clip-path="url(#id_0)" d="M215.77272 143.25258C215.77272 144.90942 214.42957 146.25258 212.77272 146.25258C211.11586 146.25258 209.77272 144.90942 209.77272 143.25258C209.77272 141.59572 211.11586 140.25258 212.77272 140.25258C214.42957 140.25258 215.77272 141.59572 215.77272 143.25258Z" fill-rule="nonzero"/><path fill="#000000" fill-opacity="0.0" clip-path="url(#id_0)" d="M264.00458 128.0825C264.00458 129.73935 262.6614 131.0825 261.00458 131.0825C259.34772 131.0825 258.00458 129.73935 258.00458 128.0825C258.00458 126.425644 259.34772 125.0825 261.00458 125.0825C262.6614 125.0825 264.00458 126.425644 264.00458 128.0825Z" fill-rule="nonzero"/><path fill="#000000" fill-opacity="0.0" clip-path="url(#id_0)" d="M327.76358 117.705414C327.76358 119.362274 326.42044 120.705414 324.76358 120.705414C323.10675 120.705414 321.76358 119.362274 321.76358 117.705414C321.76358 116.04856 323.10675 114.705414 324.76358 114.705414C326.42044 114.705414 327.76358 116.04856 327.76358 117.705414Z" fill-rule="nonzero"/><path fill="#000000" fill-opacity="0.0" clip-path="url(#id_0)" d="M375.99542 115.73133C375.99542 117.38818 374.65228 118.73133 372.99542 118.73133C371.3386 118.73133 369.99542 117.38818 369.99542 115.73133C369.99542 114.07448 371.3386 112.73133 372.99542 112.73133C374.65228 112.73133 375.99542 114.07448 375.99542 115.73133Z" fill-rule="nonzero"/><path fill="#000000" fill-opacity="0.0" clip-path="url(#id_0)" d="M487.9863 112.826965C487.9863 114.48382 486.64316 115.826965 484.9863 115.826965C483.32947 115.826965 481.9863 114.48382 481.9863 112.826965C481.9863 111.17011 483.32947 109.826965 484.9863 109.826965C486.64316 109.826965 487.9863 111.17011 487.9863 112.826965Z" fill-rule="nonzero"/><path fill="#000000" fill-opacity="0.0" clip-path="url(#id_0)" d="M584.45 112.33863C584.45 113.99549 583.1069 115.33863 581.45 115.33863C579.79315 115.33863 578.45 113.99549 578.45 112.33863C578.45 110.68178 579.79315 109.33863 581.45 109.33863C583.1069 109.33863 584.45 110.68178 584.45 112.33863Z" fill-rule="nonzero"/><path fill="#000000" d="M40.05 332.21564Q40.05 330.6844 40.3625 329.7625Q40.675 328.825 41.284374 328.325Q41.909374 327.825 42.846874 327.825Q43.534374 327.825 44.05 328.10626Q44.58125 328.3875 44.925 328.91876Q45.26875 329.4344 45.45625 330.1844Q45.64375 330.9344 45.64375 332.21564Q45.64375 333.73126 45.33125 334.65314Q45.034374 335.575 44.409374 336.09064Q43.8 336.59064 42.846874 336.59064Q41.6125 336.59064 40.89375 335.7Q40.05 334.6375 40.05 332.21564ZM41.128124 332.21564Q41.128124 334.325 41.628124 335.02814Q42.128124 335.73126 42.846874 335.73126Q43.58125 335.73126 44.065624 335.02814Q44.565624 334.325 44.565624 332.21564Q44.565624 330.09064 44.065624 329.40314Q43.58125 328.7 42.83125 328.7Q42.1125 328.7 41.675 329.3094Q41.128124 330.09064 41.128124 332.21564Z" fill-rule="nonzero"/><path fill="#000000" d="M26.05 273.15833L27.159374 273.06458Q27.284374 273.87708 27.721874 274.28333Q28.175 274.68958 28.815624 274.68958Q29.565624 274.68958 30.096874 274.11145Q30.628124 273.53333 30.628124 272.59583Q30.628124 271.68958 30.1125 271.17395Q29.6125 270.6427 28.784374 270.6427Q28.284374 270.6427 27.8625 270.87708Q27.45625 271.11145 27.221874 271.47083L26.2375 271.34583L27.065624 266.93958L31.346874 266.93958L31.346874 267.93958L27.909374 267.93958L27.45625 270.25208Q28.221874 269.7052 29.065624 269.7052Q30.190624 269.7052 30.95625 270.48645Q31.7375 271.2677 31.7375 272.50208Q31.7375 273.65833 31.065624 274.5177Q30.2375 275.54895 28.815624 275.54895Q27.64375 275.54895 26.89375 274.8927Q26.159374 274.23645 26.05 273.15833ZM33.05 271.17395Q33.05 269.6427 33.3625 268.72083Q33.675 267.78333 34.284374 267.28333Q34.909374 266.78333 35.846874 266.78333Q36.534374 266.78333 37.05 267.06458Q37.58125 267.34583 37.925 267.87708Q38.26875 268.3927 38.45625 269.1427Q38.64375 269.8927 38.64375 271.17395Q38.64375 272.68958 38.33125 273.61145Q38.034374 274.53333 37.409374 275.04895Q36.8 275.54895 35.846874 275.54895Q34.6125 275.54895 33.89375 274.65833Q33.05 273.59583 33.05 271.17395ZM34.128124 271.17395Q34.128124 273.28333 34.628124 273.98645Q35.128124 274.68958 35.846874 274.68958Q36.58125 274.68958 37.065624 273.98645Q37.565624 273.28333 37.565624 271.17395Q37.565624 269.04895 37.065624 268.36145Q36.58125 267.65833 35.83125 267.65833Q35.1125 267.65833 34.675 268.2677Q34.128124 269.04895 34.128124 271.17395ZM40.05 271.17395Q40.05 269.6427 40.3625 268.72083Q40.675 267.78333 41.284374 267.28333Q41.909374 266.78333 42.846874 266.78333Q43.534374 266.78333 44.05 267.06458Q44.58125 267.34583 44.925 267.87708Q45.26875 268.3927 45.45625 269.1427Q45.64375 269.8927 45.64375 271.17395Q45.64375 272.68958 45.33125 273.61145Q45.034374 274.53333 44.409374 275.04895Q43.8 275.54895 42.846874 275.54895Q41.6125 275.54895 40.89375 274.65833Q40.05 273.59583 40.05 271.17395ZM41.128124 271.17395Q41.128124 273.28333 41.628124 273.98645Q42.128124 274.68958 42.846874 274.68958Q43.58125 274.68958 44.065624 273.98645Q44.565624 273.28333 44.565624 271.17395Q44.565624 269.04895 44.065624 268.36145Q43.58125 267.65833 42.83125 267.65833Q42.1125 267.65833 41.675 268.2677Q41.128124 269.04895 41.128124 271.17395Z" fill-rule="nonzero"/><path fill="#000000" d="M23.01875 214.36667L21.971874 214.36667L21.971874 207.64792Q21.58125 208.0073 20.95625 208.3823Q20.346874 208.74167 19.8625 208.91354L19.8625 207.89792Q20.7375 207.47604 21.39375 206.89792Q22.065624 206.30417 22.346874 205.74167L23.01875 205.74167L23.01875 214.36667ZM26.05 210.1323Q26.05 208.60104 26.3625 207.67917Q26.675 206.74167 27.284374 206.24167Q27.909374 205.74167 28.846874 205.74167Q29.534374 205.74167 30.05 206.02292Q30.58125 206.30417 30.925 206.83542Q31.26875 207.35104 31.45625 208.10104Q31.64375 208.85104 31.64375 210.1323Q31.64375 211.64792 31.33125 212.5698Q31.034374 213.49167 30.409374 214.0073Q29.8 214.5073 28.846874 214.5073Q27.6125 214.5073 26.89375 213.61667Q26.05 212.55417 26.05 210.1323ZM27.128124 210.1323Q27.128124 212.24167 27.628124 212.9448Q28.128124 213.64792 28.846874 213.64792Q29.58125 213.64792 30.065624 212.9448Q30.565624 212.24167 30.565624 210.1323Q30.565624 208.0073 30.065624 207.3198Q29.58125 206.61667 28.83125 206.61667Q28.1125 206.61667 27.675 207.22604Q27.128124 208.0073 27.128124 210.1323ZM33.05 210.1323Q33.05 208.60104 33.3625 207.67917Q33.675 206.74167 34.284374 206.24167Q34.909374 205.74167 35.846874 205.74167Q36.534374 205.74167 37.05 206.02292Q37.58125 206.30417 37.925 206.83542Q38.26875 207.35104 38.45625 208.10104Q38.64375 208.85104 38.64375 210.1323Q38.64375 211.64792 38.33125 212.5698Q38.034374 213.49167 37.409374 214.0073Q36.8 214.5073 35.846874 214.5073Q34.6125 214.5073 33.89375 213.61667Q33.05 212.55417 33.05 210.1323ZM34.128124 210.1323Q34.128124 212.24167 34.628124 212.9448Q35.128124 213.64792 35.846874 213.64792Q36.58125 213.64792 37.065624 212.9448Q37.565624 212.24167 37.565624 210.1323Q37.565624 208.0073 37.065624 207.3198Q36.58125 206.61667 35.83125 206.61667Q35.1125 206.61667 34.675 207.22604Q34.128124 208.0073 34.128124 210.1323ZM40.05 210.1323Q40.05 208.60104 40.3625 207.67917Q40.675 206.74167 41.284374 206.24167Q41.909374 205.74167 42.846874 205.74167Q43.534374 205.74167 44.05 206.02292Q44.58125 206.30417 44.925 206.83542Q45.26875 207.35104 45.45625 208.10104Q45.64375 208.85104 45.64375 210.1323Q45.64375 211.64792 45.33125 212.5698Q45.034374 213.49167 44.409374 214.0073Q43.8 214.5073 42.846874 214.5073Q41.6125 214.5073 40.89375 213.61667Q40.05 212.55417 40.05 210.1323ZM41.128124 210.1323Q41.128124 212.24167 41.628124 212.9448Q42.128124 213.64792 42.846874 213.64792Q43.58125 213.64792 44.065624 212.9448Q44.565624 212.24167 44.565624 210.1323Q44.565624 208.0073 44.065624 207.3198Q43.58125 206.61667 42.83125 206.61667Q42.1125 206.61667 41.675 207.22604Q41.128124 208.0073 41.128124 210.1323Z" fill-rule="nonzero"/><path fill="#000000" d="M23.01875 153.325L21.971874 153.325L21.971874 146.60625Q21.58125 146.96562 20.95625 147.34062Q20.346874 147.7 19.8625 147.87187L19.8625 146.85625Q20.7375 146.43437 21.39375 145.85625Q22.065624 145.2625 22.346874 144.7L23.01875 144.7L23.01875 153.325ZM26.05 151.075L27.159374 150.98125Q27.284374 151.79375 27.721874 152.2Q28.175 152.60625 28.815624 152.60625Q29.565624 152.60625 30.096874 152.02812Q30.628124 151.45 30.628124 150.5125Q30.628124 149.60625 30.1125 149.09062Q29.6125 148.55937 28.784374 148.55937Q28.284374 148.55937 27.8625 148.79375Q27.45625 149.02812 27.221874 149.3875L26.2375 149.2625L27.065624 144.85625L31.346874 144.85625L31.346874 145.85625L27.909374 145.85625L27.45625 148.16875Q28.221874 147.62187 29.065624 147.62187Q30.190624 147.62187 30.95625 148.40312Q31.7375 149.18437 31.7375 150.41875Q31.7375 151.575 31.065624 152.43437Q30.2375 153.46562 28.815624 153.46562Q27.64375 153.46562 26.89375 152.80937Q26.159374 152.15312 26.05 151.075ZM33.05 149.09062Q33.05 147.55937 33.3625 146.6375Q33.675 145.7 34.284374 145.2Q34.909374 144.7 35.846874 144.7Q36.534374 144.7 37.05 144.98125Q37.58125 145.2625 37.925 145.79375Q38.26875 146.30937 38.45625 147.05937Q38.64375 147.80937 38.64375 149.09062Q38.64375 150.60625 38.33125 151.52812Q38.034374 152.45 37.409374 152.96562Q36.8 153.46562 35.846874 153.46562Q34.6125 153.46562 33.89375 152.575Q33.05 151.5125 33.05 149.09062ZM34.128124 149.09062Q34.128124 151.2 34.628124 151.90312Q35.128124 152.60625 35.846874 152.60625Q36.58125 152.60625 37.065624 151.90312Q37.565624 151.2 37.565624 149.09062Q37.565624 146.96562 37.065624 146.27812Q36.58125 145.575 35.83125 145.575Q35.1125 145.575 34.675 146.18437Q34.128124 146.96562 34.128124 149.09062ZM40.05 149.09062Q40.05 147.55937 40.3625 146.6375Q40.675 145.7 41.284374 145.2Q41.909374 144.7 42.846874 144.7Q43.534374 144.7 44.05 144.98125Q44.58125 145.2625 44.925 145.79375Q45.26875 146.30937 45.45625 147.05937Q45.64375 147.80937 45.64375 149.09062Q45.64375 150.60625 45.33125 151.52812Q45.034374 152.45 44.409374 152.96562Q43.8 153.46562 42.846874 153.46562Q41.6125 153.46562 40.89375 152.575Q40.05 151.5125 40.05 149.09062ZM41.128124 149.09062Q41.128124 151.2 41.628124 151.90312Q42.128124 152.60625 42.846874 152.60625Q43.58125 152.60625 44.065624 151.90312Q44.565624 151.2 44.565624 149.09062Q44.565624 146.96562 44.065624 146.27812Q43.58125 145.575 42.83125 145.575Q42.1125 145.575 41.675 146.18437Q41.128124 146.96562 41.128124 149.09062Z" fill-rule="nonzero"/><path fill="#000000" d="M24.596874 91.26771L24.596874 92.28333L18.909374 92.28333Q18.909374 91.90833 19.034374 91.54896Q19.253124 90.97083 19.721874 90.40833Q20.20625 89.84583 21.1125 89.11146Q22.51875 87.95521 23.003124 87.28333Q23.503124 86.61146 23.503124 86.01771Q23.503124 85.39271 23.05 84.97083Q22.596874 84.53333 21.878124 84.53333Q21.1125 84.53333 20.659374 84.98646Q20.20625 85.43958 20.190624 86.25208L19.1125 86.14271Q19.221874 84.92396 19.940624 84.29896Q20.675 83.65833 21.909374 83.65833Q23.14375 83.65833 23.8625 84.34583Q24.58125 85.03333 24.58125 86.04896Q24.58125 86.56458 24.3625 87.06458Q24.159374 87.54896 23.659374 88.11146Q23.175 88.65833 22.05 89.61146Q21.096874 90.40833 20.815624 90.70521Q20.55 90.98646 20.378124 91.26771L24.596874 91.26771ZM26.05 88.04896Q26.05 86.51771 26.3625 85.59583Q26.675 84.65833 27.284374 84.15833Q27.909374 83.65833 28.846874 83.65833Q29.534374 83.65833 30.05 83.93958Q30.58125 84.22083 30.925 84.75208Q31.26875 85.26771 31.45625 86.01771Q31.64375 86.76771 31.64375 88.04896Q31.64375 89.56458 31.33125 90.48646Q31.034374 91.40833 30.409374 91.92396Q29.8 92.42396 28.846874 92.42396Q27.6125 92.42396 26.89375 91.53333Q26.05 90.47083 26.05 88.04896ZM27.128124 88.04896Q27.128124 90.15833 27.628124 90.86146Q28.128124 91.56458 28.846874 91.56458Q29.58125 91.56458 30.065624 90.86146Q30.565624 90.15833 30.565624 88.04896Q30.565624 85.92396 30.065624 85.23646Q29.58125 84.53333 28.83125 84.53333Q28.1125 84.53333 27.675 85.14271Q27.128124 85.92396 27.128124 88.04896ZM33.05 88.04896Q33.05 86.51771 33.3625 85.59583Q33.675 84.65833 34.284374 84.15833Q34.909374 83.65833 35.846874 83.65833Q36.534374 83.65833 37.05 83.93958Q37.58125 84.22083 37.925 84.75208Q38.26875 85.26771 38.45625 86.01771Q38.64375 86.76771 38.64375 88.04896Q38.64375 89.56458 38.33125 90.48646Q38.034374 91.40833 37.409374 91.92396Q36.8 92.42396 35.846874 92.42396Q34.6125 92.42396 33.89375 91.53333Q33.05 90.47083 33.05 88.04896ZM34.128124 88.04896Q34.128124 90.15833 34.628124 90.86146Q35.128124 91.56458 35.846874 91.56458Q36.58125 91.56458 37.065624 90.86146Q37.565624 90.15833 37.565624 88.04896Q37.565624 85.92396 37.065624 85.23646Q36.58125 84.53333 35.83125 84.53333Q35.1125 84.53333 34.675 85.14271Q34.128124 85.92396 34.128124 88.04896ZM40.05 88.04896Q40.05 86.51771 40.3625 85.59583Q40.675 84.65833 41.284374 84.15833Q41.909374 83.65833 42.846874 83.65833Q43.534374 83.65833 44.05 83.93958Q44.58125 84.22083 44.925 84.75208Q45.26875 85.26771 45.45625 86.01771Q45.64375 86.76771 45.64375 88.04896Q45.64375 89.56458 45.33125 90.48646Q45.034374 91.40833 44.409374 91.92396Q43.8 92.42396 42.846874 92.42396Q41.6125 92.42396 40.89375 91.53333Q40.05 90.47083 40.05 88.04896ZM41.128124 88.04896Q41.128124 90.15833 41.628124 90.86146Q42.128124 91.56458 42.846874 91.56458Q43.58125 91.56458 44.065624 90.86146Q44.565624 90.15833 44.565624 88.04896Q44.565624 85.92396 44.065624 85.23646Q43.58125 84.53333 42.83125 84.53333Q42.1125 84.53333 41.675 85.14271Q41.128124 85.92396 41.128124 88.04896Z" fill-rule="nonzero"/><path fill="#000000" d="M53.51875 349.45L52.471874 349.45L52.471874 342.73126Q52.08125 343.09064 51.45625 343.46564Q50.846874 343.825 50.3625 343.9969L50.3625 342.98126Q51.2375 342.5594 51.89375 341.98126Q52.565624 341.3875 52.846874 340.825L53.51875 340.825L53.51875 349.45Z" fill-rule="nonzero"/><path fill="#000000" d="M210.24147 349.45L209.1946 349.45L209.1946 342.73126Q208.80397 343.09064 208.17897 343.46564Q207.5696 343.825 207.08522 343.9969L207.08522 342.98126Q207.96022 342.5594 208.61647 341.98126Q209.28835 341.3875 209.5696 340.825L210.24147 340.825L210.24147 349.45ZM213.27272 345.21564Q213.27272 343.6844 213.58522 342.7625Q213.89772 341.825 214.5071 341.325Q215.1321 340.825 216.0696 340.825Q216.7571 340.825 217.27272 341.10626Q217.80397 341.3875 218.14772 341.91876Q218.49147 342.4344 218.67897 343.1844Q218.86647 343.9344 218.86647 345.21564Q218.86647 346.73126 218.55397 347.65314Q218.2571 348.575 217.6321 349.09064Q217.02272 349.59064 216.0696 349.59064Q214.83522 349.59064 214.11647 348.7Q213.27272 347.6375 213.27272 345.21564ZM214.35085 345.21564Q214.35085 347.325 214.85085 348.02814Q215.35085 348.73126 216.0696 348.73126Q216.80397 348.73126 217.28835 348.02814Q217.78835 347.325 217.78835 345.21564Q217.78835 343.09064 217.28835 342.40314Q216.80397 341.7 216.05397 341.7Q215.33522 341.7 214.89772 342.3094Q214.35085 343.09064 214.35085 345.21564Z" fill-rule="nonzero"/><path fill="#000000" d="M366.96417 349.45L365.9173 349.45L365.9173 342.73126Q365.52667 343.09064 364.90167 343.46564Q364.2923 343.825 363.80792 343.9969L363.80792 342.98126Q364.68292 342.5594 365.33917 341.98126Q366.01105 341.3875 366.2923 340.825L366.96417 340.825L366.96417 349.45ZM369.99542 345.21564Q369.99542 343.6844 370.30792 342.7625Q370.62042 341.825 371.2298 341.325Q371.8548 340.825 372.7923 340.825Q373.4798 340.825 373.99542 341.10626Q374.52667 341.3875 374.87042 341.91876Q375.21417 342.4344 375.40167 343.1844Q375.58917 343.9344 375.58917 345.21564Q375.58917 346.73126 375.27667 347.65314Q374.9798 348.575 374.3548 349.09064Q373.74542 349.59064 372.7923 349.59064Q371.55792 349.59064 370.83917 348.7Q369.99542 347.6375 369.99542 345.21564ZM371.07355 345.21564Q371.07355 347.325 371.57355 348.02814Q372.07355 348.73126 372.7923 348.73126Q373.52667 348.73126 374.01105 348.02814Q374.51105 347.325 374.51105 345.21564Q374.51105 343.09064 374.01105 342.40314Q373.52667 341.7 372.77667 341.7Q372.05792 341.7 371.62042 342.3094Q371.07355 343.09064 371.07355 345.21564ZM376.99542 345.21564Q376.99542 343.6844 377.30792 342.7625Q377.62042 341.825 378.2298 341.325Q378.8548 340.825 379.7923 340.825Q380.4798 340.825 380.99542 341.10626Q381.52667 341.3875 381.87042 341.91876Q382.21417 342.4344 382.40167 343.1844Q382.58917 343.9344 382.58917 345.21564Q382.58917 346.73126 382.27667 347.65314Q381.9798 348.575 381.3548 349.09064Q380.74542 349.59064 379.7923 349.59064Q378.55792 349.59064 377.83917 348.7Q376.99542 347.6375 376.99542 345.21564ZM378.07355 345.21564Q378.07355 347.325 378.57355 348.02814Q379.07355 348.73126 379.7923 348.73126Q380.52667 348.73126 381.01105 348.02814Q381.51105 347.325 381.51105 345.21564Q381.51105 343.09064 381.01105 342.40314Q380.52667 341.7 379.77667 341.7Q379.05792 341.7 378.62042 342.3094Q378.07355 343.09064 378.07355 345.21564Z" fill-rule="nonzero"/><path fill="#000000" d="M523.6869 349.45L522.64 349.45L522.64 342.73126Q522.2494 343.09064 521.6244 343.46564Q521.015 343.825 520.53064 343.9969L520.53064 342.98126Q521.40564 342.5594 522.0619 341.98126Q522.73376 341.3875 523.015 340.825L523.6869 340.825L523.6869 349.45ZM526.71814 345.21564Q526.71814 343.6844 527.03064 342.7625Q527.34314 341.825 527.9525 341.325Q528.5775 340.825 529.515 340.825Q530.2025 340.825 530.71814 341.10626Q531.2494 341.3875 531.59314 341.91876Q531.9369 342.4344 532.1244 343.1844Q532.3119 343.9344 532.3119 345.21564Q532.3119 346.73126 531.9994 347.65314Q531.7025 348.575 531.0775 349.09064Q530.46814 349.59064 529.515 349.59064Q528.28064 349.59064 527.5619 348.7Q526.71814 347.6375 526.71814 345.21564ZM527.79626 345.21564Q527.79626 347.325 528.29626 348.02814Q528.79626 348.73126 529.515 348.73126Q530.2494 348.73126 530.73376 348.02814Q531.23376 347.325 531.23376 345.21564Q531.23376 343.09064 530.73376 342.40314Q530.2494 341.7 529.4994 341.7Q528.78064 341.7 528.34314 342.3094Q527.79626 343.09064 527.79626 345.21564ZM533.71814 345.21564Q533.71814 343.6844 534.03064 342.7625Q534.34314 341.825 534.9525 341.325Q535.5775 340.825 536.515 340.825Q537.2025 340.825 537.71814 341.10626Q538.2494 341.3875 538.59314 341.91876Q538.9369 342.4344 539.1244 343.1844Q539.3119 343.9344 539.3119 345.21564Q539.3119 346.73126 538.9994 347.65314Q538.7025 348.575 538.0775 349.09064Q537.46814 349.59064 536.515 349.59064Q535.28064 349.59064 534.5619 348.7Q533.71814 347.6375 533.71814 345.21564ZM534.79626 345.21564Q534.79626 347.325 535.29626 348.02814Q535.79626 348.73126 536.515 348.73126Q537.2494 348.73126 537.73376 348.02814Q538.23376 347.325 538.23376 345.21564Q538.23376 343.09064 537.73376 342.40314Q537.2494 341.7 536.4994 341.7Q535.78064 341.7 535.34314 342.3094Q534.79626 343.09064 534.79626 345.21564ZM540.71814 345.21564Q540.71814 343.6844 541.03064 342.7625Q541.34314 341.825 541.9525 341.325Q542.5775 340.825 543.515 340.825Q544.2025 340.825 544.71814 341.10626Q545.2494 341.3875 545.59314 341.91876Q545.9369 342.4344 546.1244 343.1844Q546.3119 343.9344 546.3119 345.21564Q546.3119 346.73126 545.9994 347.65314Q545.7025 348.575 545.0775 349.09064Q544.46814 349.59064 543.515 349.59064Q542.28064 349.59064 541.5619 348.7Q540.71814 347.6375 540.71814 345.21564ZM541.79626 345.21564Q541.79626 347.325 542.29626 348.02814Q542.79626 348.73126 543.515 348.73126Q544.2494 348.73126 544.73376 348.02814Q545.23376 347.325 545.23376 345.21564Q545.23376 343.09064 544.73376 342.40314Q544.2494 341.7 543.4994 341.7Q542.78064 341.7 542.34314 342.3094Q541.79626 343.09064 541.79626 345.21564Z" fill-rule="nonzero"/><path stroke="#4285f4" stroke-width="4.0" stroke-linecap="butt" d="M225.5 61.916668L237.5 61.916668" fill-rule="nonzero"/><path fill="#1a1a1a" d="M249.96875 65.916664L248.92188 65.916664L248.92188 59.197914Q248.53125 59.55729 247.90625 59.93229Q247.29688 60.291664 246.8125 60.46354L246.8125 59.447914Q247.6875 59.02604 248.34375 58.447914Q249.01562 57.854164 249.29688 57.291664L249.96875 57.291664L249.96875 65.916664ZM253.39062 65.916664L253.39062 57.322914L255.10938 57.322914L257.14062 63.40104Q257.42188 64.260414 257.54688 64.68229Q257.6875 64.21354 258.0 63.30729L260.0625 57.322914L261.59375 57.322914L261.59375 65.916664L260.5 65.916664L260.5 58.729164L258.0 65.916664L256.96875 65.916664L254.48438 58.604164L254.48438 65.916664L253.39062 65.916664ZM262.375 65.916664L262.375 57.322914L265.60938 57.322914Q266.59375 57.322914 267.1875 57.58854Q267.78125 57.854164 268.10938 58.40104Q268.45312 58.93229 268.45312 59.52604Q268.45312 60.072914 268.15625 60.55729Q267.85938 61.041664 267.25 61.33854Q268.03125 61.572914 268.4375 62.135414Q268.85938 62.68229 268.85938 63.43229Q268.85938 64.02604 268.60938 64.55729Q268.35938 65.072914 267.98438 65.354164Q267.60938 65.635414 267.03125 65.77604Q266.46875 65.916664 265.65625 65.916664L262.375 65.916664ZM263.51562 60.93229L265.375 60.93229Q266.125 60.93229 266.45312 60.83854Q266.89062 60.71354 267.10938 60.416664Q267.32812 60.104164 267.32812 59.65104Q267.32812 59.229164 267.125 58.90104Q266.92188 58.572914 266.53125 58.46354Q266.15625 58.33854 265.23438 58.33854L263.51562 58.33854L263.51562 60.93229ZM263.51562 64.90104L265.65625 64.90104Q266.20312 64.90104 266.42188 64.854164Q266.82812 64.791664 267.07812 64.635414Q267.34375 64.46354 267.51562 64.15104Q267.6875 63.83854 267.6875 63.43229Q267.6875 62.947914 267.4375 62.58854Q267.20312 62.229164 266.76562 62.08854Q266.32812 61.947914 265.5 61.947914L263.51562 61.947914L263.51562 64.90104Z" fill-rule="nonzero"/><path stroke="#ea4335" stroke-width="4.0" stroke-linecap="butt" d="M285.5 61.916668L297.5 61.916668" fill-rule="nonzero"/><path fill="#1a1a1a" d="M309.96875 65.916664L308.92188 65.916664L308.92188 59.197914Q308.53125 59.55729 307.90625 59.93229Q307.29688 60.291664 306.8125 60.46354L306.8125 59.447914Q307.6875 59.02604 308.34375 58.447914Q309.01562 57.854164 309.29688 57.291664L309.96875 57.291664L309.96875 65.916664ZM313.39062 65.916664L313.39062 57.322914L315.10938 57.322914L317.14062 63.40104Q317.42188 64.260414 317.54688 64.68229Q317.6875 64.21354 318.0 63.30729L320.0625 57.322914L321.59375 57.322914L321.59375 65.916664L320.5 65.916664L320.5 58.729164L318.0 65.916664L316.96875 65.916664L314.48438 58.604164L314.48438 65.916664L313.39062 65.916664ZM322.375 65.916664L322.375 57.322914L325.60938 57.322914Q326.59375 57.322914 327.1875 57.58854Q327.78125 57.854164 328.10938 58.40104Q328.45312 58.93229 328.45312 59.52604Q328.45312 60.072914 328.15625 60.55729Q327.85938 61.041664 327.25 61.33854Q328.03125 61.572914 328.4375 62.135414Q328.85938 62.68229 328.85938 63.43229Q328.85938 64.02604 328.60938 64.55729Q328.35938 65.072914 327.98438 65.354164Q327.60938 65.635414 327.03125 65.77604Q326.46875 65.916664 325.65625 65.916664L322.375 65.916664ZM323.51562 60.93229L325.375 60.93229Q326.125 60.93229 326.45312 60.83854Q326.89062 60.71354 327.10938 60.416664Q327.32812 60.104164 327.32812 59.65104Q327.32812 59.229164 327.125 58.90104Q326.92188 58.572914 326.53125 58.46354Q326.15625 58.33854 325.23438 58.33854L323.51562 58.33854L323.51562 60.93229ZM323.51562 64.90104L325.65625 64.90104Q326.20312 64.90104 326.42188 64.854164Q326.82812 64.791664 327.07812 64.635414Q327.34375 64.46354 327.51562 64.15104Q327.6875 63.83854 327.6875 63.43229Q327.6875 62.947914 327.4375 62.58854Q327.20312 62.229164 326.76562 62.08854Q326.32812 61.947914 325.5 61.947914L323.51562 61.947914L323.51562 64.90104ZM334.4375 65.916664L332.53125 59.697914L333.625 59.697914L334.60938 63.291664L334.98438 64.61979Q335.01562 64.52604 335.3125 63.33854L336.29688 59.697914L337.375 59.697914L338.3125 63.30729L338.625 64.49479L338.98438 63.291664L340.04688 59.697914L341.07812 59.697914L339.125 65.916664L338.03125 65.916664L337.04688 62.18229L336.79688 61.135414L335.54688 65.916664L334.4375 65.916664ZM341.5 66.05729L343.98438 57.18229L344.82812 57.18229L342.34375 66.05729L341.5 66.05729ZM345.375 65.916664L345.375 57.322914L346.51562 57.322914L346.51562 61.58854L350.78125 57.322914L352.32812 57.322914L348.71875 60.80729L352.48438 65.916664L350.98438 65.916664L347.92188 61.572914L346.51562 62.93229L346.51562 65.916664L345.375 65.916664ZM355.60938 65.916664L355.60938 58.33854L352.78125 58.33854L352.78125 57.322914L359.59375 57.322914L359.59375 58.33854L356.75 58.33854L356.75 65.916664L355.60938 65.916664ZM360.375 65.916664L360.375 57.322914L361.51562 57.322914L361.51562 64.90104L365.75 64.90104L365.75 65.916664L360.375 65.916664ZM367.04688 63.15104L368.10938 63.05729Q368.1875 63.71354 368.46875 64.11979Q368.75 64.52604 369.32812 64.791664Q369.92188 65.041664 370.65625 65.041664Q371.29688 65.041664 371.79688 64.854164Q372.29688 64.65104 372.53125 64.322914Q372.78125 63.979164 372.78125 63.58854Q372.78125 63.18229 372.54688 62.885414Q372.3125 62.572914 371.78125 62.36979Q371.42188 62.229164 370.23438 61.947914Q369.0625 61.666664 368.59375 61.416664Q367.96875 61.08854 367.67188 60.61979Q367.375 60.135414 367.375 59.541664Q367.375 58.90104 367.73438 58.33854Q368.10938 57.760414 368.8125 57.479164Q369.53125 57.18229 370.39062 57.18229Q371.34375 57.18229 372.07812 57.49479Q372.8125 57.791664 373.20312 58.40104Q373.59375 58.99479 373.625 59.74479L372.53125 59.822914Q372.4375 59.010414 371.92188 58.604164Q371.42188 58.18229 370.4375 58.18229Q369.40625 58.18229 368.9375 58.55729Q368.46875 58.93229 368.46875 59.46354Q368.46875 59.93229 368.79688 60.229164Q369.125 60.52604 370.5 60.83854Q371.89062 61.15104 372.40625 61.385414Q373.15625 61.74479 373.51562 62.27604Q373.875 62.791664 373.875 63.49479Q373.875 64.18229 373.48438 64.791664Q373.09375 65.385414 372.35938 65.729164Q371.625 66.05729 370.70312 66.05729Q369.53125 66.05729 368.73438 65.729164Q367.95312 65.385414 367.5 64.697914Q367.0625 64.010414 367.04688 63.15104Z" fill-rule="nonzero"/><path fill="#757575" d="M199.79688 37.55L199.79688 27.175L201.375 27.175L201.375 28.753124Q201.98438 27.64375 202.5 27.3Q203.01562 26.940624 203.625 26.940624Q204.51562 26.940624 205.4375 27.503124L204.82812 29.14375Q204.1875 28.753124 203.54688 28.753124Q202.96875 28.753124 202.5 29.1125Q202.04688 29.45625 201.84375 30.065624Q201.5625 31.003124 201.5625 32.1125L201.5625 37.55L199.79688 37.55ZM213.92188 34.20625L215.73438 34.440624Q215.3125 36.01875 214.14062 36.909374Q212.98438 37.784374 211.17188 37.784374Q208.90625 37.784374 207.5625 36.39375Q206.23438 34.9875 206.23438 32.45625Q206.23438 29.83125 207.57812 28.39375Q208.92188 26.940624 211.07812 26.940624Q213.15625 26.940624 214.46875 28.3625Q215.79688 29.76875 215.79688 32.346874Q215.79688 32.503124 215.78125 32.815624L208.04688 32.815624Q208.14062 34.51875 209.01562 35.425Q209.89062 36.33125 211.1875 36.33125Q212.15625 36.33125 212.82812 35.83125Q213.51562 35.315624 213.92188 34.20625ZM208.14062 31.3625L213.9375 31.3625Q213.82812 30.065624 213.28125 29.409374Q212.4375 28.39375 211.09375 28.39375Q209.89062 28.39375 209.0625 29.20625Q208.23438 30.003124 208.14062 31.3625ZM224.4375 41.51875L224.4375 36.440624Q224.01562 37.01875 223.28125 37.409374Q222.54688 37.784374 221.71875 37.784374Q219.875 37.784374 218.53125 36.315624Q217.20312 34.83125 217.20312 32.26875Q217.20312 30.70625 217.73438 29.471874Q218.28125 28.221874 219.3125 27.58125Q220.34375 26.940624 221.57812 26.940624Q223.5 26.940624 224.60938 28.565624L224.60938 27.175L226.1875 27.175L226.1875 41.51875L224.4375 41.51875ZM219.01562 32.33125Q219.01562 34.33125 219.84375 35.33125Q220.6875 36.33125 221.85938 36.33125Q222.98438 36.33125 223.79688 35.39375Q224.60938 34.440624 224.60938 32.4875Q224.60938 30.425 223.75 29.378124Q222.89062 28.33125 221.75 28.33125Q220.60938 28.33125 219.8125 29.3Q219.01562 30.26875 219.01562 32.33125ZM235.60938 37.55L235.60938 36.01875Q234.40625 37.784374 232.32812 37.784374Q231.40625 37.784374 230.60938 37.440624Q229.8125 37.08125 229.42188 36.55Q229.04688 36.01875 228.89062 35.2375Q228.78125 34.721874 228.78125 33.596874L228.78125 27.175L230.53125 27.175L230.53125 32.925Q230.53125 34.3 230.64062 34.784374Q230.8125 35.471874 231.34375 35.878124Q231.89062 36.26875 232.67188 36.26875Q233.46875 36.26875 234.15625 35.8625Q234.85938 35.45625 235.14062 34.76875Q235.4375 34.065624 235.4375 32.7375L235.4375 27.175L237.1875 27.175L237.1875 37.55L235.60938 37.55ZM245.92188 34.20625L247.73438 34.440624Q247.3125 36.01875 246.14062 36.909374Q244.98438 37.784374 243.17188 37.784374Q240.90625 37.784374 239.5625 36.39375Q238.23438 34.9875 238.23438 32.45625Q238.23438 29.83125 239.57812 28.39375Q240.92188 26.940624 243.07812 26.940624Q245.15625 26.940624 246.46875 28.3625Q247.79688 29.76875 247.79688 32.346874Q247.79688 32.503124 247.78125 32.815624L240.04688 32.815624Q240.14062 34.51875 241.01562 35.425Q241.89062 36.33125 243.1875 36.33125Q244.15625 36.33125 244.82812 35.83125Q245.51562 35.315624 245.92188 34.20625ZM240.14062 31.3625L245.9375 31.3625Q245.82812 30.065624 245.28125 29.409374Q244.4375 28.39375 243.09375 28.39375Q241.89062 28.39375 241.0625 29.20625Q240.23438 30.003124 240.14062 31.3625ZM249.10938 34.45625L250.85938 34.175Q251.0 35.221874 251.67188 35.784374Q252.34375 36.33125 253.54688 36.33125Q254.75 36.33125 255.32812 35.846874Q255.92188 35.346874 255.92188 34.690624Q255.92188 34.096874 255.40625 33.753124Q255.04688 33.51875 253.60938 33.159374Q251.67188 32.659374 250.92188 32.315624Q250.1875 31.95625 249.79688 31.33125Q249.40625 30.690624 249.40625 29.925Q249.40625 29.2375 249.71875 28.64375Q250.04688 28.05 250.59375 27.659374Q251.0 27.3625 251.70312 27.159374Q252.42188 26.940624 253.23438 26.940624Q254.45312 26.940624 255.375 27.3Q256.29688 27.64375 256.73438 28.253124Q257.17188 28.846874 257.34375 29.846874L255.625 30.08125Q255.5 29.284374 254.9375 28.846874Q254.375 28.39375 253.35938 28.39375Q252.14062 28.39375 251.625 28.8Q251.10938 29.190624 251.10938 29.721874Q251.10938 30.065624 251.32812 30.346874Q251.53125 30.628124 252.0 30.815624Q252.26562 30.909374 253.54688 31.253124Q255.42188 31.753124 256.15625 32.08125Q256.89062 32.39375 257.3125 33.003124Q257.73438 33.596874 257.73438 34.503124Q257.73438 35.378124 257.21875 36.159374Q256.70312 36.940624 255.73438 37.3625Q254.76562 37.784374 253.54688 37.784374Q251.53125 37.784374 250.46875 36.940624Q249.40625 36.096874 249.10938 34.45625ZM263.65625 35.971874L263.90625 37.534374Q263.17188 37.690624 262.57812 37.690624Q261.625 37.690624 261.09375 37.39375Q260.57812 37.08125 260.35938 36.596874Q260.14062 36.096874 260.14062 34.51875L260.14062 28.55L258.85938 28.55L258.85938 27.175L260.14062 27.175L260.14062 24.6125L261.89062 23.55L261.89062 27.175L263.65625 27.175L263.65625 28.55L261.89062 28.55L261.89062 34.6125Q261.89062 35.3625 261.98438 35.58125Q262.07812 35.784374 262.28125 35.925Q262.5 36.05 262.89062 36.05Q263.17188 36.05 263.65625 35.971874ZM265.10938 34.45625L266.85938 34.175Q267.0 35.221874 267.67188 35.784374Q268.34375 36.33125 269.54688 36.33125Q270.75 36.33125 271.32812 35.846874Q271.92188 35.346874 271.92188 34.690624Q271.92188 34.096874 271.40625 33.753124Q271.04688 33.51875 269.60938 33.159374Q267.67188 32.659374 266.92188 32.315624Q266.1875 31.95625 265.79688 31.33125Q265.40625 30.690624 265.40625 29.925Q265.40625 29.2375 265.71875 28.64375Q266.04688 28.05 266.59375 27.659374Q267.0 27.3625 267.70312 27.159374Q268.42188 26.940624 269.23438 26.940624Q270.45312 26.940624 271.375 27.3Q272.29688 27.64375 272.73438 28.253124Q273.17188 28.846874 273.34375 29.846874L271.625 30.08125Q271.5 29.284374 270.9375 28.846874Q270.375 28.39375 269.35938 28.39375Q268.14062 28.39375 267.625 28.8Q267.10938 29.190624 267.10938 29.721874Q267.10938 30.065624 267.32812 30.346874Q267.53125 30.628124 268.0 30.815624Q268.26562 30.909374 269.54688 31.253124Q271.42188 31.753124 272.15625 32.08125Q272.89062 32.39375 273.3125 33.003124Q273.73438 33.596874 273.73438 34.503124Q273.73438 35.378124 273.21875 36.159374Q272.70312 36.940624 271.73438 37.3625Q270.76562 37.784374 269.54688 37.784374Q267.53125 37.784374 266.46875 36.940624Q265.40625 36.096874 265.10938 34.45625ZM274.5 37.8L278.65625 22.9875L280.0625 22.9875L275.92188 37.8L274.5 37.8ZM281.10938 34.45625L282.85938 34.175Q283.0 35.221874 283.67188 35.784374Q284.34375 36.33125 285.54688 36.33125Q286.75 36.33125 287.32812 35.846874Q287.92188 35.346874 287.92188 34.690624Q287.92188 34.096874 287.40625 33.753124Q287.04688 33.51875 285.60938 33.159374Q283.67188 32.659374 282.92188 32.315624Q282.1875 31.95625 281.79688 31.33125Q281.40625 30.690624 281.40625 29.925Q281.40625 29.2375 281.71875 28.64375Q282.04688 28.05 282.59375 27.659374Q283.0 27.3625 283.70312 27.159374Q284.42188 26.940624 285.23438 26.940624Q286.45312 26.940624 287.375 27.3Q288.29688 27.64375 288.73438 28.253124Q289.17188 28.846874 289.34375 29.846874L287.625 30.08125Q287.5 29.284374 286.9375 28.846874Q286.375 28.39375 285.35938 28.39375Q284.14062 28.39375 283.625 28.8Q283.10938 29.190624 283.10938 29.721874Q283.10938 30.065624 283.32812 30.346874Q283.53125 30.628124 284.0 30.815624Q284.26562 30.909374 285.54688 31.253124Q287.42188 31.753124 288.15625 32.08125Q288.89062 32.39375 289.3125 33.003124Q289.73438 33.596874 289.73438 34.503124Q289.73438 35.378124 289.21875 36.159374Q288.70312 36.940624 287.73438 37.3625Q286.76562 37.784374 285.54688 37.784374Q283.53125 37.784374 282.46875 36.940624Q281.40625 36.096874 281.10938 34.45625ZM299.73438 37.55L296.5625 27.175L298.375 27.175L300.03125 33.159374L300.64062 35.39375Q300.6875 35.221874 301.17188 33.253124L302.82812 27.175L304.64062 27.175L306.1875 33.190624L306.70312 35.175L307.29688 33.175L309.07812 27.175L310.78125 27.175L307.54688 37.55L305.71875 37.55L304.0625 31.33125L303.67188 29.565624L301.5625 37.55L299.73438 37.55ZM311.5 37.8L315.65625 22.9875L317.0625 22.9875L312.92188 37.8L311.5 37.8ZM324.8125 37.55L324.8125 23.2375L326.57812 23.2375L326.57812 28.3625Q327.8125 26.940624 329.6875 26.940624Q330.82812 26.940624 331.67188 27.39375Q332.53125 27.846874 332.89062 28.659374Q333.26562 29.45625 333.26562 30.971874L333.26562 37.55L331.51562 37.55L331.51562 30.971874Q331.51562 29.659374 330.9375 29.065624Q330.35938 28.45625 329.32812 28.45625Q328.54688 28.45625 327.84375 28.8625Q327.15625 29.26875 326.85938 29.971874Q326.57812 30.659374 326.57812 31.878124L326.57812 37.55L324.8125 37.55ZM341.60938 37.55L341.60938 36.01875Q340.40625 37.784374 338.32812 37.784374Q337.40625 37.784374 336.60938 37.440624Q335.8125 37.08125 335.42188 36.55Q335.04688 36.01875 334.89062 35.2375Q334.78125 34.721874 334.78125 33.596874L334.78125 27.175L336.53125 27.175L336.53125 32.925Q336.53125 34.3 336.64062 34.784374Q336.8125 35.471874 337.34375 35.878124Q337.89062 36.26875 338.67188 36.26875Q339.46875 36.26875 340.15625 35.8625Q340.85938 35.45625 341.14062 34.76875Q341.4375 34.065624 341.4375 32.7375L341.4375 27.175L343.1875 27.175L343.1875 37.55L341.60938 37.55ZM344.79688 37.55L344.79688 27.175L346.375 27.175L346.375 28.753124Q346.98438 27.64375 347.5 27.3Q348.01562 26.940624 348.625 26.940624Q349.51562 26.940624 350.4375 27.503124L349.82812 29.14375Q349.1875 28.753124 348.54688 28.753124Q347.96875 28.753124 347.5 29.1125Q347.04688 29.45625 346.84375 30.065624Q346.5625 31.003124 346.5625 32.1125L346.5625 37.55L344.79688 37.55ZM351.78125 37.55L351.78125 23.2375L353.53125 23.2375L353.53125 37.55L351.78125 37.55ZM367.95312 37.55L366.1875 37.55L366.1875 26.346874Q365.5625 26.95625 364.53125 27.565624Q363.5 28.159374 362.67188 28.471874L362.67188 26.76875Q364.15625 26.08125 365.25 25.096874Q366.35938 24.096874 366.8125 23.175L367.95312 23.175L367.95312 37.55ZM372.98438 37.55L372.98438 23.2375L375.84375 23.2375L379.21875 33.3625Q379.6875 34.784374 379.90625 35.4875Q380.15625 34.70625 380.67188 33.190624L384.09375 23.2375L386.64062 23.2375L386.64062 37.55L384.82812 37.55L384.82812 25.565624L380.65625 37.55L378.95312 37.55L374.8125 25.3625L374.8125 37.55L372.98438 37.55ZM389.96875 37.55L389.96875 23.2375L395.34375 23.2375Q396.98438 23.2375 397.96875 23.675Q398.95312 24.096874 399.51562 25.003124Q400.07812 25.909374 400.07812 26.89375Q400.07812 27.815624 399.57812 28.628124Q399.09375 29.440624 398.07812 29.925Q399.375 30.315624 400.07812 31.2375Q400.78125 32.14375 400.78125 33.39375Q400.78125 34.409374 400.34375 35.26875Q399.92188 36.128124 399.29688 36.596874Q398.67188 37.065624 397.73438 37.315624Q396.79688 37.55 395.42188 37.55L389.96875 37.55ZM391.85938 29.253124L394.95312 29.253124Q396.21875 29.253124 396.76562 29.08125Q397.48438 28.8625 397.84375 28.378124Q398.21875 27.878124 398.21875 27.1125Q398.21875 26.409374 397.875 25.8625Q397.53125 25.315624 396.89062 25.128124Q396.26562 24.925 394.71875 24.925L391.85938 24.925L391.85938 29.253124ZM391.85938 35.8625L395.42188 35.8625Q396.34375 35.8625 396.71875 35.784374Q397.375 35.675 397.8125 35.409374Q398.25 35.128124 398.53125 34.6125Q398.8125 34.08125 398.8125 33.39375Q398.8125 32.596874 398.40625 32.003124Q398.0 31.409374 397.26562 31.175Q396.53125 30.940624 395.17188 30.940624L391.85938 30.940624L391.85938 35.8625Z" fill-rule="nonzero"/></svg>