<svg version="1.1" viewBox="0.0 0.0 600.0 371.0" fill="none" stroke="none" stroke-linecap="square" stroke-miterlimit="10" width="600" height="371" xmlns:xlink="http://www.w3.org/1999/xlink" xmlns="http://www.w3.org/2000/svg"><path fill="#ffffff" d="M0 0L600.0 0L600.0 371.0L0 371.0L0 0Z" fill-rule="nonzero"/><path stroke="#cccccc" stroke-width="1.0" stroke-linecap="butt" d="M59.5 88.5L59.5 332.5" fill-rule="nonzero"/><path stroke="#cccccc" stroke-width="1.0" stroke-linecap="butt" d="M217.5 88.5L217.5 332.5" fill-rule="nonzero"/><path stroke="#cccccc" stroke-width="1.0" stroke-linecap="butt" d="M375.5 88.5L375.5 332.5" fill-rule="nonzero"/><path stroke="#cccccc" stroke-width="1.0" stroke-linecap="butt" d="M533.5 88.5L533.5 332.5" fill-rule="nonzero"/><path stroke="#333333" stroke-width="1.0" stroke-linecap="butt" d="M59.5 332.5L581.5 332.5" fill-rule="nonzero"/><path stroke="#cccccc" stroke-width="1.0" stroke-linecap="butt" d="M59.5 283.5L581.5 283.5" fill-rule="nonzero"/><path stroke="#cccccc" stroke-width="1.0" stroke-linecap="butt" d="M59.5 234.5L581.5 234.5" fill-rule="nonzero"/><path stroke="#cccccc" stroke-width="1.0" stroke-linecap="butt" d="M59.5 185.5L581.5 185.5" fill-rule="nonzero"/><path stroke="#cccccc" stroke-width="1.0" stroke-linecap="butt" d="M59.5 137.5L581.5 137.5" fill-rule="nonzero"/><path stroke="#cccccc" stroke-width="1.0" stroke-linecap="butt" d="M59.5 88.5L581.5 88.5" fill-rule="nonzero"/><clipPath id="id_0"><path d="M59.55 88.28333L581.45 88.28333L581.45 332.45L59.55 332.45L59.55 88.28333Z" clip-rule="nonzero"/></clipPath><path stroke="#4285f4" stroke-width="2.0" stroke-linecap="butt" clip-path="url(#id_0)" d="M59.55 327.11218L217.65218 290.40536L265.24567 262.82382L328.16083 216.35426L375.75433 184.24815L486.263 138.54265L581.45 122.0219" fill-rule="nonzero"/><path stroke="#ea4335" stroke-width="2.0" stroke-linecap="butt" clip-path="url(#id_0)" d="M59.55 327.18146L217.65218 292.61932L265.24567 268.99646L328.16083 232.46736L375.75433 201.83022L486.263 169.34238L581.45 160.58284" fill-rule="nonzero"/><path fill="#000000" fill-opacity="0.0" clip-path="url(#id_0)" d="M62.55 327.11218C62.55 328.76904 61.206856 330.11218 59.55 330.11218C57.893147 330.11218 56.55 328.76904 56.55 327.11218C56.55 325.45532 57.893147 324.11218 59.55 324.11218C61.206856 324.11218 62.55 325.45532 62.55 327.11218Z" fill-rule="nonzero"/><path fill="#000000" fill-opacity="0.0" clip-path="url(#id_0)" d="M220.65218 290.40536C220.65218 292.06223 219.30902 293.40536 217.65218 293.40536C215.99532 293.40536 214.65218 292.06223 214.65218 290.40536C214.65218 288.74854 215.99532 287.40536 217.65218 287.40536C219.30902 287.40536 220.65218 288.74854 220.65218 290.40536Z" fill-rule="nonzero"/><path fill="#000000" fill-opacity="0.0" clip-path="url(#id_0)" d="M268.24567 262.82382C268.24567 264.48068 266.90253 265.82382 265.24567 265.82382C263.5888 265.82382 262.24567 264.48068 262.24567 262.82382C262.24567 261.16696 263.5888 259.82382 265.24567 259.82382C266.90253 259.82382 268.24567 261.16696 268.24567 262.82382Z" fill-rule="nonzero"/><path fill="#000000" fill-opacity="0.0" clip-path="url(#id_0)" d="M331.16083 216.35426C331.16083 218.01112 329.8177 219.35426 328.16083 219.35426C326.504 219.35426 325.16083 218.01112 325.16083 216.35426C325.16083 214.69742 326.504 213.35426 328.16083 213.35426C329.8177 213.35426 331.16083 214.69742 331.16083 216.35426Z" fill-rule="nonzero"/><path fill="#000000" fill-opacity="0.0" clip-path="url(#id_0)" d="M378.75433 184.24815C378.75433 185.90501 377.4112 187.24815 375.75433 187.24815C374.09747 187.24815 372.75433 185.90501 372.75433 184.24815C372.75433 182.59131 374.09747 181.24815 375.75433 181.24815C377.4112 181.24815 378.75433 182.59131 378.75433 184.24815Z" fill-rule="nonzero"/><path fill="#000000" fill-opacity="0.0" clip-path="url(#id_0)" d="M489.263 138.54265C489.263 140.19951 487.91986 141.54265 486.263 141.54265C484.60617 141.54265 483.263 140.19951 483.263 138.54265C483.263 136.88579 484.60617 135.54265 486.263 135.54265C487.91986 135.54265 489.263 136.88579 489.263 138.54265Z" fill-rule="nonzero"/><path fill="#000000" fill-opacity="0.0" clip-path="url(#id_0)" d="M584.45 122.0219C584.45 123.67875 583.1069 125.0219 581.45 125.0219C579.79315 125.0219 578.45 123.67875 578.45 122.0219C578.45 120.365036 579.79315 119.0219 581.45 119.0219C583.1069 119.0219 584.45 120.365036 584.45 122.0219Z" fill-rule="nonzero"/><path fill="#000000" fill-opacity="0.0" clip-path="url(#id_0)" d="M62.55 327.18146C62.55 328.83832 61.206856 330.18146 59.55 330.18146C57.893147 330.18146 56.55 328.83832 56.55 327.18146C56.55 325.52463 57.893147 324.18146 59.55 324.18146C61.206856 324.18146 62.55 325.52463 62.55 327.18146Z" fill-rule="nonzero"/><path fill="#000000" fill-opacity="0.0" clip-path="url(#id_0)" d="M220.65218 292.61932C220.65218 294.27618 219.30902 295.61932 217.65218 295.61932C215.99532 295.61932 214.65218 294.27618 214.65218 292.61932C214.65218 290.9625 215.99532 289.61932 217.65218 289.61932C219.30902 289.61932 220.65218 290.9625 220.65218 292.61932Z" fill-rule="nonzero"/><path fill="#000000" fill-opacity="0.0" clip-path="url(#id_0)" d="M268.24567 268.99646C268.24567 270.65332 266.90253 271.99646 265.24567 271.99646C263.5888 271.99646 262.24567 270.65332 262.24567 268.99646C262.24567 267.3396 263.5888 265.99646 265.24567 265.99646C266.90253 265.99646 268.24567 267.3396 268.24567 268.99646Z" fill-rule="nonzero"/><path fill="#000000" fill-opacity="0.0" clip-path="url(#id_0)" d="M331.16083 232.46736C331.16083 234.12422 329.8177 235.46736 328.16083 235.46736C326.504 235.46736 325.16083 234.12422 325.16083 232.46736C325.16083 230.81052 326.504 229.46736 328.16083 229.46736C329.8177 229.46736 331.16083 230.81052 331.16083 232.46736Z" fill-rule="nonzero"/><path fill="#000000" fill-opacity="0.0" clip-path="url(#id_0)" d="M378.75433 201.83022C378.75433 203.48706 377.4112 204.83022 375.75433 204.83022C374.09747 204.83022 372.75433 203.48706 372.75433 201.83022C372.75433 200.17336 374.09747 198.83022 375.75433 198.83022C377.4112 198.83022 378.75433 200.17336 378.75433 201.83022Z" fill-rule="nonzero"/><path fill="#000000" fill-opacity="0.0" clip-path="url(#id_0)" d="M489.263 169.34238C489.263 170.99922 487.91986 172.34238 486.263 172.34238C484.60617 172.34238 483.263 170.99922 483.263 169.34238C483.263 167.68552 484.60617 166.34238 486.263 166.34238C487.91986 166.34238 489.263 167.68552 489.263 169.34238Z" fill-rule="nonzero"/><path fill="#000000" fill-opacity="0.0" clip-path="url(#id_0)" d="M584.45 160.58284C584.45 162.2397 583.1069 163.58284 581.45 163.58284C579.79315 163.58284 578.45 162.2397 578.45 160.58284C578.45 158.92598 579.79315 157.58284 581.45 157.58284C583.1069 157.58284 584.45 158.92598 584.45 160.58284Z" fill-rule="nonzero"/><path fill="#000000" d="M47.05 332.21564Q47.05 330.6844 47.3625 329.7625Q47.675 328.825 48.284374 328.325Q48.909374 327.825 49.846874 327.825Q50.534374 327.825 51.05 328.10626Q51.58125 328.3875 51.925 328.91876Q52.26875 329.4344 52.45625 330.1844Q52.64375 330.9344 52.64375 332.21564Q52.64375 333.73126 52.33125 334.65314Q52.034374 335.575 51.409374 336.09064Q50.8 336.59064 49.846874 336.59064Q48.6125 336.59064 47.89375 335.7Q47.05 334.6375 47.05 332.21564ZM48.128124 332.21564Q48.128124 334.325 48.628124 335.02814Q49.128124 335.73126 49.846874 335.73126Q50.58125 335.73126 51.065624 335.02814Q51.565624 334.325 51.565624 332.21564Q51.565624 330.09064 51.065624 329.40314Q50.58125 328.7 49.83125 328.7Q49.1125 328.7 48.675 329.3094Q48.128124 330.09064 48.128124 332.21564Z" fill-rule="nonzero"/><path fill="#000000" d="M23.01875 287.61667L21.971874 287.61667L21.971874 280.89792Q21.58125 281.2573 20.95625 281.6323Q20.346874 281.99167 19.8625 282.16354L19.8625 281.14792Q20.7375 280.72604 21.39375 280.14792Q22.065624 279.55417 22.346874 278.99167L23.01875 278.99167L23.01875 287.61667ZM26.05 283.3823Q26.05 281.85104 26.3625 280.92917Q26.675 279.99167 27.284374 279.49167Q27.909374 278.99167 28.846874 278.99167Q29.534374 278.99167 30.05 279.27292Q30.58125 279.55417 30.925 280.08542Q31.26875 280.60104 31.45625 281.35104Q31.64375 282.10104 31.64375 283.3823Q31.64375 284.89792 31.33125 285.8198Q31.034374 286.74167 30.409374 287.2573Q29.8 287.7573 28.846874 287.7573Q27.6125 287.7573 26.89375 286.86667Q26.05 285.80417 26.05 283.3823ZM27.128124 283.3823Q27.128124 285.49167 27.628124 286.1948Q28.128124 286.89792 28.846874 286.89792Q29.58125 286.89792 30.065624 286.1948Q30.565624 285.49167 30.565624 283.3823Q30.565624 281.2573 30.065624 280.5698Q29.58125 279.86667 28.83125 279.86667Q28.1125 279.86667 27.675 280.47604Q27.128124 281.2573 27.128124 283.3823ZM33.05 283.3823Q33.05 281.85104 33.3625 280.92917Q33.675 279.99167 34.284374 279.49167Q34.909374 278.99167 35.846874 278.99167Q36.534374 278.99167 37.05 279.27292Q37.58125 279.55417 37.925 280.08542Q38.26875 280.60104 38.45625 281.35104Q38.64375 282.10104 38.64375 283.3823Q38.64375 284.89792 38.33125 285.8198Q38.034374 286.74167 37.409374 287.2573Q36.8 287.7573 35.846874 287.7573Q34.6125 287.7573 33.89375 286.86667Q33.05 285.80417 33.05 283.3823ZM34.128124 283.3823Q34.128124 285.49167 34.628124 286.1948Q35.128124 286.89792 35.846874 286.89792Q36.58125 286.89792 37.065624 286.1948Q37.565624 285.49167 37.565624 283.3823Q37.565624 281.2573 37.065624 280.5698Q36.58125 279.86667 35.83125 279.86667Q35.1125 279.86667 34.675 280.47604Q34.128124 281.2573 34.128124 283.3823ZM40.05 283.3823Q40.05 281.85104 40.3625 280.92917Q40.675 279.99167 41.284374 279.49167Q41.909374 278.99167 42.846874 278.99167Q43.534374 278.99167 44.05 279.27292Q44.58125 279.55417 44.925 280.08542Q45.26875 280.60104 45.45625 281.35104Q45.64375 282.10104 45.64375 283.3823Q45.64375 284.89792 45.33125 285.8198Q45.034374 286.74167 44.409374 287.2573Q43.8 287.7573 42.846874 287.7573Q41.6125 287.7573 40.89375 286.86667Q40.05 285.80417 40.05 283.3823ZM41.128124 283.3823Q41.128124 285.49167 41.628124 286.1948Q42.128124 286.89792 42.846874 286.89792Q43.58125 286.89792 44.065624 286.1948Q44.565624 285.49167 44.565624 283.3823Q44.565624 281.2573 44.065624 280.5698Q43.58125 279.86667 42.83125 279.86667Q42.1125 279.86667 41.675 280.47604Q41.128124 281.2573 41.128124 283.3823ZM47.05 283.3823Q47.05 281.85104 47.3625 280.92917Q47.675 279.99167 48.284374 279.49167Q48.909374 278.99167 49.846874 278.99167Q50.534374 278.99167 51.05 279.27292Q51.58125 279.55417 51.925 280.08542Q52.26875 280.60104 52.45625 281.35104Q52.64375 282.10104 52.64375 283.3823Q52.64375 284.89792 52.33125 285.8198Q52.034374 286.74167 51.409374 287.2573Q50.8 287.7573 49.846874 287.7573Q48.6125 287.7573 47.89375 286.86667Q47.05 285.80417 47.05 283.3823ZM48.128124 283.3823Q48.128124 285.49167 48.628124 286.1948Q49.128124 286.89792 49.846874 286.89792Q50.58125 286.89792 51.065624 286.1948Q51.565624 285.49167 51.565624 283.3823Q51.565624 281.2573 51.065624 280.5698Q50.58125 279.86667 49.83125 279.86667Q49.1125 279.86667 48.675 280.47604Q48.128124 281.2573 48.128124 283.3823Z" fill-rule="nonzero"/><path fill="#000000" d="M24.596874 237.76772L24.596874 238.78334L18.909374 238.78334Q18.909374 238.40834 19.034374 238.04897Q19.253124 237.47084 19.721874 236.90834Q20.20625 236.34584 21.1125 235.61147Q22.51875 234.45522 23.003124 233.78334Q23.503124 233.11147 23.503124 232.51772Q23.503124 231.89272 23.05 231.47084Q22.596874 231.03334 21.878124 231.03334Q21.1125 231.03334 20.659374 231.48647Q20.20625 231.93959 20.190624 232.75209L19.1125 232.64272Q19.221874 231.42397 19.940624 230.79897Q20.675 230.15834 21.909374 230.15834Q23.14375 230.15834 23.8625 230.84584Q24.58125 231.53334 24.58125 232.54897Q24.58125 233.06459 24.3625 233.56459Q24.159374 234.04897 23.659374 234.61147Q23.175 235.15834 22.05 236.11147Q21.096874 236.90834 20.815624 237.20522Q20.55 237.48647 20.378124 237.76772L24.596874 237.76772ZM26.05 234.54897Q26.05 233.01772 26.3625 232.09584Q26.675 231.15834 27.284374 230.65834Q27.909374 230.15834 28.846874 230.15834Q29.534374 230.15834 30.05 230.43959Q30.58125 230.72084 30.925 231.25209Q31.26875 231.76772 31.45625 232.51772Q31.64375 233.26772 31.64375 234.54897Q31.64375 236.06459 31.33125 236.98647Q31.034374 237.90834 30.409374 238.42397Q29.8 238.92397 28.846874 238.92397Q27.6125 238.92397 26.89375 238.03334Q26.05 236.97084 26.05 234.54897ZM27.128124 234.54897Q27.128124 236.65834 27.628124 237.36147Q28.128124 238.06459 28.846874 238.06459Q29.58125 238.06459 30.065624 237.36147Q30.565624 236.65834 30.565624 234.54897Q30.565624 232.42397 30.065624 231.73647Q29.58125 231.03334 28.83125 231.03334Q28.1125 231.03334 27.675 231.64272Q27.128124 232.42397 27.128124 234.54897ZM33.05 234.54897Q33.05 233.01772 33.3625 232.09584Q33.675 231.15834 34.284374 230.65834Q34.909374 230.15834 35.846874 230.15834Q36.534374 230.15834 37.05 230.43959Q37.58125 230.72084 37.925 231.25209Q38.26875 231.76772 38.45625 232.51772Q38.64375 233.26772 38.64375 234.54897Q38.64375 236.06459 38.33125 236.98647Q38.034374 237.90834 37.409374 238.42397Q36.8 238.92397 35.846874 238.92397Q34.6125 238.92397 33.89375 238.03334Q33.05 236.97084 33.05 234.54897ZM34.128124 234.54897Q34.128124 236.65834 34.628124 237.36147Q35.128124 238.06459 35.846874 238.06459Q36.58125 238.06459 37.065624 237.36147Q37.565624 236.65834 37.565624 234.54897Q37.565624 232.42397 37.065624 231.73647Q36.58125 231.03334 35.83125 231.03334Q35.1125 231.03334 34.675 231.64272Q34.128124 232.42397 34.128124 234.54897ZM40.05 234.54897Q40.05 233.01772 40.3625 232.09584Q40.675 231.15834 41.284374 230.65834Q41.909374 230.15834 42.846874 230.15834Q43.534374 230.15834 44.05 230.43959Q44.58125 230.72084 44.925 231.25209Q45.26875 231.76772 45.45625 232.51772Q45.64375 233.26772 45.64375 234.54897Q45.64375 236.06459 45.33125 236.98647Q45.034374 237.90834 44.409374 238.42397Q43.8 238.92397 42.846874 238.92397Q41.6125 238.92397 40.89375 238.03334Q40.05 236.97084 40.05 234.54897ZM41.128124 234.54897Q41.128124 236.65834 41.628124 237.36147Q42.128124 238.06459 42.846874 238.06459Q43.58125 238.06459 44.065624 237.36147Q44.565624 236.65834 44.565624 234.54897Q44.565624 232.42397 44.065624 231.73647Q43.58125 231.03334 42.83125 231.03334Q42.1125 231.03334 41.675 231.64272Q41.128124 232.42397 41.128124 234.54897ZM47.05 234.54897Q47.05 233.01772 47.3625 232.09584Q47.675 231.15834 48.284374 230.65834Q48.909374 230.15834 49.846874 230.15834Q50.534374 230.15834 51.05 230.43959Q51.58125 230.72084 51.925 231.25209Q52.26875 231.76772 52.45625 232.51772Q52.64375 233.26772 52.64375 234.54897Q52.64375 236.06459 52.33125 236.98647Q52.034374 237.90834 51.409374 238.42397Q50.8 238.92397 49.846874 238.92397Q48.6125 238.92397 47.89375 238.03334Q47.05 236.97084 47.05 234.54897ZM48.128124 234.54897Q48.128124 236.65834 48.628124 237.36147Q49.128124 238.06459 49.846874 238.06459Q50.58125 238.06459 51.065624 237.36147Q51.565624 236.65834 51.565624 234.54897Q51.565624 232.42397 51.065624 231.73647Q50.58125 231.03334 49.83125 231.03334Q49.1125 231.03334 48.675 231.64272Q48.128124 232.42397 48.128124 234.54897Z" fill-rule="nonzero"/><path fill="#000000" d="M19.05 187.68437L20.1125 187.54375Q20.284374 188.43437 20.721874 188.84062Q21.159374 189.23125 21.784374 189.23125Q22.534374 189.23125 23.05 188.71562Q23.565624 188.2 23.565624 187.43437Q23.565624 186.71562 23.08125 186.24687Q22.6125 185.7625 21.878124 185.7625Q21.58125 185.7625 21.128124 185.8875L21.253124 184.95Q21.3625 184.96562 21.425 184.96562Q22.096874 184.96562 22.628124 184.62187Q23.175 184.2625 23.175 183.52812Q23.175 182.95 22.784374 182.575Q22.39375 182.18437 21.76875 182.18437Q21.159374 182.18437 20.7375 182.575Q20.33125 182.96562 20.221874 183.73125L19.159374 183.54375Q19.346874 182.49687 20.034374 181.91875Q20.721874 181.325 21.7375 181.325Q22.440624 181.325 23.034374 181.6375Q23.628124 181.93437 23.940624 182.45Q24.253124 182.96562 24.253124 183.55937Q24.253124 184.10625 23.95625 184.575Q23.659374 185.02812 23.08125 185.29375Q23.83125 185.46562 24.253124 186.02812Q24.675 186.575 24.675 187.41875Q24.675 188.54375 23.846874 189.325Q23.034374 190.10625 21.784374 190.10625Q20.659374 190.10625 19.909374 189.43437Q19.159374 188.74687 19.05 187.68437ZM26.05 185.71562Q26.05 184.18437 26.3625 183.2625Q26.675 182.325 27.284374 181.825Q27.909374 181.325 28.846874 181.325Q29.534374 181.325 30.05 181.60625Q30.58125 181.8875 30.925 182.41875Q31.26875 182.93437 31.45625 183.68437Q31.64375 184.43437 31.64375 185.71562Q31.64375 187.23125 31.33125 188.15312Q31.034374 189.075 30.409374 189.59062Q29.8 190.09062 28.846874 190.09062Q27.6125 190.09062 26.89375 189.2Q26.05 188.1375 26.05 185.71562ZM27.128124 185.71562Q27.128124 187.825 27.628124 188.52812Q28.128124 189.23125 28.846874 189.23125Q29.58125 189.23125 30.065624 188.52812Q30.565624 187.825 30.565624 185.71562Q30.565624 183.59062 30.065624 182.90312Q29.58125 182.2 28.83125 182.2Q28.1125 182.2 27.675 182.80937Q27.128124 183.59062 27.128124 185.71562ZM33.05 185.71562Q33.05 184.18437 33.3625 183.2625Q33.675 182.325 34.284374 181.825Q34.909374 181.325 35.846874 181.325Q36.534374 181.325 37.05 181.60625Q37.58125 181.8875 37.925 182.41875Q38.26875 182.93437 38.45625 183.68437Q38.64375 184.43437 38.64375 185.71562Q38.64375 187.23125 38.33125 188.15312Q38.034374 189.075 37.409374 189.59062Q36.8 190.09062 35.846874 190.09062Q34.6125 190.09062 33.89375 189.2Q33.05 188.1375 33.05 185.71562ZM34.128124 185.71562Q34.128124 187.825 34.628124 188.52812Q35.128124 189.23125 35.846874 189.23125Q36.58125 189.23125 37.065624 188.52812Q37.565624 187.825 37.565624 185.71562Q37.565624 183.59062 37.065624 182.90312Q36.58125 182.2 35.83125 182.2Q35.1125 182.2 34.675 182.80937Q34.128124 183.59062 34.128124 185.71562ZM40.05 185.71562Q40.05 184.18437 40.3625 183.2625Q40.675 182.325 41.284374 181.825Q41.909374 181.325 42.846874 181.325Q43.534374 181.325 44.05 181.60625Q44.58125 181.8875 44.925 182.41875Q45.26875 182.93437 45.45625 183.68437Q45.64375 184.43437 45.64375 185.71562Q45.64375 187.23125 45.33125 188.15312Q45.034374 189.075 44.409374 189.59062Q43.8 190.09062 42.846874 190.09062Q41.6125 190.09062 40.89375 189.2Q40.05 188.1375 40.05 185.71562ZM41.128124 185.71562Q41.128124 187.825 41.628124 188.52812Q42.128124 189.23125 42.846874 189.23125Q43.58125 189.23125 44.065624 188.52812Q44.565624 187.825 44.565624 185.71562Q44.565624 183.59062 44.065624 182.90312Q43.58125 182.2 42.83125 182.2Q42.1125 182.2 41.675 182.80937Q41.128124 183.59062 41.128124 185.71562ZM47.05 185.71562Q47.05 184.18437 47.3625 183.2625Q47.675 182.325 48.284374 181.825Q48.909374 181.325 49.846874 181.325Q50.534374 181.325 51.05 181.60625Q51.58125 181.8875 51.925 182.41875Q52.26875 182.93437 52.45625 183.68437Q52.64375 184.43437 52.64375 185.71562Q52.64375 187.23125 52.33125 188.15312Q52.034374 189.075 51.409374 189.59062Q50.8 190.09062 49.846874 190.09062Q48.6125 190.09062 47.89375 189.2Q47.05 188.1375 47.05 185.71562ZM48.128124 185.71562Q48.128124 187.825 48.628124 188.52812Q49.128124 189.23125 49.846874 189.23125Q50.58125 189.23125 51.065624 188.52812Q51.565624 187.825 51.565624 185.71562Q51.565624 183.59062 51.065624 182.90312Q50.58125 182.2 49.83125 182.2Q49.1125 182.2 48.675 182.80937Q48.128124 183.59062 48.128124 185.71562Z" fill-rule="nonzero"/><path fill="#000000" d="M22.425 141.11667L22.425 139.05417L18.70625 139.05417L18.70625 138.08542L22.628124 132.52292L23.4875 132.52292L23.4875 138.08542L24.64375 138.08542L24.64375 139.05417L23.4875 139.05417L23.4875 141.11667L22.425 141.11667ZM22.425 138.08542L22.425 134.22604L19.7375 138.08542L22.425 138.08542ZM26.05 136.8823Q26.05 135.35104 26.3625 134.42917Q26.675 133.49167 27.284374 132.99167Q27.909374 132.49167 28.846874 132.49167Q29.534374 132.49167 30.05 132.77292Q30.58125 133.05417 30.925 133.58542Q31.26875 134.10104 31.45625 134.85104Q31.64375 135.60104 31.64375 136.8823Q31.64375 138.39792 31.33125 139.3198Q31.034374 140.24167 30.409374 140.7573Q29.8 141.2573 28.846874 141.2573Q27.6125 141.2573 26.89375 140.36667Q26.05 139.30417 26.05 136.8823ZM27.128124 136.8823Q27.128124 138.99167 27.628124 139.6948Q28.128124 140.39792 28.846874 140.39792Q29.58125 140.39792 30.065624 139.6948Q30.565624 138.99167 30.565624 136.8823Q30.565624 134.7573 30.065624 134.0698Q29.58125 133.36667 28.83125 133.36667Q28.1125 133.36667 27.675 133.97604Q27.128124 134.7573 27.128124 136.8823ZM33.05 136.8823Q33.05 135.35104 33.3625 134.42917Q33.675 133.49167 34.284374 132.99167Q34.909374 132.49167 35.846874 132.49167Q36.534374 132.49167 37.05 132.77292Q37.58125 133.05417 37.925 133.58542Q38.26875 134.10104 38.45625 134.85104Q38.64375 135.60104 38.64375 136.8823Q38.64375 138.39792 38.33125 139.3198Q38.034374 140.24167 37.409374 140.7573Q36.8 141.2573 35.846874 141.2573Q34.6125 141.2573 33.89375 140.36667Q33.05 139.30417 33.05 136.8823ZM34.128124 136.8823Q34.128124 138.99167 34.628124 139.6948Q35.128124 140.39792 35.846874 140.39792Q36.58125 140.39792 37.065624 139.6948Q37.565624 138.99167 37.565624 136.8823Q37.565624 134.7573 37.065624 134.0698Q36.58125 133.36667 35.83125 133.36667Q35.1125 133.36667 34.675 133.97604Q34.128124 134.7573 34.128124 136.8823ZM40.05 136.8823Q40.05 135.35104 40.3625 134.42917Q40.675 133.49167 41.284374 132.99167Q41.909374 132.49167 42.846874 132.49167Q43.534374 132.49167 44.05 132.77292Q44.58125 133.05417 44.925 133.58542Q45.26875 134.10104 45.45625 134.85104Q45.64375 135.60104 45.64375 136.8823Q45.64375 138.39792 45.33125 139.3198Q45.034374 140.24167 44.409374 140.7573Q43.8 141.2573 42.846874 141.2573Q41.6125 141.2573 40.89375 140.36667Q40.05 139.30417 40.05 136.8823ZM41.128124 136.8823Q41.128124 138.99167 41.628124 139.6948Q42.128124 140.39792 42.846874 140.39792Q43.58125 140.39792 44.065624 139.6948Q44.565624 138.99167 44.565624 136.8823Q44.565624 134.7573 44.065624 134.0698Q43.58125 133.36667 42.83125 133.36667Q42.1125 133.36667 41.675 133.97604Q41.128124 134.7573 41.128124 136.8823ZM47.05 136.8823Q47.05 135.35104 47.3625 134.42917Q47.675 133.49167 48.284374 132.99167Q48.909374 132.49167 49.846874 132.49167Q50.534374 132.49167 51.05 132.77292Q51.58125 133.05417 51.925 133.58542Q52.26875 134.10104 52.45625 134.85104Q52.64375 135.60104 52.64375 136.8823Q52.64375 138.39792 52.33125 139.3198Q52.034374 140.24167 51.409374 140.7573Q50.8 141.2573 49.846874 141.2573Q48.6125 141.2573 47.89375 140.36667Q47.05 139.30417 47.05 136.8823ZM48.128124 136.8823Q48.128124 138.99167 48.628124 139.6948Q49.128124 140.39792 49.846874 140.39792Q50.58125 140.39792 51.065624 139.6948Q51.565624 138.99167 51.565624 136.8823Q51.565624 134.7573 51.065624 134.0698Q50.58125 133.36667 49.83125 133.36667Q49.1125 133.36667 48.675 133.97604Q48.128124 134.7573 48.128124 136.8823Z" fill-rule="nonzero"/><path fill="#000000" d="M19.05 90.03333L20.159374 89.93958Q20.284374 90.75208 20.721874 91.15833Q21.175 91.56458 21.815624 91.56458Q22.565624 91.56458 23.096874 90.98646Q23.628124 90.40833 23.628124 89.47083Q23.628124 88.56458 23.1125 88.04896Q22.6125 87.51771 21.784374 87.51771Q21.284374 87.51771 20.8625 87.75208Q20.45625 87.98646 20.221874 88.34583L19.2375 88.22083L20.065624 83.81458L24.346874 83.81458L24.346874 84.81458L20.909374 84.81458L20.45625 87.12708Q21.221874 86.58021 22.065624 86.58021Q23.190624 86.58021 23.95625 87.36146Q24.7375 88.14271 24.7375 89.37708Q24.7375 90.53333 24.065624 91.39271Q23.2375 92.42396 21.815624 92.42396Q20.64375 92.42396 19.89375 91.76771Q19.159374 91.11146 19.05 90.03333ZM26.05 88.04896Q26.05 86.51771 26.3625 85.59583Q26.675 84.65833 27.284374 84.15833Q27.909374 83.65833 28.846874 83.65833Q29.534374 83.65833 30.05 83.93958Q30.58125 84.22083 30.925 84.75208Q31.26875 85.26771 31.45625 86.01771Q31.64375 86.76771 31.64375 88.04896Q31.64375 89.56458 31.33125 90.48646Q31.034374 91.40833 30.409374 91.92396Q29.8 92.42396 28.846874 92.42396Q27.6125 92.42396 26.89375 91.53333Q26.05 90.47083 26.05 88.04896ZM27.128124 88.04896Q27.128124 90.15833 27.628124 90.86146Q28.128124 91.56458 28.846874 91.56458Q29.58125 91.56458 30.065624 90.86146Q30.565624 90.15833 30.565624 88.04896Q30.565624 85.92396 30.065624 85.23646Q29.58125 84.53333 28.83125 84.53333Q28.1125 84.53333 27.675 85.14271Q27.128124 85.92396 27.128124 88.04896ZM33.05 88.04896Q33.05 86.51771 33.3625 85.59583Q33.675 84.65833 34.284374 84.15833Q34.909374 83.65833 35.846874 83.65833Q36.534374 83.65833 37.05 83.93958Q37.58125 84.22083 37.925 84.75208Q38.26875 85.26771 38.45625 86.01771Q38.64375 86.76771 38.64375 88.04896Q38.64375 89.56458 38.33125 90.48646Q38.034374 91.40833 37.409374 91.92396Q36.8 92.42396 35.846874 92.42396Q34.6125 92.42396 33.89375 91.53333Q33.05 90.47083 33.05 88.04896ZM34.128124 88.04896Q34.128124 90.15833 34.628124 90.86146Q35.128124 91.56458 35.846874 91.56458Q36.58125 91.56458 37.065624 90.86146Q37.565624 90.15833 37.565624 88.04896Q37.565624 85.92396 37.065624 85.23646Q36.58125 84.53333 35.83125 84.53333Q35.1125 84.53333 34.675 85.14271Q34.128124 85.92396 34.128124 88.04896ZM40.05 88.04896Q40.05 86.51771 40.3625 85.59583Q40.675 84.65833 41.284374 84.15833Q41.909374 83.65833 42.846874 83.65833Q43.534374 83.65833 44.05 83.93958Q44.58125 84.22083 44.925 84.75208Q45.26875 85.26771 45.45625 86.01771Q45.64375 86.76771 45.64375 88.04896Q45.64375 89.56458 45.33125 90.48646Q45.034374 91.40833 44.409374 91.92396Q43.8 92.42396 42.846874 92.42396Q41.6125 92.42396 40.89375 91.53333Q40.05 90.47083 40.05 88.04896ZM41.128124 88.04896Q41.128124 90.15833 41.628124 90.86146Q42.128124 91.56458 42.846874 91.56458Q43.58125 91.56458 44.065624 90.86146Q44.565624 90.15833 44.565624 88.04896Q44.565624 85.92396 44.065624 85.23646Q43.58125 84.53333 42.83125 84.53333Q42.1125 84.53333 41.675 85.14271Q41.128124 85.92396 41.128124 88.04896ZM47.05 88.04896Q47.05 86.51771 47.3625 85.59583Q47.675 84.65833 48.284374 84.15833Q48.909374 83.65833 49.846874 83.65833Q50.534374 83.65833 51.05 83.93958Q51.58125 84.22083 51.925 84.75208Q52.26875 85.26771 52.45625 86.01771Q52.64375 86.76771 52.64375 88.04896Q52.64375 89.56458 52.33125 90.48646Q52.034374 91.40833 51.409374 91.92396Q50.8 92.42396 49.846874 92.42396Q48.6125 92.42396 47.89375 91.53333Q47.05 90.47083 47.05 88.04896ZM48.128124 88.04896Q48.128124 90.15833 48.628124 90.86146Q49.128124 91.56458 49.846874 91.56458Q50.58125 91.56458 51.065624 90.86146Q51.565624 90.15833 51.565624 88.04896Q51.565624 85.92396 51.065624 85.23646Q50.58125 84.53333 49.83125 84.53333Q49.1125 84.53333 48.675 85.14271Q48.128124 85.92396 48.128124 88.04896Z" fill-rule="nonzero"/><path fill="#000000" d="M60.51875 349.45L59.471874 349.45L59.471874 342.73126Q59.08125 343.09064 58.45625 343.46564Q57.846874 343.825 57.3625 343.9969L57.3625 342.98126Q58.2375 342.5594 58.89375 341.98126Q59.565624 341.3875 59.846874 340.825L60.51875 340.825L60.51875 349.45Z" fill-rule="nonzero"/><path fill="#000000" d="M215.12093 349.45L214.07405 349.45L214.07405 342.73126Q213.68343 343.09064 213.05843 343.46564Q212.44905 343.825 211.96468 343.9969L211.96468 342.98126Q212.83968 342.5594 213.49593 341.98126Q214.1678 341.3875 214.44905 340.825L215.12093 340.825L215.12093 349.45ZM218.15218 345.21564Q218.15218 343.6844 218.46468 342.7625Q218.77718 341.825 219.38655 341.325Q220.01155 340.825 220.94905 340.825Q221.63655 340.825 222.15218 341.10626Q222.68343 341.3875 223.02718 341.91876Q223.37093 342.4344 223.55843 343.1844Q223.74593 343.9344 223.74593 345.21564Q223.74593 346.73126 223.43343 347.65314Q223.13655 348.575 222.51155 349.09064Q221.90218 349.59064 220.94905 349.59064Q219.71468 349.59064 218.99593 348.7Q218.15218 347.6375 218.15218 345.21564ZM219.2303 345.21564Q219.2303 347.325 219.7303 348.02814Q220.2303 348.73126 220.94905 348.73126Q221.68343 348.73126 222.1678 348.02814Q222.6678 347.325 222.6678 345.21564Q222.6678 343.09064 222.1678 342.40314Q221.68343 341.7 220.93343 341.7Q220.21468 341.7 219.77718 342.3094Q219.2303 343.09064 219.2303 345.21564Z" fill-rule="nonzero"/><path fill="#000000" d="M369.72308 349.45L368.6762 349.45L368.6762 342.73126Q368.28558 343.09064 367.66058 343.46564Q367.0512 343.825 366.56683 343.9969L366.56683 342.98126Q367.44183 342.5594 368.09808 341.98126Q368.76996 341.3875 369.0512 340.825L369.72308 340.825L369.72308 349.45ZM372.75433 345.21564Q372.75433 343.6844 373.06683 342.7625Q373.37933 341.825 373.9887 341.325Q374.6137 340.825 375.5512 340.825Q376.2387 340.825 376.75433 341.10626Q377.28558 341.3875 377.62933 341.91876Q377.97308 342.4344 378.16058 343.1844Q378.34808 343.9344 378.34808 345.21564Q378.34808 346.73126 378.03558 347.65314Q377.7387 348.575 377.1137 349.09064Q376.50433 349.59064 375.5512 349.59064Q374.31683 349.59064 373.59808 348.7Q372.75433 347.6375 372.75433 345.21564ZM373.83246 345.21564Q373.83246 347.325 374.33246 348.02814Q374.83246 348.73126 375.5512 348.73126Q376.28558 348.73126 376.76996 348.02814Q377.26996 347.325 377.26996 345.21564Q377.26996 343.09064 376.76996 342.40314Q376.28558 341.7 375.53558 341.7Q374.81683 341.7 374.37933 342.3094Q373.83246 343.09064 373.83246 345.21564ZM379.75433 345.21564Q379.75433 343.6844 380.06683 342.7625Q380.37933 341.825 380.9887 341.325Q381.6137 340.825 382.5512 340.825Q383.2387 340.825 383.75433 341.10626Q384.28558 341.3875 384.62933 341.91876Q384.97308 342.4344 385.16058 343.1844Q385.34808 343.9344 385.34808 345.21564Q385.34808 346.73126 385.03558 347.65314Q384.7387 348.575 384.1137 349.09064Q383.50433 349.59064 382.5512 349.59064Q381.31683 349.59064 380.59808 348.7Q379.75433 347.6375 379.75433 345.21564ZM380.83246 345.21564Q380.83246 347.325 381.33246 348.02814Q381.83246 348.73126 382.5512 348.73126Q383.28558 348.73126 383.76996 348.02814Q384.26996 347.325 384.26996 345.21564Q384.26996 343.09064 383.76996 342.40314Q383.28558 341.7 382.53558 341.7Q381.81683 341.7 381.37933 342.3094Q380.83246 343.09064 380.83246 345.21564Z" fill-rule="nonzero"/><path fill="#000000" d="M524.32526 349.45L523.2784 349.45L523.2784 342.73126Q522.88776 343.09064 522.26276 343.46564Q521.6534 343.825 521.169 343.9969L521.169 342.98126Q522.044 342.5594 522.70026 341.98126Q523.37213 341.3875 523.6534 340.825L524.32526 340.825L524.32526 349.45ZM527.3565 345.21564Q527.3565 343.6844 527.669 342.7625Q527.9815 341.825 528.5909 341.325Q529.2159 340.825 530.1534 340.825Q530.8409 340.825 531.3565 341.10626Q531.88776 341.3875 532.2315 341.91876Q532.57526 342.4344 532.76276 343.1844Q532.95026 343.9344 532.95026 345.21564Q532.95026 346.73126 532.63776 347.65314Q532.3409 348.575 531.7159 349.09064Q531.1065 349.59064 530.1534 349.59064Q528.919 349.59064 528.20026 348.7Q527.3565 347.6375 527.3565 345.21564ZM528.43463 345.21564Q528.43463 347.325 528.93463 348.02814Q529.43463 348.73126 530.1534 348.73126Q530.88776 348.73126 531.37213 348.02814Q531.87213 347.325 531.87213 345.21564Q531.87213 343.09064 531.37213 342.40314Q530.88776 341.7 530.13776 341.7Q529.419 341.7 528.9815 342.3094Q528.43463 343.09064 528.43463 345.21564ZM534.3565 345.21564Q534.3565 343.6844 534.669 342.7625Q534.9815 341.825 535.5909 341.325Q536.2159 340.825 537.1534 340.825Q537.8409 340.825 538.3565 341.10626Q538.88776 341.3875 539.2315 341.91876Q539.57526 342.4344 539.76276 343.1844Q539.95026 343.9344 539.95026 345.21564Q539.95026 346.73126 539.63776 347.65314Q539.3409 348.575 538.7159 349.09064Q538.1065 349.59064 537.1534 349.59064Q535.919 349.59064 535.20026 348.7Q534.3565 347.6375 534.3565 345.21564ZM535.43463 345.21564Q535.43463 347.325 535.93463 348.02814Q536.43463 348.73126 537.1534 348.73126Q537.88776 348.73126 538.37213 348.02814Q538.87213 347.325 538.87213 345.21564Q538.87213 343.09064 538.37213 342.40314Q537.88776 341.7 537.13776 341.7Q536.419 341.7 535.9815 342.3094Q535.43463 343.09064 535.43463 345.21564ZM541.3565 345.21564Q541.3565 343.6844 541.669 342.7625Q541.9815 341.825 542.5909 341.325Q543.2159 340.825 544.1534 340.825Q544.8409 340.825 545.3565 341.10626Q545.88776 341.3875 546.2315 341.91876Q546.57526 342.4344 546.76276 343.1844Q546.95026 343.9344 546.95026 345.21564Q546.95026 346.73126 546.63776 347.65314Q546.3409 348.575 545.7159 349.09064Q545.1065 349.59064 544.1534 349.59064Q542.919 349.59064 542.20026 348.7Q541.3565 347.6375 541.3565 345.21564ZM542.43463 345.21564Q542.43463 347.325 542.93463 348.02814Q543.43463 348.73126 544.1534 348.73126Q544.88776 348.73126 545.37213 348.02814Q545.87213 347.325 545.87213 345.21564Q545.87213 343.09064 545.37213 342.40314Q544.88776 341.7 544.13776 341.7Q543.419 341.7 542.9815 342.3094Q542.43463 343.09064 542.43463 345.21564Z" fill-rule="nonzero"/><path stroke="#4285f4" stroke-width="4.0" stroke-linecap="butt" d="M228.5 61.916668L240.5 61.916668" fill-rule="nonzero"/><path fill="#1a1a1a" d="M250.625 61.260414Q249.96875 61.010414 249.64062 60.572914Q249.32812 60.11979 249.32812 59.510414Q249.32812 58.572914 250.0 57.93229Q250.6875 57.291664 251.79688 57.291664Q252.92188 57.291664 253.60938 57.947914Q254.29688 58.604164 254.29688 59.541664Q254.29688 60.135414 253.98438 60.572914Q253.67188 61.010414 253.03125 61.260414Q253.82812 61.510414 254.23438 62.08854Q254.64062 62.666664 254.64062 63.46354Q254.64062 64.55729 253.85938 65.30729Q253.09375 66.05729 251.8125 66.05729Q250.54688 66.05729 249.76562 65.30729Q248.98438 64.55729 248.98438 63.43229Q248.98438 62.58854 249.40625 62.02604Q249.84375 61.46354 250.625 61.260414ZM250.40625 59.46354Q250.40625 60.072914 250.79688 60.46354Q251.20312 60.854164 251.82812 60.854164Q252.4375 60.854164 252.82812 60.479164Q253.21875 60.08854 253.21875 59.52604Q253.21875 58.947914 252.8125 58.55729Q252.40625 58.15104 251.8125 58.15104Q251.20312 58.15104 250.79688 58.541664Q250.40625 58.93229 250.40625 59.46354ZM250.07812 63.43229Q250.07812 63.885414 250.28125 64.30729Q250.5 64.729164 250.92188 64.96354Q251.34375 65.197914 251.82812 65.197914Q252.57812 65.197914 253.0625 64.71354Q253.5625 64.229164 253.5625 63.479164Q253.5625 62.71354 253.0625 62.21354Q252.5625 61.71354 251.79688 61.71354Q251.04688 61.71354 250.5625 62.21354Q250.07812 62.697914 250.07812 63.43229ZM256.29688 65.916664L256.29688 57.322914L257.35938 57.322914L257.35938 62.229164L259.84375 59.697914L261.21875 59.697914L258.82812 61.99479L261.45312 65.916664L260.15625 65.916664L258.09375 62.729164L257.35938 63.447914L257.35938 65.916664L256.29688 65.916664ZM262.375 65.916664L262.375 57.322914L265.60938 57.322914Q266.59375 57.322914 267.1875 57.58854Q267.78125 57.854164 268.10938 58.40104Q268.45312 58.93229 268.45312 59.52604Q268.45312 60.072914 268.15625 60.55729Q267.85938 61.041664 267.25 61.33854Q268.03125 61.572914 268.4375 62.135414Q268.85938 62.68229 268.85938 63.43229Q268.85938 64.02604 268.60938 64.55729Q268.35938 65.072914 267.98438 65.354164Q267.60938 65.635414 267.03125 65.77604Q266.46875 65.916664 265.65625 65.916664L262.375 65.916664ZM263.51562 60.93229L265.375 60.93229Q266.125 60.93229 266.45312 60.83854Q266.89062 60.71354 267.10938 60.416664Q267.32812 60.104164 267.32812 59.65104Q267.32812 59.229164 267.125 58.90104Q266.92188 58.572914 266.53125 58.46354Q266.15625 58.33854 265.23438 58.33854L263.51562 58.33854L263.51562 60.93229ZM263.51562 64.90104L265.65625 64.90104Q266.20312 64.90104 266.42188 64.854164Q266.82812 64.791664 267.07812 64.635414Q267.34375 64.46354 267.51562 64.15104Q267.6875 63.83854 267.6875 63.43229Q267.6875 62.947914 267.4375 62.58854Q267.20312 62.229164 266.76562 62.08854Q266.32812 61.947914 265.5 61.947914L263.51562 61.947914L263.51562 64.90104Z" fill-rule="nonzero"/><path stroke="#ea4335" stroke-width="4.0" stroke-linecap="butt" d="M285.5 61.916668L297.5 61.916668" fill-rule="nonzero"/><path fill="#1a1a1a" d="M307.625 61.260414Q306.96875 61.010414 306.64062 60.572914Q306.32812 60.11979 306.32812 59.510414Q306.32812 58.572914 307.0 57.93229Q307.6875 57.291664 308.79688 57.291664Q309.92188 57.291664 310.60938 57.947914Q311.29688 58.604164 311.29688 59.541664Q311.29688 60.135414 310.98438 60.572914Q310.67188 61.010414 310.03125 61.260414Q310.82812 61.510414 311.23438 62.08854Q311.64062 62.666664 311.64062 63.46354Q311.64062 64.55729 310.85938 65.30729Q310.09375 66.05729 308.8125 66.05729Q307.54688 66.05729 306.76562 65.30729Q305.98438 64.55729 305.98438 63.43229Q305.98438 62.58854 306.40625 62.02604Q306.84375 61.46354 307.625 61.260414ZM307.40625 59.46354Q307.40625 60.072914 307.79688 60.46354Q308.20312 60.854164 308.82812 60.854164Q309.4375 60.854164 309.82812 60.479164Q310.21875 60.08854 310.21875 59.52604Q310.21875 58.947914 309.8125 58.55729Q309.40625 58.15104 308.8125 58.15104Q308.20312 58.15104 307.79688 58.541664Q307.40625 58.93229 307.40625 59.46354ZM307.07812 63.43229Q307.07812 63.885414 307.28125 64.30729Q307.5 64.729164 307.92188 64.96354Q308.34375 65.197914 308.82812 65.197914Q309.57812 65.197914 310.0625 64.71354Q310.5625 64.229164 310.5625 63.479164Q310.5625 62.71354 310.0625 62.21354Q309.5625 61.71354 308.79688 61.71354Q308.04688 61.71354 307.5625 62.21354Q307.07812 62.697914 307.07812 63.43229ZM313.29688 65.916664L313.29688 57.322914L314.35938 57.322914L314.35938 62.229164L316.84375 59.697914L318.21875 59.697914L315.82812 61.99479L318.45312 65.916664L317.15625 65.916664L315.09375 62.729164L314.35938 63.447914L314.35938 65.916664L313.29688 65.916664ZM319.375 65.916664L319.375 57.322914L322.60938 57.322914Q323.59375 57.322914 324.1875 57.58854Q324.78125 57.854164 325.10938 58.40104Q325.45312 58.93229 325.45312 59.52604Q325.45312 60.072914 325.15625 60.55729Q324.85938 61.041664 324.25 61.33854Q325.03125 61.572914 325.4375 62.135414Q325.85938 62.68229 325.85938 63.43229Q325.85938 64.02604 325.60938 64.55729Q325.35938 65.072914 324.98438 65.354164Q324.60938 65.635414 324.03125 65.77604Q323.46875 65.916664 322.65625 65.916664L319.375 65.916664ZM320.51562 60.93229L322.375 60.93229Q323.125 60.93229 323.45312 60.83854Q323.89062 60.71354 324.10938 60.416664Q324.32812 60.104164 324.32812 59.65104Q324.32812 59.229164 324.125 58.90104Q323.92188 58.572914 323.53125 58.46354Q323.15625 58.33854 322.23438 58.33854L320.51562 58.33854L320.51562 60.93229ZM320.51562 64.90104L322.65625 64.90104Q323.20312 64.90104 323.42188 64.854164Q323.82812 64.791664 324.07812 64.635414Q324.34375 64.46354 324.51562 64.15104Q324.6875 63.83854 324.6875 63.43229Q324.6875 62.947914 324.4375 62.58854Q324.20312 62.229164 323.76562 62.08854Q323.32812 61.947914 322.5 61.947914L320.51562 61.947914L320.51562 64.90104ZM331.4375 65.916664L329.53125 59.697914L330.625 59.697914L331.60938 63.291664L331.98438 64.61979Q332.01562 64.52604 332.3125 63.33854L333.29688 59.697914L334.375 59.697914L335.3125 63.30729L335.625 64.49479L335.98438 63.291664L337.04688 59.697914L338.07812 59.697914L336.125 65.916664L335.03125 65.916664L334.04688 62.18229L333.79688 61.135414L332.54688 65.916664L331.4375 65.916664ZM338.5 66.05729L340.98438 57.18229L341.82812 57.18229L339.34375 66.05729L338.5 66.05729ZM342.375 65.916664L342.375 57.322914L343.51562 57.322914L343.51562 61.58854L347.78125 57.322914L349.32812 57.322914L345.71875 60.80729L349.48438 65.916664L347.98438 65.916664L344.92188 61.572914L343.51562 62.93229L343.51562 65.916664L342.375 65.916664ZM352.60938 65.916664L352.60938 58.33854L349.78125 58.33854L349.78125 57.322914L356.59375 57.322914L356.59375 58.33854L353.75 58.33854L353.75 65.916664L352.60938 65.916664ZM357.375 65.916664L357.375 57.322914L358.51562 57.322914L358.51562 64.90104L362.75 64.90104L362.75 65.916664L357.375 65.916664ZM364.04688 63.15104L365.10938 63.05729Q365.1875 63.71354 365.46875 64.11979Q365.75 64.52604 366.32812 64.791664Q366.92188 65.041664 367.65625 65.041664Q368.29688 65.041664 368.79688 64.854164Q369.29688 64.65104 369.53125 64.322914Q369.78125 63.979164 369.78125 63.58854Q369.78125 63.18229 369.54688 62.885414Q369.3125 62.572914 368.78125 62.36979Q368.42188 62.229164 367.23438 61.947914Q366.0625 61.666664 365.59375 61.416664Q364.96875 61.08854 364.67188 60.61979Q364.375 60.135414 364.375 59.541664Q364.375 58.90104 364.73438 58.33854Q365.10938 57.760414 365.8125 57.479164Q366.53125 57.18229 367.39062 57.18229Q368.34375 57.18229 369.07812 57.49479Q369.8125 57.791664 370.20312 58.40104Q370.59375 58.99479 370.625 59.74479L369.53125 59.822914Q369.4375 59.010414 368.92188 58.604164Q368.42188 58.18229 367.4375 58.18229Q366.40625 58.18229 365.9375 58.55729Q365.46875 58.93229 365.46875 59.46354Q365.46875 59.93229 365.79688 60.229164Q366.125 60.52604 367.5 60.83854Q368.89062 61.15104 369.40625 61.385414Q370.15625 61.74479 370.51562 62.27604Q370.875 62.791664 370.875 63.49479Q370.875 64.18229 370.48438 64.791664Q370.09375 65.385414 369.35938 65.729164Q368.625 66.05729 367.70312 66.05729Q366.53125 66.05729 365.73438 65.729164Q364.95312 65.385414 364.5 64.697914Q364.0625 64.010414 364.04688 63.15104Z" fill-rule="nonzero"/><path fill="#757575" d="M203.29688 37.55L203.29688 27.175L204.875 27.175L204.875 28.753124Q205.48438 27.64375 206.0 27.3Q206.51562 26.940624 207.125 26.940624Q208.01562 26.940624 208.9375 27.503124L208.32812 29.14375Q207.6875 28.753124 207.04688 28.753124Q206.46875 28.753124 206.0 29.1125Q205.54688 29.45625 205.34375 30.065624Q205.0625 31.003124 205.0625 32.1125L205.0625 37.55L203.29688 37.55ZM217.42188 34.20625L219.23438 34.440624Q218.8125 36.01875 217.64062 36.909374Q216.48438 37.784374 214.67188 37.784374Q212.40625 37.784374 211.0625 36.39375Q209.73438 34.9875 209.73438 32.45625Q209.73438 29.83125 211.07812 28.39375Q212.42188 26.940624 214.57812 26.940624Q216.65625 26.940624 217.96875 28.3625Q219.29688 29.76875 219.29688 32.346874Q219.29688 32.503124 219.28125 32.815624L211.54688 32.815624Q211.64062 34.51875 212.51562 35.425Q213.39062 36.33125 214.6875 36.33125Q215.65625 36.33125 216.32812 35.83125Q217.01562 35.315624 217.42188 34.20625ZM211.64062 31.3625L217.4375 31.3625Q217.32812 30.065624 216.78125 29.409374Q215.9375 28.39375 214.59375 28.39375Q213.39062 28.39375 212.5625 29.20625Q211.73438 30.003124 211.64062 31.3625ZM227.9375 41.51875L227.9375 36.440624Q227.51562 37.01875 226.78125 37.409374Q226.04688 37.784374 225.21875 37.784374Q223.375 37.784374 222.03125 36.315624Q220.70312 34.83125 220.70312 32.26875Q220.70312 30.70625 221.23438 29.471874Q221.78125 28.221874 222.8125 27.58125Q223.84375 26.940624 225.07812 26.940624Q227.0 26.940624 228.10938 28.565624L228.10938 27.175L229.6875 27.175L229.6875 41.51875L227.9375 41.51875ZM222.51562 32.33125Q222.51562 34.33125 223.34375 35.33125Q224.1875 36.33125 225.35938 36.33125Q226.48438 36.33125 227.29688 35.39375Q228.10938 34.440624 228.10938 32.4875Q228.10938 30.425 227.25 29.378124Q226.39062 28.33125 225.25 28.33125Q224.10938 28.33125 223.3125 29.3Q222.51562 30.26875 222.51562 32.33125ZM239.10938 37.55L239.10938 36.01875Q237.90625 37.784374 235.82812 37.784374Q234.90625 37.784374 234.10938 37.440624Q233.3125 37.08125 232.92188 36.55Q232.54688 36.01875 232.39062 35.2375Q232.28125 34.721874 232.28125 33.596874L232.28125 27.175L234.03125 27.175L234.03125 32.925Q234.03125 34.3 234.14062 34.784374Q234.3125 35.471874 234.84375 35.878124Q235.39062 36.26875 236.17188 36.26875Q236.96875 36.26875 237.65625 35.8625Q238.35938 35.45625 238.64062 34.76875Q238.9375 34.065624 238.9375 32.7375L238.9375 27.175L240.6875 27.175L240.6875 37.55L239.10938 37.55ZM249.42188 34.20625L251.23438 34.440624Q250.8125 36.01875 249.64062 36.909374Q248.48438 37.784374 246.67188 37.784374Q244.40625 37.784374 243.0625 36.39375Q241.73438 34.9875 241.73438 32.45625Q241.73438 29.83125 243.07812 28.39375Q244.42188 26.940624 246.57812 26.940624Q248.65625 26.940624 249.96875 28.3625Q251.29688 29.76875 251.29688 32.346874Q251.29688 32.503124 251.28125 32.815624L243.54688 32.815624Q243.64062 34.51875 244.51562 35.425Q245.39062 36.33125 246.6875 36.33125Q247.65625 36.33125 248.32812 35.83125Q249.01562 35.315624 249.42188 34.20625ZM243.64062 31.3625L249.4375 31.3625Q249.32812 30.065624 248.78125 29.409374Q247.9375 28.39375 246.59375 28.39375Q245.39062 28.39375 244.5625 29.20625Q243.73438 30.003124 243.64062 31.3625ZM252.60938 34.45625L254.35938 34.175Q254.5 35.221874 255.17188 35.784374Q255.84375 36.33125 257.04688 36.33125Q258.25 36.33125 258.82812 35.846874Q259.42188 35.346874 259.42188 34.690624Q259.42188 34.096874 258.90625 33.753124Q258.54688 33.51875 257.10938 33.159374Q255.17188 32.659374 254.42188 32.315624Q253.6875 31.95625 253.29688 31.33125Q252.90625 30.690624 252.90625 29.925Q252.90625 29.2375 253.21875 28.64375Q253.54688 28.05 254.09375 27.659374Q254.5 27.3625 255.20312 27.159374Q255.92188 26.940624 256.73438 26.940624Q257.95312 26.940624 258.875 27.3Q259.79688 27.64375 260.23438 28.253124Q260.67188 28.846874 260.84375 29.846874L259.125 30.08125Q259.0 29.284374 258.4375 28.846874Q257.875 28.39375 256.85938 28.39375Q255.64062 28.39375 255.125 28.8Q254.60938 29.190624 254.60938 29.721874Q254.60938 30.065624 254.82812 30.346874Q255.03125 30.628124 255.5 30.815624Q255.76562 30.909374 257.04688 31.253124Q258.92188 31.753124 259.65625 32.08125Q260.39062 32.39375 260.8125 33.003124Q261.23438 33.596874 261.23438 34.503124Q261.23438 35.378124 260.71875 36.159374Q260.20312 36.940624 259.23438 37.3625Q258.26562 37.784374 257.04688 37.784374Q255.03125 37.784374 253.96875 36.940624Q252.90625 36.096874 252.60938 34.45625ZM267.15625 35.971874L267.40625 37.534374Q266.67188 37.690624 266.07812 37.690624Q265.125 37.690624 264.59375 37.39375Q264.07812 37.08125 263.85938 36.596874Q263.64062 36.096874 263.64062 34.51875L263.64062 28.55L262.35938 28.55L262.35938 27.175L263.64062 27.175L263.64062 24.6125L265.39062 23.55L265.39062 27.175L267.15625 27.175L267.15625 28.55L265.39062 28.55L265.39062 34.6125Q265.39062 35.3625 265.48438 35.58125Q265.57812 35.784374 265.78125 35.925Q266.0 36.05 266.39062 36.05Q266.67188 36.05 267.15625 35.971874ZM268.60938 34.45625L270.35938 34.175Q270.5 35.221874 271.17188 35.784374Q271.84375 36.33125 273.04688 36.33125Q274.25 36.33125 274.82812 35.846874Q275.42188 35.346874 275.42188 34.690624Q275.42188 34.096874 274.90625 33.753124Q274.54688 33.51875 273.10938 33.159374Q271.17188 32.659374 270.42188 32.315624Q269.6875 31.95625 269.29688 31.33125Q268.90625 30.690624 268.90625 29.925Q268.90625 29.2375 269.21875 28.64375Q269.54688 28.05 270.09375 27.659374Q270.5 27.3625 271.20312 27.159374Q271.92188 26.940624 272.73438 26.940624Q273.95312 26.940624 274.875 27.3Q275.79688 27.64375 276.23438 28.253124Q276.67188 28.846874 276.84375 29.846874L275.125 30.08125Q275.0 29.284374 274.4375 28.846874Q273.875 28.39375 272.85938 28.39375Q271.64062 28.39375 271.125 28.8Q270.60938 29.190624 270.60938 29.721874Q270.60938 30.065624 270.82812 30.346874Q271.03125 30.628124 271.5 30.815624Q271.76562 30.909374 273.04688 31.253124Q274.92188 31.753124 275.65625 32.08125Q276.39062 32.39375 276.8125 33.003124Q277.23438 33.596874 277.23438 34.503124Q277.23438 35.378124 276.71875 36.159374Q276.20312 36.940624 275.23438 37.3625Q274.26562 37.784374 273.04688 37.784374Q271.03125 37.784374 269.96875 36.940624Q268.90625 36.096874 268.60938 34.45625ZM278.0 37.8L282.15625 22.9875L283.5625 22.9875L279.42188 37.8L278.0 37.8ZM284.60938 34.45625L286.35938 34.175Q286.5 35.221874 287.17188 35.784374Q287.84375 36.33125 289.04688 36.33125Q290.25 36.33125 290.82812 35.846874Q291.42188 35.346874 291.42188 34.690624Q291.42188 34.096874 290.90625 33.753124Q290.54688 33.51875 289.10938 33.159374Q287.17188 32.659374 286.42188 32.315624Q285.6875 31.95625 285.29688 31.33125Q284.90625 30.690624 284.90625 29.925Q284.90625 29.2375 285.21875 28.64375Q285.54688 28.05 286.09375 27.659374Q286.5 27.3625 287.20312 27.159374Q287.92188 26.940624 288.73438 26.940624Q289.95312 26.940624 290.875 27.3Q291.79688 27.64375 292.23438 28.253124Q292.67188 28.846874 292.84375 29.846874L291.125 30.08125Q291.0 29.284374 290.4375 28.846874Q289.875 28.39375 288.85938 28.39375Q287.64062 28.39375 287.125 28.8Q286.60938 29.190624 286.60938 29.721874Q286.60938 30.065624 286.82812 30.346874Q287.03125 30.628124 287.5 30.815624Q287.76562 30.909374 289.04688 31.253124Q290.92188 31.753124 291.65625 32.08125Q292.39062 32.39375 292.8125 33.003124Q293.23438 33.596874 293.23438 34.503124Q293.23438 35.378124 292.71875 36.159374Q292.20312 36.940624 291.23438 37.3625Q290.26562 37.784374 289.04688 37.784374Q287.03125 37.784374 285.96875 36.940624Q284.90625 36.096874 284.60938 34.45625ZM303.23438 37.55L300.0625 27.175L301.875 27.175L303.53125 33.159374L304.14062 35.39375Q304.1875 35.221874 304.67188 33.253124L306.32812 27.175L308.14062 27.175L309.6875 33.190624L310.20312 35.175L310.79688 33.175L312.57812 27.175L314.28125 27.175L311.04688 37.55L309.21875 37.55L307.5625 31.33125L307.17188 29.565624L305.0625 37.55L303.23438 37.55ZM315.0 37.8L319.15625 22.9875L320.5625 22.9875L316.42188 37.8L315.0 37.8ZM328.3125 37.55L328.3125 23.2375L330.07812 23.2375L330.07812 28.3625Q331.3125 26.940624 333.1875 26.940624Q334.32812 26.940624 335.17188 27.39375Q336.03125 27.846874 336.39062 28.659374Q336.76562 29.45625 336.76562 30.971874L336.76562 37.55L335.01562 37.55L335.01562 30.971874Q335.01562 29.659374 334.4375 29.065624Q333.85938 28.45625 332.82812 28.45625Q332.04688 28.45625 331.34375 28.8625Q330.65625 29.26875 330.35938 29.971874Q330.07812 30.659374 330.07812 31.878124L330.07812 37.55L328.3125 37.55ZM345.10938 37.55L345.10938 36.01875Q343.90625 37.784374 341.82812 37.784374Q340.90625 37.784374 340.10938 37.440624Q339.3125 37.08125 338.92188 36.55Q338.54688 36.01875 338.39062 35.2375Q338.28125 34.721874 338.28125 33.596874L338.28125 27.175L340.03125 27.175L340.03125 32.925Q340.03125 34.3 340.14062 34.784374Q340.3125 35.471874 340.84375 35.878124Q341.39062 36.26875 342.17188 36.26875Q342.96875 36.26875 343.65625 35.8625Q344.35938 35.45625 344.64062 34.76875Q344.9375 34.065624 344.9375 32.7375L344.9375 27.175L346.6875 27.175L346.6875 37.55L345.10938 37.55ZM348.29688 37.55L348.29688 27.175L349.875 27.175L349.875 28.753124Q350.48438 27.64375 351.0 27.3Q351.51562 26.940624 352.125 26.940624Q353.01562 26.940624 353.9375 27.503124L353.32812 29.14375Q352.6875 28.753124 352.04688 28.753124Q351.46875 28.753124 351.0 29.1125Q350.54688 29.45625 350.34375 30.065624Q350.0625 31.003124 350.0625 32.1125L350.0625 37.55L348.29688 37.55ZM355.28125 37.55L355.28125 23.2375L357.03125 23.2375L357.03125 37.55L355.28125 37.55ZM367.53125 29.784374Q366.4375 29.378124 365.90625 28.64375Q365.39062 27.89375 365.39062 26.8625Q365.39062 25.3 366.51562 24.2375Q367.64062 23.175 369.5 23.175Q371.375 23.175 372.51562 24.26875Q373.65625 25.346874 373.65625 26.909374Q373.65625 27.909374 373.125 28.64375Q372.60938 29.378124 371.54688 29.784374Q372.875 30.221874 373.5625 31.175Q374.25 32.128124 374.25 33.45625Q374.25 35.3 372.9375 36.55Q371.64062 37.8 369.53125 37.8Q367.40625 37.8 366.10938 36.55Q364.8125 35.284374 364.8125 33.409374Q364.8125 32.01875 365.51562 31.08125Q366.23438 30.128124 367.53125 29.784374ZM367.1875 26.8Q367.1875 27.815624 367.84375 28.471874Q368.5 29.1125 369.53125 29.1125Q370.54688 29.1125 371.20312 28.471874Q371.85938 27.83125 371.85938 26.909374Q371.85938 25.940624 371.1875 25.284374Q370.51562 24.6125 369.51562 24.6125Q368.51562 24.6125 367.84375 25.26875Q367.1875 25.909374 367.1875 26.8ZM366.625 33.425Q366.625 34.175 366.96875 34.878124Q367.32812 35.58125 368.03125 35.971874Q368.73438 36.346874 369.54688 36.346874Q370.8125 36.346874 371.625 35.534374Q372.45312 34.721874 372.45312 33.471874Q372.45312 32.20625 371.60938 31.378124Q370.76562 30.55 369.48438 30.55Q368.25 30.55 367.4375 31.378124Q366.625 32.190624 366.625 33.425ZM376.32812 37.55L376.32812 23.2375L378.09375 23.2375L378.09375 31.39375L382.25 27.175L384.51562 27.175L380.5625 31.01875L384.92188 37.55L382.75 37.55L379.32812 32.253124L378.09375 33.440624L378.09375 37.55L376.32812 37.55ZM386.46875 37.55L386.46875 23.2375L391.84375 23.2375Q393.48438 23.2375 394.46875 23.675Q395.45312 24.096874 396.01562 25.003124Q396.57812 25.909374 396.57812 26.89375Q396.57812 27.815624 396.07812 28.628124Q395.59375 29.440624 394.57812 29.925Q395.875 30.315624 396.57812 31.2375Q397.28125 32.14375 397.28125 33.39375Q397.28125 34.409374 396.84375 35.26875Q396.42188 36.128124 395.79688 36.596874Q395.17188 37.065624 394.23438 37.315624Q393.29688 37.55 391.92188 37.55L386.46875 37.55ZM388.35938 29.253124L391.45312 29.253124Q392.71875 29.253124 393.26562 29.08125Q393.98438 28.8625 394.34375 28.378124Q394.71875 27.878124 394.71875 27.1125Q394.71875 26.409374 394.375 25.8625Q394.03125 25.315624 393.39062 25.128124Q392.76562 24.925 391.21875 24.925L388.35938 24.925L388.35938 29.253124ZM388.35938 35.8625L391.92188 35.8625Q392.84375 35.8625 393.21875 35.784374Q393.875 35.675 394.3125 35.409374Q394.75 35.128124 395.03125 34.6125Q395.3125 34.08125 395.3125 33.39375Q395.3125 32.596874 394.90625 32.003124Q394.5 31.409374 393.76562 31.175Q393.03125 30.940624 391.67188 30.940624L388.35938 30.940624L388.35938 35.8625Z" fill-rule="nonzero"/></svg>