<svg version="1.1" viewBox="0.0 0.0 600.0 371.0" fill="none" stroke="none" stroke-linecap="square" stroke-miterlimit="10" width="600" height="371" xmlns:xlink="http://www.w3.org/1999/xlink" xmlns="http://www.w3.org/2000/svg"><path fill="#ffffff" d="M0 0L600.0 0L600.0 371.0L0 371.0L0 0Z" fill-rule="nonzero"/><path stroke="#cccccc" stroke-width="1.0" stroke-linecap="butt" d="M59.5 88.5L59.5 332.5" fill-rule="nonzero"/><path stroke="#cccccc" stroke-width="1.0" stroke-linecap="butt" d="M217.5 88.5L217.5 332.5" fill-rule="nonzero"/><path stroke="#cccccc" stroke-width="1.0" stroke-linecap="butt" d="M375.5 88.5L375.5 332.5" fill-rule="nonzero"/><path stroke="#cccccc" stroke-width="1.0" stroke-linecap="butt" d="M533.5 88.5L533.5 332.5" fill-rule="nonzero"/><path stroke="#333333" stroke-width="1.0" stroke-linecap="butt" d="M59.5 332.5L581.5 332.5" fill-rule="nonzero"/><path stroke="#cccccc" stroke-width="1.0" stroke-linecap="butt" d="M59.5 283.5L581.5 283.5" fill-rule="nonzero"/><path stroke="#cccccc" stroke-width="1.0" stroke-linecap="butt" d="M59.5 234.5L581.5 234.5" fill-rule="nonzero"/><path stroke="#cccccc" stroke-width="1.0" stroke-linecap="butt" d="M59.5 185.5L581.5 185.5" fill-rule="nonzero"/><path stroke="#cccccc" stroke-width="1.0" stroke-linecap="butt" d="M59.5 137.5L581.5 137.5" fill-rule="nonzero"/><path stroke="#cccccc" stroke-width="1.0" stroke-linecap="butt" d="M59.5 88.5L581.5 88.5" fill-rule="nonzero"/><clipPath id="id_0"><path d="M59.55 88.28333L581.45 88.28333L581.45 332.45L59.55 332.45L59.55 88.28333Z" clip-rule="nonzero"/></clipPath><path stroke="#4285f4" stroke-width="2.0" stroke-linecap="butt" clip-path="url(#id_0)" d="M59.55 313.22314L217.65218 239.90536L265.24567 214.0237L328.16083 189.70743L375.75433 179.20982L486.263 167.83147L581.45 165.13274" fill-rule="nonzero"/><path stroke="#ea4335" stroke-width="2.0" stroke-linecap="butt" clip-path="url(#id_0)" d="M59.55 312.96747L217.65218 230.69814L265.24567 196.06807L328.16083 164.67586L375.75433 147.2826L486.263 132.18411L581.45 128.0618" fill-rule="nonzero"/><path fill="#000000" fill-opacity="0.0" clip-path="url(#id_0)" d="M62.55 313.22314C62.55 314.88 61.206856 316.22314 59.55 316.22314C57.893147 316.22314 56.55 314.88 56.55 313.22314C56.55 311.56628 57.893147 310.22314 59.55 310.22314C61.206856 310.22314 62.55 311.56628 62.55 313.22314Z" fill-rule="nonzero"/><path fill="#000000" fill-opacity="0.0" clip-path="url(#id_0)" d="M220.65218 239.90536C220.65218 241.56223 219.30902 242.90536 217.65218 242.90536C215.99532 242.90536 214.65218 241.56223 214.65218 239.90536C214.65218 238.2485 215.99532 236.90536 217.65218 236.90536C219.30902 236.90536 220.65218 238.2485 220.65218 239.90536Z" fill-rule="nonzero"/><path fill="#000000" fill-opacity="0.0" clip-path="url(#id_0)" d="M268.24567 214.0237C268.24567 215.68056 266.90253 217.0237 265.24567 217.0237C263.5888 217.0237 262.24567 215.68056 262.24567 214.0237C262.24567 212.36684 263.5888 211.0237 265.24567 211.0237C266.90253 211.0237 268.24567 212.36684 268.24567 214.0237Z" fill-rule="nonzero"/><path fill="#000000" fill-opacity="0.0" clip-path="url(#id_0)" d="M331.16083 189.70743C331.16083 191.36429 329.8177 192.70743 328.16083 192.70743C326.504 192.70743 325.16083 191.36429 325.16083 189.70743C325.16083 188.05058 326.504 186.70743 328.16083 186.70743C329.8177 186.70743 331.16083 188.05058 331.16083 189.70743Z" fill-rule="nonzero"/><path fill="#000000" fill-opacity="0.0" clip-path="url(#id_0)" d="M378.75433 179.20982C378.75433 180.86668 377.4112 182.20982 375.75433 182.20982C374.09747 182.20982 372.75433 180.86668 372.75433 179.20982C372.75433 177.55298 374.09747 176.20982 375.75433 176.20982C377.4112 176.20982 378.75433 177.55298 378.75433 179.20982Z" fill-rule="nonzero"/><path fill="#000000" fill-opacity="0.0" clip-path="url(#id_0)" d="M489.263 167.83147C489.263 169.48833 487.91986 170.83147 486.263 170.83147C484.60617 170.83147 483.263 169.48833 483.263 167.83147C483.263 166.1746 484.60617 164.83147 486.263 164.83147C487.91986 164.83147 489.263 166.1746 489.263 167.83147Z" fill-rule="nonzero"/><path fill="#000000" fill-opacity="0.0" clip-path="url(#id_0)" d="M584.45 165.13274C584.45 166.7896 583.1069 168.13274 581.45 168.13274C579.79315 168.13274 578.45 166.7896 578.45 165.13274C578.45 163.47589 579.79315 162.13274 581.45 162.13274C583.1069 162.13274 584.45 163.47589 584.45 165.13274Z" fill-rule="nonzero"/><path fill="#000000" fill-opacity="0.0" clip-path="url(#id_0)" d="M62.55 312.96747C62.55 314.6243 61.206856 315.96747 59.55 315.96747C57.893147 315.96747 56.55 314.6243 56.55 312.96747C56.55 311.3106 57.893147 309.96747 59.55 309.96747C61.206856 309.96747 62.55 311.3106 62.55 312.96747Z" fill-rule="nonzero"/><path fill="#000000" fill-opacity="0.0" clip-path="url(#id_0)" d="M220.65218 230.69814C220.65218 232.35498 219.30902 233.69814 217.65218 233.69814C215.99532 233.69814 214.65218 232.35498 214.65218 230.69814C214.65218 229.04128 215.99532 227.69814 217.65218 227.69814C219.30902 227.69814 220.65218 229.04128 220.65218 230.69814Z" fill-rule="nonzero"/><path fill="#000000" fill-opacity="0.0" clip-path="url(#id_0)" d="M268.24567 196.06807C268.24567 197.72493 266.90253 199.06807 265.24567 199.06807C263.5888 199.06807 262.24567 197.72493 262.24567 196.06807C262.24567 194.41122 263.5888 193.06807 265.24567 193.06807C266.90253 193.06807 268.24567 194.41122 268.24567 196.06807Z" fill-rule="nonzero"/><path fill="#000000" fill-opacity="0.0" clip-path="url(#id_0)" d="M331.16083 164.67586C331.16083 166.3327 329.8177 167.67586 328.16083 167.67586C326.504 167.67586 325.16083 166.3327 325.16083 164.67586C325.16083 163.019 326.504 161.67586 328.16083 161.67586C329.8177 161.67586 331.16083 163.019 331.16083 164.67586Z" fill-rule="nonzero"/><path fill="#000000" fill-opacity="0.0" clip-path="url(#id_0)" d="M378.75433 147.2826C378.75433 148.93945 377.4112 150.2826 375.75433 150.2826C374.09747 150.2826 372.75433 148.93945 372.75433 147.2826C372.75433 145.62575 374.09747 144.2826 375.75433 144.2826C377.4112 144.2826 378.75433 145.62575 378.75433 147.2826Z" fill-rule="nonzero"/><path fill="#000000" fill-opacity="0.0" clip-path="url(#id_0)" d="M489.263 132.18411C489.263 133.84096 487.91986 135.18411 486.263 135.18411C484.60617 135.18411 483.263 133.84096 483.263 132.18411C483.263 130.52725 484.60617 129.18411 486.263 129.18411C487.91986 129.18411 489.263 130.52725 489.263 132.18411Z" fill-rule="nonzero"/><path fill="#000000" fill-opacity="0.0" clip-path="url(#id_0)" d="M584.45 128.0618C584.45 129.71864 583.1069 131.0618 581.45 131.0618C579.79315 131.0618 578.45 129.71864 578.45 128.0618C578.45 126.40494 579.79315 125.0618 581.45 125.0618C583.1069 125.0618 584.45 126.40494 584.45 128.0618Z" fill-rule="nonzero"/><path fill="#000000" d="M47.05 332.21564Q47.05 330.6844 47.3625 329.7625Q47.675 328.825 48.284374 328.325Q48.909374 327.825 49.846874 327.825Q50.534374 327.825 51.05 328.10626Q51.58125 328.3875 51.925 328.91876Q52.26875 329.4344 52.45625 330.1844Q52.64375 330.9344 52.64375 332.21564Q52.64375 333.73126 52.33125 334.65314Q52.034374 335.575 51.409374 336.09064Q50.8 336.59064 49.846874 336.59064Q48.6125 336.59064 47.89375 335.7Q47.05 334.6375 47.05 332.21564ZM48.128124 332.21564Q48.128124 334.325 48.628124 335.02814Q49.128124 335.73126 49.846874 335.73126Q50.58125 335.73126 51.065624 335.02814Q51.565624 334.325 51.565624 332.21564Q51.565624 330.09064 51.065624 329.40314Q50.58125 328.7 49.83125 328.7Q49.1125 328.7 48.675 329.3094Q48.128124 330.09064 48.128124 332.21564Z" fill-rule="nonzero"/><path fill="#000000" d="M31.596874 286.60104L31.596874 287.61667L25.909374 287.61667Q25.909374 287.24167 26.034374 286.8823Q26.253124 286.30417 26.721874 285.74167Q27.20625 285.17917 28.1125 284.4448Q29.51875 283.28854 30.003124 282.61667Q30.503124 281.9448 30.503124 281.35104Q30.503124 280.72604 30.05 280.30417Q29.596874 279.86667 28.878124 279.86667Q28.1125 279.86667 27.659374 280.3198Q27.20625 280.77292 27.190624 281.58542L26.1125 281.47604Q26.221874 280.2573 26.940624 279.6323Q27.675 278.99167 28.909374 278.99167Q30.14375 278.99167 30.8625 279.67917Q31.58125 280.36667 31.58125 281.3823Q31.58125 281.89792 31.3625 282.39792Q31.159374 282.8823 30.659374 283.4448Q30.175 283.99167 29.05 284.9448Q28.096874 285.74167 27.815624 286.03854Q27.55 286.3198 27.378124 286.60104L31.596874 286.60104ZM33.05 285.36667L34.159374 285.27292Q34.284374 286.08542 34.721874 286.49167Q35.175 286.89792 35.815624 286.89792Q36.565624 286.89792 37.096874 286.3198Q37.628124 285.74167 37.628124 284.80417Q37.628124 283.89792 37.1125 283.3823Q36.6125 282.85104 35.784374 282.85104Q35.284374 282.85104 34.8625 283.08542Q34.45625 283.3198 34.221874 283.67917L33.2375 283.55417L34.065624 279.14792L38.346874 279.14792L38.346874 280.14792L34.909374 280.14792L34.45625 282.46042Q35.221874 281.91354 36.065624 281.91354Q37.190624 281.91354 37.95625 282.6948Q38.7375 283.47604 38.7375 284.71042Q38.7375 285.86667 38.065624 286.72604Q37.2375 287.7573 35.815624 287.7573Q34.64375 287.7573 33.89375 287.10104Q33.159374 286.4448 33.05 285.36667ZM40.05 283.3823Q40.05 281.85104 40.3625 280.92917Q40.675 279.99167 41.284374 279.49167Q41.909374 278.99167 42.846874 278.99167Q43.534374 278.99167 44.05 279.27292Q44.58125 279.55417 44.925 280.08542Q45.26875 280.60104 45.45625 281.35104Q45.64375 282.10104 45.64375 283.3823Q45.64375 284.89792 45.33125 285.8198Q45.034374 286.74167 44.409374 287.2573Q43.8 287.7573 42.846874 287.7573Q41.6125 287.7573 40.89375 286.86667Q40.05 285.80417 40.05 283.3823ZM41.128124 283.3823Q41.128124 285.49167 41.628124 286.1948Q42.128124 286.89792 42.846874 286.89792Q43.58125 286.89792 44.065624 286.1948Q44.565624 285.49167 44.565624 283.3823Q44.565624 281.2573 44.065624 280.5698Q43.58125 279.86667 42.83125 279.86667Q42.1125 279.86667 41.675 280.47604Q41.128124 281.2573 41.128124 283.3823ZM47.05 283.3823Q47.05 281.85104 47.3625 280.92917Q47.675 279.99167 48.284374 279.49167Q48.909374 278.99167 49.846874 278.99167Q50.534374 278.99167 51.05 279.27292Q51.58125 279.55417 51.925 280.08542Q52.26875 280.60104 52.45625 281.35104Q52.64375 282.10104 52.64375 283.3823Q52.64375 284.89792 52.33125 285.8198Q52.034374 286.74167 51.409374 287.2573Q50.8 287.7573 49.846874 287.7573Q48.6125 287.7573 47.89375 286.86667Q47.05 285.80417 47.05 283.3823ZM48.128124 283.3823Q48.128124 285.49167 48.628124 286.1948Q49.128124 286.89792 49.846874 286.89792Q50.58125 286.89792 51.065624 286.1948Q51.565624 285.49167 51.565624 283.3823Q51.565624 281.2573 51.065624 280.5698Q50.58125 279.86667 49.83125 279.86667Q49.1125 279.86667 48.675 280.47604Q48.128124 281.2573 48.128124 283.3823Z" fill-rule="nonzero"/><path fill="#000000" d="M26.05 236.53334L27.159374 236.43959Q27.284374 237.25209 27.721874 237.65834Q28.175 238.06459 28.815624 238.06459Q29.565624 238.06459 30.096874 237.48647Q30.628124 236.90834 30.628124 235.97084Q30.628124 235.06459 30.1125 234.54897Q29.6125 234.01772 28.784374 234.01772Q28.284374 234.01772 27.8625 234.25209Q27.45625 234.48647 27.221874 234.84584L26.2375 234.72084L27.065624 230.31459L31.346874 230.31459L31.346874 231.31459L27.909374 231.31459L27.45625 233.62709Q28.221874 233.08022 29.065624 233.08022Q30.190624 233.08022 30.95625 233.86147Q31.7375 234.64272 31.7375 235.87709Q31.7375 237.03334 31.065624 237.89272Q30.2375 238.92397 28.815624 238.92397Q27.64375 238.92397 26.89375 238.26772Q26.159374 237.61147 26.05 236.53334ZM33.05 234.54897Q33.05 233.01772 33.3625 232.09584Q33.675 231.15834 34.284374 230.65834Q34.909374 230.15834 35.846874 230.15834Q36.534374 230.15834 37.05 230.43959Q37.58125 230.72084 37.925 231.25209Q38.26875 231.76772 38.45625 232.51772Q38.64375 233.26772 38.64375 234.54897Q38.64375 236.06459 38.33125 236.98647Q38.034374 237.90834 37.409374 238.42397Q36.8 238.92397 35.846874 238.92397Q34.6125 238.92397 33.89375 238.03334Q33.05 236.97084 33.05 234.54897ZM34.128124 234.54897Q34.128124 236.65834 34.628124 237.36147Q35.128124 238.06459 35.846874 238.06459Q36.58125 238.06459 37.065624 237.36147Q37.565624 236.65834 37.565624 234.54897Q37.565624 232.42397 37.065624 231.73647Q36.58125 231.03334 35.83125 231.03334Q35.1125 231.03334 34.675 231.64272Q34.128124 232.42397 34.128124 234.54897ZM40.05 234.54897Q40.05 233.01772 40.3625 232.09584Q40.675 231.15834 41.284374 230.65834Q41.909374 230.15834 42.846874 230.15834Q43.534374 230.15834 44.05 230.43959Q44.58125 230.72084 44.925 231.25209Q45.26875 231.76772 45.45625 232.51772Q45.64375 233.26772 45.64375 234.54897Q45.64375 236.06459 45.33125 236.98647Q45.034374 237.90834 44.409374 238.42397Q43.8 238.92397 42.846874 238.92397Q41.6125 238.92397 40.89375 238.03334Q40.05 236.97084 40.05 234.54897ZM41.128124 234.54897Q41.128124 236.65834 41.628124 237.36147Q42.128124 238.06459 42.846874 238.06459Q43.58125 238.06459 44.065624 237.36147Q44.565624 236.65834 44.565624 234.54897Q44.565624 232.42397 44.065624 231.73647Q43.58125 231.03334 42.83125 231.03334Q42.1125 231.03334 41.675 231.64272Q41.128124 232.42397 41.128124 234.54897ZM47.05 234.54897Q47.05 233.01772 47.3625 232.09584Q47.675 231.15834 48.284374 230.65834Q48.909374 230.15834 49.846874 230.15834Q50.534374 230.15834 51.05 230.43959Q51.58125 230.72084 51.925 231.25209Q52.26875 231.76772 52.45625 232.51772Q52.64375 233.26772 52.64375 234.54897Q52.64375 236.06459 52.33125 236.98647Q52.034374 237.90834 51.409374 238.42397Q50.8 238.92397 49.846874 238.92397Q48.6125 238.92397 47.89375 238.03334Q47.05 236.97084 47.05 234.54897ZM48.128124 234.54897Q48.128124 236.65834 48.628124 237.36147Q49.128124 238.06459 49.846874 238.06459Q50.58125 238.06459 51.065624 237.36147Q51.565624 236.65834 51.565624 234.54897Q51.565624 232.42397 51.065624 231.73647Q50.58125 231.03334 49.83125 231.03334Q49.1125 231.03334 48.675 231.64272Q48.128124 232.42397 48.128124 234.54897Z" fill-rule="nonzero"/><path fill="#000000" d="M26.1125 182.48125L26.1125 181.46562L31.675 181.46562L31.675 182.29375Q30.8625 183.16875 30.05 184.62187Q29.253124 186.05937 28.815624 187.59062Q28.4875 188.66875 28.409374 189.95L27.315624 189.95Q27.33125 188.93437 27.70625 187.49687Q28.096874 186.05937 28.8 184.73125Q29.51875 183.40312 30.33125 182.48125L26.1125 182.48125ZM33.05 187.7L34.159374 187.60625Q34.284374 188.41875 34.721874 188.825Q35.175 189.23125 35.815624 189.23125Q36.565624 189.23125 37.096874 188.65312Q37.628124 188.075 37.628124 187.1375Q37.628124 186.23125 37.1125 185.71562Q36.6125 185.18437 35.784374 185.18437Q35.284374 185.18437 34.8625 185.41875Q34.45625 185.65312 34.221874 186.0125L33.2375 185.8875L34.065624 181.48125L38.346874 181.48125L38.346874 182.48125L34.909374 182.48125L34.45625 184.79375Q35.221874 184.24687 36.065624 184.24687Q37.190624 184.24687 37.95625 185.02812Q38.7375 185.80937 38.7375 187.04375Q38.7375 188.2 38.065624 189.05937Q37.2375 190.09062 35.815624 190.09062Q34.64375 190.09062 33.89375 189.43437Q33.159374 188.77812 33.05 187.7ZM40.05 185.71562Q40.05 184.18437 40.3625 183.2625Q40.675 182.325 41.284374 181.825Q41.909374 181.325 42.846874 181.325Q43.534374 181.325 44.05 181.60625Q44.58125 181.8875 44.925 182.41875Q45.26875 182.93437 45.45625 183.68437Q45.64375 184.43437 45.64375 185.71562Q45.64375 187.23125 45.33125 188.15312Q45.034374 189.075 44.409374 189.59062Q43.8 190.09062 42.846874 190.09062Q41.6125 190.09062 40.89375 189.2Q40.05 188.1375 40.05 185.71562ZM41.128124 185.71562Q41.128124 187.825 41.628124 188.52812Q42.128124 189.23125 42.846874 189.23125Q43.58125 189.23125 44.065624 188.52812Q44.565624 187.825 44.565624 185.71562Q44.565624 183.59062 44.065624 182.90312Q43.58125 182.2 42.83125 182.2Q42.1125 182.2 41.675 182.80937Q41.128124 183.59062 41.128124 185.71562ZM47.05 185.71562Q47.05 184.18437 47.3625 183.2625Q47.675 182.325 48.284374 181.825Q48.909374 181.325 49.846874 181.325Q50.534374 181.325 51.05 181.60625Q51.58125 181.8875 51.925 182.41875Q52.26875 182.93437 52.45625 183.68437Q52.64375 184.43437 52.64375 185.71562Q52.64375 187.23125 52.33125 188.15312Q52.034374 189.075 51.409374 189.59062Q50.8 190.09062 49.846874 190.09062Q48.6125 190.09062 47.89375 189.2Q47.05 188.1375 47.05 185.71562ZM48.128124 185.71562Q48.128124 187.825 48.628124 188.52812Q49.128124 189.23125 49.846874 189.23125Q50.58125 189.23125 51.065624 188.52812Q51.565624 187.825 51.565624 185.71562Q51.565624 183.59062 51.065624 182.90312Q50.58125 182.2 49.83125 182.2Q49.1125 182.2 48.675 182.80937Q48.128124 183.59062 48.128124 185.71562Z" fill-rule="nonzero"/><path fill="#000000" d="M23.01875 141.11667L21.971874 141.11667L21.971874 134.39792Q21.58125 134.7573 20.95625 135.1323Q20.346874 135.49167 19.8625 135.66354L19.8625 134.64792Q20.7375 134.22604 21.39375 133.64792Q22.065624 133.05417 22.346874 132.49167L23.01875 132.49167L23.01875 141.11667ZM26.05 136.8823Q26.05 135.35104 26.3625 134.42917Q26.675 133.49167 27.284374 132.99167Q27.909374 132.49167 28.846874 132.49167Q29.534374 132.49167 30.05 132.77292Q30.58125 133.05417 30.925 133.58542Q31.26875 134.10104 31.45625 134.85104Q31.64375 135.60104 31.64375 136.8823Q31.64375 138.39792 31.33125 139.3198Q31.034374 140.24167 30.409374 140.7573Q29.8 141.2573 28.846874 141.2573Q27.6125 141.2573 26.89375 140.36667Q26.05 139.30417 26.05 136.8823ZM27.128124 136.8823Q27.128124 138.99167 27.628124 139.6948Q28.128124 140.39792 28.846874 140.39792Q29.58125 140.39792 30.065624 139.6948Q30.565624 138.99167 30.565624 136.8823Q30.565624 134.7573 30.065624 134.0698Q29.58125 133.36667 28.83125 133.36667Q28.1125 133.36667 27.675 133.97604Q27.128124 134.7573 27.128124 136.8823ZM33.05 136.8823Q33.05 135.35104 33.3625 134.42917Q33.675 133.49167 34.284374 132.99167Q34.909374 132.49167 35.846874 132.49167Q36.534374 132.49167 37.05 132.77292Q37.58125 133.05417 37.925 133.58542Q38.26875 134.10104 38.45625 134.85104Q38.64375 135.60104 38.64375 136.8823Q38.64375 138.39792 38.33125 139.3198Q38.034374 140.24167 37.409374 140.7573Q36.8 141.2573 35.846874 141.2573Q34.6125 141.2573 33.89375 140.36667Q33.05 139.30417 33.05 136.8823ZM34.128124 136.8823Q34.128124 138.99167 34.628124 139.6948Q35.128124 140.39792 35.846874 140.39792Q36.58125 140.39792 37.065624 139.6948Q37.565624 138.99167 37.565624 136.8823Q37.565624 134.7573 37.065624 134.0698Q36.58125 133.36667 35.83125 133.36667Q35.1125 133.36667 34.675 133.97604Q34.128124 134.7573 34.128124 136.8823ZM40.05 136.8823Q40.05 135.35104 40.3625 134.42917Q40.675 133.49167 41.284374 132.99167Q41.909374 132.49167 42.846874 132.49167Q43.534374 132.49167 44.05 132.77292Q44.58125 133.05417 44.925 133.58542Q45.26875 134.10104 45.45625 134.85104Q45.64375 135.60104 45.64375 136.8823Q45.64375 138.39792 45.33125 139.3198Q45.034374 140.24167 44.409374 140.7573Q43.8 141.2573 42.846874 141.2573Q41.6125 141.2573 40.89375 140.36667Q40.05 139.30417 40.05 136.8823ZM41.128124 136.8823Q41.128124 138.99167 41.628124 139.6948Q42.128124 140.39792 42.846874 140.39792Q43.58125 140.39792 44.065624 139.6948Q44.565624 138.99167 44.565624 136.8823Q44.565624 134.7573 44.065624 134.0698Q43.58125 133.36667 42.83125 133.36667Q42.1125 133.36667 41.675 133.97604Q41.128124 134.7573 41.128124 136.8823ZM47.05 136.8823Q47.05 135.35104 47.3625 134.42917Q47.675 133.49167 48.284374 132.99167Q48.909374 132.49167 49.846874 132.49167Q50.534374 132.49167 51.05 132.77292Q51.58125 133.05417 51.925 133.58542Q52.26875 134.10104 52.45625 134.85104Q52.64375 135.60104 52.64375 136.8823Q52.64375 138.39792 52.33125 139.3198Q52.034374 140.24167 51.409374 140.7573Q50.8 141.2573 49.846874 141.2573Q48.6125 141.2573 47.89375 140.36667Q47.05 139.30417 47.05 136.8823ZM48.128124 136.8823Q48.128124 138.99167 48.628124 139.6948Q49.128124 140.39792 49.846874 140.39792Q50.58125 140.39792 51.065624 139.6948Q51.565624 138.99167 51.565624 136.8823Q51.565624 134.7573 51.065624 134.0698Q50.58125 133.36667 49.83125 133.36667Q49.1125 133.36667 48.675 133.97604Q48.128124 134.7573 48.128124 136.8823Z" fill-rule="nonzero"/><path fill="#000000" d="M23.01875 92.28333L21.971874 92.28333L21.971874 85.56458Q21.58125 85.92396 20.95625 86.29896Q20.346874 86.65833 19.8625 86.83021L19.8625 85.81458Q20.7375 85.39271 21.39375 84.81458Q22.065624 84.22083 22.346874 83.65833L23.01875 83.65833L23.01875 92.28333ZM31.596874 91.26771L31.596874 92.28333L25.909374 92.28333Q25.909374 91.90833 26.034374 91.54896Q26.253124 90.97083 26.721874 90.40833Q27.20625 89.84583 28.1125 89.11146Q29.51875 87.95521 30.003124 87.28333Q30.503124 86.61146 30.503124 86.01771Q30.503124 85.39271 30.05 84.97083Q29.596874 84.53333 28.878124 84.53333Q28.1125 84.53333 27.659374 84.98646Q27.20625 85.43958 27.190624 86.25208L26.1125 86.14271Q26.221874 84.92396 26.940624 84.29896Q27.675 83.65833 28.909374 83.65833Q30.14375 83.65833 30.8625 84.34583Q31.58125 85.03333 31.58125 86.04896Q31.58125 86.56458 31.3625 87.06458Q31.159374 87.54896 30.659374 88.11146Q30.175 88.65833 29.05 89.61146Q28.096874 90.40833 27.815624 90.70521Q27.55 90.98646 27.378124 91.26771L31.596874 91.26771ZM33.05 90.03333L34.159374 89.93958Q34.284374 90.75208 34.721874 91.15833Q35.175 91.56458 35.815624 91.56458Q36.565624 91.56458 37.096874 90.98646Q37.628124 90.40833 37.628124 89.47083Q37.628124 88.56458 37.1125 88.04896Q36.6125 87.51771 35.784374 87.51771Q35.284374 87.51771 34.8625 87.75208Q34.45625 87.98646 34.221874 88.34583L33.2375 88.22083L34.065624 83.81458L38.346874 83.81458L38.346874 84.81458L34.909374 84.81458L34.45625 87.12708Q35.221874 86.58021 36.065624 86.58021Q37.190624 86.58021 37.95625 87.36146Q38.7375 88.14271 38.7375 89.37708Q38.7375 90.53333 38.065624 91.39271Q37.2375 92.42396 35.815624 92.42396Q34.64375 92.42396 33.89375 91.76771Q33.159374 91.11146 33.05 90.03333ZM40.05 88.04896Q40.05 86.51771 40.3625 85.59583Q40.675 84.65833 41.284374 84.15833Q41.909374 83.65833 42.846874 83.65833Q43.534374 83.65833 44.05 83.93958Q44.58125 84.22083 44.925 84.75208Q45.26875 85.26771 45.45625 86.01771Q45.64375 86.76771 45.64375 88.04896Q45.64375 89.56458 45.33125 90.48646Q45.034374 91.40833 44.409374 91.92396Q43.8 92.42396 42.846874 92.42396Q41.6125 92.42396 40.89375 91.53333Q40.05 90.47083 40.05 88.04896ZM41.128124 88.04896Q41.128124 90.15833 41.628124 90.86146Q42.128124 91.56458 42.846874 91.56458Q43.58125 91.56458 44.065624 90.86146Q44.565624 90.15833 44.565624 88.04896Q44.565624 85.92396 44.065624 85.23646Q43.58125 84.53333 42.83125 84.53333Q42.1125 84.53333 41.675 85.14271Q41.128124 85.92396 41.128124 88.04896ZM47.05 88.04896Q47.05 86.51771 47.3625 85.59583Q47.675 84.65833 48.284374 84.15833Q48.909374 83.65833 49.846874 83.65833Q50.534374 83.65833 51.05 83.93958Q51.58125 84.22083 51.925 84.75208Q52.26875 85.26771 52.45625 86.01771Q52.64375 86.76771 52.64375 88.04896Q52.64375 89.56458 52.33125 90.48646Q52.034374 91.40833 51.409374 91.92396Q50.8 92.42396 49.846874 92.42396Q48.6125 92.42396 47.89375 91.53333Q47.05 90.47083 47.05 88.04896ZM48.128124 88.04896Q48.128124 90.15833 48.628124 90.86146Q49.128124 91.56458 49.846874 91.56458Q50.58125 91.56458 51.065624 90.86146Q51.565624 90.15833 51.565624 88.04896Q51.565624 85.92396 51.065624 85.23646Q50.58125 84.53333 49.83125 84.53333Q49.1125 84.53333 48.675 85.14271Q48.128124 85.92396 48.128124 88.04896Z" fill-rule="nonzero"/><path fill="#000000" d="M60.51875 349.45L59.471874 349.45L59.471874 342.73126Q59.08125 343.09064 58.45625 343.46564Q57.846874 343.825 57.3625 343.9969L57.3625 342.98126Q58.2375 342.5594 58.89375 341.98126Q59.565624 341.3875 59.846874 340.825L60.51875 340.825L60.51875 349.45Z" fill-rule="nonzero"/><path fill="#000000" d="M215.12093 349.45L214.07405 349.45L214.07405 342.73126Q213.68343 343.09064 213.05843 343.46564Q212.44905 343.825 211.96468 343.9969L211.96468 342.98126Q212.83968 342.5594 213.49593 341.98126Q214.1678 341.3875 214.44905 340.825L215.12093 340.825L215.12093 349.45ZM218.15218 345.21564Q218.15218 343.6844 218.46468 342.7625Q218.77718 341.825 219.38655 341.325Q220.01155 340.825 220.94905 340.825Q221.63655 340.825 222.15218 341.10626Q222.68343 341.3875 223.02718 341.91876Q223.37093 342.4344 223.55843 343.1844Q223.74593 343.9344 223.74593 345.21564Q223.74593 346.73126 223.43343 347.65314Q223.13655 348.575 222.51155 349.09064Q221.90218 349.59064 220.94905 349.59064Q219.71468 349.59064 218.99593 348.7Q218.15218 347.6375 218.15218 345.21564ZM219.2303 345.21564Q219.2303 347.325 219.7303 348.02814Q220.2303 348.73126 220.94905 348.73126Q221.68343 348.73126 222.1678 348.02814Q222.6678 347.325 222.6678 345.21564Q222.6678 343.09064 222.1678 342.40314Q221.68343 341.7 220.93343 341.7Q220.21468 341.7 219.77718 342.3094Q219.2303 343.09064 219.2303 345.21564Z" fill-rule="nonzero"/><path fill="#000000" d="M369.72308 349.45L368.6762 349.45L368.6762 342.73126Q368.28558 343.09064 367.66058 343.46564Q367.0512 343.825 366.56683 343.9969L366.56683 342.98126Q367.44183 342.5594 368.09808 341.98126Q368.76996 341.3875 369.0512 340.825L369.72308 340.825L369.72308 349.45ZM372.75433 345.21564Q372.75433 343.6844 373.06683 342.7625Q373.37933 341.825 373.9887 341.325Q374.6137 340.825 375.5512 340.825Q376.2387 340.825 376.75433 341.10626Q377.28558 341.3875 377.62933 341.91876Q377.97308 342.4344 378.16058 343.1844Q378.34808 343.9344 378.34808 345.21564Q378.34808 346.73126 378.03558 347.65314Q377.7387 348.575 377.1137 349.09064Q376.50433 349.59064 375.5512 349.59064Q374.31683 349.59064 373.59808 348.7Q372.75433 347.6375 372.75433 345.21564ZM373.83246 345.21564Q373.83246 347.325 374.33246 348.02814Q374.83246 348.73126 375.5512 348.73126Q376.28558 348.73126 376.76996 348.02814Q377.26996 347.325 377.26996 345.21564Q377.26996 343.09064 376.76996 342.40314Q376.28558 341.7 375.53558 341.7Q374.81683 341.7 374.37933 342.3094Q373.83246 343.09064 373.83246 345.21564ZM379.75433 345.21564Q379.75433 343.6844 380.06683 342.7625Q380.37933 341.825 380.9887 341.325Q381.6137 340.825 382.5512 340.825Q383.2387 340.825 383.75433 341.10626Q384.28558 341.3875 384.62933 341.91876Q384.97308 342.4344 385.16058 343.1844Q385.34808 343.9344 385.34808 345.21564Q385.34808 346.73126 385.03558 347.65314Q384.7387 348.575 384.1137 349.09064Q383.50433 349.59064 382.5512 349.59064Q381.31683 349.59064 380.59808 348.7Q379.75433 347.6375 379.75433 345.21564ZM380.83246 345.21564Q380.83246 347.325 381.33246 348.02814Q381.83246 348.73126 382.5512 348.73126Q383.28558 348.73126 383.76996 348.02814Q384.26996 347.325 384.26996 345.21564Q384.26996 343.09064 383.76996 342.40314Q383.28558 341.7 382.53558 341.7Q381.81683 341.7 381.37933 342.3094Q380.83246 343.09064 380.83246 345.21564Z" fill-rule="nonzero"/><path fill="#000000" d="M524.32526 349.45L523.2784 349.45L523.2784 342.73126Q522.88776 343.09064 522.26276 343.46564Q521.6534 343.825 521.169 343.9969L521.169 342.98126Q522.044 342.5594 522.70026 341.98126Q523.37213 341.3875 523.6534 340.825L524.32526 340.825L524.32526 349.45ZM527.3565 345.21564Q527.3565 343.6844 527.669 342.7625Q527.9815 341.825 528.5909 341.325Q529.2159 340.825 530.1534 340.825Q530.8409 340.825 531.3565 341.10626Q531.88776 341.3875 532.2315 341.91876Q532.57526 342.4344 532.76276 343.1844Q532.95026 343.9344 532.95026 345.21564Q532.95026 346.73126 532.63776 347.65314Q532.3409 348.575 531.7159 349.09064Q531.1065 349.59064 530.1534 349.59064Q528.919 349.59064 528.20026 348.7Q527.3565 347.6375 527.3565 345.21564ZM528.43463 345.21564Q528.43463 347.325 528.93463 348.02814Q529.43463 348.73126 530.1534 348.73126Q530.88776 348.73126 531.37213 348.02814Q531.87213 347.325 531.87213 345.21564Q531.87213 343.09064 531.37213 342.40314Q530.88776 341.7 530.13776 341.7Q529.419 341.7 528.9815 342.3094Q528.43463 343.09064 528.43463 345.21564ZM534.3565 345.21564Q534.3565 343.6844 534.669 342.7625Q534.9815 341.825 535.5909 341.325Q536.2159 340.825 537.1534 340.825Q537.8409 340.825 538.3565 341.10626Q538.88776 341.3875 539.2315 341.91876Q539.57526 342.4344 539.76276 343.1844Q539.95026 343.9344 539.95026 345.21564Q539.95026 346.73126 539.63776 347.65314Q539.3409 348.575 538.7159 349.09064Q538.1065 349.59064 537.1534 349.59064Q535.919 349.59064 535.20026 348.7Q534.3565 347.6375 534.3565 345.21564ZM535.43463 345.21564Q535.43463 347.325 535.93463 348.02814Q536.43463 348.73126 537.1534 348.73126Q537.88776 348.73126 538.37213 348.02814Q538.87213 347.325 538.87213 345.21564Q538.87213 343.09064 538.37213 342.40314Q537.88776 341.7 537.13776 341.7Q536.419 341.7 535.9815 342.3094Q535.43463 343.09064 535.43463 345.21564ZM541.3565 345.21564Q541.3565 343.6844 541.669 342.7625Q541.9815 341.825 542.5909 341.325Q543.2159 340.825 544.1534 340.825Q544.8409 340.825 545.3565 341.10626Q545.88776 341.3875 546.2315 341.91876Q546.57526 342.4344 546.76276 343.1844Q546.95026 343.9344 546.95026 345.21564Q546.95026 346.73126 546.63776 347.65314Q546.3409 348.575 545.7159 349.09064Q545.1065 349.59064 544.1534 349.59064Q542.919 349.59064 542.20026 348.7Q541.3565 347.6375 541.3565 345.21564ZM542.43463 345.21564Q542.43463 347.325 542.93463 348.02814Q543.43463 348.73126 544.1534 348.73126Q544.88776 348.73126 545.37213 348.02814Q545.87213 347.325 545.87213 345.21564Q545.87213 343.09064 545.37213 342.40314Q544.88776 341.7 544.13776 341.7Q543.419 341.7 542.9815 342.3094Q542.43463 343.09064 542.43463 345.21564Z" fill-rule="nonzero"/><path stroke="#4285f4" stroke-width="4.0" stroke-linecap="butt" d="M214.5 61.916668L226.5 61.916668" fill-rule="nonzero"/><path fill="#1a1a1a" d="M238.96875 65.916664L237.92188 65.916664L237.92188 59.197914Q237.53125 59.55729 236.90625 59.93229Q236.29688 60.291664 235.8125 60.46354L235.8125 59.447914Q236.6875 59.02604 237.34375 58.447914Q238.01562 57.854164 238.29688 57.291664L238.96875 57.291664L238.96875 65.916664ZM247.54688 64.90104L247.54688 65.916664L241.85938 65.916664Q241.85938 65.541664 241.98438 65.18229Q242.20312 64.604164 242.67188 64.041664Q243.15625 63.479164 244.0625 62.74479Q245.46875 61.58854 245.95312 60.916664Q246.45312 60.24479 246.45312 59.65104Q246.45312 59.02604 246.0 58.604164Q245.54688 58.166664 244.82812 58.166664Q244.0625 58.166664 243.60938 58.61979Q243.15625 59.072914 243.14062 59.885414L242.0625 59.77604Q242.17188 58.55729 242.89062 57.93229Q243.625 57.291664 244.85938 57.291664Q246.09375 57.291664 246.8125 57.979164Q247.53125 58.666664 247.53125 59.68229Q247.53125 60.197914 247.3125 60.697914Q247.10938 61.18229 246.60938 61.74479Q246.125 62.291664 245.0 63.24479Q244.04688 64.041664 243.76562 64.33854Q243.5 64.61979 243.32812 64.90104L247.54688 64.90104ZM250.625 61.260414Q249.96875 61.010414 249.64062 60.572914Q249.32812 60.11979 249.32812 59.510414Q249.32812 58.572914 250.0 57.93229Q250.6875 57.291664 251.79688 57.291664Q252.92188 57.291664 253.60938 57.947914Q254.29688 58.604164 254.29688 59.541664Q254.29688 60.135414 253.98438 60.572914Q253.67188 61.010414 253.03125 61.260414Q253.82812 61.510414 254.23438 62.08854Q254.64062 62.666664 254.64062 63.46354Q254.64062 64.55729 253.85938 65.30729Q253.09375 66.05729 251.8125 66.05729Q250.54688 66.05729 249.76562 65.30729Q248.98438 64.55729 248.98438 63.43229Q248.98438 62.58854 249.40625 62.02604Q249.84375 61.46354 250.625 61.260414ZM250.40625 59.46354Q250.40625 60.072914 250.79688 60.46354Q251.20312 60.854164 251.82812 60.854164Q252.4375 60.854164 252.82812 60.479164Q253.21875 60.08854 253.21875 59.52604Q253.21875 58.947914 252.8125 58.55729Q252.40625 58.15104 251.8125 58.15104Q251.20312 58.15104 250.79688 58.541664Q250.40625 58.93229 250.40625 59.46354ZM250.07812 63.43229Q250.07812 63.885414 250.28125 64.30729Q250.5 64.729164 250.92188 64.96354Q251.34375 65.197914 251.82812 65.197914Q252.57812 65.197914 253.0625 64.71354Q253.5625 64.229164 253.5625 63.479164Q253.5625 62.71354 253.0625 62.21354Q252.5625 61.71354 251.79688 61.71354Q251.04688 61.71354 250.5625 62.21354Q250.07812 62.697914 250.07812 63.43229ZM256.29688 65.916664L256.29688 57.322914L257.35938 57.322914L257.35938 62.229164L259.84375 59.697914L261.21875 59.697914L258.82812 61.99479L261.45312 65.916664L260.15625 65.916664L258.09375 62.729164L257.35938 63.447914L257.35938 65.916664L256.29688 65.916664ZM262.375 65.916664L262.375 57.322914L265.60938 57.322914Q266.59375 57.322914 267.1875 57.58854Q267.78125 57.854164 268.10938 58.40104Q268.45312 58.93229 268.45312 59.52604Q268.45312 60.072914 268.15625 60.55729Q267.85938 61.041664 267.25 61.33854Q268.03125 61.572914 268.4375 62.135414Q268.85938 62.68229 268.85938 63.43229Q268.85938 64.02604 268.60938 64.55729Q268.35938 65.072914 267.98438 65.354164Q267.60938 65.635414 267.03125 65.77604Q266.46875 65.916664 265.65625 65.916664L262.375 65.916664ZM263.51562 60.93229L265.375 60.93229Q266.125 60.93229 266.45312 60.83854Q266.89062 60.71354 267.10938 60.416664Q267.32812 60.104164 267.32812 59.65104Q267.32812 59.229164 267.125 58.90104Q266.92188 58.572914 266.53125 58.46354Q266.15625 58.33854 265.23438 58.33854L263.51562 58.33854L263.51562 60.93229ZM263.51562 64.90104L265.65625 64.90104Q266.20312 64.90104 266.42188 64.854164Q266.82812 64.791664 267.07812 64.635414Q267.34375 64.46354 267.51562 64.15104Q267.6875 63.83854 267.6875 63.43229Q267.6875 62.947914 267.4375 62.58854Q267.20312 62.229164 266.76562 62.08854Q266.32812 61.947914 265.5 61.947914L263.51562 61.947914L263.51562 64.90104Z" fill-rule="nonzero"/><path stroke="#ea4335" stroke-width="4.0" stroke-linecap="butt" d="M285.5 61.916668L297.5 61.916668" fill-rule="nonzero"/><path fill="#1a1a1a" d="M309.96875 65.916664L308.92188 65.916664L308.92188 59.197914Q308.53125 59.55729 307.90625 59.93229Q307.29688 60.291664 306.8125 60.46354L306.8125 59.447914Q307.6875 59.02604 308.34375 58.447914Q309.01562 57.854164 309.29688 57.291664L309.96875 57.291664L309.96875 65.916664ZM318.54688 64.90104L318.54688 65.916664L312.85938 65.916664Q312.85938 65.541664 312.98438 65.18229Q313.20312 64.604164 313.67188 64.041664Q314.15625 63.479164 315.0625 62.74479Q316.46875 61.58854 316.95312 60.916664Q317.45312 60.24479 317.45312 59.65104Q317.45312 59.02604 317.0 58.604164Q316.54688 58.166664 315.82812 58.166664Q315.0625 58.166664 314.60938 58.61979Q314.15625 59.072914 314.14062 59.885414L313.0625 59.77604Q313.17188 58.55729 313.89062 57.93229Q314.625 57.291664 315.85938 57.291664Q317.09375 57.291664 317.8125 57.979164Q318.53125 58.666664 318.53125 59.68229Q318.53125 60.197914 318.3125 60.697914Q318.10938 61.18229 317.60938 61.74479Q317.125 62.291664 316.0 63.24479Q315.04688 64.041664 314.76562 64.33854Q314.5 64.61979 314.32812 64.90104L318.54688 64.90104ZM321.625 61.260414Q320.96875 61.010414 320.64062 60.572914Q320.32812 60.11979 320.32812 59.510414Q320.32812 58.572914 321.0 57.93229Q321.6875 57.291664 322.79688 57.291664Q323.92188 57.291664 324.60938 57.947914Q325.29688 58.604164 325.29688 59.541664Q325.29688 60.135414 324.98438 60.572914Q324.67188 61.010414 324.03125 61.260414Q324.82812 61.510414 325.23438 62.08854Q325.64062 62.666664 325.64062 63.46354Q325.64062 64.55729 324.85938 65.30729Q324.09375 66.05729 322.8125 66.05729Q321.54688 66.05729 320.76562 65.30729Q319.98438 64.55729 319.98438 63.43229Q319.98438 62.58854 320.40625 62.02604Q320.84375 61.46354 321.625 61.260414ZM321.40625 59.46354Q321.40625 60.072914 321.79688 60.46354Q322.20312 60.854164 322.82812 60.854164Q323.4375 60.854164 323.82812 60.479164Q324.21875 60.08854 324.21875 59.52604Q324.21875 58.947914 323.8125 58.55729Q323.40625 58.15104 322.8125 58.15104Q322.20312 58.15104 321.79688 58.541664Q321.40625 58.93229 321.40625 59.46354ZM321.07812 63.43229Q321.07812 63.885414 321.28125 64.30729Q321.5 64.729164 321.92188 64.96354Q322.34375 65.197914 322.82812 65.197914Q323.57812 65.197914 324.0625 64.71354Q324.5625 64.229164 324.5625 63.479164Q324.5625 62.71354 324.0625 62.21354Q323.5625 61.71354 322.79688 61.71354Q322.04688 61.71354 321.5625 62.21354Q321.07812 62.697914 321.07812 63.43229ZM327.29688 65.916664L327.29688 57.322914L328.35938 57.322914L328.35938 62.229164L330.84375 59.697914L332.21875 59.697914L329.82812 61.99479L332.45312 65.916664L331.15625 65.916664L329.09375 62.729164L328.35938 63.447914L328.35938 65.916664L327.29688 65.916664ZM333.375 65.916664L333.375 57.322914L336.60938 57.322914Q337.59375 57.322914 338.1875 57.58854Q338.78125 57.854164 339.10938 58.40104Q339.45312 58.93229 339.45312 59.52604Q339.45312 60.072914 339.15625 60.55729Q338.85938 61.041664 338.25 61.33854Q339.03125 61.572914 339.4375 62.135414Q339.85938 62.68229 339.85938 63.43229Q339.85938 64.02604 339.60938 64.55729Q339.35938 65.072914 338.98438 65.354164Q338.60938 65.635414 338.03125 65.77604Q337.46875 65.916664 336.65625 65.916664L333.375 65.916664ZM334.51562 60.93229L336.375 60.93229Q337.125 60.93229 337.45312 60.83854Q337.89062 60.71354 338.10938 60.416664Q338.32812 60.104164 338.32812 59.65104Q338.32812 59.229164 338.125 58.90104Q337.92188 58.572914 337.53125 58.46354Q337.15625 58.33854 336.23438 58.33854L334.51562 58.33854L334.51562 60.93229ZM334.51562 64.90104L336.65625 64.90104Q337.20312 64.90104 337.42188 64.854164Q337.82812 64.791664 338.07812 64.635414Q338.34375 64.46354 338.51562 64.15104Q338.6875 63.83854 338.6875 63.43229Q338.6875 62.947914 338.4375 62.58854Q338.20312 62.229164 337.76562 62.08854Q337.32812 61.947914 336.5 61.947914L334.51562 61.947914L334.51562 64.90104ZM345.4375 65.916664L343.53125 59.697914L344.625 59.697914L345.60938 63.291664L345.98438 64.61979Q346.01562 64.52604 346.3125 63.33854L347.29688 59.697914L348.375 59.697914L349.3125 63.30729L349.625 64.49479L349.98438 63.291664L351.04688 59.697914L352.07812 59.697914L350.125 65.916664L349.03125 65.916664L348.04688 62.18229L347.79688 61.135414L346.54688 65.916664L345.4375 65.916664ZM352.5 66.05729L354.98438 57.18229L355.82812 57.18229L353.34375 66.05729L352.5 66.05729ZM356.375 65.916664L356.375 57.322914L357.51562 57.322914L357.51562 61.58854L361.78125 57.322914L363.32812 57.322914L359.71875 60.80729L363.48438 65.916664L361.98438 65.916664L358.92188 61.572914L357.51562 62.93229L357.51562 65.916664L356.375 65.916664ZM366.60938 65.916664L366.60938 58.33854L363.78125 58.33854L363.78125 57.322914L370.59375 57.322914L370.59375 58.33854L367.75 58.33854L367.75 65.916664L366.60938 65.916664ZM371.375 65.916664L371.375 57.322914L372.51562 57.322914L372.51562 64.90104L376.75 64.90104L376.75 65.916664L371.375 65.916664ZM378.04688 63.15104L379.10938 63.05729Q379.1875 63.71354 379.46875 64.11979Q379.75 64.52604 380.32812 64.791664Q380.92188 65.041664 381.65625 65.041664Q382.29688 65.041664 382.79688 64.854164Q383.29688 64.65104 383.53125 64.322914Q383.78125 63.979164 383.78125 63.58854Q383.78125 63.18229 383.54688 62.885414Q383.3125 62.572914 382.78125 62.36979Q382.42188 62.229164 381.23438 61.947914Q380.0625 61.666664 379.59375 61.416664Q378.96875 61.08854 378.67188 60.61979Q378.375 60.135414 378.375 59.541664Q378.375 58.90104 378.73438 58.33854Q379.10938 57.760414 379.8125 57.479164Q380.53125 57.18229 381.39062 57.18229Q382.34375 57.18229 383.07812 57.49479Q383.8125 57.791664 384.20312 58.40104Q384.59375 58.99479 384.625 59.74479L383.53125 59.822914Q383.4375 59.010414 382.92188 58.604164Q382.42188 58.18229 381.4375 58.18229Q380.40625 58.18229 379.9375 58.55729Q379.46875 58.93229 379.46875 59.46354Q379.46875 59.93229 379.79688 60.229164Q380.125 60.52604 381.5 60.83854Q382.89062 61.15104 383.40625 61.385414Q384.15625 61.74479 384.51562 62.27604Q384.875 62.791664 384.875 63.49479Q384.875 64.18229 384.48438 64.791664Q384.09375 65.385414 383.35938 65.729164Q382.625 66.05729 381.70312 66.05729Q380.53125 66.05729 379.73438 65.729164Q378.95312 65.385414 378.5 64.697914Q378.0625 64.010414 378.04688 63.15104Z" fill-rule="nonzero"/><path fill="#757575" d="M192.29688 37.55L192.29688 27.175L193.875 27.175L193.875 28.753124Q194.48438 27.64375 195.0 27.3Q195.51562 26.940624 196.125 26.940624Q197.01562 26.940624 197.9375 27.503124L197.32812 29.14375Q196.6875 28.753124 196.04688 28.753124Q195.46875 28.753124 195.0 29.1125Q194.54688 29.45625 194.34375 30.065624Q194.0625 31.003124 194.0625 32.1125L194.0625 37.55L192.29688 37.55ZM206.42188 34.20625L208.23438 34.440624Q207.8125 36.01875 206.64062 36.909374Q205.48438 37.784374 203.67188 37.784374Q201.40625 37.784374 200.0625 36.39375Q198.73438 34.9875 198.73438 32.45625Q198.73438 29.83125 200.07812 28.39375Q201.42188 26.940624 203.57812 26.940624Q205.65625 26.940624 206.96875 28.3625Q208.29688 29.76875 208.29688 32.346874Q208.29688 32.503124 208.28125 32.815624L200.54688 32.815624Q200.64062 34.51875 201.51562 35.425Q202.39062 36.33125 203.6875 36.33125Q204.65625 36.33125 205.32812 35.83125Q206.01562 35.315624 206.42188 34.20625ZM200.64062 31.3625L206.4375 31.3625Q206.32812 30.065624 205.78125 29.409374Q204.9375 28.39375 203.59375 28.39375Q202.39062 28.39375 201.5625 29.20625Q200.73438 30.003124 200.64062 31.3625ZM216.9375 41.51875L216.9375 36.440624Q216.51562 37.01875 215.78125 37.409374Q215.04688 37.784374 214.21875 37.784374Q212.375 37.784374 211.03125 36.315624Q209.70312 34.83125 209.70312 32.26875Q209.70312 30.70625 210.23438 29.471874Q210.78125 28.221874 211.8125 27.58125Q212.84375 26.940624 214.07812 26.940624Q216.0 26.940624 217.10938 28.565624L217.10938 27.175L218.6875 27.175L218.6875 41.51875L216.9375 41.51875ZM211.51562 32.33125Q211.51562 34.33125 212.34375 35.33125Q213.1875 36.33125 214.35938 36.33125Q215.48438 36.33125 216.29688 35.39375Q217.10938 34.440624 217.10938 32.4875Q217.10938 30.425 216.25 29.378124Q215.39062 28.33125 214.25 28.33125Q213.10938 28.33125 212.3125 29.3Q211.51562 30.26875 211.51562 32.33125ZM228.10938 37.55L228.10938 36.01875Q226.90625 37.784374 224.82812 37.784374Q223.90625 37.784374 223.10938 37.440624Q222.3125 37.08125 221.92188 36.55Q221.54688 36.01875 221.39062 35.2375Q221.28125 34.721874 221.28125 33.596874L221.28125 27.175L223.03125 27.175L223.03125 32.925Q223.03125 34.3 223.14062 34.784374Q223.3125 35.471874 223.84375 35.878124Q224.39062 36.26875 225.17188 36.26875Q225.96875 36.26875 226.65625 35.8625Q227.35938 35.45625 227.64062 34.76875Q227.9375 34.065624 227.9375 32.7375L227.9375 27.175L229.6875 27.175L229.6875 37.55L228.10938 37.55ZM238.42188 34.20625L240.23438 34.440624Q239.8125 36.01875 238.64062 36.909374Q237.48438 37.784374 235.67188 37.784374Q233.40625 37.784374 232.0625 36.39375Q230.73438 34.9875 230.73438 32.45625Q230.73438 29.83125 232.07812 28.39375Q233.42188 26.940624 235.57812 26.940624Q237.65625 26.940624 238.96875 28.3625Q240.29688 29.76875 240.29688 32.346874Q240.29688 32.503124 240.28125 32.815624L232.54688 32.815624Q232.64062 34.51875 233.51562 35.425Q234.39062 36.33125 235.6875 36.33125Q236.65625 36.33125 237.32812 35.83125Q238.01562 35.315624 238.42188 34.20625ZM232.64062 31.3625L238.4375 31.3625Q238.32812 30.065624 237.78125 29.409374Q236.9375 28.39375 235.59375 28.39375Q234.39062 28.39375 233.5625 29.20625Q232.73438 30.003124 232.64062 31.3625ZM241.60938 34.45625L243.35938 34.175Q243.5 35.221874 244.17188 35.784374Q244.84375 36.33125 246.04688 36.33125Q247.25 36.33125 247.82812 35.846874Q248.42188 35.346874 248.42188 34.690624Q248.42188 34.096874 247.90625 33.753124Q247.54688 33.51875 246.10938 33.159374Q244.17188 32.659374 243.42188 32.315624Q242.6875 31.95625 242.29688 31.33125Q241.90625 30.690624 241.90625 29.925Q241.90625 29.2375 242.21875 28.64375Q242.54688 28.05 243.09375 27.659374Q243.5 27.3625 244.20312 27.159374Q244.92188 26.940624 245.73438 26.940624Q246.95312 26.940624 247.875 27.3Q248.79688 27.64375 249.23438 28.253124Q249.67188 28.846874 249.84375 29.846874L248.125 30.08125Q248.0 29.284374 247.4375 28.846874Q246.875 28.39375 245.85938 28.39375Q244.64062 28.39375 244.125 28.8Q243.60938 29.190624 243.60938 29.721874Q243.60938 30.065624 243.82812 30.346874Q244.03125 30.628124 244.5 30.815624Q244.76562 30.909374 246.04688 31.253124Q247.92188 31.753124 248.65625 32.08125Q249.39062 32.39375 249.8125 33.003124Q250.23438 33.596874 250.23438 34.503124Q250.23438 35.378124 249.71875 36.159374Q249.20312 36.940624 248.23438 37.3625Q247.26562 37.784374 246.04688 37.784374Q244.03125 37.784374 242.96875 36.940624Q241.90625 36.096874 241.60938 34.45625ZM256.15625 35.971874L256.40625 37.534374Q255.67188 37.690624 255.07812 37.690624Q254.125 37.690624 253.59375 37.39375Q253.07812 37.08125 252.85938 36.596874Q252.64062 36.096874 252.64062 34.51875L252.64062 28.55L251.35938 28.55L251.35938 27.175L252.64062 27.175L252.64062 24.6125L254.39062 23.55L254.39062 27.175L256.15625 27.175L256.15625 28.55L254.39062 28.55L254.39062 34.6125Q254.39062 35.3625 254.48438 35.58125Q254.57812 35.784374 254.78125 35.925Q255.0 36.05 255.39062 36.05Q255.67188 36.05 256.15625 35.971874ZM257.60938 34.45625L259.35938 34.175Q259.5 35.221874 260.17188 35.784374Q260.84375 36.33125 262.04688 36.33125Q263.25 36.33125 263.82812 35.846874Q264.42188 35.346874 264.42188 34.690624Q264.42188 34.096874 263.90625 33.753124Q263.54688 33.51875 262.10938 33.159374Q260.17188 32.659374 259.42188 32.315624Q258.6875 31.95625 258.29688 31.33125Q257.90625 30.690624 257.90625 29.925Q257.90625 29.2375 258.21875 28.64375Q258.54688 28.05 259.09375 27.659374Q259.5 27.3625 260.20312 27.159374Q260.92188 26.940624 261.73438 26.940624Q262.95312 26.940624 263.875 27.3Q264.79688 27.64375 265.23438 28.253124Q265.67188 28.846874 265.84375 29.846874L264.125 30.08125Q264.0 29.284374 263.4375 28.846874Q262.875 28.39375 261.85938 28.39375Q260.64062 28.39375 260.125 28.8Q259.60938 29.190624 259.60938 29.721874Q259.60938 30.065624 259.82812 30.346874Q260.03125 30.628124 260.5 30.815624Q260.76562 30.909374 262.04688 31.253124Q263.92188 31.753124 264.65625 32.08125Q265.39062 32.39375 265.8125 33.003124Q266.23438 33.596874 266.23438 34.503124Q266.23438 35.378124 265.71875 36.159374Q265.20312 36.940624 264.23438 37.3625Q263.26562 37.784374 262.04688 37.784374Q260.03125 37.784374 258.96875 36.940624Q257.90625 36.096874 257.60938 34.45625ZM267.0 37.8L271.15625 22.9875L272.5625 22.9875L268.42188 37.8L267.0 37.8ZM273.60938 34.45625L275.35938 34.175Q275.5 35.221874 276.17188 35.784374Q276.84375 36.33125 278.04688 36.33125Q279.25 36.33125 279.82812 35.846874Q280.42188 35.346874 280.42188 34.690624Q280.42188 34.096874 279.90625 33.753124Q279.54688 33.51875 278.10938 33.159374Q276.17188 32.659374 275.42188 32.315624Q274.6875 31.95625 274.29688 31.33125Q273.90625 30.690624 273.90625 29.925Q273.90625 29.2375 274.21875 28.64375Q274.54688 28.05 275.09375 27.659374Q275.5 27.3625 276.20312 27.159374Q276.92188 26.940624 277.73438 26.940624Q278.95312 26.940624 279.875 27.3Q280.79688 27.64375 281.23438 28.253124Q281.67188 28.846874 281.84375 29.846874L280.125 30.08125Q280.0 29.284374 279.4375 28.846874Q278.875 28.39375 277.85938 28.39375Q276.64062 28.39375 276.125 28.8Q275.60938 29.190624 275.60938 29.721874Q275.60938 30.065624 275.82812 30.346874Q276.03125 30.628124 276.5 30.815624Q276.76562 30.909374 278.04688 31.253124Q279.92188 31.753124 280.65625 32.08125Q281.39062 32.39375 281.8125 33.003124Q282.23438 33.596874 282.23438 34.503124Q282.23438 35.378124 281.71875 36.159374Q281.20312 36.940624 280.23438 37.3625Q279.26562 37.784374 278.04688 37.784374Q276.03125 37.784374 274.96875 36.940624Q273.90625 36.096874 273.60938 34.45625ZM292.23438 37.55L289.0625 27.175L290.875 27.175L292.53125 33.159374L293.14062 35.39375Q293.1875 35.221874 293.67188 33.253124L295.32812 27.175L297.14062 27.175L298.6875 33.190624L299.20312 35.175L299.79688 33.175L301.57812 27.175L303.28125 27.175L300.04688 37.55L298.21875 37.55L296.5625 31.33125L296.17188 29.565624L294.0625 37.55L292.23438 37.55ZM304.0 37.8L308.15625 22.9875L309.5625 22.9875L305.42188 37.8L304.0 37.8ZM317.3125 37.55L317.3125 23.2375L319.07812 23.2375L319.07812 28.3625Q320.3125 26.940624 322.1875 26.940624Q323.32812 26.940624 324.17188 27.39375Q325.03125 27.846874 325.39062 28.659374Q325.76562 29.45625 325.76562 30.971874L325.76562 37.55L324.01562 37.55L324.01562 30.971874Q324.01562 29.659374 323.4375 29.065624Q322.85938 28.45625 321.82812 28.45625Q321.04688 28.45625 320.34375 28.8625Q319.65625 29.26875 319.35938 29.971874Q319.07812 30.659374 319.07812 31.878124L319.07812 37.55L317.3125 37.55ZM334.10938 37.55L334.10938 36.01875Q332.90625 37.784374 330.82812 37.784374Q329.90625 37.784374 329.10938 37.440624Q328.3125 37.08125 327.92188 36.55Q327.54688 36.01875 327.39062 35.2375Q327.28125 34.721874 327.28125 33.596874L327.28125 27.175L329.03125 27.175L329.03125 32.925Q329.03125 34.3 329.14062 34.784374Q329.3125 35.471874 329.84375 35.878124Q330.39062 36.26875 331.17188 36.26875Q331.96875 36.26875 332.65625 35.8625Q333.35938 35.45625 333.64062 34.76875Q333.9375 34.065624 333.9375 32.7375L333.9375 27.175L335.6875 27.175L335.6875 37.55L334.10938 37.55ZM337.29688 37.55L337.29688 27.175L338.875 27.175L338.875 28.753124Q339.48438 27.64375 340.0 27.3Q340.51562 26.940624 341.125 26.940624Q342.01562 26.940624 342.9375 27.503124L342.32812 29.14375Q341.6875 28.753124 341.04688 28.753124Q340.46875 28.753124 340.0 29.1125Q339.54688 29.45625 339.34375 30.065624Q339.0625 31.003124 339.0625 32.1125L339.0625 37.55L337.29688 37.55ZM344.28125 37.55L344.28125 23.2375L346.03125 23.2375L346.03125 37.55L344.28125 37.55ZM360.45312 37.55L358.6875 37.55L358.6875 26.346874Q358.0625 26.95625 357.03125 27.565624Q356.0 28.159374 355.17188 28.471874L355.17188 26.76875Q356.65625 26.08125 357.75 25.096874Q358.85938 24.096874 359.3125 23.175L360.45312 23.175L360.45312 37.55ZM374.0625 35.8625L374.0625 37.55L364.60938 37.55Q364.59375 36.909374 364.8125 36.33125Q365.17188 35.3625 365.96875 34.425Q366.76562 33.4875 368.26562 32.253124Q370.60938 30.346874 371.42188 29.2375Q372.25 28.1125 372.25 27.1125Q372.25 26.065624 371.5 25.346874Q370.75 24.628124 369.54688 24.628124Q368.28125 24.628124 367.51562 25.39375Q366.75 26.159374 366.75 27.503124L364.9375 27.315624Q365.125 25.3 366.32812 24.2375Q367.54688 23.175 369.59375 23.175Q371.64062 23.175 372.84375 24.315624Q374.04688 25.45625 374.04688 27.14375Q374.04688 28.003124 373.6875 28.846874Q373.34375 29.675 372.53125 30.596874Q371.71875 31.503124 369.82812 33.1125Q368.23438 34.440624 367.78125 34.909374Q367.34375 35.378124 367.04688 35.8625L374.0625 35.8625ZM378.53125 29.784374Q377.4375 29.378124 376.90625 28.64375Q376.39062 27.89375 376.39062 26.8625Q376.39062 25.3 377.51562 24.2375Q378.64062 23.175 380.5 23.175Q382.375 23.175 383.51562 24.26875Q384.65625 25.346874 384.65625 26.909374Q384.65625 27.909374 384.125 28.64375Q383.60938 29.378124 382.54688 29.784374Q383.875 30.221874 384.5625 31.175Q385.25 32.128124 385.25 33.45625Q385.25 35.3 383.9375 36.55Q382.64062 37.8 380.53125 37.8Q378.40625 37.8 377.10938 36.55Q375.8125 35.284374 375.8125 33.409374Q375.8125 32.01875 376.51562 31.08125Q377.23438 30.128124 378.53125 29.784374ZM378.1875 26.8Q378.1875 27.815624 378.84375 28.471874Q379.5 29.1125 380.53125 29.1125Q381.54688 29.1125 382.20312 28.471874Q382.85938 27.83125 382.85938 26.909374Q382.85938 25.940624 382.1875 25.284374Q381.51562 24.6125 380.51562 24.6125Q379.51562 24.6125 378.84375 25.26875Q378.1875 25.909374 378.1875 26.8ZM377.625 33.425Q377.625 34.175 377.96875 34.878124Q378.32812 35.58125 379.03125 35.971874Q379.73438 36.346874 380.54688 36.346874Q381.8125 36.346874 382.625 35.534374Q383.45312 34.721874 383.45312 33.471874Q383.45312 32.20625 382.60938 31.378124Q381.76562 30.55 380.48438 30.55Q379.25 30.55 378.4375 31.378124Q377.625 32.190624 377.625 33.425ZM387.32812 37.55L387.32812 23.2375L389.09375 23.2375L389.09375 31.39375L393.25 27.175L395.51562 27.175L391.5625 31.01875L395.92188 37.55L393.75 37.55L390.32812 32.253124L389.09375 33.440624L389.09375 37.55L387.32812 37.55ZM397.46875 37.55L397.46875 23.2375L402.84375 23.2375Q404.48438 23.2375 405.46875 23.675Q406.45312 24.096874 407.01562 25.003124Q407.57812 25.909374 407.57812 26.89375Q407.57812 27.815624 407.07812 28.628124Q406.59375 29.440624 405.57812 29.925Q406.875 30.315624 407.57812 31.2375Q408.28125 32.14375 408.28125 33.39375Q408.28125 34.409374 407.84375 35.26875Q407.42188 36.128124 406.79688 36.596874Q406.17188 37.065624 405.23438 37.315624Q404.29688 37.55 402.92188 37.55L397.46875 37.55ZM399.35938 29.253124L402.45312 29.253124Q403.71875 29.253124 404.26562 29.08125Q404.98438 28.8625 405.34375 28.378124Q405.71875 27.878124 405.71875 27.1125Q405.71875 26.409374 405.375 25.8625Q405.03125 25.315624 404.39062 25.128124Q403.76562 24.925 402.21875 24.925L399.35938 24.925L399.35938 29.253124ZM399.35938 35.8625L402.92188 35.8625Q403.84375 35.8625 404.21875 35.784374Q404.875 35.675 405.3125 35.409374Q405.75 35.128124 406.03125 34.6125Q406.3125 34.08125 406.3125 33.39375Q406.3125 32.596874 405.90625 32.003124Q405.5 31.409374 404.76562 31.175Q404.03125 30.940624 402.67188 30.940624L399.35938 30.940624L399.35938 35.8625Z" fill-rule="nonzero"/></svg>