<svg version="1.1" viewBox="0.0 0.0 600.0 371.0" fill="none" stroke="none" stroke-linecap="square" stroke-miterlimit="10" width="600" height="371" xmlns:xlink="http://www.w3.org/1999/xlink" xmlns="http://www.w3.org/2000/svg"><path fill="#ffffff" d="M0 0L600.0 0L600.0 371.0L0 371.0L0 0Z" fill-rule="nonzero"/><path stroke="#cccccc" stroke-width="1.0" stroke-linecap="butt" d="M59.5 88.5L59.5 332.5" fill-rule="nonzero"/><path stroke="#cccccc" stroke-width="1.0" stroke-linecap="butt" d="M217.5 88.5L217.5 332.5" fill-rule="nonzero"/><path stroke="#cccccc" stroke-width="1.0" stroke-linecap="butt" d="M375.5 88.5L375.5 332.5" fill-rule="nonzero"/><path stroke="#cccccc" stroke-width="1.0" stroke-linecap="butt" d="M533.5 88.5L533.5 332.5" fill-rule="nonzero"/><path stroke="#333333" stroke-width="1.0" stroke-linecap="butt" d="M59.5 332.5L581.5 332.5" fill-rule="nonzero"/><path stroke="#cccccc" stroke-width="1.0" stroke-linecap="butt" d="M59.5 251.5L581.5 251.5" fill-rule="nonzero"/><path stroke="#cccccc" stroke-width="1.0" stroke-linecap="butt" d="M59.5 169.5L581.5 169.5" fill-rule="nonzero"/><path stroke="#cccccc" stroke-width="1.0" stroke-linecap="butt" d="M59.5 88.5L581.5 88.5" fill-rule="nonzero"/><clipPath id="id_0"><path d="M59.55 88.28333L581.45 88.28333L581.45 332.45L59.55 332.45L59.55 88.28333Z" clip-rule="nonzero"/></clipPath><path stroke="#4285f4" stroke-width="2.0" stroke-linecap="butt" clip-path="url(#id_0)" d="M59.55 328.11942L217.65218 296.0581L265.24567 271.1744L328.16083 226.51141L375.75433 193.99696L486.263 144.36057L581.45 127.77155" fill-rule="nonzero"/><path stroke="#ea4335" stroke-width="2.0" stroke-linecap="butt" clip-path="url(#id_0)" d="M59.55 328.10223L217.65218 298.28482L265.24567 275.92447L328.16083 240.59601L375.75433 213.09238L486.263 177.7432L581.45 165.4494" fill-rule="nonzero"/><path fill="#000000" fill-opacity="0.0" clip-path="url(#id_0)" d="M62.55 328.11942C62.55 329.77628 61.206856 331.11942 59.55 331.11942C57.893147 331.11942 56.55 329.77628 56.55 328.11942C56.55 326.46255 57.893147 325.11942 59.55 325.11942C61.206856 325.11942 62.55 326.46255 62.55 328.11942Z" fill-rule="nonzero"/><path fill="#000000" fill-opacity="0.0" clip-path="url(#id_0)" d="M220.65218 296.0581C220.65218 297.71497 219.30902 299.0581 217.65218 299.0581C215.99532 299.0581 214.65218 297.71497 214.65218 296.0581C214.65218 294.40125 215.99532 293.0581 217.65218 293.0581C219.30902 293.0581 220.65218 294.40125 220.65218 296.0581Z" fill-rule="nonzero"/><path fill="#000000" fill-opacity="0.0" clip-path="url(#id_0)" d="M268.24567 271.1744C268.24567 272.83127 266.90253 274.1744 265.24567 274.1744C263.5888 274.1744 262.24567 272.83127 262.24567 271.1744C262.24567 269.51758 263.5888 268.1744 265.24567 268.1744C266.90253 268.1744 268.24567 269.51758 268.24567 271.1744Z" fill-rule="nonzero"/><path fill="#000000" fill-opacity="0.0" clip-path="url(#id_0)" d="M331.16083 226.51141C331.16083 228.16827 329.8177 229.51141 328.16083 229.51141C326.504 229.51141 325.16083 228.16827 325.16083 226.51141C325.16083 224.85455 326.504 223.51141 328.16083 223.51141C329.8177 223.51141 331.16083 224.85455 331.16083 226.51141Z" fill-rule="nonzero"/><path fill="#000000" fill-opacity="0.0" clip-path="url(#id_0)" d="M378.75433 193.99696C378.75433 195.65381 377.4112 196.99696 375.75433 196.99696C374.09747 196.99696 372.75433 195.65381 372.75433 193.99696C372.75433 192.3401 374.09747 190.99696 375.75433 190.99696C377.4112 190.99696 378.75433 192.3401 378.75433 193.99696Z" fill-rule="nonzero"/><path fill="#000000" fill-opacity="0.0" clip-path="url(#id_0)" d="M489.263 144.36057C489.263 146.01741 487.91986 147.36057 486.263 147.36057C484.60617 147.36057 483.263 146.01741 483.263 144.36057C483.263 142.7037 484.60617 141.36057 486.263 141.36057C487.91986 141.36057 489.263 142.7037 489.263 144.36057Z" fill-rule="nonzero"/><path fill="#000000" fill-opacity="0.0" clip-path="url(#id_0)" d="M584.45 127.77155C584.45 129.4284 583.1069 130.77156 581.45 130.77156C579.79315 130.77156 578.45 129.4284 578.45 127.77155C578.45 126.1147 579.79315 124.77155 581.45 124.77155C583.1069 124.77155 584.45 126.1147 584.45 127.77155Z" fill-rule="nonzero"/><path fill="#000000" fill-opacity="0.0" clip-path="url(#id_0)" d="M62.55 328.10223C62.55 329.7591 61.206856 331.10223 59.55 331.10223C57.893147 331.10223 56.55 329.7591 56.55 328.10223C56.55 326.4454 57.893147 325.10223 59.55 325.10223C61.206856 325.10223 62.55 326.4454 62.55 328.10223Z" fill-rule="nonzero"/><path fill="#000000" fill-opacity="0.0" clip-path="url(#id_0)" d="M220.65218 298.28482C220.65218 299.94168 219.30902 301.28482 217.65218 301.28482C215.99532 301.28482 214.65218 299.94168 214.65218 298.28482C214.65218 296.62796 215.99532 295.28482 217.65218 295.28482C219.30902 295.28482 220.65218 296.62796 220.65218 298.28482Z" fill-rule="nonzero"/><path fill="#000000" fill-opacity="0.0" clip-path="url(#id_0)" d="M268.24567 275.92447C268.24567 277.58133 266.90253 278.92447 265.24567 278.92447C263.5888 278.92447 262.24567 277.58133 262.24567 275.92447C262.24567 274.26764 263.5888 272.92447 265.24567 272.92447C266.90253 272.92447 268.24567 274.26764 268.24567 275.92447Z" fill-rule="nonzero"/><path fill="#000000" fill-opacity="0.0" clip-path="url(#id_0)" d="M331.16083 240.59601C331.16083 242.25285 329.8177 243.59601 328.16083 243.59601C326.504 243.59601 325.16083 242.25285 325.16083 240.59601C325.16083 238.93915 326.504 237.59601 328.16083 237.59601C329.8177 237.59601 331.16083 238.93915 331.16083 240.59601Z" fill-rule="nonzero"/><path fill="#000000" fill-opacity="0.0" clip-path="url(#id_0)" d="M378.75433 213.09238C378.75433 214.74924 377.4112 216.09238 375.75433 216.09238C374.09747 216.09238 372.75433 214.74924 372.75433 213.09238C372.75433 211.43553 374.09747 210.09238 375.75433 210.09238C377.4112 210.09238 378.75433 211.43553 378.75433 213.09238Z" fill-rule="nonzero"/><path fill="#000000" fill-opacity="0.0" clip-path="url(#id_0)" d="M489.263 177.7432C489.263 179.40004 487.91986 180.7432 486.263 180.7432C484.60617 180.7432 483.263 179.40004 483.263 177.7432C483.263 176.08633 484.60617 174.7432 486.263 174.7432C487.91986 174.7432 489.263 176.08633 489.263 177.7432Z" fill-rule="nonzero"/><path fill="#000000" fill-opacity="0.0" clip-path="url(#id_0)" d="M584.45 165.4494C584.45 167.10626 583.1069 168.4494 581.45 168.4494C579.79315 168.4494 578.45 167.10626 578.45 165.4494C578.45 163.79254 579.79315 162.4494 581.45 162.4494C583.1069 162.4494 584.45 163.79254 584.45 165.4494Z" fill-rule="nonzero"/><path fill="#000000" d="M47.05 332.21564Q47.05 330.6844 47.3625 329.7625Q47.675 328.825 48.284374 328.325Q48.909374 327.825 49.846874 327.825Q50.534374 327.825 51.05 328.10626Q51.58125 328.3875 51.925 328.91876Q52.26875 329.4344 52.45625 330.1844Q52.64375 330.9344 52.64375 332.21564Q52.64375 333.73126 52.33125 334.65314Q52.034374 335.575 51.409374 336.09064Q50.8 336.59064 49.846874 336.59064Q48.6125 336.59064 47.89375 335.7Q47.05 334.6375 47.05 332.21564ZM48.128124 332.21564Q48.128124 334.325 48.628124 335.02814Q49.128124 335.73126 49.846874 335.73126Q50.58125 335.73126 51.065624 335.02814Q51.565624 334.325 51.565624 332.21564Q51.565624 330.09064 51.065624 329.40314Q50.58125 328.7 49.83125 328.7Q49.1125 328.7 48.675 329.3094Q48.128124 330.09064 48.128124 332.21564Z" fill-rule="nonzero"/><path fill="#000000" d="M24.596874 254.04549L24.596874 255.06111L18.909374 255.06111Q18.909374 254.68611 19.034374 254.32674Q19.253124 253.74861 19.721874 253.18611Q20.20625 252.62361 21.1125 251.88924Q22.51875 250.73299 23.003124 250.06111Q23.503124 249.38924 23.503124 248.79549Q23.503124 248.17049 23.05 247.74861Q22.596874 247.31111 21.878124 247.31111Q21.1125 247.31111 20.659374 247.76424Q20.20625 248.21736 20.190624 249.02986L19.1125 248.92049Q19.221874 247.70174 19.940624 247.07674Q20.675 246.43611 21.909374 246.43611Q23.14375 246.43611 23.8625 247.12361Q24.58125 247.81111 24.58125 248.82674Q24.58125 249.34236 24.3625 249.84236Q24.159374 250.32674 23.659374 250.88924Q23.175 251.43611 22.05 252.38924Q21.096874 253.18611 20.815624 253.48299Q20.55 253.76424 20.378124 254.04549L24.596874 254.04549ZM26.05 250.82674Q26.05 249.29549 26.3625 248.37361Q26.675 247.43611 27.284374 246.93611Q27.909374 246.43611 28.846874 246.43611Q29.534374 246.43611 30.05 246.71736Q30.58125 246.99861 30.925 247.52986Q31.26875 248.04549 31.45625 248.79549Q31.64375 249.54549 31.64375 250.82674Q31.64375 252.34236 31.33125 253.26424Q31.034374 254.18611 30.409374 254.70174Q29.8 255.20174 28.846874 255.20174Q27.6125 255.20174 26.89375 254.31111Q26.05 253.24861 26.05 250.82674ZM27.128124 250.82674Q27.128124 252.93611 27.628124 253.63924Q28.128124 254.34236 28.846874 254.34236Q29.58125 254.34236 30.065624 253.63924Q30.565624 252.93611 30.565624 250.82674Q30.565624 248.70174 30.065624 248.01424Q29.58125 247.31111 28.83125 247.31111Q28.1125 247.31111 27.675 247.92049Q27.128124 248.70174 27.128124 250.82674ZM33.05 250.82674Q33.05 249.29549 33.3625 248.37361Q33.675 247.43611 34.284374 246.93611Q34.909374 246.43611 35.846874 246.43611Q36.534374 246.43611 37.05 246.71736Q37.58125 246.99861 37.925 247.52986Q38.26875 248.04549 38.45625 248.79549Q38.64375 249.54549 38.64375 250.82674Q38.64375 252.34236 38.33125 253.26424Q38.034374 254.18611 37.409374 254.70174Q36.8 255.20174 35.846874 255.20174Q34.6125 255.20174 33.89375 254.31111Q33.05 253.24861 33.05 250.82674ZM34.128124 250.82674Q34.128124 252.93611 34.628124 253.63924Q35.128124 254.34236 35.846874 254.34236Q36.58125 254.34236 37.065624 253.63924Q37.565624 252.93611 37.565624 250.82674Q37.565624 248.70174 37.065624 248.01424Q36.58125 247.31111 35.83125 247.31111Q35.1125 247.31111 34.675 247.92049Q34.128124 248.70174 34.128124 250.82674ZM40.05 250.82674Q40.05 249.29549 40.3625 248.37361Q40.675 247.43611 41.284374 246.93611Q41.909374 246.43611 42.846874 246.43611Q43.534374 246.43611 44.05 246.71736Q44.58125 246.99861 44.925 247.52986Q45.26875 248.04549 45.45625 248.79549Q45.64375 249.54549 45.64375 250.82674Q45.64375 252.34236 45.33125 253.26424Q45.034374 254.18611 44.409374 254.70174Q43.8 255.20174 42.846874 255.20174Q41.6125 255.20174 40.89375 254.31111Q40.05 253.24861 40.05 250.82674ZM41.128124 250.82674Q41.128124 252.93611 41.628124 253.63924Q42.128124 254.34236 42.846874 254.34236Q43.58125 254.34236 44.065624 253.63924Q44.565624 252.93611 44.565624 250.82674Q44.565624 248.70174 44.065624 248.01424Q43.58125 247.31111 42.83125 247.31111Q42.1125 247.31111 41.675 247.92049Q41.128124 248.70174 41.128124 250.82674ZM47.05 250.82674Q47.05 249.29549 47.3625 248.37361Q47.675 247.43611 48.284374 246.93611Q48.909374 246.43611 49.846874 246.43611Q50.534374 246.43611 51.05 246.71736Q51.58125 246.99861 51.925 247.52986Q52.26875 248.04549 52.45625 248.79549Q52.64375 249.54549 52.64375 250.82674Q52.64375 252.34236 52.33125 253.26424Q52.034374 254.18611 51.409374 254.70174Q50.8 255.20174 49.846874 255.20174Q48.6125 255.20174 47.89375 254.31111Q47.05 253.24861 47.05 250.82674ZM48.128124 250.82674Q48.128124 252.93611 48.628124 253.63924Q49.128124 254.34236 49.846874 254.34236Q50.58125 254.34236 51.065624 253.63924Q51.565624 252.93611 51.565624 250.82674Q51.565624 248.70174 51.065624 248.01424Q50.58125 247.31111 49.83125 247.31111Q49.1125 247.31111 48.675 247.92049Q48.128124 248.70174 48.128124 250.82674Z" fill-rule="nonzero"/><path fill="#000000" d="M22.425 173.67223L22.425 171.60973L18.70625 171.60973L18.70625 170.64098L22.628124 165.07848L23.4875 165.07848L23.4875 170.64098L24.64375 170.64098L24.64375 171.60973L23.4875 171.60973L23.4875 173.67223L22.425 173.67223ZM22.425 170.64098L22.425 166.7816L19.7375 170.64098L22.425 170.64098ZM26.05 169.43785Q26.05 167.9066 26.3625 166.98473Q26.675 166.04723 27.284374 165.54723Q27.909374 165.04723 28.846874 165.04723Q29.534374 165.04723 30.05 165.32848Q30.58125 165.60973 30.925 166.14098Q31.26875 166.6566 31.45625 167.4066Q31.64375 168.1566 31.64375 169.43785Q31.64375 170.95348 31.33125 171.87535Q31.034374 172.79723 30.409374 173.31285Q29.8 173.81285 28.846874 173.81285Q27.6125 173.81285 26.89375 172.92223Q26.05 171.85973 26.05 169.43785ZM27.128124 169.43785Q27.128124 171.54723 27.628124 172.25035Q28.128124 172.95348 28.846874 172.95348Q29.58125 172.95348 30.065624 172.25035Q30.565624 171.54723 30.565624 169.43785Q30.565624 167.31285 30.065624 166.62535Q29.58125 165.92223 28.83125 165.92223Q28.1125 165.92223 27.675 166.5316Q27.128124 167.31285 27.128124 169.43785ZM33.05 169.43785Q33.05 167.9066 33.3625 166.98473Q33.675 166.04723 34.284374 165.54723Q34.909374 165.04723 35.846874 165.04723Q36.534374 165.04723 37.05 165.32848Q37.58125 165.60973 37.925 166.14098Q38.26875 166.6566 38.45625 167.4066Q38.64375 168.1566 38.64375 169.43785Q38.64375 170.95348 38.33125 171.87535Q38.034374 172.79723 37.409374 173.31285Q36.8 173.81285 35.846874 173.81285Q34.6125 173.81285 33.89375 172.92223Q33.05 171.85973 33.05 169.43785ZM34.128124 169.43785Q34.128124 171.54723 34.628124 172.25035Q35.128124 172.95348 35.846874 172.95348Q36.58125 172.95348 37.065624 172.25035Q37.565624 171.54723 37.565624 169.43785Q37.565624 167.31285 37.065624 166.62535Q36.58125 165.92223 35.83125 165.92223Q35.1125 165.92223 34.675 166.5316Q34.128124 167.31285 34.128124 169.43785ZM40.05 169.43785Q40.05 167.9066 40.3625 166.98473Q40.675 166.04723 41.284374 165.54723Q41.909374 165.04723 42.846874 165.04723Q43.534374 165.04723 44.05 165.32848Q44.58125 165.60973 44.925 166.14098Q45.26875 166.6566 45.45625 167.4066Q45.64375 168.1566 45.64375 169.43785Q45.64375 170.95348 45.33125 171.87535Q45.034374 172.79723 44.409374 173.31285Q43.8 173.81285 42.846874 173.81285Q41.6125 173.81285 40.89375 172.92223Q40.05 171.85973 40.05 169.43785ZM41.128124 169.43785Q41.128124 171.54723 41.628124 172.25035Q42.128124 172.95348 42.846874 172.95348Q43.58125 172.95348 44.065624 172.25035Q44.565624 171.54723 44.565624 169.43785Q44.565624 167.31285 44.065624 166.62535Q43.58125 165.92223 42.83125 165.92223Q42.1125 165.92223 41.675 166.5316Q41.128124 167.31285 41.128124 169.43785ZM47.05 169.43785Q47.05 167.9066 47.3625 166.98473Q47.675 166.04723 48.284374 165.54723Q48.909374 165.04723 49.846874 165.04723Q50.534374 165.04723 51.05 165.32848Q51.58125 165.60973 51.925 166.14098Q52.26875 166.6566 52.45625 167.4066Q52.64375 168.1566 52.64375 169.43785Q52.64375 170.95348 52.33125 171.87535Q52.034374 172.79723 51.409374 173.31285Q50.8 173.81285 49.846874 173.81285Q48.6125 173.81285 47.89375 172.92223Q47.05 171.85973 47.05 169.43785ZM48.128124 169.43785Q48.128124 171.54723 48.628124 172.25035Q49.128124 172.95348 49.846874 172.95348Q50.58125 172.95348 51.065624 172.25035Q51.565624 171.54723 51.565624 169.43785Q51.565624 167.31285 51.065624 166.62535Q50.58125 165.92223 49.83125 165.92223Q49.1125 165.92223 48.675 166.5316Q48.128124 167.31285 48.128124 169.43785Z" fill-rule="nonzero"/><path fill="#000000" d="M24.51875 85.79896L23.471874 85.87708Q23.33125 85.25208 23.08125 84.97083Q22.64375 84.51771 22.01875 84.51771Q21.51875 84.51771 21.128124 84.79896Q20.64375 85.17396 20.346874 85.87708Q20.065624 86.56458 20.05 87.84583Q20.425 87.26771 20.971874 86.98646Q21.534374 86.70521 22.14375 86.70521Q23.190624 86.70521 23.925 87.48646Q24.675 88.26771 24.675 89.48646Q24.675 90.29896 24.315624 91.00208Q23.971874 91.68958 23.3625 92.06458Q22.753124 92.42396 21.9875 92.42396Q20.659374 92.42396 19.83125 91.45521Q19.003124 90.48646 19.003124 88.26771Q19.003124 85.76771 19.925 84.64271Q20.721874 83.65833 22.08125 83.65833Q23.096874 83.65833 23.7375 84.23646Q24.39375 84.79896 24.51875 85.79896ZM20.221874 89.50208Q20.221874 90.04896 20.440624 90.54896Q20.675 91.03333 21.08125 91.29896Q21.503124 91.56458 21.971874 91.56458Q22.628124 91.56458 23.1125 91.03333Q23.596874 90.48646 23.596874 89.56458Q23.596874 88.67396 23.1125 88.15833Q22.64375 87.64271 21.925 87.64271Q21.20625 87.64271 20.70625 88.15833Q20.221874 88.67396 20.221874 89.50208ZM26.05 88.04896Q26.05 86.51771 26.3625 85.59583Q26.675 84.65833 27.284374 84.15833Q27.909374 83.65833 28.846874 83.65833Q29.534374 83.65833 30.05 83.93958Q30.58125 84.22083 30.925 84.75208Q31.26875 85.26771 31.45625 86.01771Q31.64375 86.76771 31.64375 88.04896Q31.64375 89.56458 31.33125 90.48646Q31.034374 91.40833 30.409374 91.92396Q29.8 92.42396 28.846874 92.42396Q27.6125 92.42396 26.89375 91.53333Q26.05 90.47083 26.05 88.04896ZM27.128124 88.04896Q27.128124 90.15833 27.628124 90.86146Q28.128124 91.56458 28.846874 91.56458Q29.58125 91.56458 30.065624 90.86146Q30.565624 90.15833 30.565624 88.04896Q30.565624 85.92396 30.065624 85.23646Q29.58125 84.53333 28.83125 84.53333Q28.1125 84.53333 27.675 85.14271Q27.128124 85.92396 27.128124 88.04896ZM33.05 88.04896Q33.05 86.51771 33.3625 85.59583Q33.675 84.65833 34.284374 84.15833Q34.909374 83.65833 35.846874 83.65833Q36.534374 83.65833 37.05 83.93958Q37.58125 84.22083 37.925 84.75208Q38.26875 85.26771 38.45625 86.01771Q38.64375 86.76771 38.64375 88.04896Q38.64375 89.56458 38.33125 90.48646Q38.034374 91.40833 37.409374 91.92396Q36.8 92.42396 35.846874 92.42396Q34.6125 92.42396 33.89375 91.53333Q33.05 90.47083 33.05 88.04896ZM34.128124 88.04896Q34.128124 90.15833 34.628124 90.86146Q35.128124 91.56458 35.846874 91.56458Q36.58125 91.56458 37.065624 90.86146Q37.565624 90.15833 37.565624 88.04896Q37.565624 85.92396 37.065624 85.23646Q36.58125 84.53333 35.83125 84.53333Q35.1125 84.53333 34.675 85.14271Q34.128124 85.92396 34.128124 88.04896ZM40.05 88.04896Q40.05 86.51771 40.3625 85.59583Q40.675 84.65833 41.284374 84.15833Q41.909374 83.65833 42.846874 83.65833Q43.534374 83.65833 44.05 83.93958Q44.58125 84.22083 44.925 84.75208Q45.26875 85.26771 45.45625 86.01771Q45.64375 86.76771 45.64375 88.04896Q45.64375 89.56458 45.33125 90.48646Q45.034374 91.40833 44.409374 91.92396Q43.8 92.42396 42.846874 92.42396Q41.6125 92.42396 40.89375 91.53333Q40.05 90.47083 40.05 88.04896ZM41.128124 88.04896Q41.128124 90.15833 41.628124 90.86146Q42.128124 91.56458 42.846874 91.56458Q43.58125 91.56458 44.065624 90.86146Q44.565624 90.15833 44.565624 88.04896Q44.565624 85.92396 44.065624 85.23646Q43.58125 84.53333 42.83125 84.53333Q42.1125 84.53333 41.675 85.14271Q41.128124 85.92396 41.128124 88.04896ZM47.05 88.04896Q47.05 86.51771 47.3625 85.59583Q47.675 84.65833 48.284374 84.15833Q48.909374 83.65833 49.846874 83.65833Q50.534374 83.65833 51.05 83.93958Q51.58125 84.22083 51.925 84.75208Q52.26875 85.26771 52.45625 86.01771Q52.64375 86.76771 52.64375 88.04896Q52.64375 89.56458 52.33125 90.48646Q52.034374 91.40833 51.409374 91.92396Q50.8 92.42396 49.846874 92.42396Q48.6125 92.42396 47.89375 91.53333Q47.05 90.47083 47.05 88.04896ZM48.128124 88.04896Q48.128124 90.15833 48.628124 90.86146Q49.128124 91.56458 49.846874 91.56458Q50.58125 91.56458 51.065624 90.86146Q51.565624 90.15833 51.565624 88.04896Q51.565624 85.92396 51.065624 85.23646Q50.58125 84.53333 49.83125 84.53333Q49.1125 84.53333 48.675 85.14271Q48.128124 85.92396 48.128124 88.04896Z" fill-rule="nonzero"/><path fill="#000000" d="M60.51875 349.45L59.471874 349.45L59.471874 342.73126Q59.08125 343.09064 58.45625 343.46564Q57.846874 343.825 57.3625 343.9969L57.3625 342.98126Q58.2375 342.5594 58.89375 341.98126Q59.565624 341.3875 59.846874 340.825L60.51875 340.825L60.51875 349.45Z" fill-rule="nonzero"/><path fill="#000000" d="M215.12093 349.45L214.07405 349.45L214.07405 342.73126Q213.68343 343.09064 213.05843 343.46564Q212.44905 343.825 211.96468 343.9969L211.96468 342.98126Q212.83968 342.5594 213.49593 341.98126Q214.1678 341.3875 214.44905 340.825L215.12093 340.825L215.12093 349.45ZM218.15218 345.21564Q218.15218 343.6844 218.46468 342.7625Q218.77718 341.825 219.38655 341.325Q220.01155 340.825 220.94905 340.825Q221.63655 340.825 222.15218 341.10626Q222.68343 341.3875 223.02718 341.91876Q223.37093 342.4344 223.55843 343.1844Q223.74593 343.9344 223.74593 345.21564Q223.74593 346.73126 223.43343 347.65314Q223.13655 348.575 222.51155 349.09064Q221.90218 349.59064 220.94905 349.59064Q219.71468 349.59064 218.99593 348.7Q218.15218 347.6375 218.15218 345.21564ZM219.2303 345.21564Q219.2303 347.325 219.7303 348.02814Q220.2303 348.73126 220.94905 348.73126Q221.68343 348.73126 222.1678 348.02814Q222.6678 347.325 222.6678 345.21564Q222.6678 343.09064 222.1678 342.40314Q221.68343 341.7 220.93343 341.7Q220.21468 341.7 219.77718 342.3094Q219.2303 343.09064 219.2303 345.21564Z" fill-rule="nonzero"/><path fill="#000000" d="M369.72308 349.45L368.6762 349.45L368.6762 342.73126Q368.28558 343.09064 367.66058 343.46564Q367.0512 343.825 366.56683 343.9969L366.56683 342.98126Q367.44183 342.5594 368.09808 341.98126Q368.76996 341.3875 369.0512 340.825L369.72308 340.825L369.72308 349.45ZM372.75433 345.21564Q372.75433 343.6844 373.06683 342.7625Q373.37933 341.825 373.9887 341.325Q374.6137 340.825 375.5512 340.825Q376.2387 340.825 376.75433 341.10626Q377.28558 341.3875 377.62933 341.91876Q377.97308 342.4344 378.16058 343.1844Q378.34808 343.9344 378.34808 345.21564Q378.34808 346.73126 378.03558 347.65314Q377.7387 348.575 377.1137 349.09064Q376.50433 349.59064 375.5512 349.59064Q374.31683 349.59064 373.59808 348.7Q372.75433 347.6375 372.75433 345.21564ZM373.83246 345.21564Q373.83246 347.325 374.33246 348.02814Q374.83246 348.73126 375.5512 348.73126Q376.28558 348.73126 376.76996 348.02814Q377.26996 347.325 377.26996 345.21564Q377.26996 343.09064 376.76996 342.40314Q376.28558 341.7 375.53558 341.7Q374.81683 341.7 374.37933 342.3094Q373.83246 343.09064 373.83246 345.21564ZM379.75433 345.21564Q379.75433 343.6844 380.06683 342.7625Q380.37933 341.825 380.9887 341.325Q381.6137 340.825 382.5512 340.825Q383.2387 340.825 383.75433 341.10626Q384.28558 341.3875 384.62933 341.91876Q384.97308 342.4344 385.16058 343.1844Q385.34808 343.9344 385.34808 345.21564Q385.34808 346.73126 385.03558 347.65314Q384.7387 348.575 384.1137 349.09064Q383.50433 349.59064 382.5512 349.59064Q381.31683 349.59064 380.59808 348.7Q379.75433 347.6375 379.75433 345.21564ZM380.83246 345.21564Q380.83246 347.325 381.33246 348.02814Q381.83246 348.73126 382.5512 348.73126Q383.28558 348.73126 383.76996 348.02814Q384.26996 347.325 384.26996 345.21564Q384.26996 343.09064 383.76996 342.40314Q383.28558 341.7 382.53558 341.7Q381.81683 341.7 381.37933 342.3094Q380.83246 343.09064 380.83246 345.21564Z" fill-rule="nonzero"/><path fill="#000000" d="M524.32526 349.45L523.2784 349.45L523.2784 342.73126Q522.88776 343.09064 522.26276 343.46564Q521.6534 343.825 521.169 343.9969L521.169 342.98126Q522.044 342.5594 522.70026 341.98126Q523.37213 341.3875 523.6534 340.825L524.32526 340.825L524.32526 349.45ZM527.3565 345.21564Q527.3565 343.6844 527.669 342.7625Q527.9815 341.825 528.5909 341.325Q529.2159 340.825 530.1534 340.825Q530.8409 340.825 531.3565 341.10626Q531.88776 341.3875 532.2315 341.91876Q532.57526 342.4344 532.76276 343.1844Q532.95026 343.9344 532.95026 345.21564Q532.95026 346.73126 532.63776 347.65314Q532.3409 348.575 531.7159 349.09064Q531.1065 349.59064 530.1534 349.59064Q528.919 349.59064 528.20026 348.7Q527.3565 347.6375 527.3565 345.21564ZM528.43463 345.21564Q528.43463 347.325 528.93463 348.02814Q529.43463 348.73126 530.1534 348.73126Q530.88776 348.73126 531.37213 348.02814Q531.87213 347.325 531.87213 345.21564Q531.87213 343.09064 531.37213 342.40314Q530.88776 341.7 530.13776 341.7Q529.419 341.7 528.9815 342.3094Q528.43463 343.09064 528.43463 345.21564ZM534.3565 345.21564Q534.3565 343.6844 534.669 342.7625Q534.9815 341.825 535.5909 341.325Q536.2159 340.825 537.1534 340.825Q537.8409 340.825 538.3565 341.10626Q538.88776 341.3875 539.2315 341.91876Q539.57526 342.4344 539.76276 343.1844Q539.95026 343.9344 539.95026 345.21564Q539.95026 346.73126 539.63776 347.65314Q539.3409 348.575 538.7159 349.09064Q538.1065 349.59064 537.1534 349.59064Q535.919 349.59064 535.20026 348.7Q534.3565 347.6375 534.3565 345.21564ZM535.43463 345.21564Q535.43463 347.325 535.93463 348.02814Q536.43463 348.73126 537.1534 348.73126Q537.88776 348.73126 538.37213 348.02814Q538.87213 347.325 538.87213 345.21564Q538.87213 343.09064 538.37213 342.40314Q537.88776 341.7 537.13776 341.7Q536.419 341.7 535.9815 342.3094Q535.43463 343.09064 535.43463 345.21564ZM541.3565 345.21564Q541.3565 343.6844 541.669 342.7625Q541.9815 341.825 542.5909 341.325Q543.2159 340.825 544.1534 340.825Q544.8409 340.825 545.3565 341.10626Q545.88776 341.3875 546.2315 341.91876Q546.57526 342.4344 546.76276 343.1844Q546.95026 343.9344 546.95026 345.21564Q546.95026 346.73126 546.63776 347.65314Q546.3409 348.575 545.7159 349.09064Q545.1065 349.59064 544.1534 349.59064Q542.919 349.59064 542.20026 348.7Q541.3565 347.6375 541.3565 345.21564ZM542.43463 345.21564Q542.43463 347.325 542.93463 348.02814Q543.43463 348.73126 544.1534 348.73126Q544.88776 348.73126 545.37213 348.02814Q545.87213 347.325 545.87213 345.21564Q545.87213 343.09064 545.37213 342.40314Q544.88776 341.7 544.13776 341.7Q543.419 341.7 542.9815 342.3094Q542.43463 343.09064 542.43463 345.21564Z" fill-rule="nonzero"/><path stroke="#4285f4" stroke-width="4.0" stroke-linecap="butt" d="M228.5 61.916668L240.5 61.916668" fill-rule="nonzero"/><path fill="#1a1a1a" d="M252.96875 65.916664L251.92188 65.916664L251.92188 59.197914Q251.53125 59.55729 250.90625 59.93229Q250.29688 60.291664 249.8125 60.46354L249.8125 59.447914Q250.6875 59.02604 251.34375 58.447914Q252.01562 57.854164 252.29688 57.291664L252.96875 57.291664L252.96875 65.916664ZM256.29688 65.916664L256.29688 57.322914L257.35938 57.322914L257.35938 62.229164L259.84375 59.697914L261.21875 59.697914L258.82812 61.99479L261.45312 65.916664L260.15625 65.916664L258.09375 62.729164L257.35938 63.447914L257.35938 65.916664L256.29688 65.916664ZM262.375 65.916664L262.375 57.322914L265.60938 57.322914Q266.59375 57.322914 267.1875 57.58854Q267.78125 57.854164 268.10938 58.40104Q268.45312 58.93229 268.45312 59.52604Q268.45312 60.072914 268.15625 60.55729Q267.85938 61.041664 267.25 61.33854Q268.03125 61.572914 268.4375 62.135414Q268.85938 62.68229 268.85938 63.43229Q268.85938 64.02604 268.60938 64.55729Q268.35938 65.072914 267.98438 65.354164Q267.60938 65.635414 267.03125 65.77604Q266.46875 65.916664 265.65625 65.916664L262.375 65.916664ZM263.51562 60.93229L265.375 60.93229Q266.125 60.93229 266.45312 60.83854Q266.89062 60.71354 267.10938 60.416664Q267.32812 60.104164 267.32812 59.65104Q267.32812 59.229164 267.125 58.90104Q266.92188 58.572914 266.53125 58.46354Q266.15625 58.33854 265.23438 58.33854L263.51562 58.33854L263.51562 60.93229ZM263.51562 64.90104L265.65625 64.90104Q266.20312 64.90104 266.42188 64.854164Q266.82812 64.791664 267.07812 64.635414Q267.34375 64.46354 267.51562 64.15104Q267.6875 63.83854 267.6875 63.43229Q267.6875 62.947914 267.4375 62.58854Q267.20312 62.229164 266.76562 62.08854Q266.32812 61.947914 265.5 61.947914L263.51562 61.947914L263.51562 64.90104Z" fill-rule="nonzero"/><path stroke="#ea4335" stroke-width="4.0" stroke-linecap="butt" d="M285.5 61.916668L297.5 61.916668" fill-rule="nonzero"/><path fill="#1a1a1a" d="M309.96875 65.916664L308.92188 65.916664L308.92188 59.197914Q308.53125 59.55729 307.90625 59.93229Q307.29688 60.291664 306.8125 60.46354L306.8125 59.447914Q307.6875 59.02604 308.34375 58.447914Q309.01562 57.854164 309.29688 57.291664L309.96875 57.291664L309.96875 65.916664ZM313.29688 65.916664L313.29688 57.322914L314.35938 57.322914L314.35938 62.229164L316.84375 59.697914L318.21875 59.697914L315.82812 61.99479L318.45312 65.916664L317.15625 65.916664L315.09375 62.729164L314.35938 63.447914L314.35938 65.916664L313.29688 65.916664ZM319.375 65.916664L319.375 57.322914L322.60938 57.322914Q323.59375 57.322914 324.1875 57.58854Q324.78125 57.854164 325.10938 58.40104Q325.45312 58.93229 325.45312 59.52604Q325.45312 60.072914 325.15625 60.55729Q324.85938 61.041664 324.25 61.33854Q325.03125 61.572914 325.4375 62.135414Q325.85938 62.68229 325.85938 63.43229Q325.85938 64.02604 325.60938 64.55729Q325.35938 65.072914 324.98438 65.354164Q324.60938 65.635414 324.03125 65.77604Q323.46875 65.916664 322.65625 65.916664L319.375 65.916664ZM320.51562 60.93229L322.375 60.93229Q323.125 60.93229 323.45312 60.83854Q323.89062 60.71354 324.10938 60.416664Q324.32812 60.104164 324.32812 59.65104Q324.32812 59.229164 324.125 58.90104Q323.92188 58.572914 323.53125 58.46354Q323.15625 58.33854 322.23438 58.33854L320.51562 58.33854L320.51562 60.93229ZM320.51562 64.90104L322.65625 64.90104Q323.20312 64.90104 323.42188 64.854164Q323.82812 64.791664 324.07812 64.635414Q324.34375 64.46354 324.51562 64.15104Q324.6875 63.83854 324.6875 63.43229Q324.6875 62.947914 324.4375 62.58854Q324.20312 62.229164 323.76562 62.08854Q323.32812 61.947914 322.5 61.947914L320.51562 61.947914L320.51562 64.90104ZM331.4375 65.916664L329.53125 59.697914L330.625 59.697914L331.60938 63.291664L331.98438 64.61979Q332.01562 64.52604 332.3125 63.33854L333.29688 59.697914L334.375 59.697914L335.3125 63.30729L335.625 64.49479L335.98438 63.291664L337.04688 59.697914L338.07812 59.697914L336.125 65.916664L335.03125 65.916664L334.04688 62.18229L333.79688 61.135414L332.54688 65.916664L331.4375 65.916664ZM338.5 66.05729L340.98438 57.18229L341.82812 57.18229L339.34375 66.05729L338.5 66.05729ZM342.375 65.916664L342.375 57.322914L343.51562 57.322914L343.51562 61.58854L347.78125 57.322914L349.32812 57.322914L345.71875 60.80729L349.48438 65.916664L347.98438 65.916664L344.92188 61.572914L343.51562 62.93229L343.51562 65.916664L342.375 65.916664ZM352.60938 65.916664L352.60938 58.33854L349.78125 58.33854L349.78125 57.322914L356.59375 57.322914L356.59375 58.33854L353.75 58.33854L353.75 65.916664L352.60938 65.916664ZM357.375 65.916664L357.375 57.322914L358.51562 57.322914L358.51562 64.90104L362.75 64.90104L362.75 65.916664L357.375 65.916664ZM364.04688 63.15104L365.10938 63.05729Q365.1875 63.71354 365.46875 64.11979Q365.75 64.52604 366.32812 64.791664Q366.92188 65.041664 367.65625 65.041664Q368.29688 65.041664 368.79688 64.854164Q369.29688 64.65104 369.53125 64.322914Q369.78125 63.979164 369.78125 63.58854Q369.78125 63.18229 369.54688 62.885414Q369.3125 62.572914 368.78125 62.36979Q368.42188 62.229164 367.23438 61.947914Q366.0625 61.666664 365.59375 61.416664Q364.96875 61.08854 364.67188 60.61979Q364.375 60.135414 364.375 59.541664Q364.375 58.90104 364.73438 58.33854Q365.10938 57.760414 365.8125 57.479164Q366.53125 57.18229 367.39062 57.18229Q368.34375 57.18229 369.07812 57.49479Q369.8125 57.791664 370.20312 58.40104Q370.59375 58.99479 370.625 59.74479L369.53125 59.822914Q369.4375 59.010414 368.92188 58.604164Q368.42188 58.18229 367.4375 58.18229Q366.40625 58.18229 365.9375 58.55729Q365.46875 58.93229 365.46875 59.46354Q365.46875 59.93229 365.79688 60.229164Q366.125 60.52604 367.5 60.83854Q368.89062 61.15104 369.40625 61.385414Q370.15625 61.74479 370.51562 62.27604Q370.875 62.791664 370.875 63.49479Q370.875 64.18229 370.48438 64.791664Q370.09375 65.385414 369.35938 65.729164Q368.625 66.05729 367.70312 66.05729Q366.53125 66.05729 365.73438 65.729164Q364.95312 65.385414 364.5 64.697914Q364.0625 64.010414 364.04688 63.15104Z" fill-rule="nonzero"/><path fill="#757575" d="M203.29688 37.55L203.29688 27.175L204.875 27.175L204.875 28.753124Q205.48438 27.64375 206.0 27.3Q206.51562 26.940624 207.125 26.940624Q208.01562 26.940624 208.9375 27.503124L208.32812 29.14375Q207.6875 28.753124 207.04688 28.753124Q206.46875 28.753124 206.0 29.1125Q205.54688 29.45625 205.34375 30.065624Q205.0625 31.003124 205.0625 32.1125L205.0625 37.55L203.29688 37.55ZM217.42188 34.20625L219.23438 34.440624Q218.8125 36.01875 217.64062 36.909374Q216.48438 37.784374 214.67188 37.784374Q212.40625 37.784374 211.0625 36.39375Q209.73438 34.9875 209.73438 32.45625Q209.73438 29.83125 211.07812 28.39375Q212.42188 26.940624 214.57812 26.940624Q216.65625 26.940624 217.96875 28.3625Q219.29688 29.76875 219.29688 32.346874Q219.29688 32.503124 219.28125 32.815624L211.54688 32.815624Q211.64062 34.51875 212.51562 35.425Q213.39062 36.33125 214.6875 36.33125Q215.65625 36.33125 216.32812 35.83125Q217.01562 35.315624 217.42188 34.20625ZM211.64062 31.3625L217.4375 31.3625Q217.32812 30.065624 216.78125 29.409374Q215.9375 28.39375 214.59375 28.39375Q213.39062 28.39375 212.5625 29.20625Q211.73438 30.003124 211.64062 31.3625ZM227.9375 41.51875L227.9375 36.440624Q227.51562 37.01875 226.78125 37.409374Q226.04688 37.784374 225.21875 37.784374Q223.375 37.784374 222.03125 36.315624Q220.70312 34.83125 220.70312 32.26875Q220.70312 30.70625 221.23438 29.471874Q221.78125 28.221874 222.8125 27.58125Q223.84375 26.940624 225.07812 26.940624Q227.0 26.940624 228.10938 28.565624L228.10938 27.175L229.6875 27.175L229.6875 41.51875L227.9375 41.51875ZM222.51562 32.33125Q222.51562 34.33125 223.34375 35.33125Q224.1875 36.33125 225.35938 36.33125Q226.48438 36.33125 227.29688 35.39375Q228.10938 34.440624 228.10938 32.4875Q228.10938 30.425 227.25 29.378124Q226.39062 28.33125 225.25 28.33125Q224.10938 28.33125 223.3125 29.3Q222.51562 30.26875 222.51562 32.33125ZM239.10938 37.55L239.10938 36.01875Q237.90625 37.784374 235.82812 37.784374Q234.90625 37.784374 234.10938 37.440624Q233.3125 37.08125 232.92188 36.55Q232.54688 36.01875 232.39062 35.2375Q232.28125 34.721874 232.28125 33.596874L232.28125 27.175L234.03125 27.175L234.03125 32.925Q234.03125 34.3 234.14062 34.784374Q234.3125 35.471874 234.84375 35.878124Q235.39062 36.26875 236.17188 36.26875Q236.96875 36.26875 237.65625 35.8625Q238.35938 35.45625 238.64062 34.76875Q238.9375 34.065624 238.9375 32.7375L238.9375 27.175L240.6875 27.175L240.6875 37.55L239.10938 37.55ZM249.42188 34.20625L251.23438 34.440624Q250.8125 36.01875 249.64062 36.909374Q248.48438 37.784374 246.67188 37.784374Q244.40625 37.784374 243.0625 36.39375Q241.73438 34.9875 241.73438 32.45625Q241.73438 29.83125 243.07812 28.39375Q244.42188 26.940624 246.57812 26.940624Q248.65625 26.940624 249.96875 28.3625Q251.29688 29.76875 251.29688 32.346874Q251.29688 32.503124 251.28125 32.815624L243.54688 32.815624Q243.64062 34.51875 244.51562 35.425Q245.39062 36.33125 246.6875 36.33125Q247.65625 36.33125 248.32812 35.83125Q249.01562 35.315624 249.42188 34.20625ZM243.64062 31.3625L249.4375 31.3625Q249.32812 30.065624 248.78125 29.409374Q247.9375 28.39375 246.59375 28.39375Q245.39062 28.39375 244.5625 29.20625Q243.73438 30.003124 243.64062 31.3625ZM252.60938 34.45625L254.35938 34.175Q254.5 35.221874 255.17188 35.784374Q255.84375 36.33125 257.04688 36.33125Q258.25 36.33125 258.82812 35.846874Q259.42188 35.346874 259.42188 34.690624Q259.42188 34.096874 258.90625 33.753124Q258.54688 33.51875 257.10938 33.159374Q255.17188 32.659374 254.42188 32.315624Q253.6875 31.95625 253.29688 31.33125Q252.90625 30.690624 252.90625 29.925Q252.90625 29.2375 253.21875 28.64375Q253.54688 28.05 254.09375 27.659374Q254.5 27.3625 255.20312 27.159374Q255.92188 26.940624 256.73438 26.940624Q257.95312 26.940624 258.875 27.3Q259.79688 27.64375 260.23438 28.253124Q260.67188 28.846874 260.84375 29.846874L259.125 30.08125Q259.0 29.284374 258.4375 28.846874Q257.875 28.39375 256.85938 28.39375Q255.64062 28.39375 255.125 28.8Q254.60938 29.190624 254.60938 29.721874Q254.60938 30.065624 254.82812 30.346874Q255.03125 30.628124 255.5 30.815624Q255.76562 30.909374 257.04688 31.253124Q258.92188 31.753124 259.65625 32.08125Q260.39062 32.39375 260.8125 33.003124Q261.23438 33.596874 261.23438 34.503124Q261.23438 35.378124 260.71875 36.159374Q260.20312 36.940624 259.23438 37.3625Q258.26562 37.784374 257.04688 37.784374Q255.03125 37.784374 253.96875 36.940624Q252.90625 36.096874 252.60938 34.45625ZM267.15625 35.971874L267.40625 37.534374Q266.67188 37.690624 266.07812 37.690624Q265.125 37.690624 264.59375 37.39375Q264.07812 37.08125 263.85938 36.596874Q263.64062 36.096874 263.64062 34.51875L263.64062 28.55L262.35938 28.55L262.35938 27.175L263.64062 27.175L263.64062 24.6125L265.39062 23.55L265.39062 27.175L267.15625 27.175L267.15625 28.55L265.39062 28.55L265.39062 34.6125Q265.39062 35.3625 265.48438 35.58125Q265.57812 35.784374 265.78125 35.925Q266.0 36.05 266.39062 36.05Q266.67188 36.05 267.15625 35.971874ZM268.60938 34.45625L270.35938 34.175Q270.5 35.221874 271.17188 35.784374Q271.84375 36.33125 273.04688 36.33125Q274.25 36.33125 274.82812 35.846874Q275.42188 35.346874 275.42188 34.690624Q275.42188 34.096874 274.90625 33.753124Q274.54688 33.51875 273.10938 33.159374Q271.17188 32.659374 270.42188 32.315624Q269.6875 31.95625 269.29688 31.33125Q268.90625 30.690624 268.90625 29.925Q268.90625 29.2375 269.21875 28.64375Q269.54688 28.05 270.09375 27.659374Q270.5 27.3625 271.20312 27.159374Q271.92188 26.940624 272.73438 26.940624Q273.95312 26.940624 274.875 27.3Q275.79688 27.64375 276.23438 28.253124Q276.67188 28.846874 276.84375 29.846874L275.125 30.08125Q275.0 29.284374 274.4375 28.846874Q273.875 28.39375 272.85938 28.39375Q271.64062 28.39375 271.125 28.8Q270.60938 29.190624 270.60938 29.721874Q270.60938 30.065624 270.82812 30.346874Q271.03125 30.628124 271.5 30.815624Q271.76562 30.909374 273.04688 31.253124Q274.92188 31.753124 275.65625 32.08125Q276.39062 32.39375 276.8125 33.003124Q277.23438 33.596874 277.23438 34.503124Q277.23438 35.378124 276.71875 36.159374Q276.20312 36.940624 275.23438 37.3625Q274.26562 37.784374 273.04688 37.784374Q271.03125 37.784374 269.96875 36.940624Q268.90625 36.096874 268.60938 34.45625ZM278.0 37.8L282.15625 22.9875L283.5625 22.9875L279.42188 37.8L278.0 37.8ZM284.60938 34.45625L286.35938 34.175Q286.5 35.221874 287.17188 35.784374Q287.84375 36.33125 289.04688 36.33125Q290.25 36.33125 290.82812 35.846874Q291.42188 35.346874 291.42188 34.690624Q291.42188 34.096874 290.90625 33.753124Q290.54688 33.51875 289.10938 33.159374Q287.17188 32.659374 286.42188 32.315624Q285.6875 31.95625 285.29688 31.33125Q284.90625 30.690624 284.90625 29.925Q284.90625 29.2375 285.21875 28.64375Q285.54688 28.05 286.09375 27.659374Q286.5 27.3625 287.20312 27.159374Q287.92188 26.940624 288.73438 26.940624Q289.95312 26.940624 290.875 27.3Q291.79688 27.64375 292.23438 28.253124Q292.67188 28.846874 292.84375 29.846874L291.125 30.08125Q291.0 29.284374 290.4375 28.846874Q289.875 28.39375 288.85938 28.39375Q287.64062 28.39375 287.125 28.8Q286.60938 29.190624 286.60938 29.721874Q286.60938 30.065624 286.82812 30.346874Q287.03125 30.628124 287.5 30.815624Q287.76562 30.909374 289.04688 31.253124Q290.92188 31.753124 291.65625 32.08125Q292.39062 32.39375 292.8125 33.003124Q293.23438 33.596874 293.23438 34.503124Q293.23438 35.378124 292.71875 36.159374Q292.20312 36.940624 291.23438 37.3625Q290.26562 37.784374 289.04688 37.784374Q287.03125 37.784374 285.96875 36.940624Q284.90625 36.096874 284.60938 34.45625ZM303.23438 37.55L300.0625 27.175L301.875 27.175L303.53125 33.159374L304.14062 35.39375Q304.1875 35.221874 304.67188 33.253124L306.32812 27.175L308.14062 27.175L309.6875 33.190624L310.20312 35.175L310.79688 33.175L312.57812 27.175L314.28125 27.175L311.04688 37.55L309.21875 37.55L307.5625 31.33125L307.17188 29.565624L305.0625 37.55L303.23438 37.55ZM315.0 37.8L319.15625 22.9875L320.5625 22.9875L316.42188 37.8L315.0 37.8ZM328.3125 37.55L328.3125 23.2375L330.07812 23.2375L330.07812 28.3625Q331.3125 26.940624 333.1875 26.940624Q334.32812 26.940624 335.17188 27.39375Q336.03125 27.846874 336.39062 28.659374Q336.76562 29.45625 336.76562 30.971874L336.76562 37.55L335.01562 37.55L335.01562 30.971874Q335.01562 29.659374 334.4375 29.065624Q333.85938 28.45625 332.82812 28.45625Q332.04688 28.45625 331.34375 28.8625Q330.65625 29.26875 330.35938 29.971874Q330.07812 30.659374 330.07812 31.878124L330.07812 37.55L328.3125 37.55ZM345.10938 37.55L345.10938 36.01875Q343.90625 37.784374 341.82812 37.784374Q340.90625 37.784374 340.10938 37.440624Q339.3125 37.08125 338.92188 36.55Q338.54688 36.01875 338.39062 35.2375Q338.28125 34.721874 338.28125 33.596874L338.28125 27.175L340.03125 27.175L340.03125 32.925Q340.03125 34.3 340.14062 34.784374Q340.3125 35.471874 340.84375 35.878124Q341.39062 36.26875 342.17188 36.26875Q342.96875 36.26875 343.65625 35.8625Q344.35938 35.45625 344.64062 34.76875Q344.9375 34.065624 344.9375 32.7375L344.9375 27.175L346.6875 27.175L346.6875 37.55L345.10938 37.55ZM348.29688 37.55L348.29688 27.175L349.875 27.175L349.875 28.753124Q350.48438 27.64375 351.0 27.3Q351.51562 26.940624 352.125 26.940624Q353.01562 26.940624 353.9375 27.503124L353.32812 29.14375Q352.6875 28.753124 352.04688 28.753124Q351.46875 28.753124 351.0 29.1125Q350.54688 29.45625 350.34375 30.065624Q350.0625 31.003124 350.0625 32.1125L350.0625 37.55L348.29688 37.55ZM355.28125 37.55L355.28125 23.2375L357.03125 23.2375L357.03125 37.55L355.28125 37.55ZM371.45312 37.55L369.6875 37.55L369.6875 26.346874Q369.0625 26.95625 368.03125 27.565624Q367.0 28.159374 366.17188 28.471874L366.17188 26.76875Q367.65625 26.08125 368.75 25.096874Q369.85938 24.096874 370.3125 23.175L371.45312 23.175L371.45312 37.55ZM376.32812 37.55L376.32812 23.2375L378.09375 23.2375L378.09375 31.39375L382.25 27.175L384.51562 27.175L380.5625 31.01875L384.92188 37.55L382.75 37.55L379.32812 32.253124L378.09375 33.440624L378.09375 37.55L376.32812 37.55ZM386.46875 37.55L386.46875 23.2375L391.84375 23.2375Q393.48438 23.2375 394.46875 23.675Q395.45312 24.096874 396.01562 25.003124Q396.57812 25.909374 396.57812 26.89375Q396.57812 27.815624 396.07812 28.628124Q395.59375 29.440624 394.57812 29.925Q395.875 30.315624 396.57812 31.2375Q397.28125 32.14375 397.28125 33.39375Q397.28125 34.409374 396.84375 35.26875Q396.42188 36.128124 395.79688 36.596874Q395.17188 37.065624 394.23438 37.315624Q393.29688 37.55 391.92188 37.55L386.46875 37.55ZM388.35938 29.253124L391.45312 29.253124Q392.71875 29.253124 393.26562 29.08125Q393.98438 28.8625 394.34375 28.378124Q394.71875 27.878124 394.71875 27.1125Q394.71875 26.409374 394.375 25.8625Q394.03125 25.315624 393.39062 25.128124Q392.76562 24.925 391.21875 24.925L388.35938 24.925L388.35938 29.253124ZM388.35938 35.8625L391.92188 35.8625Q392.84375 35.8625 393.21875 35.784374Q393.875 35.675 394.3125 35.409374Q394.75 35.128124 395.03125 34.6125Q395.3125 34.08125 395.3125 33.39375Q395.3125 32.596874 394.90625 32.003124Q394.5 31.409374 393.76562 31.175Q393.03125 30.940624 391.67188 30.940624L388.35938 30.940624L388.35938 35.8625Z" fill-rule="nonzero"/></svg>