<svg version="1.1" viewBox="0.0 0.0 600.0 371.0" fill="none" stroke="none" stroke-linecap="square" stroke-miterlimit="10" width="600" height="371" xmlns:xlink="http://www.w3.org/1999/xlink" xmlns="http://www.w3.org/2000/svg"><path fill="#ffffff" d="M0 0L600.0 0L600.0 371.0L0 371.0L0 0Z" fill-rule="nonzero"/><path stroke="#cccccc" stroke-width="1.0" stroke-linecap="butt" d="M45.5 88.5L45.5 332.5" fill-rule="nonzero"/><path stroke="#cccccc" stroke-width="1.0" stroke-linecap="butt" d="M207.5 88.5L207.5 332.5" fill-rule="nonzero"/><path stroke="#cccccc" stroke-width="1.0" stroke-linecap="butt" d="M370.5 88.5L370.5 332.5" fill-rule="nonzero"/><path stroke="#cccccc" stroke-width="1.0" stroke-linecap="butt" d="M532.5 88.5L532.5 332.5" fill-rule="nonzero"/><path stroke="#333333" stroke-width="1.0" stroke-linecap="butt" d="M45.5 332.5L581.5 332.5" fill-rule="nonzero"/><path stroke="#cccccc" stroke-width="1.0" stroke-linecap="butt" d="M45.5 283.5L581.5 283.5" fill-rule="nonzero"/><path stroke="#cccccc" stroke-width="1.0" stroke-linecap="butt" d="M45.5 234.5L581.5 234.5" fill-rule="nonzero"/><path stroke="#cccccc" stroke-width="1.0" stroke-linecap="butt" d="M45.5 185.5L581.5 185.5" fill-rule="nonzero"/><path stroke="#cccccc" stroke-width="1.0" stroke-linecap="butt" d="M45.5 137.5L581.5 137.5" fill-rule="nonzero"/><path stroke="#cccccc" stroke-width="1.0" stroke-linecap="butt" d="M45.5 88.5L581.5 88.5" fill-rule="nonzero"/><clipPath id="id_0"><path d="M45.55 88.28333L581.45 88.28333L581.45 332.45L45.55 332.45L45.55 88.28333Z" clip-rule="nonzero"/></clipPath><path stroke="#4285f4" stroke-width="2.0" stroke-linecap="butt" clip-path="url(#id_0)" d="M45.55 199.6624L207.89326 176.7205L256.76346 174.27884L321.36633 178.4785L370.23654 180.4123L483.70963 180.63693L581.45 180.5295" fill-rule="nonzero"/><path stroke="#ea4335" stroke-width="2.0" stroke-linecap="butt" clip-path="url(#id_0)" d="M45.55 140.0076L207.89326 100.169365L256.76346 97.04404L321.36633 94.7977L370.23654 92.7467L483.70963 92.25837L581.45 92.7467" fill-rule="nonzero"/><path fill="#000000" fill-opacity="0.0" clip-path="url(#id_0)" d="M48.55 199.6624C48.55 201.31926 47.206856 202.6624 45.55 202.6624C43.893147 202.6624 42.55 201.31926 42.55 199.6624C42.55 198.00554 43.893147 196.6624 45.55 196.6624C47.206856 196.6624 48.55 198.00554 48.55 199.6624Z" fill-rule="nonzero"/><path fill="#000000" fill-opacity="0.0" clip-path="url(#id_0)" d="M210.89326 176.7205C210.89326 178.37735 209.55013 179.7205 207.89326 179.7205C206.23642 179.7205 204.89326 178.37735 204.89326 176.7205C204.89326 175.06364 206.23642 173.7205 207.89326 173.7205C209.55013 173.7205 210.89326 175.06364 210.89326 176.7205Z" fill-rule="nonzero"/><path fill="#000000" fill-opacity="0.0" clip-path="url(#id_0)" d="M259.76346 174.27884C259.76346 175.93568 258.42032 177.27884 256.76346 177.27884C255.10661 177.27884 253.76346 175.93568 253.76346 174.27884C253.76346 172.62198 255.10661 171.27884 256.76346 171.27884C258.42032 171.27884 259.76346 172.62198 259.76346 174.27884Z" fill-rule="nonzero"/><path fill="#000000" fill-opacity="0.0" clip-path="url(#id_0)" d="M324.36633 178.4785C324.36633 180.13536 323.0232 181.4785 321.36633 181.4785C319.7095 181.4785 318.36633 180.13536 318.36633 178.4785C318.36633 176.82164 319.7095 175.4785 321.36633 175.4785C323.0232 175.4785 324.36633 176.82164 324.36633 178.4785Z" fill-rule="nonzero"/><path fill="#000000" fill-opacity="0.0" clip-path="url(#id_0)" d="M373.23654 180.4123C373.23654 182.06915 371.8934 183.4123 370.23654 183.4123C368.57968 183.4123 367.23654 182.06915 367.23654 180.4123C367.23654 178.75545 368.57968 177.4123 370.23654 177.4123C371.8934 177.4123 373.23654 178.75545 373.23654 180.4123Z" fill-rule="nonzero"/><path fill="#000000" fill-opacity="0.0" clip-path="url(#id_0)" d="M486.70963 180.63693C486.70963 182.2938 485.36646 183.63693 483.70963 183.63693C482.05276 183.63693 480.70963 182.2938 480.70963 180.63693C480.70963 178.98007 482.05276 177.63693 483.70963 177.63693C485.36646 177.63693 486.70963 178.98007 486.70963 180.63693Z" fill-rule="nonzero"/><path fill="#000000" fill-opacity="0.0" clip-path="url(#id_0)" d="M584.45 180.5295C584.45 182.18636 583.1069 183.5295 581.45 183.5295C579.79315 183.5295 578.45 182.18636 578.45 180.5295C578.45 178.87265 579.79315 177.5295 581.45 177.5295C583.1069 177.5295 584.45 178.87265 584.45 180.5295Z" fill-rule="nonzero"/><path fill="#000000" fill-opacity="0.0" clip-path="url(#id_0)" d="M48.55 140.0076C48.55 141.66446 47.206856 143.0076 45.55 143.0076C43.893147 143.0076 42.55 141.66446 42.55 140.0076C42.55 138.35074 43.893147 137.0076 45.55 137.0076C47.206856 137.0076 48.55 138.35074 48.55 140.0076Z" fill-rule="nonzero"/><path fill="#000000" fill-opacity="0.0" clip-path="url(#id_0)" d="M210.89326 100.169365C210.89326 101.82622 209.55013 103.169365 207.89326 103.169365C206.23642 103.169365 204.89326 101.82622 204.89326 100.169365C204.89326 98.51251 206.23642 97.169365 207.89326 97.169365C209.55013 97.169365 210.89326 98.51251 210.89326 100.169365Z" fill-rule="nonzero"/><path fill="#000000" fill-opacity="0.0" clip-path="url(#id_0)" d="M259.76346 97.04404C259.76346 98.70089 258.42032 100.04404 256.76346 100.04404C255.10661 100.04404 253.76346 98.70089 253.76346 97.04404C253.76346 95.38718 255.10661 94.04404 256.76346 94.04404C258.42032 94.04404 259.76346 95.38718 259.76346 97.04404Z" fill-rule="nonzero"/><path fill="#000000" fill-opacity="0.0" clip-path="url(#id_0)" d="M324.36633 94.7977C324.36633 96.45455 323.0232 97.7977 321.36633 97.7977C319.7095 97.7977 318.36633 96.45455 318.36633 94.7977C318.36633 93.14085 319.7095 91.7977 321.36633 91.7977C323.0232 91.7977 324.36633 93.14085 324.36633 94.7977Z" fill-rule="nonzero"/><path fill="#000000" fill-opacity="0.0" clip-path="url(#id_0)" d="M373.23654 92.7467C373.23654 94.40356 371.8934 95.7467 370.23654 95.7467C368.57968 95.7467 367.23654 94.40356 367.23654 92.7467C367.23654 91.08984 368.57968 89.7467 370.23654 89.7467C371.8934 89.7467 373.23654 91.08984 373.23654 92.7467Z" fill-rule="nonzero"/><path fill="#000000" fill-opacity="0.0" clip-path="url(#id_0)" d="M486.70963 92.25837C486.70963 93.91522 485.36646 95.25837 483.70963 95.25837C482.05276 95.25837 480.70963 93.91522 480.70963 92.25837C480.70963 90.60151 482.05276 89.25837 483.70963 89.25837C485.36646 89.25837 486.70963 90.60151 486.70963 92.25837Z" fill-rule="nonzero"/><path fill="#000000" fill-opacity="0.0" clip-path="url(#id_0)" d="M584.45 92.7467C584.45 94.40356 583.1069 95.7467 581.45 95.7467C579.79315 95.7467 578.45 94.40356 578.45 92.7467C578.45 91.08984 579.79315 89.7467 581.45 89.7467C583.1069 89.7467 584.45 91.08984 584.45 92.7467Z" fill-rule="nonzero"/><path fill="#000000" d="M33.05 332.21564Q33.05 330.6844 33.3625 329.7625Q33.675 328.825 34.284374 328.325Q34.909374 327.825 35.846874 327.825Q36.534374 327.825 37.05 328.10626Q37.58125 328.3875 37.925 328.91876Q38.26875 329.4344 38.45625 330.1844Q38.64375 330.9344 38.64375 332.21564Q38.64375 333.73126 38.33125 334.65314Q38.034374 335.575 37.409374 336.09064Q36.8 336.59064 35.846874 336.59064Q34.6125 336.59064 33.89375 335.7Q33.05 334.6375 33.05 332.21564ZM34.128124 332.21564Q34.128124 334.325 34.628124 335.02814Q35.128124 335.73126 35.846874 335.73126Q36.58125 335.73126 37.065624 335.02814Q37.565624 334.325 37.565624 332.21564Q37.565624 330.09064 37.065624 329.40314Q36.58125 328.7 35.83125 328.7Q35.1125 328.7 34.675 329.3094Q34.128124 330.09064 34.128124 332.21564Z" fill-rule="nonzero"/><path fill="#000000" d="M26.05 285.36667L27.159374 285.27292Q27.284374 286.08542 27.721874 286.49167Q28.175 286.89792 28.815624 286.89792Q29.565624 286.89792 30.096874 286.3198Q30.628124 285.74167 30.628124 284.80417Q30.628124 283.89792 30.1125 283.3823Q29.6125 282.85104 28.784374 282.85104Q28.284374 282.85104 27.8625 283.08542Q27.45625 283.3198 27.221874 283.67917L26.2375 283.55417L27.065624 279.14792L31.346874 279.14792L31.346874 280.14792L27.909374 280.14792L27.45625 282.46042Q28.221874 281.91354 29.065624 281.91354Q30.190624 281.91354 30.95625 282.6948Q31.7375 283.47604 31.7375 284.71042Q31.7375 285.86667 31.065624 286.72604Q30.2375 287.7573 28.815624 287.7573Q27.64375 287.7573 26.89375 287.10104Q26.159374 286.4448 26.05 285.36667ZM33.05 283.3823Q33.05 281.85104 33.3625 280.92917Q33.675 279.99167 34.284374 279.49167Q34.909374 278.99167 35.846874 278.99167Q36.534374 278.99167 37.05 279.27292Q37.58125 279.55417 37.925 280.08542Q38.26875 280.60104 38.45625 281.35104Q38.64375 282.10104 38.64375 283.3823Q38.64375 284.89792 38.33125 285.8198Q38.034374 286.74167 37.409374 287.2573Q36.8 287.7573 35.846874 287.7573Q34.6125 287.7573 33.89375 286.86667Q33.05 285.80417 33.05 283.3823ZM34.128124 283.3823Q34.128124 285.49167 34.628124 286.1948Q35.128124 286.89792 35.846874 286.89792Q36.58125 286.89792 37.065624 286.1948Q37.565624 285.49167 37.565624 283.3823Q37.565624 281.2573 37.065624 280.5698Q36.58125 279.86667 35.83125 279.86667Q35.1125 279.86667 34.675 280.47604Q34.128124 281.2573 34.128124 283.3823Z" fill-rule="nonzero"/><path fill="#000000" d="M23.01875 238.78334L21.971874 238.78334L21.971874 232.06459Q21.58125 232.42397 20.95625 232.79897Q20.346874 233.15834 19.8625 233.33022L19.8625 232.31459Q20.7375 231.89272 21.39375 231.31459Q22.065624 230.72084 22.346874 230.15834L23.01875 230.15834L23.01875 238.78334ZM26.05 234.54897Q26.05 233.01772 26.3625 232.09584Q26.675 231.15834 27.284374 230.65834Q27.909374 230.15834 28.846874 230.15834Q29.534374 230.15834 30.05 230.43959Q30.58125 230.72084 30.925 231.25209Q31.26875 231.76772 31.45625 232.51772Q31.64375 233.26772 31.64375 234.54897Q31.64375 236.06459 31.33125 236.98647Q31.034374 237.90834 30.409374 238.42397Q29.8 238.92397 28.846874 238.92397Q27.6125 238.92397 26.89375 238.03334Q26.05 236.97084 26.05 234.54897ZM27.128124 234.54897Q27.128124 236.65834 27.628124 237.36147Q28.128124 238.06459 28.846874 238.06459Q29.58125 238.06459 30.065624 237.36147Q30.565624 236.65834 30.565624 234.54897Q30.565624 232.42397 30.065624 231.73647Q29.58125 231.03334 28.83125 231.03334Q28.1125 231.03334 27.675 231.64272Q27.128124 232.42397 27.128124 234.54897ZM33.05 234.54897Q33.05 233.01772 33.3625 232.09584Q33.675 231.15834 34.284374 230.65834Q34.909374 230.15834 35.846874 230.15834Q36.534374 230.15834 37.05 230.43959Q37.58125 230.72084 37.925 231.25209Q38.26875 231.76772 38.45625 232.51772Q38.64375 233.26772 38.64375 234.54897Q38.64375 236.06459 38.33125 236.98647Q38.034374 237.90834 37.409374 238.42397Q36.8 238.92397 35.846874 238.92397Q34.6125 238.92397 33.89375 238.03334Q33.05 236.97084 33.05 234.54897ZM34.128124 234.54897Q34.128124 236.65834 34.628124 237.36147Q35.128124 238.06459 35.846874 238.06459Q36.58125 238.06459 37.065624 237.36147Q37.565624 236.65834 37.565624 234.54897Q37.565624 232.42397 37.065624 231.73647Q36.58125 231.03334 35.83125 231.03334Q35.1125 231.03334 34.675 231.64272Q34.128124 232.42397 34.128124 234.54897Z" fill-rule="nonzero"/><path fill="#000000" d="M23.01875 189.95L21.971874 189.95L21.971874 183.23125Q21.58125 183.59062 20.95625 183.96562Q20.346874 184.325 19.8625 184.49687L19.8625 183.48125Q20.7375 183.05937 21.39375 182.48125Q22.065624 181.8875 22.346874 181.325L23.01875 181.325L23.01875 189.95ZM26.05 187.7L27.159374 187.60625Q27.284374 188.41875 27.721874 188.825Q28.175 189.23125 28.815624 189.23125Q29.565624 189.23125 30.096874 188.65312Q30.628124 188.075 30.628124 187.1375Q30.628124 186.23125 30.1125 185.71562Q29.6125 185.18437 28.784374 185.18437Q28.284374 185.18437 27.8625 185.41875Q27.45625 185.65312 27.221874 186.0125L26.2375 185.8875L27.065624 181.48125L31.346874 181.48125L31.346874 182.48125L27.909374 182.48125L27.45625 184.79375Q28.221874 184.24687 29.065624 184.24687Q30.190624 184.24687 30.95625 185.02812Q31.7375 185.80937 31.7375 187.04375Q31.7375 188.2 31.065624 189.05937Q30.2375 190.09062 28.815624 190.09062Q27.64375 190.09062 26.89375 189.43437Q26.159374 188.77812 26.05 187.7ZM33.05 185.71562Q33.05 184.18437 33.3625 183.2625Q33.675 182.325 34.284374 181.825Q34.909374 181.325 35.846874 181.325Q36.534374 181.325 37.05 181.60625Q37.58125 181.8875 37.925 182.41875Q38.26875 182.93437 38.45625 183.68437Q38.64375 184.43437 38.64375 185.71562Q38.64375 187.23125 38.33125 188.15312Q38.034374 189.075 37.409374 189.59062Q36.8 190.09062 35.846874 190.09062Q34.6125 190.09062 33.89375 189.2Q33.05 188.1375 33.05 185.71562ZM34.128124 185.71562Q34.128124 187.825 34.628124 188.52812Q35.128124 189.23125 35.846874 189.23125Q36.58125 189.23125 37.065624 188.52812Q37.565624 187.825 37.565624 185.71562Q37.565624 183.59062 37.065624 182.90312Q36.58125 182.2 35.83125 182.2Q35.1125 182.2 34.675 182.80937Q34.128124 183.59062 34.128124 185.71562Z" fill-rule="nonzero"/><path fill="#000000" d="M24.596874 140.10104L24.596874 141.11667L18.909374 141.11667Q18.909374 140.74167 19.034374 140.3823Q19.253124 139.80417 19.721874 139.24167Q20.20625 138.67917 21.1125 137.9448Q22.51875 136.78854 23.003124 136.11667Q23.503124 135.4448 23.503124 134.85104Q23.503124 134.22604 23.05 133.80417Q22.596874 133.36667 21.878124 133.36667Q21.1125 133.36667 20.659374 133.8198Q20.20625 134.27292 20.190624 135.08542L19.1125 134.97604Q19.221874 133.7573 19.940624 133.1323Q20.675 132.49167 21.909374 132.49167Q23.14375 132.49167 23.8625 133.17917Q24.58125 133.86667 24.58125 134.8823Q24.58125 135.39792 24.3625 135.89792Q24.159374 136.3823 23.659374 136.9448Q23.175 137.49167 22.05 138.4448Q21.096874 139.24167 20.815624 139.53854Q20.55 139.8198 20.378124 140.10104L24.596874 140.10104ZM26.05 136.8823Q26.05 135.35104 26.3625 134.42917Q26.675 133.49167 27.284374 132.99167Q27.909374 132.49167 28.846874 132.49167Q29.534374 132.49167 30.05 132.77292Q30.58125 133.05417 30.925 133.58542Q31.26875 134.10104 31.45625 134.85104Q31.64375 135.60104 31.64375 136.8823Q31.64375 138.39792 31.33125 139.3198Q31.034374 140.24167 30.409374 140.7573Q29.8 141.2573 28.846874 141.2573Q27.6125 141.2573 26.89375 140.36667Q26.05 139.30417 26.05 136.8823ZM27.128124 136.8823Q27.128124 138.99167 27.628124 139.6948Q28.128124 140.39792 28.846874 140.39792Q29.58125 140.39792 30.065624 139.6948Q30.565624 138.99167 30.565624 136.8823Q30.565624 134.7573 30.065624 134.0698Q29.58125 133.36667 28.83125 133.36667Q28.1125 133.36667 27.675 133.97604Q27.128124 134.7573 27.128124 136.8823ZM33.05 136.8823Q33.05 135.35104 33.3625 134.42917Q33.675 133.49167 34.284374 132.99167Q34.909374 132.49167 35.846874 132.49167Q36.534374 132.49167 37.05 132.77292Q37.58125 133.05417 37.925 133.58542Q38.26875 134.10104 38.45625 134.85104Q38.64375 135.60104 38.64375 136.8823Q38.64375 138.39792 38.33125 139.3198Q38.034374 140.24167 37.409374 140.7573Q36.8 141.2573 35.846874 141.2573Q34.6125 141.2573 33.89375 140.36667Q33.05 139.30417 33.05 136.8823ZM34.128124 136.8823Q34.128124 138.99167 34.628124 139.6948Q35.128124 140.39792 35.846874 140.39792Q36.58125 140.39792 37.065624 139.6948Q37.565624 138.99167 37.565624 136.8823Q37.565624 134.7573 37.065624 134.0698Q36.58125 133.36667 35.83125 133.36667Q35.1125 133.36667 34.675 133.97604Q34.128124 134.7573 34.128124 136.8823Z" fill-rule="nonzero"/><path fill="#000000" d="M24.596874 91.26771L24.596874 92.28333L18.909374 92.28333Q18.909374 91.90833 19.034374 91.54896Q19.253124 90.97083 19.721874 90.40833Q20.20625 89.84583 21.1125 89.11146Q22.51875 87.95521 23.003124 87.28333Q23.503124 86.61146 23.503124 86.01771Q23.503124 85.39271 23.05 84.97083Q22.596874 84.53333 21.878124 84.53333Q21.1125 84.53333 20.659374 84.98646Q20.20625 85.43958 20.190624 86.25208L19.1125 86.14271Q19.221874 84.92396 19.940624 84.29896Q20.675 83.65833 21.909374 83.65833Q23.14375 83.65833 23.8625 84.34583Q24.58125 85.03333 24.58125 86.04896Q24.58125 86.56458 24.3625 87.06458Q24.159374 87.54896 23.659374 88.11146Q23.175 88.65833 22.05 89.61146Q21.096874 90.40833 20.815624 90.70521Q20.55 90.98646 20.378124 91.26771L24.596874 91.26771ZM26.05 90.03333L27.159374 89.93958Q27.284374 90.75208 27.721874 91.15833Q28.175 91.56458 28.815624 91.56458Q29.565624 91.56458 30.096874 90.98646Q30.628124 90.40833 30.628124 89.47083Q30.628124 88.56458 30.1125 88.04896Q29.6125 87.51771 28.784374 87.51771Q28.284374 87.51771 27.8625 87.75208Q27.45625 87.98646 27.221874 88.34583L26.2375 88.22083L27.065624 83.81458L31.346874 83.81458L31.346874 84.81458L27.909374 84.81458L27.45625 87.12708Q28.221874 86.58021 29.065624 86.58021Q30.190624 86.58021 30.95625 87.36146Q31.7375 88.14271 31.7375 89.37708Q31.7375 90.53333 31.065624 91.39271Q30.2375 92.42396 28.815624 92.42396Q27.64375 92.42396 26.89375 91.76771Q26.159374 91.11146 26.05 90.03333ZM33.05 88.04896Q33.05 86.51771 33.3625 85.59583Q33.675 84.65833 34.284374 84.15833Q34.909374 83.65833 35.846874 83.65833Q36.534374 83.65833 37.05 83.93958Q37.58125 84.22083 37.925 84.75208Q38.26875 85.26771 38.45625 86.01771Q38.64375 86.76771 38.64375 88.04896Q38.64375 89.56458 38.33125 90.48646Q38.034374 91.40833 37.409374 91.92396Q36.8 92.42396 35.846874 92.42396Q34.6125 92.42396 33.89375 91.53333Q33.05 90.47083 33.05 88.04896ZM34.128124 88.04896Q34.128124 90.15833 34.628124 90.86146Q35.128124 91.56458 35.846874 91.56458Q36.58125 91.56458 37.065624 90.86146Q37.565624 90.15833 37.565624 88.04896Q37.565624 85.92396 37.065624 85.23646Q36.58125 84.53333 35.83125 84.53333Q35.1125 84.53333 34.675 85.14271Q34.128124 85.92396 34.128124 88.04896Z" fill-rule="nonzero"/><path fill="#000000" d="M46.51875 349.45L45.471874 349.45L45.471874 342.73126Q45.08125 343.09064 44.45625 343.46564Q43.846874 343.825 43.3625 343.9969L43.3625 342.98126Q44.2375 342.5594 44.89375 341.98126Q45.565624 341.3875 45.846874 340.825L46.51875 340.825L46.51875 349.45Z" fill-rule="nonzero"/><path fill="#000000" d="M205.36201 349.45L204.31514 349.45L204.31514 342.73126Q203.92451 343.09064 203.29951 343.46564Q202.69014 343.825 202.20576 343.9969L202.20576 342.98126Q203.08076 342.5594 203.73701 341.98126Q204.40889 341.3875 204.69014 340.825L205.36201 340.825L205.36201 349.45ZM208.39326 345.21564Q208.39326 343.6844 208.70576 342.7625Q209.01826 341.825 209.62764 341.325Q210.25264 340.825 211.19014 340.825Q211.87764 340.825 212.39326 341.10626Q212.92451 341.3875 213.26826 341.91876Q213.61201 342.4344 213.79951 343.1844Q213.98701 343.9344 213.98701 345.21564Q213.98701 346.73126 213.67451 347.65314Q213.37764 348.575 212.75264 349.09064Q212.14326 349.59064 211.19014 349.59064Q209.95576 349.59064 209.23701 348.7Q208.39326 347.6375 208.39326 345.21564ZM209.47139 345.21564Q209.47139 347.325 209.97139 348.02814Q210.47139 348.73126 211.19014 348.73126Q211.92451 348.73126 212.40889 348.02814Q212.90889 347.325 212.90889 345.21564Q212.90889 343.09064 212.40889 342.40314Q211.92451 341.7 211.17451 341.7Q210.45576 341.7 210.01826 342.3094Q209.47139 343.09064 209.47139 345.21564Z" fill-rule="nonzero"/><path fill="#000000" d="M364.2053 349.45L363.15842 349.45L363.15842 342.73126Q362.7678 343.09064 362.1428 343.46564Q361.53342 343.825 361.04904 343.9969L361.04904 342.98126Q361.92404 342.5594 362.5803 341.98126Q363.25217 341.3875 363.53342 340.825L364.2053 340.825L364.2053 349.45ZM367.23654 345.21564Q367.23654 343.6844 367.54904 342.7625Q367.86154 341.825 368.47092 341.325Q369.09592 340.825 370.03342 340.825Q370.72092 340.825 371.23654 341.10626Q371.7678 341.3875 372.11154 341.91876Q372.4553 342.4344 372.6428 343.1844Q372.8303 343.9344 372.8303 345.21564Q372.8303 346.73126 372.5178 347.65314Q372.22092 348.575 371.59592 349.09064Q370.98654 349.59064 370.03342 349.59064Q368.79904 349.59064 368.0803 348.7Q367.23654 347.6375 367.23654 345.21564ZM368.31467 345.21564Q368.31467 347.325 368.81467 348.02814Q369.31467 348.73126 370.03342 348.73126Q370.7678 348.73126 371.25217 348.02814Q371.75217 347.325 371.75217 345.21564Q371.75217 343.09064 371.25217 342.40314Q370.7678 341.7 370.0178 341.7Q369.29904 341.7 368.86154 342.3094Q368.31467 343.09064 368.31467 345.21564ZM374.23654 345.21564Q374.23654 343.6844 374.54904 342.7625Q374.86154 341.825 375.47092 341.325Q376.09592 340.825 377.03342 340.825Q377.72092 340.825 378.23654 341.10626Q378.7678 341.3875 379.11154 341.91876Q379.4553 342.4344 379.6428 343.1844Q379.8303 343.9344 379.8303 345.21564Q379.8303 346.73126 379.5178 347.65314Q379.22092 348.575 378.59592 349.09064Q377.98654 349.59064 377.03342 349.59064Q375.79904 349.59064 375.0803 348.7Q374.23654 347.6375 374.23654 345.21564ZM375.31467 345.21564Q375.31467 347.325 375.81467 348.02814Q376.31467 348.73126 377.03342 348.73126Q377.7678 348.73126 378.25217 348.02814Q378.75217 347.325 378.75217 345.21564Q378.75217 343.09064 378.25217 342.40314Q377.7678 341.7 377.0178 341.7Q376.29904 341.7 375.86154 342.3094Q375.31467 343.09064 375.31467 345.21564Z" fill-rule="nonzero"/><path fill="#000000" d="M523.0486 349.45L522.0017 349.45L522.0017 342.73126Q521.6111 343.09064 520.9861 343.46564Q520.3767 343.825 519.89233 343.9969L519.89233 342.98126Q520.76733 342.5594 521.4236 341.98126Q522.09546 341.3875 522.3767 340.825L523.0486 340.825L523.0486 349.45ZM526.07983 345.21564Q526.07983 343.6844 526.39233 342.7625Q526.70483 341.825 527.3142 341.325Q527.9392 340.825 528.8767 340.825Q529.5642 340.825 530.07983 341.10626Q530.6111 341.3875 530.95483 341.91876Q531.2986 342.4344 531.4861 343.1844Q531.6736 343.9344 531.6736 345.21564Q531.6736 346.73126 531.3611 347.65314Q531.0642 348.575 530.4392 349.09064Q529.82983 349.59064 528.8767 349.59064Q527.64233 349.59064 526.9236 348.7Q526.07983 347.6375 526.07983 345.21564ZM527.15796 345.21564Q527.15796 347.325 527.65796 348.02814Q528.15796 348.73126 528.8767 348.73126Q529.6111 348.73126 530.09546 348.02814Q530.59546 347.325 530.59546 345.21564Q530.59546 343.09064 530.09546 342.40314Q529.6111 341.7 528.8611 341.7Q528.14233 341.7 527.70483 342.3094Q527.15796 343.09064 527.15796 345.21564ZM533.07983 345.21564Q533.07983 343.6844 533.39233 342.7625Q533.70483 341.825 534.3142 341.325Q534.9392 340.825 535.8767 340.825Q536.5642 340.825 537.07983 341.10626Q537.6111 341.3875 537.95483 341.91876Q538.2986 342.4344 538.4861 343.1844Q538.6736 343.9344 538.6736 345.21564Q538.6736 346.73126 538.3611 347.65314Q538.0642 348.575 537.4392 349.09064Q536.82983 349.59064 535.8767 349.59064Q534.64233 349.59064 533.9236 348.7Q533.07983 347.6375 533.07983 345.21564ZM534.15796 345.21564Q534.15796 347.325 534.65796 348.02814Q535.15796 348.73126 535.8767 348.73126Q536.6111 348.73126 537.09546 348.02814Q537.59546 347.325 537.59546 345.21564Q537.59546 343.09064 537.09546 342.40314Q536.6111 341.7 535.8611 341.7Q535.14233 341.7 534.70483 342.3094Q534.15796 343.09064 534.15796 345.21564ZM540.07983 345.21564Q540.07983 343.6844 540.39233 342.7625Q540.70483 341.825 541.3142 341.325Q541.9392 340.825 542.8767 340.825Q543.5642 340.825 544.07983 341.10626Q544.6111 341.3875 544.95483 341.91876Q545.2986 342.4344 545.4861 343.1844Q545.6736 343.9344 545.6736 345.21564Q545.6736 346.73126 545.3611 347.65314Q545.0642 348.575 544.4392 349.09064Q543.82983 349.59064 542.8767 349.59064Q541.64233 349.59064 540.9236 348.7Q540.07983 347.6375 540.07983 345.21564ZM541.15796 345.21564Q541.15796 347.325 541.65796 348.02814Q542.15796 348.73126 542.8767 348.73126Q543.6111 348.73126 544.09546 348.02814Q544.59546 347.325 544.59546 345.21564Q544.59546 343.09064 544.09546 342.40314Q543.6111 341.7 542.8611 341.7Q542.14233 341.7 541.70483 342.3094Q541.15796 343.09064 541.15796 345.21564Z" fill-rule="nonzero"/><path stroke="#4285f4" stroke-width="4.0" stroke-linecap="butt" d="M225.5 61.916668L237.5 61.916668" fill-rule="nonzero"/><path fill="#1a1a1a" d="M247.625 61.260414Q246.96875 61.010414 246.64062 60.572914Q246.32812 60.11979 246.32812 59.510414Q246.32812 58.572914 247.0 57.93229Q247.6875 57.291664 248.79688 57.291664Q249.92188 57.291664 250.60938 57.947914Q251.29688 58.604164 251.29688 59.541664Q251.29688 60.135414 250.98438 60.572914Q250.67188 61.010414 250.03125 61.260414Q250.82812 61.510414 251.23438 62.08854Q251.64062 62.666664 251.64062 63.46354Q251.64062 64.55729 250.85938 65.30729Q250.09375 66.05729 248.8125 66.05729Q247.54688 66.05729 246.76562 65.30729Q245.98438 64.55729 245.98438 63.43229Q245.98438 62.58854 246.40625 62.02604Q246.84375 61.46354 247.625 61.260414ZM247.40625 59.46354Q247.40625 60.072914 247.79688 60.46354Q248.20312 60.854164 248.82812 60.854164Q249.4375 60.854164 249.82812 60.479164Q250.21875 60.08854 250.21875 59.52604Q250.21875 58.947914 249.8125 58.55729Q249.40625 58.15104 248.8125 58.15104Q248.20312 58.15104 247.79688 58.541664Q247.40625 58.93229 247.40625 59.46354ZM247.07812 63.43229Q247.07812 63.885414 247.28125 64.30729Q247.5 64.729164 247.92188 64.96354Q248.34375 65.197914 248.82812 65.197914Q249.57812 65.197914 250.0625 64.71354Q250.5625 64.229164 250.5625 63.479164Q250.5625 62.71354 250.0625 62.21354Q249.5625 61.71354 248.79688 61.71354Q248.04688 61.71354 247.5625 62.21354Q247.07812 62.697914 247.07812 63.43229ZM253.39062 65.916664L253.39062 57.322914L255.10938 57.322914L257.14062 63.40104Q257.42188 64.260414 257.54688 64.68229Q257.6875 64.21354 258.0 63.30729L260.0625 57.322914L261.59375 57.322914L261.59375 65.916664L260.5 65.916664L260.5 58.729164L258.0 65.916664L256.96875 65.916664L254.48438 58.604164L254.48438 65.916664L253.39062 65.916664ZM262.375 65.916664L262.375 57.322914L265.60938 57.322914Q266.59375 57.322914 267.1875 57.58854Q267.78125 57.854164 268.10938 58.40104Q268.45312 58.93229 268.45312 59.52604Q268.45312 60.072914 268.15625 60.55729Q267.85938 61.041664 267.25 61.33854Q268.03125 61.572914 268.4375 62.135414Q268.85938 62.68229 268.85938 63.43229Q268.85938 64.02604 268.60938 64.55729Q268.35938 65.072914 267.98438 65.354164Q267.60938 65.635414 267.03125 65.77604Q266.46875 65.916664 265.65625 65.916664L262.375 65.916664ZM263.51562 60.93229L265.375 60.93229Q266.125 60.93229 266.45312 60.83854Q266.89062 60.71354 267.10938 60.416664Q267.32812 60.104164 267.32812 59.65104Q267.32812 59.229164 267.125 58.90104Q266.92188 58.572914 266.53125 58.46354Q266.15625 58.33854 265.23438 58.33854L263.51562 58.33854L263.51562 60.93229ZM263.51562 64.90104L265.65625 64.90104Q266.20312 64.90104 266.42188 64.854164Q266.82812 64.791664 267.07812 64.635414Q267.34375 64.46354 267.51562 64.15104Q267.6875 63.83854 267.6875 63.43229Q267.6875 62.947914 267.4375 62.58854Q267.20312 62.229164 266.76562 62.08854Q266.32812 61.947914 265.5 61.947914L263.51562 61.947914L263.51562 64.90104Z" fill-rule="nonzero"/><path stroke="#ea4335" stroke-width="4.0" stroke-linecap="butt" d="M285.5 61.916668L297.5 61.916668" fill-rule="nonzero"/><path fill="#1a1a1a" d="M307.625 61.260414Q306.96875 61.010414 306.64062 60.572914Q306.32812 60.11979 306.32812 59.510414Q306.32812 58.572914 307.0 57.93229Q307.6875 57.291664 308.79688 57.291664Q309.92188 57.291664 310.60938 57.947914Q311.29688 58.604164 311.29688 59.541664Q311.29688 60.135414 310.98438 60.572914Q310.67188 61.010414 310.03125 61.260414Q310.82812 61.510414 311.23438 62.08854Q311.64062 62.666664 311.64062 63.46354Q311.64062 64.55729 310.85938 65.30729Q310.09375 66.05729 308.8125 66.05729Q307.54688 66.05729 306.76562 65.30729Q305.98438 64.55729 305.98438 63.43229Q305.98438 62.58854 306.40625 62.02604Q306.84375 61.46354 307.625 61.260414ZM307.40625 59.46354Q307.40625 60.072914 307.79688 60.46354Q308.20312 60.854164 308.82812 60.854164Q309.4375 60.854164 309.82812 60.479164Q310.21875 60.08854 310.21875 59.52604Q310.21875 58.947914 309.8125 58.55729Q309.40625 58.15104 308.8125 58.15104Q308.20312 58.15104 307.79688 58.541664Q307.40625 58.93229 307.40625 59.46354ZM307.07812 63.43229Q307.07812 63.885414 307.28125 64.30729Q307.5 64.729164 307.92188 64.96354Q308.34375 65.197914 308.82812 65.197914Q309.57812 65.197914 310.0625 64.71354Q310.5625 64.229164 310.5625 63.479164Q310.5625 62.71354 310.0625 62.21354Q309.5625 61.71354 308.79688 61.71354Q308.04688 61.71354 307.5625 62.21354Q307.07812 62.697914 307.07812 63.43229ZM313.39062 65.916664L313.39062 57.322914L315.10938 57.322914L317.14062 63.40104Q317.42188 64.260414 317.54688 64.68229Q317.6875 64.21354 318.0 63.30729L320.0625 57.322914L321.59375 57.322914L321.59375 65.916664L320.5 65.916664L320.5 58.729164L318.0 65.916664L316.96875 65.916664L314.48438 58.604164L314.48438 65.916664L313.39062 65.916664ZM322.375 65.916664L322.375 57.322914L325.60938 57.322914Q326.59375 57.322914 327.1875 57.58854Q327.78125 57.854164 328.10938 58.40104Q328.45312 58.93229 328.45312 59.52604Q328.45312 60.072914 328.15625 60.55729Q327.85938 61.041664 327.25 61.33854Q328.03125 61.572914 328.4375 62.135414Q328.85938 62.68229 328.85938 63.43229Q328.85938 64.02604 328.60938 64.55729Q328.35938 65.072914 327.98438 65.354164Q327.60938 65.635414 327.03125 65.77604Q326.46875 65.916664 325.65625 65.916664L322.375 65.916664ZM323.51562 60.93229L325.375 60.93229Q326.125 60.93229 326.45312 60.83854Q326.89062 60.71354 327.10938 60.416664Q327.32812 60.104164 327.32812 59.65104Q327.32812 59.229164 327.125 58.90104Q326.92188 58.572914 326.53125 58.46354Q326.15625 58.33854 325.23438 58.33854L323.51562 58.33854L323.51562 60.93229ZM323.51562 64.90104L325.65625 64.90104Q326.20312 64.90104 326.42188 64.854164Q326.82812 64.791664 327.07812 64.635414Q327.34375 64.46354 327.51562 64.15104Q327.6875 63.83854 327.6875 63.43229Q327.6875 62.947914 327.4375 62.58854Q327.20312 62.229164 326.76562 62.08854Q326.32812 61.947914 325.5 61.947914L323.51562 61.947914L323.51562 64.90104ZM334.4375 65.916664L332.53125 59.697914L333.625 59.697914L334.60938 63.291664L334.98438 64.61979Q335.01562 64.52604 335.3125 63.33854L336.29688 59.697914L337.375 59.697914L338.3125 63.30729L338.625 64.49479L338.98438 63.291664L340.04688 59.697914L341.07812 59.697914L339.125 65.916664L338.03125 65.916664L337.04688 62.18229L336.79688 61.135414L335.54688 65.916664L334.4375 65.916664ZM341.5 66.05729L343.98438 57.18229L344.82812 57.18229L342.34375 66.05729L341.5 66.05729ZM345.375 65.916664L345.375 57.322914L346.51562 57.322914L346.51562 61.58854L350.78125 57.322914L352.32812 57.322914L348.71875 60.80729L352.48438 65.916664L350.98438 65.916664L347.92188 61.572914L346.51562 62.93229L346.51562 65.916664L345.375 65.916664ZM355.60938 65.916664L355.60938 58.33854L352.78125 58.33854L352.78125 57.322914L359.59375 57.322914L359.59375 58.33854L356.75 58.33854L356.75 65.916664L355.60938 65.916664ZM360.375 65.916664L360.375 57.322914L361.51562 57.322914L361.51562 64.90104L365.75 64.90104L365.75 65.916664L360.375 65.916664ZM367.04688 63.15104L368.10938 63.05729Q368.1875 63.71354 368.46875 64.11979Q368.75 64.52604 369.32812 64.791664Q369.92188 65.041664 370.65625 65.041664Q371.29688 65.041664 371.79688 64.854164Q372.29688 64.65104 372.53125 64.322914Q372.78125 63.979164 372.78125 63.58854Q372.78125 63.18229 372.54688 62.885414Q372.3125 62.572914 371.78125 62.36979Q371.42188 62.229164 370.23438 61.947914Q369.0625 61.666664 368.59375 61.416664Q367.96875 61.08854 367.67188 60.61979Q367.375 60.135414 367.375 59.541664Q367.375 58.90104 367.73438 58.33854Q368.10938 57.760414 368.8125 57.479164Q369.53125 57.18229 370.39062 57.18229Q371.34375 57.18229 372.07812 57.49479Q372.8125 57.791664 373.20312 58.40104Q373.59375 58.99479 373.625 59.74479L372.53125 59.822914Q372.4375 59.010414 371.92188 58.604164Q371.42188 58.18229 370.4375 58.18229Q369.40625 58.18229 368.9375 58.55729Q368.46875 58.93229 368.46875 59.46354Q368.46875 59.93229 368.79688 60.229164Q369.125 60.52604 370.5 60.83854Q371.89062 61.15104 372.40625 61.385414Q373.15625 61.74479 373.51562 62.27604Q373.875 62.791664 373.875 63.49479Q373.875 64.18229 373.48438 64.791664Q373.09375 65.385414 372.35938 65.729164Q371.625 66.05729 370.70312 66.05729Q369.53125 66.05729 368.73438 65.729164Q367.95312 65.385414 367.5 64.697914Q367.0625 64.010414 367.04688 63.15104Z" fill-rule="nonzero"/><path fill="#757575" d="M199.79688 37.55L199.79688 27.175L201.375 27.175L201.375 28.753124Q201.98438 27.64375 202.5 27.3Q203.01562 26.940624 203.625 26.940624Q204.51562 26.940624 205.4375 27.503124L204.82812 29.14375Q204.1875 28.753124 203.54688 28.753124Q202.96875 28.753124 202.5 29.1125Q202.04688 29.45625 201.84375 30.065624Q201.5625 31.003124 201.5625 32.1125L201.5625 37.55L199.79688 37.55ZM213.92188 34.20625L215.73438 34.440624Q215.3125 36.01875 214.14062 36.909374Q212.98438 37.784374 211.17188 37.784374Q208.90625 37.784374 207.5625 36.39375Q206.23438 34.9875 206.23438 32.45625Q206.23438 29.83125 207.57812 28.39375Q208.92188 26.940624 211.07812 26.940624Q213.15625 26.940624 214.46875 28.3625Q215.79688 29.76875 215.79688 32.346874Q215.79688 32.503124 215.78125 32.815624L208.04688 32.815624Q208.14062 34.51875 209.01562 35.425Q209.89062 36.33125 211.1875 36.33125Q212.15625 36.33125 212.82812 35.83125Q213.51562 35.315624 213.92188 34.20625ZM208.14062 31.3625L213.9375 31.3625Q213.82812 30.065624 213.28125 29.409374Q212.4375 28.39375 211.09375 28.39375Q209.89062 28.39375 209.0625 29.20625Q208.23438 30.003124 208.14062 31.3625ZM224.4375 41.51875L224.4375 36.440624Q224.01562 37.01875 223.28125 37.409374Q222.54688 37.784374 221.71875 37.784374Q219.875 37.784374 218.53125 36.315624Q217.20312 34.83125 217.20312 32.26875Q217.20312 30.70625 217.73438 29.471874Q218.28125 28.221874 219.3125 27.58125Q220.34375 26.940624 221.57812 26.940624Q223.5 26.940624 224.60938 28.565624L224.60938 27.175L226.1875 27.175L226.1875 41.51875L224.4375 41.51875ZM219.01562 32.33125Q219.01562 34.33125 219.84375 35.33125Q220.6875 36.33125 221.85938 36.33125Q222.98438 36.33125 223.79688 35.39375Q224.60938 34.440624 224.60938 32.4875Q224.60938 30.425 223.75 29.378124Q222.89062 28.33125 221.75 28.33125Q220.60938 28.33125 219.8125 29.3Q219.01562 30.26875 219.01562 32.33125ZM235.60938 37.55L235.60938 36.01875Q234.40625 37.784374 232.32812 37.784374Q231.40625 37.784374 230.60938 37.440624Q229.8125 37.08125 229.42188 36.55Q229.04688 36.01875 228.89062 35.2375Q228.78125 34.721874 228.78125 33.596874L228.78125 27.175L230.53125 27.175L230.53125 32.925Q230.53125 34.3 230.64062 34.784374Q230.8125 35.471874 231.34375 35.878124Q231.89062 36.26875 232.67188 36.26875Q233.46875 36.26875 234.15625 35.8625Q234.85938 35.45625 235.14062 34.76875Q235.4375 34.065624 235.4375 32.7375L235.4375 27.175L237.1875 27.175L237.1875 37.55L235.60938 37.55ZM245.92188 34.20625L247.73438 34.440624Q247.3125 36.01875 246.14062 36.909374Q244.98438 37.784374 243.17188 37.784374Q240.90625 37.784374 239.5625 36.39375Q238.23438 34.9875 238.23438 32.45625Q238.23438 29.83125 239.57812 28.39375Q240.92188 26.940624 243.07812 26.940624Q245.15625 26.940624 246.46875 28.3625Q247.79688 29.76875 247.79688 32.346874Q247.79688 32.503124 247.78125 32.815624L240.04688 32.815624Q240.14062 34.51875 241.01562 35.425Q241.89062 36.33125 243.1875 36.33125Q244.15625 36.33125 244.82812 35.83125Q245.51562 35.315624 245.92188 34.20625ZM240.14062 31.3625L245.9375 31.3625Q245.82812 30.065624 245.28125 29.409374Q244.4375 28.39375 243.09375 28.39375Q241.89062 28.39375 241.0625 29.20625Q240.23438 30.003124 240.14062 31.3625ZM249.10938 34.45625L250.85938 34.175Q251.0 35.221874 251.67188 35.784374Q252.34375 36.33125 253.54688 36.33125Q254.75 36.33125 255.32812 35.846874Q255.92188 35.346874 255.92188 34.690624Q255.92188 34.096874 255.40625 33.753124Q255.04688 33.51875 253.60938 33.159374Q251.67188 32.659374 250.92188 32.315624Q250.1875 31.95625 249.79688 31.33125Q249.40625 30.690624 249.40625 29.925Q249.40625 29.2375 249.71875 28.64375Q250.04688 28.05 250.59375 27.659374Q251.0 27.3625 251.70312 27.159374Q252.42188 26.940624 253.23438 26.940624Q254.45312 26.940624 255.375 27.3Q256.29688 27.64375 256.73438 28.253124Q257.17188 28.846874 257.34375 29.846874L255.625 30.08125Q255.5 29.284374 254.9375 28.846874Q254.375 28.39375 253.35938 28.39375Q252.14062 28.39375 251.625 28.8Q251.10938 29.190624 251.10938 29.721874Q251.10938 30.065624 251.32812 30.346874Q251.53125 30.628124 252.0 30.815624Q252.26562 30.909374 253.54688 31.253124Q255.42188 31.753124 256.15625 32.08125Q256.89062 32.39375 257.3125 33.003124Q257.73438 33.596874 257.73438 34.503124Q257.73438 35.378124 257.21875 36.159374Q256.70312 36.940624 255.73438 37.3625Q254.76562 37.784374 253.54688 37.784374Q251.53125 37.784374 250.46875 36.940624Q249.40625 36.096874 249.10938 34.45625ZM263.65625 35.971874L263.90625 37.534374Q263.17188 37.690624 262.57812 37.690624Q261.625 37.690624 261.09375 37.39375Q260.57812 37.08125 260.35938 36.596874Q260.14062 36.096874 260.14062 34.51875L260.14062 28.55L258.85938 28.55L258.85938 27.175L260.14062 27.175L260.14062 24.6125L261.89062 23.55L261.89062 27.175L263.65625 27.175L263.65625 28.55L261.89062 28.55L261.89062 34.6125Q261.89062 35.3625 261.98438 35.58125Q262.07812 35.784374 262.28125 35.925Q262.5 36.05 262.89062 36.05Q263.17188 36.05 263.65625 35.971874ZM265.10938 34.45625L266.85938 34.175Q267.0 35.221874 267.67188 35.784374Q268.34375 36.33125 269.54688 36.33125Q270.75 36.33125 271.32812 35.846874Q271.92188 35.346874 271.92188 34.690624Q271.92188 34.096874 271.40625 33.753124Q271.04688 33.51875 269.60938 33.159374Q267.67188 32.659374 266.92188 32.315624Q266.1875 31.95625 265.79688 31.33125Q265.40625 30.690624 265.40625 29.925Q265.40625 29.2375 265.71875 28.64375Q266.04688 28.05 266.59375 27.659374Q267.0 27.3625 267.70312 27.159374Q268.42188 26.940624 269.23438 26.940624Q270.45312 26.940624 271.375 27.3Q272.29688 27.64375 272.73438 28.253124Q273.17188 28.846874 273.34375 29.846874L271.625 30.08125Q271.5 29.284374 270.9375 28.846874Q270.375 28.39375 269.35938 28.39375Q268.14062 28.39375 267.625 28.8Q267.10938 29.190624 267.10938 29.721874Q267.10938 30.065624 267.32812 30.346874Q267.53125 30.628124 268.0 30.815624Q268.26562 30.909374 269.54688 31.253124Q271.42188 31.753124 272.15625 32.08125Q272.89062 32.39375 273.3125 33.003124Q273.73438 33.596874 273.73438 34.503124Q273.73438 35.378124 273.21875 36.159374Q272.70312 36.940624 271.73438 37.3625Q270.76562 37.784374 269.54688 37.784374Q267.53125 37.784374 266.46875 36.940624Q265.40625 36.096874 265.10938 34.45625ZM274.5 37.8L278.65625 22.9875L280.0625 22.9875L275.92188 37.8L274.5 37.8ZM281.10938 34.45625L282.85938 34.175Q283.0 35.221874 283.67188 35.784374Q284.34375 36.33125 285.54688 36.33125Q286.75 36.33125 287.32812 35.846874Q287.92188 35.346874 287.92188 34.690624Q287.92188 34.096874 287.40625 33.753124Q287.04688 33.51875 285.60938 33.159374Q283.67188 32.659374 282.92188 32.315624Q282.1875 31.95625 281.79688 31.33125Q281.40625 30.690624 281.40625 29.925Q281.40625 29.2375 281.71875 28.64375Q282.04688 28.05 282.59375 27.659374Q283.0 27.3625 283.70312 27.159374Q284.42188 26.940624 285.23438 26.940624Q286.45312 26.940624 287.375 27.3Q288.29688 27.64375 288.73438 28.253124Q289.17188 28.846874 289.34375 29.846874L287.625 30.08125Q287.5 29.284374 286.9375 28.846874Q286.375 28.39375 285.35938 28.39375Q284.14062 28.39375 283.625 28.8Q283.10938 29.190624 283.10938 29.721874Q283.10938 30.065624 283.32812 30.346874Q283.53125 30.628124 284.0 30.815624Q284.26562 30.909374 285.54688 31.253124Q287.42188 31.753124 288.15625 32.08125Q288.89062 32.39375 289.3125 33.003124Q289.73438 33.596874 289.73438 34.503124Q289.73438 35.378124 289.21875 36.159374Q288.70312 36.940624 287.73438 37.3625Q286.76562 37.784374 285.54688 37.784374Q283.53125 37.784374 282.46875 36.940624Q281.40625 36.096874 281.10938 34.45625ZM299.73438 37.55L296.5625 27.175L298.375 27.175L300.03125 33.159374L300.64062 35.39375Q300.6875 35.221874 301.17188 33.253124L302.82812 27.175L304.64062 27.175L306.1875 33.190624L306.70312 35.175L307.29688 33.175L309.07812 27.175L310.78125 27.175L307.54688 37.55L305.71875 37.55L304.0625 31.33125L303.67188 29.565624L301.5625 37.55L299.73438 37.55ZM311.5 37.8L315.65625 22.9875L317.0625 22.9875L312.92188 37.8L311.5 37.8ZM324.8125 37.55L324.8125 23.2375L326.57812 23.2375L326.57812 28.3625Q327.8125 26.940624 329.6875 26.940624Q330.82812 26.940624 331.67188 27.39375Q332.53125 27.846874 332.89062 28.659374Q333.26562 29.45625 333.26562 30.971874L333.26562 37.55L331.51562 37.55L331.51562 30.971874Q331.51562 29.659374 330.9375 29.065624Q330.35938 28.45625 329.32812 28.45625Q328.54688 28.45625 327.84375 28.8625Q327.15625 29.26875 326.85938 29.971874Q326.57812 30.659374 326.57812 31.878124L326.57812 37.55L324.8125 37.55ZM341.60938 37.55L341.60938 36.01875Q340.40625 37.784374 338.32812 37.784374Q337.40625 37.784374 336.60938 37.440624Q335.8125 37.08125 335.42188 36.55Q335.04688 36.01875 334.89062 35.2375Q334.78125 34.721874 334.78125 33.596874L334.78125 27.175L336.53125 27.175L336.53125 32.925Q336.53125 34.3 336.64062 34.784374Q336.8125 35.471874 337.34375 35.878124Q337.89062 36.26875 338.67188 36.26875Q339.46875 36.26875 340.15625 35.8625Q340.85938 35.45625 341.14062 34.76875Q341.4375 34.065624 341.4375 32.7375L341.4375 27.175L343.1875 27.175L343.1875 37.55L341.60938 37.55ZM344.79688 37.55L344.79688 27.175L346.375 27.175L346.375 28.753124Q346.98438 27.64375 347.5 27.3Q348.01562 26.940624 348.625 26.940624Q349.51562 26.940624 350.4375 27.503124L349.82812 29.14375Q349.1875 28.753124 348.54688 28.753124Q347.96875 28.753124 347.5 29.1125Q347.04688 29.45625 346.84375 30.065624Q346.5625 31.003124 346.5625 32.1125L346.5625 37.55L344.79688 37.55ZM351.78125 37.55L351.78125 23.2375L353.53125 23.2375L353.53125 37.55L351.78125 37.55ZM364.03125 29.784374Q362.9375 29.378124 362.40625 28.64375Q361.89062 27.89375 361.89062 26.8625Q361.89062 25.3 363.01562 24.2375Q364.14062 23.175 366.0 23.175Q367.875 23.175 369.01562 24.26875Q370.15625 25.346874 370.15625 26.909374Q370.15625 27.909374 369.625 28.64375Q369.10938 29.378124 368.04688 29.784374Q369.375 30.221874 370.0625 31.175Q370.75 32.128124 370.75 33.45625Q370.75 35.3 369.4375 36.55Q368.14062 37.8 366.03125 37.8Q363.90625 37.8 362.60938 36.55Q361.3125 35.284374 361.3125 33.409374Q361.3125 32.01875 362.01562 31.08125Q362.73438 30.128124 364.03125 29.784374ZM363.6875 26.8Q363.6875 27.815624 364.34375 28.471874Q365.0 29.1125 366.03125 29.1125Q367.04688 29.1125 367.70312 28.471874Q368.35938 27.83125 368.35938 26.909374Q368.35938 25.940624 367.6875 25.284374Q367.01562 24.6125 366.01562 24.6125Q365.01562 24.6125 364.34375 25.26875Q363.6875 25.909374 363.6875 26.8ZM363.125 33.425Q363.125 34.175 363.46875 34.878124Q363.82812 35.58125 364.53125 35.971874Q365.23438 36.346874 366.04688 36.346874Q367.3125 36.346874 368.125 35.534374Q368.95312 34.721874 368.95312 33.471874Q368.95312 32.20625 368.10938 31.378124Q367.26562 30.55 365.98438 30.55Q364.75 30.55 363.9375 31.378124Q363.125 32.190624 363.125 33.425ZM372.98438 37.55L372.98438 23.2375L375.84375 23.2375L379.21875 33.3625Q379.6875 34.784374 379.90625 35.4875Q380.15625 34.70625 380.67188 33.190624L384.09375 23.2375L386.64062 23.2375L386.64062 37.55L384.82812 37.55L384.82812 25.565624L380.65625 37.55L378.95312 37.55L374.8125 25.3625L374.8125 37.55L372.98438 37.55ZM389.96875 37.55L389.96875 23.2375L395.34375 23.2375Q396.98438 23.2375 397.96875 23.675Q398.95312 24.096874 399.51562 25.003124Q400.07812 25.909374 400.07812 26.89375Q400.07812 27.815624 399.57812 28.628124Q399.09375 29.440624 398.07812 29.925Q399.375 30.315624 400.07812 31.2375Q400.78125 32.14375 400.78125 33.39375Q400.78125 34.409374 400.34375 35.26875Q399.92188 36.128124 399.29688 36.596874Q398.67188 37.065624 397.73438 37.315624Q396.79688 37.55 395.42188 37.55L389.96875 37.55ZM391.85938 29.253124L394.95312 29.253124Q396.21875 29.253124 396.76562 29.08125Q397.48438 28.8625 397.84375 28.378124Q398.21875 27.878124 398.21875 27.1125Q398.21875 26.409374 397.875 25.8625Q397.53125 25.315624 396.89062 25.128124Q396.26562 24.925 394.71875 24.925L391.85938 24.925L391.85938 29.253124ZM391.85938 35.8625L395.42188 35.8625Q396.34375 35.8625 396.71875 35.784374Q397.375 35.675 397.8125 35.409374Q398.25 35.128124 398.53125 34.6125Q398.8125 34.08125 398.8125 33.39375Q398.8125 32.596874 398.40625 32.003124Q398.0 31.409374 397.26562 31.175Q396.53125 30.940624 395.17188 30.940624L391.85938 30.940624L391.85938 35.8625Z" fill-rule="nonzero"/></svg>