<svg version="1.1" viewBox="0.0 0.0 600.0 371.0" fill="none" stroke="none" stroke-linecap="square" stroke-miterlimit="10" width="600" height="371" xmlns:xlink="http://www.w3.org/1999/xlink" xmlns="http://www.w3.org/2000/svg"><path fill="#ffffff" d="M0 0L600.0 0L600.0 371.0L0 371.0L0 0Z" fill-rule="nonzero"/><path stroke="#cccccc" stroke-width="1.0" stroke-linecap="butt" d="M45.5 88.5L45.5 332.5" fill-rule="nonzero"/><path stroke="#cccccc" stroke-width="1.0" stroke-linecap="butt" d="M207.5 88.5L207.5 332.5" fill-rule="nonzero"/><path stroke="#cccccc" stroke-width="1.0" stroke-linecap="butt" d="M370.5 88.5L370.5 332.5" fill-rule="nonzero"/><path stroke="#cccccc" stroke-width="1.0" stroke-linecap="butt" d="M532.5 88.5L532.5 332.5" fill-rule="nonzero"/><path stroke="#333333" stroke-width="1.0" stroke-linecap="butt" d="M45.5 332.5L581.5 332.5" fill-rule="nonzero"/><path stroke="#cccccc" stroke-width="1.0" stroke-linecap="butt" d="M45.5 251.5L581.5 251.5" fill-rule="nonzero"/><path stroke="#cccccc" stroke-width="1.0" stroke-linecap="butt" d="M45.5 169.5L581.5 169.5" fill-rule="nonzero"/><path stroke="#cccccc" stroke-width="1.0" stroke-linecap="butt" d="M45.5 88.5L581.5 88.5" fill-rule="nonzero"/><clipPath id="id_0"><path d="M45.55 88.28333L581.45 88.28333L581.45 332.45L45.55 332.45L45.55 88.28333Z" clip-rule="nonzero"/></clipPath><path stroke="#4285f4" stroke-width="2.0" stroke-linecap="butt" clip-path="url(#id_0)" d="M45.55 183.58972L207.89326 181.14806L256.76346 182.77583L321.36633 184.40361L370.23654 182.77583L483.70963 179.52028L581.45 185.2175" fill-rule="nonzero"/><path stroke="#ea4335" stroke-width="2.0" stroke-linecap="butt" clip-path="url(#id_0)" d="M45.55 111.15361L207.89326 98.131386L256.76346 94.87583L321.36633 98.131386L370.23654 98.131386L483.70963 98.131386L581.45 98.131386" fill-rule="nonzero"/><path fill="#000000" fill-opacity="0.0" clip-path="url(#id_0)" d="M48.55 183.58972C48.55 185.24658 47.206856 186.58972 45.55 186.58972C43.893147 186.58972 42.55 185.24658 42.55 183.58972C42.55 181.93286 43.893147 180.58972 45.55 180.58972C47.206856 180.58972 48.55 181.93286 48.55 183.58972Z" fill-rule="nonzero"/><path fill="#000000" fill-opacity="0.0" clip-path="url(#id_0)" d="M210.89326 181.14806C210.89326 182.80492 209.55013 184.14806 207.89326 184.14806C206.23642 184.14806 204.89326 182.80492 204.89326 181.14806C204.89326 179.4912 206.23642 178.14806 207.89326 178.14806C209.55013 178.14806 210.89326 179.4912 210.89326 181.14806Z" fill-rule="nonzero"/><path fill="#000000" fill-opacity="0.0" clip-path="url(#id_0)" d="M259.76346 182.77583C259.76346 184.4327 258.42032 185.77583 256.76346 185.77583C255.10661 185.77583 253.76346 184.4327 253.76346 182.77583C253.76346 181.11897 255.10661 179.77583 256.76346 179.77583C258.42032 179.77583 259.76346 181.11897 259.76346 182.77583Z" fill-rule="nonzero"/><path fill="#000000" fill-opacity="0.0" clip-path="url(#id_0)" d="M324.36633 184.40361C324.36633 186.06047 323.0232 187.40361 321.36633 187.40361C319.7095 187.40361 318.36633 186.06047 318.36633 184.40361C318.36633 182.74675 319.7095 181.40361 321.36633 181.40361C323.0232 181.40361 324.36633 182.74675 324.36633 184.40361Z" fill-rule="nonzero"/><path fill="#000000" fill-opacity="0.0" clip-path="url(#id_0)" d="M373.23654 182.77583C373.23654 184.4327 371.8934 185.77583 370.23654 185.77583C368.57968 185.77583 367.23654 184.4327 367.23654 182.77583C367.23654 181.11897 368.57968 179.77583 370.23654 179.77583C371.8934 179.77583 373.23654 181.11897 373.23654 182.77583Z" fill-rule="nonzero"/><path fill="#000000" fill-opacity="0.0" clip-path="url(#id_0)" d="M486.70963 179.52028C486.70963 181.17714 485.36646 182.52028 483.70963 182.52028C482.05276 182.52028 480.70963 181.17714 480.70963 179.52028C480.70963 177.86342 482.05276 176.52028 483.70963 176.52028C485.36646 176.52028 486.70963 177.86342 486.70963 179.52028Z" fill-rule="nonzero"/><path fill="#000000" fill-opacity="0.0" clip-path="url(#id_0)" d="M584.45 185.2175C584.45 186.87436 583.1069 188.2175 581.45 188.2175C579.79315 188.2175 578.45 186.87436 578.45 185.2175C578.45 183.56064 579.79315 182.2175 581.45 182.2175C583.1069 182.2175 584.45 183.56064 584.45 185.2175Z" fill-rule="nonzero"/><path fill="#000000" fill-opacity="0.0" clip-path="url(#id_0)" d="M48.55 111.15361C48.55 112.81046 47.206856 114.15361 45.55 114.15361C43.893147 114.15361 42.55 112.81046 42.55 111.15361C42.55 109.49676 43.893147 108.15361 45.55 108.15361C47.206856 108.15361 48.55 109.49676 48.55 111.15361Z" fill-rule="nonzero"/><path fill="#000000" fill-opacity="0.0" clip-path="url(#id_0)" d="M210.89326 98.131386C210.89326 99.788246 209.55013 101.131386 207.89326 101.131386C206.23642 101.131386 204.89326 99.788246 204.89326 98.131386C204.89326 96.47453 206.23642 95.131386 207.89326 95.131386C209.55013 95.131386 210.89326 96.47453 210.89326 98.131386Z" fill-rule="nonzero"/><path fill="#000000" fill-opacity="0.0" clip-path="url(#id_0)" d="M259.76346 94.87583C259.76346 96.532684 258.42032 97.87583 256.76346 97.87583C255.10661 97.87583 253.76346 96.532684 253.76346 94.87583C253.76346 93.21898 255.10661 91.87583 256.76346 91.87583C258.42032 91.87583 259.76346 93.21898 259.76346 94.87583Z" fill-rule="nonzero"/><path fill="#000000" fill-opacity="0.0" clip-path="url(#id_0)" d="M324.36633 98.131386C324.36633 99.788246 323.0232 101.131386 321.36633 101.131386C319.7095 101.131386 318.36633 99.788246 318.36633 98.131386C318.36633 96.47453 319.7095 95.131386 321.36633 95.131386C323.0232 95.131386 324.36633 96.47453 324.36633 98.131386Z" fill-rule="nonzero"/><path fill="#000000" fill-opacity="0.0" clip-path="url(#id_0)" d="M373.23654 98.131386C373.23654 99.788246 371.8934 101.131386 370.23654 101.131386C368.57968 101.131386 367.23654 99.788246 367.23654 98.131386C367.23654 96.47453 368.57968 95.131386 370.23654 95.131386C371.8934 95.131386 373.23654 96.47453 373.23654 98.131386Z" fill-rule="nonzero"/><path fill="#000000" fill-opacity="0.0" clip-path="url(#id_0)" d="M486.70963 98.131386C486.70963 99.788246 485.36646 101.131386 483.70963 101.131386C482.05276 101.131386 480.70963 99.788246 480.70963 98.131386C480.70963 96.47453 482.05276 95.131386 483.70963 95.131386C485.36646 95.131386 486.70963 96.47453 486.70963 98.131386Z" fill-rule="nonzero"/><path fill="#000000" fill-opacity="0.0" clip-path="url(#id_0)" d="M584.45 98.131386C584.45 99.788246 583.1069 101.131386 581.45 101.131386C579.79315 101.131386 578.45 99.788246 578.45 98.131386C578.45 96.47453 579.79315 95.131386 581.45 95.131386C583.1069 95.131386 584.45 96.47453 584.45 98.131386Z" fill-rule="nonzero"/><path fill="#000000" d="M33.05 332.21564Q33.05 330.6844 33.3625 329.7625Q33.675 328.825 34.284374 328.325Q34.909374 327.825 35.846874 327.825Q36.534374 327.825 37.05 328.10626Q37.58125 328.3875 37.925 328.91876Q38.26875 329.4344 38.45625 330.1844Q38.64375 330.9344 38.64375 332.21564Q38.64375 333.73126 38.33125 334.65314Q38.034374 335.575 37.409374 336.09064Q36.8 336.59064 35.846874 336.59064Q34.6125 336.59064 33.89375 335.7Q33.05 334.6375 33.05 332.21564ZM34.128124 332.21564Q34.128124 334.325 34.628124 335.02814Q35.128124 335.73126 35.846874 335.73126Q36.58125 335.73126 37.065624 335.02814Q37.565624 334.325 37.565624 332.21564Q37.565624 330.09064 37.065624 329.40314Q36.58125 328.7 35.83125 328.7Q35.1125 328.7 34.675 329.3094Q34.128124 330.09064 34.128124 332.21564Z" fill-rule="nonzero"/><path fill="#000000" d="M30.01875 255.06111L28.971874 255.06111L28.971874 248.34236Q28.58125 248.70174 27.95625 249.07674Q27.346874 249.43611 26.8625 249.60799L26.8625 248.59236Q27.7375 248.17049 28.39375 247.59236Q29.065624 246.99861 29.346874 246.43611L30.01875 246.43611L30.01875 255.06111ZM33.05 250.82674Q33.05 249.29549 33.3625 248.37361Q33.675 247.43611 34.284374 246.93611Q34.909374 246.43611 35.846874 246.43611Q36.534374 246.43611 37.05 246.71736Q37.58125 246.99861 37.925 247.52986Q38.26875 248.04549 38.45625 248.79549Q38.64375 249.54549 38.64375 250.82674Q38.64375 252.34236 38.33125 253.26424Q38.034374 254.18611 37.409374 254.70174Q36.8 255.20174 35.846874 255.20174Q34.6125 255.20174 33.89375 254.31111Q33.05 253.24861 33.05 250.82674ZM34.128124 250.82674Q34.128124 252.93611 34.628124 253.63924Q35.128124 254.34236 35.846874 254.34236Q36.58125 254.34236 37.065624 253.63924Q37.565624 252.93611 37.565624 250.82674Q37.565624 248.70174 37.065624 248.01424Q36.58125 247.31111 35.83125 247.31111Q35.1125 247.31111 34.675 247.92049Q34.128124 248.70174 34.128124 250.82674Z" fill-rule="nonzero"/><path fill="#000000" d="M31.596874 172.6566L31.596874 173.67223L25.909374 173.67223Q25.909374 173.29723 26.034374 172.93785Q26.253124 172.35973 26.721874 171.79723Q27.20625 171.23473 28.1125 170.50035Q29.51875 169.3441 30.003124 168.67223Q30.503124 168.00035 30.503124 167.4066Q30.503124 166.7816 30.05 166.35973Q29.596874 165.92223 28.878124 165.92223Q28.1125 165.92223 27.659374 166.37535Q27.20625 166.82848 27.190624 167.64098L26.1125 167.5316Q26.221874 166.31285 26.940624 165.68785Q27.675 165.04723 28.909374 165.04723Q30.14375 165.04723 30.8625 165.73473Q31.58125 166.42223 31.58125 167.43785Q31.58125 167.95348 31.3625 168.45348Q31.159374 168.93785 30.659374 169.50035Q30.175 170.04723 29.05 171.00035Q28.096874 171.79723 27.815624 172.0941Q27.55 172.37535 27.378124 172.6566L31.596874 172.6566ZM33.05 169.43785Q33.05 167.9066 33.3625 166.98473Q33.675 166.04723 34.284374 165.54723Q34.909374 165.04723 35.846874 165.04723Q36.534374 165.04723 37.05 165.32848Q37.58125 165.60973 37.925 166.14098Q38.26875 166.6566 38.45625 167.4066Q38.64375 168.1566 38.64375 169.43785Q38.64375 170.95348 38.33125 171.87535Q38.034374 172.79723 37.409374 173.31285Q36.8 173.81285 35.846874 173.81285Q34.6125 173.81285 33.89375 172.92223Q33.05 171.85973 33.05 169.43785ZM34.128124 169.43785Q34.128124 171.54723 34.628124 172.25035Q35.128124 172.95348 35.846874 172.95348Q36.58125 172.95348 37.065624 172.25035Q37.565624 171.54723 37.565624 169.43785Q37.565624 167.31285 37.065624 166.62535Q36.58125 165.92223 35.83125 165.92223Q35.1125 165.92223 34.675 166.5316Q34.128124 167.31285 34.128124 169.43785Z" fill-rule="nonzero"/><path fill="#000000" d="M26.05 90.01771L27.1125 89.87708Q27.284374 90.76771 27.721874 91.17396Q28.159374 91.56458 28.784374 91.56458Q29.534374 91.56458 30.05 91.04896Q30.565624 90.53333 30.565624 89.76771Q30.565624 89.04896 30.08125 88.58021Q29.6125 88.09583 28.878124 88.09583Q28.58125 88.09583 28.128124 88.22083L28.253124 87.28333Q28.3625 87.29896 28.425 87.29896Q29.096874 87.29896 29.628124 86.95521Q30.175 86.59583 30.175 85.86146Q30.175 85.28333 29.784374 84.90833Q29.39375 84.51771 28.76875 84.51771Q28.159374 84.51771 27.7375 84.90833Q27.33125 85.29896 27.221874 86.06458L26.159374 85.87708Q26.346874 84.83021 27.034374 84.25208Q27.721874 83.65833 28.7375 83.65833Q29.440624 83.65833 30.034374 83.97083Q30.628124 84.26771 30.940624 84.78333Q31.253124 85.29896 31.253124 85.89271Q31.253124 86.43958 30.95625 86.90833Q30.659374 87.36146 30.08125 87.62708Q30.83125 87.79896 31.253124 88.36146Q31.675 88.90833 31.675 89.75208Q31.675 90.87708 30.846874 91.65833Q30.034374 92.43958 28.784374 92.43958Q27.659374 92.43958 26.909374 91.76771Q26.159374 91.08021 26.05 90.01771ZM33.05 88.04896Q33.05 86.51771 33.3625 85.59583Q33.675 84.65833 34.284374 84.15833Q34.909374 83.65833 35.846874 83.65833Q36.534374 83.65833 37.05 83.93958Q37.58125 84.22083 37.925 84.75208Q38.26875 85.26771 38.45625 86.01771Q38.64375 86.76771 38.64375 88.04896Q38.64375 89.56458 38.33125 90.48646Q38.034374 91.40833 37.409374 91.92396Q36.8 92.42396 35.846874 92.42396Q34.6125 92.42396 33.89375 91.53333Q33.05 90.47083 33.05 88.04896ZM34.128124 88.04896Q34.128124 90.15833 34.628124 90.86146Q35.128124 91.56458 35.846874 91.56458Q36.58125 91.56458 37.065624 90.86146Q37.565624 90.15833 37.565624 88.04896Q37.565624 85.92396 37.065624 85.23646Q36.58125 84.53333 35.83125 84.53333Q35.1125 84.53333 34.675 85.14271Q34.128124 85.92396 34.128124 88.04896Z" fill-rule="nonzero"/><path fill="#000000" d="M46.51875 349.45L45.471874 349.45L45.471874 342.73126Q45.08125 343.09064 44.45625 343.46564Q43.846874 343.825 43.3625 343.9969L43.3625 342.98126Q44.2375 342.5594 44.89375 341.98126Q45.565624 341.3875 45.846874 340.825L46.51875 340.825L46.51875 349.45Z" fill-rule="nonzero"/><path fill="#000000" d="M205.36201 349.45L204.31514 349.45L204.31514 342.73126Q203.92451 343.09064 203.29951 343.46564Q202.69014 343.825 202.20576 343.9969L202.20576 342.98126Q203.08076 342.5594 203.73701 341.98126Q204.40889 341.3875 204.69014 340.825L205.36201 340.825L205.36201 349.45ZM208.39326 345.21564Q208.39326 343.6844 208.70576 342.7625Q209.01826 341.825 209.62764 341.325Q210.25264 340.825 211.19014 340.825Q211.87764 340.825 212.39326 341.10626Q212.92451 341.3875 213.26826 341.91876Q213.61201 342.4344 213.79951 343.1844Q213.98701 343.9344 213.98701 345.21564Q213.98701 346.73126 213.67451 347.65314Q213.37764 348.575 212.75264 349.09064Q212.14326 349.59064 211.19014 349.59064Q209.95576 349.59064 209.23701 348.7Q208.39326 347.6375 208.39326 345.21564ZM209.47139 345.21564Q209.47139 347.325 209.97139 348.02814Q210.47139 348.73126 211.19014 348.73126Q211.92451 348.73126 212.40889 348.02814Q212.90889 347.325 212.90889 345.21564Q212.90889 343.09064 212.40889 342.40314Q211.92451 341.7 211.17451 341.7Q210.45576 341.7 210.01826 342.3094Q209.47139 343.09064 209.47139 345.21564Z" fill-rule="nonzero"/><path fill="#000000" d="M364.2053 349.45L363.15842 349.45L363.15842 342.73126Q362.7678 343.09064 362.1428 343.46564Q361.53342 343.825 361.04904 343.9969L361.04904 342.98126Q361.92404 342.5594 362.5803 341.98126Q363.25217 341.3875 363.53342 340.825L364.2053 340.825L364.2053 349.45ZM367.23654 345.21564Q367.23654 343.6844 367.54904 342.7625Q367.86154 341.825 368.47092 341.325Q369.09592 340.825 370.03342 340.825Q370.72092 340.825 371.23654 341.10626Q371.7678 341.3875 372.11154 341.91876Q372.4553 342.4344 372.6428 343.1844Q372.8303 343.9344 372.8303 345.21564Q372.8303 346.73126 372.5178 347.65314Q372.22092 348.575 371.59592 349.09064Q370.98654 349.59064 370.03342 349.59064Q368.79904 349.59064 368.0803 348.7Q367.23654 347.6375 367.23654 345.21564ZM368.31467 345.21564Q368.31467 347.325 368.81467 348.02814Q369.31467 348.73126 370.03342 348.73126Q370.7678 348.73126 371.25217 348.02814Q371.75217 347.325 371.75217 345.21564Q371.75217 343.09064 371.25217 342.40314Q370.7678 341.7 370.0178 341.7Q369.29904 341.7 368.86154 342.3094Q368.31467 343.09064 368.31467 345.21564ZM374.23654 345.21564Q374.23654 343.6844 374.54904 342.7625Q374.86154 341.825 375.47092 341.325Q376.09592 340.825 377.03342 340.825Q377.72092 340.825 378.23654 341.10626Q378.7678 341.3875 379.11154 341.91876Q379.4553 342.4344 379.6428 343.1844Q379.8303 343.9344 379.8303 345.21564Q379.8303 346.73126 379.5178 347.65314Q379.22092 348.575 378.59592 349.09064Q377.98654 349.59064 377.03342 349.59064Q375.79904 349.59064 375.0803 348.7Q374.23654 347.6375 374.23654 345.21564ZM375.31467 345.21564Q375.31467 347.325 375.81467 348.02814Q376.31467 348.73126 377.03342 348.73126Q377.7678 348.73126 378.25217 348.02814Q378.75217 347.325 378.75217 345.21564Q378.75217 343.09064 378.25217 342.40314Q377.7678 341.7 377.0178 341.7Q376.29904 341.7 375.86154 342.3094Q375.31467 343.09064 375.31467 345.21564Z" fill-rule="nonzero"/><path fill="#000000" d="M523.0486 349.45L522.0017 349.45L522.0017 342.73126Q521.6111 343.09064 520.9861 343.46564Q520.3767 343.825 519.89233 343.9969L519.89233 342.98126Q520.76733 342.5594 521.4236 341.98126Q522.09546 341.3875 522.3767 340.825L523.0486 340.825L523.0486 349.45ZM526.07983 345.21564Q526.07983 343.6844 526.39233 342.7625Q526.70483 341.825 527.3142 341.325Q527.9392 340.825 528.8767 340.825Q529.5642 340.825 530.07983 341.10626Q530.6111 341.3875 530.95483 341.91876Q531.2986 342.4344 531.4861 343.1844Q531.6736 343.9344 531.6736 345.21564Q531.6736 346.73126 531.3611 347.65314Q531.0642 348.575 530.4392 349.09064Q529.82983 349.59064 528.8767 349.59064Q527.64233 349.59064 526.9236 348.7Q526.07983 347.6375 526.07983 345.21564ZM527.15796 345.21564Q527.15796 347.325 527.65796 348.02814Q528.15796 348.73126 528.8767 348.73126Q529.6111 348.73126 530.09546 348.02814Q530.59546 347.325 530.59546 345.21564Q530.59546 343.09064 530.09546 342.40314Q529.6111 341.7 528.8611 341.7Q528.14233 341.7 527.70483 342.3094Q527.15796 343.09064 527.15796 345.21564ZM533.07983 345.21564Q533.07983 343.6844 533.39233 342.7625Q533.70483 341.825 534.3142 341.325Q534.9392 340.825 535.8767 340.825Q536.5642 340.825 537.07983 341.10626Q537.6111 341.3875 537.95483 341.91876Q538.2986 342.4344 538.4861 343.1844Q538.6736 343.9344 538.6736 345.21564Q538.6736 346.73126 538.3611 347.65314Q538.0642 348.575 537.4392 349.09064Q536.82983 349.59064 535.8767 349.59064Q534.64233 349.59064 533.9236 348.7Q533.07983 347.6375 533.07983 345.21564ZM534.15796 345.21564Q534.15796 347.325 534.65796 348.02814Q535.15796 348.73126 535.8767 348.73126Q536.6111 348.73126 537.09546 348.02814Q537.59546 347.325 537.59546 345.21564Q537.59546 343.09064 537.09546 342.40314Q536.6111 341.7 535.8611 341.7Q535.14233 341.7 534.70483 342.3094Q534.15796 343.09064 534.15796 345.21564ZM540.07983 345.21564Q540.07983 343.6844 540.39233 342.7625Q540.70483 341.825 541.3142 341.325Q541.9392 340.825 542.8767 340.825Q543.5642 340.825 544.07983 341.10626Q544.6111 341.3875 544.95483 341.91876Q545.2986 342.4344 545.4861 343.1844Q545.6736 343.9344 545.6736 345.21564Q545.6736 346.73126 545.3611 347.65314Q545.0642 348.575 544.4392 349.09064Q543.82983 349.59064 542.8767 349.59064Q541.64233 349.59064 540.9236 348.7Q540.07983 347.6375 540.07983 345.21564ZM541.15796 345.21564Q541.15796 347.325 541.65796 348.02814Q542.15796 348.73126 542.8767 348.73126Q543.6111 348.73126 544.09546 348.02814Q544.59546 347.325 544.59546 345.21564Q544.59546 343.09064 544.09546 342.40314Q543.6111 341.7 542.8611 341.7Q542.14233 341.7 541.70483 342.3094Q541.15796 343.09064 541.15796 345.21564Z" fill-rule="nonzero"/><path stroke="#4285f4" stroke-width="4.0" stroke-linecap="butt" d="M218.5 61.916668L230.5 61.916668" fill-rule="nonzero"/><path fill="#1a1a1a" d="M244.46875 59.43229L243.42188 59.510414Q243.28125 58.885414 243.03125 58.604164Q242.59375 58.15104 241.96875 58.15104Q241.46875 58.15104 241.07812 58.43229Q240.59375 58.80729 240.29688 59.510414Q240.01562 60.197914 240.0 61.479164Q240.375 60.90104 240.92188 60.61979Q241.48438 60.33854 242.09375 60.33854Q243.14062 60.33854 243.875 61.11979Q244.625 61.90104 244.625 63.11979Q244.625 63.93229 244.26562 64.635414Q243.92188 65.322914 243.3125 65.697914Q242.70312 66.05729 241.9375 66.05729Q240.60938 66.05729 239.78125 65.08854Q238.95312 64.11979 238.95312 61.90104Q238.95312 59.40104 239.875 58.27604Q240.67188 57.291664 242.03125 57.291664Q243.04688 57.291664 243.6875 57.86979Q244.34375 58.43229 244.46875 59.43229ZM240.17188 63.135414Q240.17188 63.68229 240.39062 64.18229Q240.625 64.666664 241.03125 64.93229Q241.45312 65.197914 241.92188 65.197914Q242.57812 65.197914 243.0625 64.666664Q243.54688 64.11979 243.54688 63.197914Q243.54688 62.30729 243.0625 61.791664Q242.59375 61.27604 241.875 61.27604Q241.15625 61.27604 240.65625 61.791664Q240.17188 62.30729 240.17188 63.135414ZM249.375 65.916664L249.375 63.854164L245.65625 63.854164L245.65625 62.885414L249.57812 57.322914L250.4375 57.322914L250.4375 62.885414L251.59375 62.885414L251.59375 63.854164L250.4375 63.854164L250.4375 65.916664L249.375 65.916664ZM249.375 62.885414L249.375 59.02604L246.6875 62.885414L249.375 62.885414ZM253.39062 65.916664L253.39062 57.322914L255.10938 57.322914L257.14062 63.40104Q257.42188 64.260414 257.54688 64.68229Q257.6875 64.21354 258.0 63.30729L260.0625 57.322914L261.59375 57.322914L261.59375 65.916664L260.5 65.916664L260.5 58.729164L258.0 65.916664L256.96875 65.916664L254.48438 58.604164L254.48438 65.916664L253.39062 65.916664ZM262.375 65.916664L262.375 57.322914L265.60938 57.322914Q266.59375 57.322914 267.1875 57.58854Q267.78125 57.854164 268.10938 58.40104Q268.45312 58.93229 268.45312 59.52604Q268.45312 60.072914 268.15625 60.55729Q267.85938 61.041664 267.25 61.33854Q268.03125 61.572914 268.4375 62.135414Q268.85938 62.68229 268.85938 63.43229Q268.85938 64.02604 268.60938 64.55729Q268.35938 65.072914 267.98438 65.354164Q267.60938 65.635414 267.03125 65.77604Q266.46875 65.916664 265.65625 65.916664L262.375 65.916664ZM263.51562 60.93229L265.375 60.93229Q266.125 60.93229 266.45312 60.83854Q266.89062 60.71354 267.10938 60.416664Q267.32812 60.104164 267.32812 59.65104Q267.32812 59.229164 267.125 58.90104Q266.92188 58.572914 266.53125 58.46354Q266.15625 58.33854 265.23438 58.33854L263.51562 58.33854L263.51562 60.93229ZM263.51562 64.90104L265.65625 64.90104Q266.20312 64.90104 266.42188 64.854164Q266.82812 64.791664 267.07812 64.635414Q267.34375 64.46354 267.51562 64.15104Q267.6875 63.83854 267.6875 63.43229Q267.6875 62.947914 267.4375 62.58854Q267.20312 62.229164 266.76562 62.08854Q266.32812 61.947914 265.5 61.947914L263.51562 61.947914L263.51562 64.90104Z" fill-rule="nonzero"/><path stroke="#ea4335" stroke-width="4.0" stroke-linecap="butt" d="M285.5 61.916668L297.5 61.916668" fill-rule="nonzero"/><path fill="#1a1a1a" d="M311.46875 59.43229L310.42188 59.510414Q310.28125 58.885414 310.03125 58.604164Q309.59375 58.15104 308.96875 58.15104Q308.46875 58.15104 308.07812 58.43229Q307.59375 58.80729 307.29688 59.510414Q307.01562 60.197914 307.0 61.479164Q307.375 60.90104 307.92188 60.61979Q308.48438 60.33854 309.09375 60.33854Q310.14062 60.33854 310.875 61.11979Q311.625 61.90104 311.625 63.11979Q311.625 63.93229 311.26562 64.635414Q310.92188 65.322914 310.3125 65.697914Q309.70312 66.05729 308.9375 66.05729Q307.60938 66.05729 306.78125 65.08854Q305.95312 64.11979 305.95312 61.90104Q305.95312 59.40104 306.875 58.27604Q307.67188 57.291664 309.03125 57.291664Q310.04688 57.291664 310.6875 57.86979Q311.34375 58.43229 311.46875 59.43229ZM307.17188 63.135414Q307.17188 63.68229 307.39062 64.18229Q307.625 64.666664 308.03125 64.93229Q308.45312 65.197914 308.92188 65.197914Q309.57812 65.197914 310.0625 64.666664Q310.54688 64.11979 310.54688 63.197914Q310.54688 62.30729 310.0625 61.791664Q309.59375 61.27604 308.875 61.27604Q308.15625 61.27604 307.65625 61.791664Q307.17188 62.30729 307.17188 63.135414ZM316.375 65.916664L316.375 63.854164L312.65625 63.854164L312.65625 62.885414L316.57812 57.322914L317.4375 57.322914L317.4375 62.885414L318.59375 62.885414L318.59375 63.854164L317.4375 63.854164L317.4375 65.916664L316.375 65.916664ZM316.375 62.885414L316.375 59.02604L313.6875 62.885414L316.375 62.885414ZM320.39062 65.916664L320.39062 57.322914L322.10938 57.322914L324.14062 63.40104Q324.42188 64.260414 324.54688 64.68229Q324.6875 64.21354 325.0 63.30729L327.0625 57.322914L328.59375 57.322914L328.59375 65.916664L327.5 65.916664L327.5 58.729164L325.0 65.916664L323.96875 65.916664L321.48438 58.604164L321.48438 65.916664L320.39062 65.916664ZM329.375 65.916664L329.375 57.322914L332.60938 57.322914Q333.59375 57.322914 334.1875 57.58854Q334.78125 57.854164 335.10938 58.40104Q335.45312 58.93229 335.45312 59.52604Q335.45312 60.072914 335.15625 60.55729Q334.85938 61.041664 334.25 61.33854Q335.03125 61.572914 335.4375 62.135414Q335.85938 62.68229 335.85938 63.43229Q335.85938 64.02604 335.60938 64.55729Q335.35938 65.072914 334.98438 65.354164Q334.60938 65.635414 334.03125 65.77604Q333.46875 65.916664 332.65625 65.916664L329.375 65.916664ZM330.51562 60.93229L332.375 60.93229Q333.125 60.93229 333.45312 60.83854Q333.89062 60.71354 334.10938 60.416664Q334.32812 60.104164 334.32812 59.65104Q334.32812 59.229164 334.125 58.90104Q333.92188 58.572914 333.53125 58.46354Q333.15625 58.33854 332.23438 58.33854L330.51562 58.33854L330.51562 60.93229ZM330.51562 64.90104L332.65625 64.90104Q333.20312 64.90104 333.42188 64.854164Q333.82812 64.791664 334.07812 64.635414Q334.34375 64.46354 334.51562 64.15104Q334.6875 63.83854 334.6875 63.43229Q334.6875 62.947914 334.4375 62.58854Q334.20312 62.229164 333.76562 62.08854Q333.32812 61.947914 332.5 61.947914L330.51562 61.947914L330.51562 64.90104ZM341.4375 65.916664L339.53125 59.697914L340.625 59.697914L341.60938 63.291664L341.98438 64.61979Q342.01562 64.52604 342.3125 63.33854L343.29688 59.697914L344.375 59.697914L345.3125 63.30729L345.625 64.49479L345.98438 63.291664L347.04688 59.697914L348.07812 59.697914L346.125 65.916664L345.03125 65.916664L344.04688 62.18229L343.79688 61.135414L342.54688 65.916664L341.4375 65.916664ZM348.5 66.05729L350.98438 57.18229L351.82812 57.18229L349.34375 66.05729L348.5 66.05729ZM352.375 65.916664L352.375 57.322914L353.51562 57.322914L353.51562 61.58854L357.78125 57.322914L359.32812 57.322914L355.71875 60.80729L359.48438 65.916664L357.98438 65.916664L354.92188 61.572914L353.51562 62.93229L353.51562 65.916664L352.375 65.916664ZM362.60938 65.916664L362.60938 58.33854L359.78125 58.33854L359.78125 57.322914L366.59375 57.322914L366.59375 58.33854L363.75 58.33854L363.75 65.916664L362.60938 65.916664ZM367.375 65.916664L367.375 57.322914L368.51562 57.322914L368.51562 64.90104L372.75 64.90104L372.75 65.916664L367.375 65.916664ZM374.04688 63.15104L375.10938 63.05729Q375.1875 63.71354 375.46875 64.11979Q375.75 64.52604 376.32812 64.791664Q376.92188 65.041664 377.65625 65.041664Q378.29688 65.041664 378.79688 64.854164Q379.29688 64.65104 379.53125 64.322914Q379.78125 63.979164 379.78125 63.58854Q379.78125 63.18229 379.54688 62.885414Q379.3125 62.572914 378.78125 62.36979Q378.42188 62.229164 377.23438 61.947914Q376.0625 61.666664 375.59375 61.416664Q374.96875 61.08854 374.67188 60.61979Q374.375 60.135414 374.375 59.541664Q374.375 58.90104 374.73438 58.33854Q375.10938 57.760414 375.8125 57.479164Q376.53125 57.18229 377.39062 57.18229Q378.34375 57.18229 379.07812 57.49479Q379.8125 57.791664 380.20312 58.40104Q380.59375 58.99479 380.625 59.74479L379.53125 59.822914Q379.4375 59.010414 378.92188 58.604164Q378.42188 58.18229 377.4375 58.18229Q376.40625 58.18229 375.9375 58.55729Q375.46875 58.93229 375.46875 59.46354Q375.46875 59.93229 375.79688 60.229164Q376.125 60.52604 377.5 60.83854Q378.89062 61.15104 379.40625 61.385414Q380.15625 61.74479 380.51562 62.27604Q380.875 62.791664 380.875 63.49479Q380.875 64.18229 380.48438 64.791664Q380.09375 65.385414 379.35938 65.729164Q378.625 66.05729 377.70312 66.05729Q376.53125 66.05729 375.73438 65.729164Q374.95312 65.385414 374.5 64.697914Q374.0625 64.010414 374.04688 63.15104Z" fill-rule="nonzero"/><path fill="#757575" d="M194.29688 37.55L194.29688 27.175L195.875 27.175L195.875 28.753124Q196.48438 27.64375 197.0 27.3Q197.51562 26.940624 198.125 26.940624Q199.01562 26.940624 199.9375 27.503124L199.32812 29.14375Q198.6875 28.753124 198.04688 28.753124Q197.46875 28.753124 197.0 29.1125Q196.54688 29.45625 196.34375 30.065624Q196.0625 31.003124 196.0625 32.1125L196.0625 37.55L194.29688 37.55ZM208.42188 34.20625L210.23438 34.440624Q209.8125 36.01875 208.64062 36.909374Q207.48438 37.784374 205.67188 37.784374Q203.40625 37.784374 202.0625 36.39375Q200.73438 34.9875 200.73438 32.45625Q200.73438 29.83125 202.07812 28.39375Q203.42188 26.940624 205.57812 26.940624Q207.65625 26.940624 208.96875 28.3625Q210.29688 29.76875 210.29688 32.346874Q210.29688 32.503124 210.28125 32.815624L202.54688 32.815624Q202.64062 34.51875 203.51562 35.425Q204.39062 36.33125 205.6875 36.33125Q206.65625 36.33125 207.32812 35.83125Q208.01562 35.315624 208.42188 34.20625ZM202.64062 31.3625L208.4375 31.3625Q208.32812 30.065624 207.78125 29.409374Q206.9375 28.39375 205.59375 28.39375Q204.39062 28.39375 203.5625 29.20625Q202.73438 30.003124 202.64062 31.3625ZM218.9375 41.51875L218.9375 36.440624Q218.51562 37.01875 217.78125 37.409374Q217.04688 37.784374 216.21875 37.784374Q214.375 37.784374 213.03125 36.315624Q211.70312 34.83125 211.70312 32.26875Q211.70312 30.70625 212.23438 29.471874Q212.78125 28.221874 213.8125 27.58125Q214.84375 26.940624 216.07812 26.940624Q218.0 26.940624 219.10938 28.565624L219.10938 27.175L220.6875 27.175L220.6875 41.51875L218.9375 41.51875ZM213.51562 32.33125Q213.51562 34.33125 214.34375 35.33125Q215.1875 36.33125 216.35938 36.33125Q217.48438 36.33125 218.29688 35.39375Q219.10938 34.440624 219.10938 32.4875Q219.10938 30.425 218.25 29.378124Q217.39062 28.33125 216.25 28.33125Q215.10938 28.33125 214.3125 29.3Q213.51562 30.26875 213.51562 32.33125ZM230.10938 37.55L230.10938 36.01875Q228.90625 37.784374 226.82812 37.784374Q225.90625 37.784374 225.10938 37.440624Q224.3125 37.08125 223.92188 36.55Q223.54688 36.01875 223.39062 35.2375Q223.28125 34.721874 223.28125 33.596874L223.28125 27.175L225.03125 27.175L225.03125 32.925Q225.03125 34.3 225.14062 34.784374Q225.3125 35.471874 225.84375 35.878124Q226.39062 36.26875 227.17188 36.26875Q227.96875 36.26875 228.65625 35.8625Q229.35938 35.45625 229.64062 34.76875Q229.9375 34.065624 229.9375 32.7375L229.9375 27.175L231.6875 27.175L231.6875 37.55L230.10938 37.55ZM240.42188 34.20625L242.23438 34.440624Q241.8125 36.01875 240.64062 36.909374Q239.48438 37.784374 237.67188 37.784374Q235.40625 37.784374 234.0625 36.39375Q232.73438 34.9875 232.73438 32.45625Q232.73438 29.83125 234.07812 28.39375Q235.42188 26.940624 237.57812 26.940624Q239.65625 26.940624 240.96875 28.3625Q242.29688 29.76875 242.29688 32.346874Q242.29688 32.503124 242.28125 32.815624L234.54688 32.815624Q234.64062 34.51875 235.51562 35.425Q236.39062 36.33125 237.6875 36.33125Q238.65625 36.33125 239.32812 35.83125Q240.01562 35.315624 240.42188 34.20625ZM234.64062 31.3625L240.4375 31.3625Q240.32812 30.065624 239.78125 29.409374Q238.9375 28.39375 237.59375 28.39375Q236.39062 28.39375 235.5625 29.20625Q234.73438 30.003124 234.64062 31.3625ZM243.60938 34.45625L245.35938 34.175Q245.5 35.221874 246.17188 35.784374Q246.84375 36.33125 248.04688 36.33125Q249.25 36.33125 249.82812 35.846874Q250.42188 35.346874 250.42188 34.690624Q250.42188 34.096874 249.90625 33.753124Q249.54688 33.51875 248.10938 33.159374Q246.17188 32.659374 245.42188 32.315624Q244.6875 31.95625 244.29688 31.33125Q243.90625 30.690624 243.90625 29.925Q243.90625 29.2375 244.21875 28.64375Q244.54688 28.05 245.09375 27.659374Q245.5 27.3625 246.20312 27.159374Q246.92188 26.940624 247.73438 26.940624Q248.95312 26.940624 249.875 27.3Q250.79688 27.64375 251.23438 28.253124Q251.67188 28.846874 251.84375 29.846874L250.125 30.08125Q250.0 29.284374 249.4375 28.846874Q248.875 28.39375 247.85938 28.39375Q246.64062 28.39375 246.125 28.8Q245.60938 29.190624 245.60938 29.721874Q245.60938 30.065624 245.82812 30.346874Q246.03125 30.628124 246.5 30.815624Q246.76562 30.909374 248.04688 31.253124Q249.92188 31.753124 250.65625 32.08125Q251.39062 32.39375 251.8125 33.003124Q252.23438 33.596874 252.23438 34.503124Q252.23438 35.378124 251.71875 36.159374Q251.20312 36.940624 250.23438 37.3625Q249.26562 37.784374 248.04688 37.784374Q246.03125 37.784374 244.96875 36.940624Q243.90625 36.096874 243.60938 34.45625ZM258.15625 35.971874L258.40625 37.534374Q257.67188 37.690624 257.07812 37.690624Q256.125 37.690624 255.59375 37.39375Q255.07812 37.08125 254.85938 36.596874Q254.64062 36.096874 254.64062 34.51875L254.64062 28.55L253.35938 28.55L253.35938 27.175L254.64062 27.175L254.64062 24.6125L256.39062 23.55L256.39062 27.175L258.15625 27.175L258.15625 28.55L256.39062 28.55L256.39062 34.6125Q256.39062 35.3625 256.48438 35.58125Q256.57812 35.784374 256.78125 35.925Q257.0 36.05 257.39062 36.05Q257.67188 36.05 258.15625 35.971874ZM259.60938 34.45625L261.35938 34.175Q261.5 35.221874 262.17188 35.784374Q262.84375 36.33125 264.04688 36.33125Q265.25 36.33125 265.82812 35.846874Q266.42188 35.346874 266.42188 34.690624Q266.42188 34.096874 265.90625 33.753124Q265.54688 33.51875 264.10938 33.159374Q262.17188 32.659374 261.42188 32.315624Q260.6875 31.95625 260.29688 31.33125Q259.90625 30.690624 259.90625 29.925Q259.90625 29.2375 260.21875 28.64375Q260.54688 28.05 261.09375 27.659374Q261.5 27.3625 262.20312 27.159374Q262.92188 26.940624 263.73438 26.940624Q264.95312 26.940624 265.875 27.3Q266.79688 27.64375 267.23438 28.253124Q267.67188 28.846874 267.84375 29.846874L266.125 30.08125Q266.0 29.284374 265.4375 28.846874Q264.875 28.39375 263.85938 28.39375Q262.64062 28.39375 262.125 28.8Q261.60938 29.190624 261.60938 29.721874Q261.60938 30.065624 261.82812 30.346874Q262.03125 30.628124 262.5 30.815624Q262.76562 30.909374 264.04688 31.253124Q265.92188 31.753124 266.65625 32.08125Q267.39062 32.39375 267.8125 33.003124Q268.23438 33.596874 268.23438 34.503124Q268.23438 35.378124 267.71875 36.159374Q267.20312 36.940624 266.23438 37.3625Q265.26562 37.784374 264.04688 37.784374Q262.03125 37.784374 260.96875 36.940624Q259.90625 36.096874 259.60938 34.45625ZM269.0 37.8L273.15625 22.9875L274.5625 22.9875L270.42188 37.8L269.0 37.8ZM275.60938 34.45625L277.35938 34.175Q277.5 35.221874 278.17188 35.784374Q278.84375 36.33125 280.04688 36.33125Q281.25 36.33125 281.82812 35.846874Q282.42188 35.346874 282.42188 34.690624Q282.42188 34.096874 281.90625 33.753124Q281.54688 33.51875 280.10938 33.159374Q278.17188 32.659374 277.42188 32.315624Q276.6875 31.95625 276.29688 31.33125Q275.90625 30.690624 275.90625 29.925Q275.90625 29.2375 276.21875 28.64375Q276.54688 28.05 277.09375 27.659374Q277.5 27.3625 278.20312 27.159374Q278.92188 26.940624 279.73438 26.940624Q280.95312 26.940624 281.875 27.3Q282.79688 27.64375 283.23438 28.253124Q283.67188 28.846874 283.84375 29.846874L282.125 30.08125Q282.0 29.284374 281.4375 28.846874Q280.875 28.39375 279.85938 28.39375Q278.64062 28.39375 278.125 28.8Q277.60938 29.190624 277.60938 29.721874Q277.60938 30.065624 277.82812 30.346874Q278.03125 30.628124 278.5 30.815624Q278.76562 30.909374 280.04688 31.253124Q281.92188 31.753124 282.65625 32.08125Q283.39062 32.39375 283.8125 33.003124Q284.23438 33.596874 284.23438 34.503124Q284.23438 35.378124 283.71875 36.159374Q283.20312 36.940624 282.23438 37.3625Q281.26562 37.784374 280.04688 37.784374Q278.03125 37.784374 276.96875 36.940624Q275.90625 36.096874 275.60938 34.45625ZM294.23438 37.55L291.0625 27.175L292.875 27.175L294.53125 33.159374L295.14062 35.39375Q295.1875 35.221874 295.67188 33.253124L297.32812 27.175L299.14062 27.175L300.6875 33.190624L301.20312 35.175L301.79688 33.175L303.57812 27.175L305.28125 27.175L302.04688 37.55L300.21875 37.55L298.5625 31.33125L298.17188 29.565624L296.0625 37.55L294.23438 37.55ZM306.0 37.8L310.15625 22.9875L311.5625 22.9875L307.42188 37.8L306.0 37.8ZM319.3125 37.55L319.3125 23.2375L321.07812 23.2375L321.07812 28.3625Q322.3125 26.940624 324.1875 26.940624Q325.32812 26.940624 326.17188 27.39375Q327.03125 27.846874 327.39062 28.659374Q327.76562 29.45625 327.76562 30.971874L327.76562 37.55L326.01562 37.55L326.01562 30.971874Q326.01562 29.659374 325.4375 29.065624Q324.85938 28.45625 323.82812 28.45625Q323.04688 28.45625 322.34375 28.8625Q321.65625 29.26875 321.35938 29.971874Q321.07812 30.659374 321.07812 31.878124L321.07812 37.55L319.3125 37.55ZM336.10938 37.55L336.10938 36.01875Q334.90625 37.784374 332.82812 37.784374Q331.90625 37.784374 331.10938 37.440624Q330.3125 37.08125 329.92188 36.55Q329.54688 36.01875 329.39062 35.2375Q329.28125 34.721874 329.28125 33.596874L329.28125 27.175L331.03125 27.175L331.03125 32.925Q331.03125 34.3 331.14062 34.784374Q331.3125 35.471874 331.84375 35.878124Q332.39062 36.26875 333.17188 36.26875Q333.96875 36.26875 334.65625 35.8625Q335.35938 35.45625 335.64062 34.76875Q335.9375 34.065624 335.9375 32.7375L335.9375 27.175L337.6875 27.175L337.6875 37.55L336.10938 37.55ZM339.29688 37.55L339.29688 27.175L340.875 27.175L340.875 28.753124Q341.48438 27.64375 342.0 27.3Q342.51562 26.940624 343.125 26.940624Q344.01562 26.940624 344.9375 27.503124L344.32812 29.14375Q343.6875 28.753124 343.04688 28.753124Q342.46875 28.753124 342.0 29.1125Q341.54688 29.45625 341.34375 30.065624Q341.0625 31.003124 341.0625 32.1125L341.0625 37.55L339.29688 37.55ZM346.28125 37.55L346.28125 23.2375L348.03125 23.2375L348.03125 37.55L346.28125 37.55ZM364.95312 26.7375L363.20312 26.878124Q362.96875 25.846874 362.54688 25.378124Q361.82812 24.6125 360.78125 24.6125Q359.9375 24.6125 359.3125 25.08125Q358.48438 25.690624 358.0 26.8625Q357.51562 28.01875 357.5 30.159374Q358.14062 29.20625 359.04688 28.7375Q359.96875 28.26875 360.98438 28.26875Q362.73438 28.26875 363.96875 29.565624Q365.20312 30.846874 365.20312 32.89375Q365.20312 34.253124 364.625 35.409374Q364.04688 36.565624 363.03125 37.190624Q362.01562 37.8 360.71875 37.8Q358.53125 37.8 357.14062 36.190624Q355.75 34.565624 355.75 30.846874Q355.75 26.70625 357.28125 24.815624Q358.625 23.175 360.89062 23.175Q362.57812 23.175 363.65625 24.128124Q364.73438 25.065624 364.95312 26.7375ZM357.78125 32.909374Q357.78125 33.815624 358.15625 34.64375Q358.54688 35.471874 359.23438 35.909374Q359.9375 36.346874 360.6875 36.346874Q361.8125 36.346874 362.60938 35.45625Q363.40625 34.55 363.40625 33.003124Q363.40625 31.51875 362.60938 30.675Q361.82812 29.815624 360.625 29.815624Q359.4375 29.815624 358.60938 30.675Q357.78125 31.51875 357.78125 32.909374ZM372.46875 37.55L372.46875 34.128124L366.25 34.128124L366.25 32.503124L372.78125 23.2375L374.21875 23.2375L374.21875 32.503124L376.15625 32.503124L376.15625 34.128124L374.21875 34.128124L374.21875 37.55L372.46875 37.55ZM372.46875 32.503124L372.46875 26.05L367.98438 32.503124L372.46875 32.503124ZM378.48438 37.55L378.48438 23.2375L381.34375 23.2375L384.71875 33.3625Q385.1875 34.784374 385.40625 35.4875Q385.65625 34.70625 386.17188 33.190624L389.59375 23.2375L392.14062 23.2375L392.14062 37.55L390.32812 37.55L390.32812 25.565624L386.15625 37.55L384.45312 37.55L380.3125 25.3625L380.3125 37.55L378.48438 37.55ZM395.46875 37.55L395.46875 23.2375L400.84375 23.2375Q402.48438 23.2375 403.46875 23.675Q404.45312 24.096874 405.01562 25.003124Q405.57812 25.909374 405.57812 26.89375Q405.57812 27.815624 405.07812 28.628124Q404.59375 29.440624 403.57812 29.925Q404.875 30.315624 405.57812 31.2375Q406.28125 32.14375 406.28125 33.39375Q406.28125 34.409374 405.84375 35.26875Q405.42188 36.128124 404.79688 36.596874Q404.17188 37.065624 403.23438 37.315624Q402.29688 37.55 400.92188 37.55L395.46875 37.55ZM397.35938 29.253124L400.45312 29.253124Q401.71875 29.253124 402.26562 29.08125Q402.98438 28.8625 403.34375 28.378124Q403.71875 27.878124 403.71875 27.1125Q403.71875 26.409374 403.375 25.8625Q403.03125 25.315624 402.39062 25.128124Q401.76562 24.925 400.21875 24.925L397.35938 24.925L397.35938 29.253124ZM397.35938 35.8625L400.92188 35.8625Q401.84375 35.8625 402.21875 35.784374Q402.875 35.675 403.3125 35.409374Q403.75 35.128124 404.03125 34.6125Q404.3125 34.08125 404.3125 33.39375Q404.3125 32.596874 403.90625 32.003124Q403.5 31.409374 402.76562 31.175Q402.03125 30.940624 400.67188 30.940624L397.35938 30.940624L397.35938 35.8625Z" fill-rule="nonzero"/></svg>