<svg version="1.1" viewBox="0.0 0.0 600.0 371.0" fill="none" stroke="none" stroke-linecap="square" stroke-miterlimit="10" width="600" height="371" xmlns:xlink="http://www.w3.org/1999/xlink" xmlns="http://www.w3.org/2000/svg"><path fill="#ffffff" d="M0 0L600.0 0L600.0 371.0L0 371.0L0 0Z" fill-rule="nonzero"/><path stroke="#cccccc" stroke-width="1.0" stroke-linecap="butt" d="M59.5 88.5L59.5 332.5" fill-rule="nonzero"/><path stroke="#cccccc" stroke-width="1.0" stroke-linecap="butt" d="M217.5 88.5L217.5 332.5" fill-rule="nonzero"/><path stroke="#cccccc" stroke-width="1.0" stroke-linecap="butt" d="M375.5 88.5L375.5 332.5" fill-rule="nonzero"/><path stroke="#cccccc" stroke-width="1.0" stroke-linecap="butt" d="M533.5 88.5L533.5 332.5" fill-rule="nonzero"/><path stroke="#333333" stroke-width="1.0" stroke-linecap="butt" d="M59.5 332.5L581.5 332.5" fill-rule="nonzero"/><path stroke="#cccccc" stroke-width="1.0" stroke-linecap="butt" d="M59.5 271.5L581.5 271.5" fill-rule="nonzero"/><path stroke="#cccccc" stroke-width="1.0" stroke-linecap="butt" d="M59.5 210.5L581.5 210.5" fill-rule="nonzero"/><path stroke="#cccccc" stroke-width="1.0" stroke-linecap="butt" d="M59.5 149.5L581.5 149.5" fill-rule="nonzero"/><path stroke="#cccccc" stroke-width="1.0" stroke-linecap="butt" d="M59.5 88.5L581.5 88.5" fill-rule="nonzero"/><clipPath id="id_0"><path d="M59.55 88.28333L581.45 88.28333L581.45 332.45L59.55 332.45L59.55 88.28333Z" clip-rule="nonzero"/></clipPath><path stroke="#4285f4" stroke-width="2.0" stroke-linecap="butt" clip-path="url(#id_0)" d="M59.55 319.79617L217.65218 257.34616L265.24567 226.62206L328.16083 192.63455L375.75433 179.9795L486.263 156.9248L581.45 152.37257" fill-rule="nonzero"/><path stroke="#ea4335" stroke-width="2.0" stroke-linecap="butt" clip-path="url(#id_0)" d="M59.55 319.78763L217.65218 253.20753L265.24567 218.949L328.16083 180.0076L375.75433 159.55351L486.263 138.26144L581.45 132.01761" fill-rule="nonzero"/><path fill="#000000" fill-opacity="0.0" clip-path="url(#id_0)" d="M62.55 319.79617C62.55 321.45303 61.206856 322.79617 59.55 322.79617C57.893147 322.79617 56.55 321.45303 56.55 319.79617C56.55 318.13934 57.893147 316.79617 59.55 316.79617C61.206856 316.79617 62.55 318.13934 62.55 319.79617Z" fill-rule="nonzero"/><path fill="#000000" fill-opacity="0.0" clip-path="url(#id_0)" d="M220.65218 257.34616C220.65218 259.00302 219.30902 260.34616 217.65218 260.34616C215.99532 260.34616 214.65218 259.00302 214.65218 257.34616C214.65218 255.68932 215.99532 254.34616 217.65218 254.34616C219.30902 254.34616 220.65218 255.68932 220.65218 257.34616Z" fill-rule="nonzero"/><path fill="#000000" fill-opacity="0.0" clip-path="url(#id_0)" d="M268.24567 226.62206C268.24567 228.27892 266.90253 229.62206 265.24567 229.62206C263.5888 229.62206 262.24567 228.27892 262.24567 226.62206C262.24567 224.96521 263.5888 223.62206 265.24567 223.62206C266.90253 223.62206 268.24567 224.96521 268.24567 226.62206Z" fill-rule="nonzero"/><path fill="#000000" fill-opacity="0.0" clip-path="url(#id_0)" d="M331.16083 192.63455C331.16083 194.29141 329.8177 195.63455 328.16083 195.63455C326.504 195.63455 325.16083 194.29141 325.16083 192.63455C325.16083 190.97769 326.504 189.63455 328.16083 189.63455C329.8177 189.63455 331.16083 190.97769 331.16083 192.63455Z" fill-rule="nonzero"/><path fill="#000000" fill-opacity="0.0" clip-path="url(#id_0)" d="M378.75433 179.9795C378.75433 181.63637 377.4112 182.9795 375.75433 182.9795C374.09747 182.9795 372.75433 181.63637 372.75433 179.9795C372.75433 178.32266 374.09747 176.9795 375.75433 176.9795C377.4112 176.9795 378.75433 178.32266 378.75433 179.9795Z" fill-rule="nonzero"/><path fill="#000000" fill-opacity="0.0" clip-path="url(#id_0)" d="M489.263 156.9248C489.263 158.58167 487.91986 159.9248 486.263 159.9248C484.60617 159.9248 483.263 158.58167 483.263 156.9248C483.263 155.26796 484.60617 153.9248 486.263 153.9248C487.91986 153.9248 489.263 155.26796 489.263 156.9248Z" fill-rule="nonzero"/><path fill="#000000" fill-opacity="0.0" clip-path="url(#id_0)" d="M584.45 152.37257C584.45 154.02942 583.1069 155.37257 581.45 155.37257C579.79315 155.37257 578.45 154.02942 578.45 152.37257C578.45 150.71571 579.79315 149.37257 581.45 149.37257C583.1069 149.37257 584.45 150.71571 584.45 152.37257Z" fill-rule="nonzero"/><path fill="#000000" fill-opacity="0.0" clip-path="url(#id_0)" d="M62.55 319.78763C62.55 321.4445 61.206856 322.78763 59.55 322.78763C57.893147 322.78763 56.55 321.4445 56.55 319.78763C56.55 318.1308 57.893147 316.78763 59.55 316.78763C61.206856 316.78763 62.55 318.1308 62.55 319.78763Z" fill-rule="nonzero"/><path fill="#000000" fill-opacity="0.0" clip-path="url(#id_0)" d="M220.65218 253.20753C220.65218 254.8644 219.30902 256.20755 217.65218 256.20755C215.99532 256.20755 214.65218 254.8644 214.65218 253.20753C214.65218 251.55069 215.99532 250.20753 217.65218 250.20753C219.30902 250.20753 220.65218 251.55069 220.65218 253.20753Z" fill-rule="nonzero"/><path fill="#000000" fill-opacity="0.0" clip-path="url(#id_0)" d="M268.24567 218.949C268.24567 220.60585 266.90253 221.949 265.24567 221.949C263.5888 221.949 262.24567 220.60585 262.24567 218.949C262.24567 217.29214 263.5888 215.949 265.24567 215.949C266.90253 215.949 268.24567 217.29214 268.24567 218.949Z" fill-rule="nonzero"/><path fill="#000000" fill-opacity="0.0" clip-path="url(#id_0)" d="M331.16083 180.0076C331.16083 181.66444 329.8177 183.0076 328.16083 183.0076C326.504 183.0076 325.16083 181.66444 325.16083 180.0076C325.16083 178.35074 326.504 177.0076 328.16083 177.0076C329.8177 177.0076 331.16083 178.35074 331.16083 180.0076Z" fill-rule="nonzero"/><path fill="#000000" fill-opacity="0.0" clip-path="url(#id_0)" d="M378.75433 159.55351C378.75433 161.21036 377.4112 162.55351 375.75433 162.55351C374.09747 162.55351 372.75433 161.21036 372.75433 159.55351C372.75433 157.89665 374.09747 156.55351 375.75433 156.55351C377.4112 156.55351 378.75433 157.89665 378.75433 159.55351Z" fill-rule="nonzero"/><path fill="#000000" fill-opacity="0.0" clip-path="url(#id_0)" d="M489.263 138.26144C489.263 139.91829 487.91986 141.26144 486.263 141.26144C484.60617 141.26144 483.263 139.91829 483.263 138.26144C483.263 136.60458 484.60617 135.26144 486.263 135.26144C487.91986 135.26144 489.263 136.60458 489.263 138.26144Z" fill-rule="nonzero"/><path fill="#000000" fill-opacity="0.0" clip-path="url(#id_0)" d="M584.45 132.01761C584.45 133.67447 583.1069 135.01761 581.45 135.01761C579.79315 135.01761 578.45 133.67447 578.45 132.01761C578.45 130.36076 579.79315 129.01761 581.45 129.01761C583.1069 129.01761 584.45 130.36076 584.45 132.01761Z" fill-rule="nonzero"/><path fill="#000000" d="M47.05 332.21564Q47.05 330.6844 47.3625 329.7625Q47.675 328.825 48.284374 328.325Q48.909374 327.825 49.846874 327.825Q50.534374 327.825 51.05 328.10626Q51.58125 328.3875 51.925 328.91876Q52.26875 329.4344 52.45625 330.1844Q52.64375 330.9344 52.64375 332.21564Q52.64375 333.73126 52.33125 334.65314Q52.034374 335.575 51.409374 336.09064Q50.8 336.59064 49.846874 336.59064Q48.6125 336.59064 47.89375 335.7Q47.05 334.6375 47.05 332.21564ZM48.128124 332.21564Q48.128124 334.325 48.628124 335.02814Q49.128124 335.73126 49.846874 335.73126Q50.58125 335.73126 51.065624 335.02814Q51.565624 334.325 51.565624 332.21564Q51.565624 330.09064 51.065624 329.40314Q50.58125 328.7 49.83125 328.7Q49.1125 328.7 48.675 329.3094Q48.128124 330.09064 48.128124 332.21564Z" fill-rule="nonzero"/><path fill="#000000" d="M26.05 273.15833L27.159374 273.06458Q27.284374 273.87708 27.721874 274.28333Q28.175 274.68958 28.815624 274.68958Q29.565624 274.68958 30.096874 274.11145Q30.628124 273.53333 30.628124 272.59583Q30.628124 271.68958 30.1125 271.17395Q29.6125 270.6427 28.784374 270.6427Q28.284374 270.6427 27.8625 270.87708Q27.45625 271.11145 27.221874 271.47083L26.2375 271.34583L27.065624 266.93958L31.346874 266.93958L31.346874 267.93958L27.909374 267.93958L27.45625 270.25208Q28.221874 269.7052 29.065624 269.7052Q30.190624 269.7052 30.95625 270.48645Q31.7375 271.2677 31.7375 272.50208Q31.7375 273.65833 31.065624 274.5177Q30.2375 275.54895 28.815624 275.54895Q27.64375 275.54895 26.89375 274.8927Q26.159374 274.23645 26.05 273.15833ZM33.05 271.17395Q33.05 269.6427 33.3625 268.72083Q33.675 267.78333 34.284374 267.28333Q34.909374 266.78333 35.846874 266.78333Q36.534374 266.78333 37.05 267.06458Q37.58125 267.34583 37.925 267.87708Q38.26875 268.3927 38.45625 269.1427Q38.64375 269.8927 38.64375 271.17395Q38.64375 272.68958 38.33125 273.61145Q38.034374 274.53333 37.409374 275.04895Q36.8 275.54895 35.846874 275.54895Q34.6125 275.54895 33.89375 274.65833Q33.05 273.59583 33.05 271.17395ZM34.128124 271.17395Q34.128124 273.28333 34.628124 273.98645Q35.128124 274.68958 35.846874 274.68958Q36.58125 274.68958 37.065624 273.98645Q37.565624 273.28333 37.565624 271.17395Q37.565624 269.04895 37.065624 268.36145Q36.58125 267.65833 35.83125 267.65833Q35.1125 267.65833 34.675 268.2677Q34.128124 269.04895 34.128124 271.17395ZM40.05 271.17395Q40.05 269.6427 40.3625 268.72083Q40.675 267.78333 41.284374 267.28333Q41.909374 266.78333 42.846874 266.78333Q43.534374 266.78333 44.05 267.06458Q44.58125 267.34583 44.925 267.87708Q45.26875 268.3927 45.45625 269.1427Q45.64375 269.8927 45.64375 271.17395Q45.64375 272.68958 45.33125 273.61145Q45.034374 274.53333 44.409374 275.04895Q43.8 275.54895 42.846874 275.54895Q41.6125 275.54895 40.89375 274.65833Q40.05 273.59583 40.05 271.17395ZM41.128124 271.17395Q41.128124 273.28333 41.628124 273.98645Q42.128124 274.68958 42.846874 274.68958Q43.58125 274.68958 44.065624 273.98645Q44.565624 273.28333 44.565624 271.17395Q44.565624 269.04895 44.065624 268.36145Q43.58125 267.65833 42.83125 267.65833Q42.1125 267.65833 41.675 268.2677Q41.128124 269.04895 41.128124 271.17395ZM47.05 271.17395Q47.05 269.6427 47.3625 268.72083Q47.675 267.78333 48.284374 267.28333Q48.909374 266.78333 49.846874 266.78333Q50.534374 266.78333 51.05 267.06458Q51.58125 267.34583 51.925 267.87708Q52.26875 268.3927 52.45625 269.1427Q52.64375 269.8927 52.64375 271.17395Q52.64375 272.68958 52.33125 273.61145Q52.034374 274.53333 51.409374 275.04895Q50.8 275.54895 49.846874 275.54895Q48.6125 275.54895 47.89375 274.65833Q47.05 273.59583 47.05 271.17395ZM48.128124 271.17395Q48.128124 273.28333 48.628124 273.98645Q49.128124 274.68958 49.846874 274.68958Q50.58125 274.68958 51.065624 273.98645Q51.565624 273.28333 51.565624 271.17395Q51.565624 269.04895 51.065624 268.36145Q50.58125 267.65833 49.83125 267.65833Q49.1125 267.65833 48.675 268.2677Q48.128124 269.04895 48.128124 271.17395Z" fill-rule="nonzero"/><path fill="#000000" d="M23.01875 214.36667L21.971874 214.36667L21.971874 207.64792Q21.58125 208.0073 20.95625 208.3823Q20.346874 208.74167 19.8625 208.91354L19.8625 207.89792Q20.7375 207.47604 21.39375 206.89792Q22.065624 206.30417 22.346874 205.74167L23.01875 205.74167L23.01875 214.36667ZM26.05 210.1323Q26.05 208.60104 26.3625 207.67917Q26.675 206.74167 27.284374 206.24167Q27.909374 205.74167 28.846874 205.74167Q29.534374 205.74167 30.05 206.02292Q30.58125 206.30417 30.925 206.83542Q31.26875 207.35104 31.45625 208.10104Q31.64375 208.85104 31.64375 210.1323Q31.64375 211.64792 31.33125 212.5698Q31.034374 213.49167 30.409374 214.0073Q29.8 214.5073 28.846874 214.5073Q27.6125 214.5073 26.89375 213.61667Q26.05 212.55417 26.05 210.1323ZM27.128124 210.1323Q27.128124 212.24167 27.628124 212.9448Q28.128124 213.64792 28.846874 213.64792Q29.58125 213.64792 30.065624 212.9448Q30.565624 212.24167 30.565624 210.1323Q30.565624 208.0073 30.065624 207.3198Q29.58125 206.61667 28.83125 206.61667Q28.1125 206.61667 27.675 207.22604Q27.128124 208.0073 27.128124 210.1323ZM33.05 210.1323Q33.05 208.60104 33.3625 207.67917Q33.675 206.74167 34.284374 206.24167Q34.909374 205.74167 35.846874 205.74167Q36.534374 205.74167 37.05 206.02292Q37.58125 206.30417 37.925 206.83542Q38.26875 207.35104 38.45625 208.10104Q38.64375 208.85104 38.64375 210.1323Q38.64375 211.64792 38.33125 212.5698Q38.034374 213.49167 37.409374 214.0073Q36.8 214.5073 35.846874 214.5073Q34.6125 214.5073 33.89375 213.61667Q33.05 212.55417 33.05 210.1323ZM34.128124 210.1323Q34.128124 212.24167 34.628124 212.9448Q35.128124 213.64792 35.846874 213.64792Q36.58125 213.64792 37.065624 212.9448Q37.565624 212.24167 37.565624 210.1323Q37.565624 208.0073 37.065624 207.3198Q36.58125 206.61667 35.83125 206.61667Q35.1125 206.61667 34.675 207.22604Q34.128124 208.0073 34.128124 210.1323ZM40.05 210.1323Q40.05 208.60104 40.3625 207.67917Q40.675 206.74167 41.284374 206.24167Q41.909374 205.74167 42.846874 205.74167Q43.534374 205.74167 44.05 206.02292Q44.58125 206.30417 44.925 206.83542Q45.26875 207.35104 45.45625 208.10104Q45.64375 208.85104 45.64375 210.1323Q45.64375 211.64792 45.33125 212.5698Q45.034374 213.49167 44.409374 214.0073Q43.8 214.5073 42.846874 214.5073Q41.6125 214.5073 40.89375 213.61667Q40.05 212.55417 40.05 210.1323ZM41.128124 210.1323Q41.128124 212.24167 41.628124 212.9448Q42.128124 213.64792 42.846874 213.64792Q43.58125 213.64792 44.065624 212.9448Q44.565624 212.24167 44.565624 210.1323Q44.565624 208.0073 44.065624 207.3198Q43.58125 206.61667 42.83125 206.61667Q42.1125 206.61667 41.675 207.22604Q41.128124 208.0073 41.128124 210.1323ZM47.05 210.1323Q47.05 208.60104 47.3625 207.67917Q47.675 206.74167 48.284374 206.24167Q48.909374 205.74167 49.846874 205.74167Q50.534374 205.74167 51.05 206.02292Q51.58125 206.30417 51.925 206.83542Q52.26875 207.35104 52.45625 208.10104Q52.64375 208.85104 52.64375 210.1323Q52.64375 211.64792 52.33125 212.5698Q52.034374 213.49167 51.409374 214.0073Q50.8 214.5073 49.846874 214.5073Q48.6125 214.5073 47.89375 213.61667Q47.05 212.55417 47.05 210.1323ZM48.128124 210.1323Q48.128124 212.24167 48.628124 212.9448Q49.128124 213.64792 49.846874 213.64792Q50.58125 213.64792 51.065624 212.9448Q51.565624 212.24167 51.565624 210.1323Q51.565624 208.0073 51.065624 207.3198Q50.58125 206.61667 49.83125 206.61667Q49.1125 206.61667 48.675 207.22604Q48.128124 208.0073 48.128124 210.1323Z" fill-rule="nonzero"/><path fill="#000000" d="M23.01875 153.325L21.971874 153.325L21.971874 146.60625Q21.58125 146.96562 20.95625 147.34062Q20.346874 147.7 19.8625 147.87187L19.8625 146.85625Q20.7375 146.43437 21.39375 145.85625Q22.065624 145.2625 22.346874 144.7L23.01875 144.7L23.01875 153.325ZM26.05 151.075L27.159374 150.98125Q27.284374 151.79375 27.721874 152.2Q28.175 152.60625 28.815624 152.60625Q29.565624 152.60625 30.096874 152.02812Q30.628124 151.45 30.628124 150.5125Q30.628124 149.60625 30.1125 149.09062Q29.6125 148.55937 28.784374 148.55937Q28.284374 148.55937 27.8625 148.79375Q27.45625 149.02812 27.221874 149.3875L26.2375 149.2625L27.065624 144.85625L31.346874 144.85625L31.346874 145.85625L27.909374 145.85625L27.45625 148.16875Q28.221874 147.62187 29.065624 147.62187Q30.190624 147.62187 30.95625 148.40312Q31.7375 149.18437 31.7375 150.41875Q31.7375 151.575 31.065624 152.43437Q30.2375 153.46562 28.815624 153.46562Q27.64375 153.46562 26.89375 152.80937Q26.159374 152.15312 26.05 151.075ZM33.05 149.09062Q33.05 147.55937 33.3625 146.6375Q33.675 145.7 34.284374 145.2Q34.909374 144.7 35.846874 144.7Q36.534374 144.7 37.05 144.98125Q37.58125 145.2625 37.925 145.79375Q38.26875 146.30937 38.45625 147.05937Q38.64375 147.80937 38.64375 149.09062Q38.64375 150.60625 38.33125 151.52812Q38.034374 152.45 37.409374 152.96562Q36.8 153.46562 35.846874 153.46562Q34.6125 153.46562 33.89375 152.575Q33.05 151.5125 33.05 149.09062ZM34.128124 149.09062Q34.128124 151.2 34.628124 151.90312Q35.128124 152.60625 35.846874 152.60625Q36.58125 152.60625 37.065624 151.90312Q37.565624 151.2 37.565624 149.09062Q37.565624 146.96562 37.065624 146.27812Q36.58125 145.575 35.83125 145.575Q35.1125 145.575 34.675 146.18437Q34.128124 146.96562 34.128124 149.09062ZM40.05 149.09062Q40.05 147.55937 40.3625 146.6375Q40.675 145.7 41.284374 145.2Q41.909374 144.7 42.846874 144.7Q43.534374 144.7 44.05 144.98125Q44.58125 145.2625 44.925 145.79375Q45.26875 146.30937 45.45625 147.05937Q45.64375 147.80937 45.64375 149.09062Q45.64375 150.60625 45.33125 151.52812Q45.034374 152.45 44.409374 152.96562Q43.8 153.46562 42.846874 153.46562Q41.6125 153.46562 40.89375 152.575Q40.05 151.5125 40.05 149.09062ZM41.128124 149.09062Q41.128124 151.2 41.628124 151.90312Q42.128124 152.60625 42.846874 152.60625Q43.58125 152.60625 44.065624 151.90312Q44.565624 151.2 44.565624 149.09062Q44.565624 146.96562 44.065624 146.27812Q43.58125 145.575 42.83125 145.575Q42.1125 145.575 41.675 146.18437Q41.128124 146.96562 41.128124 149.09062ZM47.05 149.09062Q47.05 147.55937 47.3625 146.6375Q47.675 145.7 48.284374 145.2Q48.909374 144.7 49.846874 144.7Q50.534374 144.7 51.05 144.98125Q51.58125 145.2625 51.925 145.79375Q52.26875 146.30937 52.45625 147.05937Q52.64375 147.80937 52.64375 149.09062Q52.64375 150.60625 52.33125 151.52812Q52.034374 152.45 51.409374 152.96562Q50.8 153.46562 49.846874 153.46562Q48.6125 153.46562 47.89375 152.575Q47.05 151.5125 47.05 149.09062ZM48.128124 149.09062Q48.128124 151.2 48.628124 151.90312Q49.128124 152.60625 49.846874 152.60625Q50.58125 152.60625 51.065624 151.90312Q51.565624 151.2 51.565624 149.09062Q51.565624 146.96562 51.065624 146.27812Q50.58125 145.575 49.83125 145.575Q49.1125 145.575 48.675 146.18437Q48.128124 146.96562 48.128124 149.09062Z" fill-rule="nonzero"/><path fill="#000000" d="M24.596874 91.26771L24.596874 92.28333L18.909374 92.28333Q18.909374 91.90833 19.034374 91.54896Q19.253124 90.97083 19.721874 90.40833Q20.20625 89.84583 21.1125 89.11146Q22.51875 87.95521 23.003124 87.28333Q23.503124 86.61146 23.503124 86.01771Q23.503124 85.39271 23.05 84.97083Q22.596874 84.53333 21.878124 84.53333Q21.1125 84.53333 20.659374 84.98646Q20.20625 85.43958 20.190624 86.25208L19.1125 86.14271Q19.221874 84.92396 19.940624 84.29896Q20.675 83.65833 21.909374 83.65833Q23.14375 83.65833 23.8625 84.34583Q24.58125 85.03333 24.58125 86.04896Q24.58125 86.56458 24.3625 87.06458Q24.159374 87.54896 23.659374 88.11146Q23.175 88.65833 22.05 89.61146Q21.096874 90.40833 20.815624 90.70521Q20.55 90.98646 20.378124 91.26771L24.596874 91.26771ZM26.05 88.04896Q26.05 86.51771 26.3625 85.59583Q26.675 84.65833 27.284374 84.15833Q27.909374 83.65833 28.846874 83.65833Q29.534374 83.65833 30.05 83.93958Q30.58125 84.22083 30.925 84.75208Q31.26875 85.26771 31.45625 86.01771Q31.64375 86.76771 31.64375 88.04896Q31.64375 89.56458 31.33125 90.48646Q31.034374 91.40833 30.409374 91.92396Q29.8 92.42396 28.846874 92.42396Q27.6125 92.42396 26.89375 91.53333Q26.05 90.47083 26.05 88.04896ZM27.128124 88.04896Q27.128124 90.15833 27.628124 90.86146Q28.128124 91.56458 28.846874 91.56458Q29.58125 91.56458 30.065624 90.86146Q30.565624 90.15833 30.565624 88.04896Q30.565624 85.92396 30.065624 85.23646Q29.58125 84.53333 28.83125 84.53333Q28.1125 84.53333 27.675 85.14271Q27.128124 85.92396 27.128124 88.04896ZM33.05 88.04896Q33.05 86.51771 33.3625 85.59583Q33.675 84.65833 34.284374 84.15833Q34.909374 83.65833 35.846874 83.65833Q36.534374 83.65833 37.05 83.93958Q37.58125 84.22083 37.925 84.75208Q38.26875 85.26771 38.45625 86.01771Q38.64375 86.76771 38.64375 88.04896Q38.64375 89.56458 38.33125 90.48646Q38.034374 91.40833 37.409374 91.92396Q36.8 92.42396 35.846874 92.42396Q34.6125 92.42396 33.89375 91.53333Q33.05 90.47083 33.05 88.04896ZM34.128124 88.04896Q34.128124 90.15833 34.628124 90.86146Q35.128124 91.56458 35.846874 91.56458Q36.58125 91.56458 37.065624 90.86146Q37.565624 90.15833 37.565624 88.04896Q37.565624 85.92396 37.065624 85.23646Q36.58125 84.53333 35.83125 84.53333Q35.1125 84.53333 34.675 85.14271Q34.128124 85.92396 34.128124 88.04896ZM40.05 88.04896Q40.05 86.51771 40.3625 85.59583Q40.675 84.65833 41.284374 84.15833Q41.909374 83.65833 42.846874 83.65833Q43.534374 83.65833 44.05 83.93958Q44.58125 84.22083 44.925 84.75208Q45.26875 85.26771 45.45625 86.01771Q45.64375 86.76771 45.64375 88.04896Q45.64375 89.56458 45.33125 90.48646Q45.034374 91.40833 44.409374 91.92396Q43.8 92.42396 42.846874 92.42396Q41.6125 92.42396 40.89375 91.53333Q40.05 90.47083 40.05 88.04896ZM41.128124 88.04896Q41.128124 90.15833 41.628124 90.86146Q42.128124 91.56458 42.846874 91.56458Q43.58125 91.56458 44.065624 90.86146Q44.565624 90.15833 44.565624 88.04896Q44.565624 85.92396 44.065624 85.23646Q43.58125 84.53333 42.83125 84.53333Q42.1125 84.53333 41.675 85.14271Q41.128124 85.92396 41.128124 88.04896ZM47.05 88.04896Q47.05 86.51771 47.3625 85.59583Q47.675 84.65833 48.284374 84.15833Q48.909374 83.65833 49.846874 83.65833Q50.534374 83.65833 51.05 83.93958Q51.58125 84.22083 51.925 84.75208Q52.26875 85.26771 52.45625 86.01771Q52.64375 86.76771 52.64375 88.04896Q52.64375 89.56458 52.33125 90.48646Q52.034374 91.40833 51.409374 91.92396Q50.8 92.42396 49.846874 92.42396Q48.6125 92.42396 47.89375 91.53333Q47.05 90.47083 47.05 88.04896ZM48.128124 88.04896Q48.128124 90.15833 48.628124 90.86146Q49.128124 91.56458 49.846874 91.56458Q50.58125 91.56458 51.065624 90.86146Q51.565624 90.15833 51.565624 88.04896Q51.565624 85.92396 51.065624 85.23646Q50.58125 84.53333 49.83125 84.53333Q49.1125 84.53333 48.675 85.14271Q48.128124 85.92396 48.128124 88.04896Z" fill-rule="nonzero"/><path fill="#000000" d="M60.51875 349.45L59.471874 349.45L59.471874 342.73126Q59.08125 343.09064 58.45625 343.46564Q57.846874 343.825 57.3625 343.9969L57.3625 342.98126Q58.2375 342.5594 58.89375 341.98126Q59.565624 341.3875 59.846874 340.825L60.51875 340.825L60.51875 349.45Z" fill-rule="nonzero"/><path fill="#000000" d="M215.12093 349.45L214.07405 349.45L214.07405 342.73126Q213.68343 343.09064 213.05843 343.46564Q212.44905 343.825 211.96468 343.9969L211.96468 342.98126Q212.83968 342.5594 213.49593 341.98126Q214.1678 341.3875 214.44905 340.825L215.12093 340.825L215.12093 349.45ZM218.15218 345.21564Q218.15218 343.6844 218.46468 342.7625Q218.77718 341.825 219.38655 341.325Q220.01155 340.825 220.94905 340.825Q221.63655 340.825 222.15218 341.10626Q222.68343 341.3875 223.02718 341.91876Q223.37093 342.4344 223.55843 343.1844Q223.74593 343.9344 223.74593 345.21564Q223.74593 346.73126 223.43343 347.65314Q223.13655 348.575 222.51155 349.09064Q221.90218 349.59064 220.94905 349.59064Q219.71468 349.59064 218.99593 348.7Q218.15218 347.6375 218.15218 345.21564ZM219.2303 345.21564Q219.2303 347.325 219.7303 348.02814Q220.2303 348.73126 220.94905 348.73126Q221.68343 348.73126 222.1678 348.02814Q222.6678 347.325 222.6678 345.21564Q222.6678 343.09064 222.1678 342.40314Q221.68343 341.7 220.93343 341.7Q220.21468 341.7 219.77718 342.3094Q219.2303 343.09064 219.2303 345.21564Z" fill-rule="nonzero"/><path fill="#000000" d="M369.72308 349.45L368.6762 349.45L368.6762 342.73126Q368.28558 343.09064 367.66058 343.46564Q367.0512 343.825 366.56683 343.9969L366.56683 342.98126Q367.44183 342.5594 368.09808 341.98126Q368.76996 341.3875 369.0512 340.825L369.72308 340.825L369.72308 349.45ZM372.75433 345.21564Q372.75433 343.6844 373.06683 342.7625Q373.37933 341.825 373.9887 341.325Q374.6137 340.825 375.5512 340.825Q376.2387 340.825 376.75433 341.10626Q377.28558 341.3875 377.62933 341.91876Q377.97308 342.4344 378.16058 343.1844Q378.34808 343.9344 378.34808 345.21564Q378.34808 346.73126 378.03558 347.65314Q377.7387 348.575 377.1137 349.09064Q376.50433 349.59064 375.5512 349.59064Q374.31683 349.59064 373.59808 348.7Q372.75433 347.6375 372.75433 345.21564ZM373.83246 345.21564Q373.83246 347.325 374.33246 348.02814Q374.83246 348.73126 375.5512 348.73126Q376.28558 348.73126 376.76996 348.02814Q377.26996 347.325 377.26996 345.21564Q377.26996 343.09064 376.76996 342.40314Q376.28558 341.7 375.53558 341.7Q374.81683 341.7 374.37933 342.3094Q373.83246 343.09064 373.83246 345.21564ZM379.75433 345.21564Q379.75433 343.6844 380.06683 342.7625Q380.37933 341.825 380.9887 341.325Q381.6137 340.825 382.5512 340.825Q383.2387 340.825 383.75433 341.10626Q384.28558 341.3875 384.62933 341.91876Q384.97308 342.4344 385.16058 343.1844Q385.34808 343.9344 385.34808 345.21564Q385.34808 346.73126 385.03558 347.65314Q384.7387 348.575 384.1137 349.09064Q383.50433 349.59064 382.5512 349.59064Q381.31683 349.59064 380.59808 348.7Q379.75433 347.6375 379.75433 345.21564ZM380.83246 345.21564Q380.83246 347.325 381.33246 348.02814Q381.83246 348.73126 382.5512 348.73126Q383.28558 348.73126 383.76996 348.02814Q384.26996 347.325 384.26996 345.21564Q384.26996 343.09064 383.76996 342.40314Q383.28558 341.7 382.53558 341.7Q381.81683 341.7 381.37933 342.3094Q380.83246 343.09064 380.83246 345.21564Z" fill-rule="nonzero"/><path fill="#000000" d="M524.32526 349.45L523.2784 349.45L523.2784 342.73126Q522.88776 343.09064 522.26276 343.46564Q521.6534 343.825 521.169 343.9969L521.169 342.98126Q522.044 342.5594 522.70026 341.98126Q523.37213 341.3875 523.6534 340.825L524.32526 340.825L524.32526 349.45ZM527.3565 345.21564Q527.3565 343.6844 527.669 342.7625Q527.9815 341.825 528.5909 341.325Q529.2159 340.825 530.1534 340.825Q530.8409 340.825 531.3565 341.10626Q531.88776 341.3875 532.2315 341.91876Q532.57526 342.4344 532.76276 343.1844Q532.95026 343.9344 532.95026 345.21564Q532.95026 346.73126 532.63776 347.65314Q532.3409 348.575 531.7159 349.09064Q531.1065 349.59064 530.1534 349.59064Q528.919 349.59064 528.20026 348.7Q527.3565 347.6375 527.3565 345.21564ZM528.43463 345.21564Q528.43463 347.325 528.93463 348.02814Q529.43463 348.73126 530.1534 348.73126Q530.88776 348.73126 531.37213 348.02814Q531.87213 347.325 531.87213 345.21564Q531.87213 343.09064 531.37213 342.40314Q530.88776 341.7 530.13776 341.7Q529.419 341.7 528.9815 342.3094Q528.43463 343.09064 528.43463 345.21564ZM534.3565 345.21564Q534.3565 343.6844 534.669 342.7625Q534.9815 341.825 535.5909 341.325Q536.2159 340.825 537.1534 340.825Q537.8409 340.825 538.3565 341.10626Q538.88776 341.3875 539.2315 341.91876Q539.57526 342.4344 539.76276 343.1844Q539.95026 343.9344 539.95026 345.21564Q539.95026 346.73126 539.63776 347.65314Q539.3409 348.575 538.7159 349.09064Q538.1065 349.59064 537.1534 349.59064Q535.919 349.59064 535.20026 348.7Q534.3565 347.6375 534.3565 345.21564ZM535.43463 345.21564Q535.43463 347.325 535.93463 348.02814Q536.43463 348.73126 537.1534 348.73126Q537.88776 348.73126 538.37213 348.02814Q538.87213 347.325 538.87213 345.21564Q538.87213 343.09064 538.37213 342.40314Q537.88776 341.7 537.13776 341.7Q536.419 341.7 535.9815 342.3094Q535.43463 343.09064 535.43463 345.21564ZM541.3565 345.21564Q541.3565 343.6844 541.669 342.7625Q541.9815 341.825 542.5909 341.325Q543.2159 340.825 544.1534 340.825Q544.8409 340.825 545.3565 341.10626Q545.88776 341.3875 546.2315 341.91876Q546.57526 342.4344 546.76276 343.1844Q546.95026 343.9344 546.95026 345.21564Q546.95026 346.73126 546.63776 347.65314Q546.3409 348.575 545.7159 349.09064Q545.1065 349.59064 544.1534 349.59064Q542.919 349.59064 542.20026 348.7Q541.3565 347.6375 541.3565 345.21564ZM542.43463 345.21564Q542.43463 347.325 542.93463 348.02814Q543.43463 348.73126 544.1534 348.73126Q544.88776 348.73126 545.37213 348.02814Q545.87213 347.325 545.87213 345.21564Q545.87213 343.09064 545.37213 342.40314Q544.88776 341.7 544.13776 341.7Q543.419 341.7 542.9815 342.3094Q542.43463 343.09064 542.43463 345.21564Z" fill-rule="nonzero"/><path stroke="#4285f4" stroke-width="4.0" stroke-linecap="butt" d="M221.5 61.916668L233.5 61.916668" fill-rule="nonzero"/><path fill="#1a1a1a" d="M247.46875 59.43229L246.42188 59.510414Q246.28125 58.885414 246.03125 58.604164Q245.59375 58.15104 244.96875 58.15104Q244.46875 58.15104 244.07812 58.43229Q243.59375 58.80729 243.29688 59.510414Q243.01562 60.197914 243.0 61.479164Q243.375 60.90104 243.92188 60.61979Q244.48438 60.33854 245.09375 60.33854Q246.14062 60.33854 246.875 61.11979Q247.625 61.90104 247.625 63.11979Q247.625 63.93229 247.26562 64.635414Q246.92188 65.322914 246.3125 65.697914Q245.70312 66.05729 244.9375 66.05729Q243.60938 66.05729 242.78125 65.08854Q241.95312 64.11979 241.95312 61.90104Q241.95312 59.40104 242.875 58.27604Q243.67188 57.291664 245.03125 57.291664Q246.04688 57.291664 246.6875 57.86979Q247.34375 58.43229 247.46875 59.43229ZM243.17188 63.135414Q243.17188 63.68229 243.39062 64.18229Q243.625 64.666664 244.03125 64.93229Q244.45312 65.197914 244.92188 65.197914Q245.57812 65.197914 246.0625 64.666664Q246.54688 64.11979 246.54688 63.197914Q246.54688 62.30729 246.0625 61.791664Q245.59375 61.27604 244.875 61.27604Q244.15625 61.27604 243.65625 61.791664Q243.17188 62.30729 243.17188 63.135414ZM252.375 65.916664L252.375 63.854164L248.65625 63.854164L248.65625 62.885414L252.57812 57.322914L253.4375 57.322914L253.4375 62.885414L254.59375 62.885414L254.59375 63.854164L253.4375 63.854164L253.4375 65.916664L252.375 65.916664ZM252.375 62.885414L252.375 59.02604L249.6875 62.885414L252.375 62.885414ZM256.29688 65.916664L256.29688 57.322914L257.35938 57.322914L257.35938 62.229164L259.84375 59.697914L261.21875 59.697914L258.82812 61.99479L261.45312 65.916664L260.15625 65.916664L258.09375 62.729164L257.35938 63.447914L257.35938 65.916664L256.29688 65.916664ZM262.375 65.916664L262.375 57.322914L265.60938 57.322914Q266.59375 57.322914 267.1875 57.58854Q267.78125 57.854164 268.10938 58.40104Q268.45312 58.93229 268.45312 59.52604Q268.45312 60.072914 268.15625 60.55729Q267.85938 61.041664 267.25 61.33854Q268.03125 61.572914 268.4375 62.135414Q268.85938 62.68229 268.85938 63.43229Q268.85938 64.02604 268.60938 64.55729Q268.35938 65.072914 267.98438 65.354164Q267.60938 65.635414 267.03125 65.77604Q266.46875 65.916664 265.65625 65.916664L262.375 65.916664ZM263.51562 60.93229L265.375 60.93229Q266.125 60.93229 266.45312 60.83854Q266.89062 60.71354 267.10938 60.416664Q267.32812 60.104164 267.32812 59.65104Q267.32812 59.229164 267.125 58.90104Q266.92188 58.572914 266.53125 58.46354Q266.15625 58.33854 265.23438 58.33854L263.51562 58.33854L263.51562 60.93229ZM263.51562 64.90104L265.65625 64.90104Q266.20312 64.90104 266.42188 64.854164Q266.82812 64.791664 267.07812 64.635414Q267.34375 64.46354 267.51562 64.15104Q267.6875 63.83854 267.6875 63.43229Q267.6875 62.947914 267.4375 62.58854Q267.20312 62.229164 266.76562 62.08854Q266.32812 61.947914 265.5 61.947914L263.51562 61.947914L263.51562 64.90104Z" fill-rule="nonzero"/><path stroke="#ea4335" stroke-width="4.0" stroke-linecap="butt" d="M285.5 61.916668L297.5 61.916668" fill-rule="nonzero"/><path fill="#1a1a1a" d="M311.46875 59.43229L310.42188 59.510414Q310.28125 58.885414 310.03125 58.604164Q309.59375 58.15104 308.96875 58.15104Q308.46875 58.15104 308.07812 58.43229Q307.59375 58.80729 307.29688 59.510414Q307.01562 60.197914 307.0 61.479164Q307.375 60.90104 307.92188 60.61979Q308.48438 60.33854 309.09375 60.33854Q310.14062 60.33854 310.875 61.11979Q311.625 61.90104 311.625 63.11979Q311.625 63.93229 311.26562 64.635414Q310.92188 65.322914 310.3125 65.697914Q309.70312 66.05729 308.9375 66.05729Q307.60938 66.05729 306.78125 65.08854Q305.95312 64.11979 305.95312 61.90104Q305.95312 59.40104 306.875 58.27604Q307.67188 57.291664 309.03125 57.291664Q310.04688 57.291664 310.6875 57.86979Q311.34375 58.43229 311.46875 59.43229ZM307.17188 63.135414Q307.17188 63.68229 307.39062 64.18229Q307.625 64.666664 308.03125 64.93229Q308.45312 65.197914 308.92188 65.197914Q309.57812 65.197914 310.0625 64.666664Q310.54688 64.11979 310.54688 63.197914Q310.54688 62.30729 310.0625 61.791664Q309.59375 61.27604 308.875 61.27604Q308.15625 61.27604 307.65625 61.791664Q307.17188 62.30729 307.17188 63.135414ZM316.375 65.916664L316.375 63.854164L312.65625 63.854164L312.65625 62.885414L316.57812 57.322914L317.4375 57.322914L317.4375 62.885414L318.59375 62.885414L318.59375 63.854164L317.4375 63.854164L317.4375 65.916664L316.375 65.916664ZM316.375 62.885414L316.375 59.02604L313.6875 62.885414L316.375 62.885414ZM320.29688 65.916664L320.29688 57.322914L321.35938 57.322914L321.35938 62.229164L323.84375 59.697914L325.21875 59.697914L322.82812 61.99479L325.45312 65.916664L324.15625 65.916664L322.09375 62.729164L321.35938 63.447914L321.35938 65.916664L320.29688 65.916664ZM326.375 65.916664L326.375 57.322914L329.60938 57.322914Q330.59375 57.322914 331.1875 57.58854Q331.78125 57.854164 332.10938 58.40104Q332.45312 58.93229 332.45312 59.52604Q332.45312 60.072914 332.15625 60.55729Q331.85938 61.041664 331.25 61.33854Q332.03125 61.572914 332.4375 62.135414Q332.85938 62.68229 332.85938 63.43229Q332.85938 64.02604 332.60938 64.55729Q332.35938 65.072914 331.98438 65.354164Q331.60938 65.635414 331.03125 65.77604Q330.46875 65.916664 329.65625 65.916664L326.375 65.916664ZM327.51562 60.93229L329.375 60.93229Q330.125 60.93229 330.45312 60.83854Q330.89062 60.71354 331.10938 60.416664Q331.32812 60.104164 331.32812 59.65104Q331.32812 59.229164 331.125 58.90104Q330.92188 58.572914 330.53125 58.46354Q330.15625 58.33854 329.23438 58.33854L327.51562 58.33854L327.51562 60.93229ZM327.51562 64.90104L329.65625 64.90104Q330.20312 64.90104 330.42188 64.854164Q330.82812 64.791664 331.07812 64.635414Q331.34375 64.46354 331.51562 64.15104Q331.6875 63.83854 331.6875 63.43229Q331.6875 62.947914 331.4375 62.58854Q331.20312 62.229164 330.76562 62.08854Q330.32812 61.947914 329.5 61.947914L327.51562 61.947914L327.51562 64.90104ZM338.4375 65.916664L336.53125 59.697914L337.625 59.697914L338.60938 63.291664L338.98438 64.61979Q339.01562 64.52604 339.3125 63.33854L340.29688 59.697914L341.375 59.697914L342.3125 63.30729L342.625 64.49479L342.98438 63.291664L344.04688 59.697914L345.07812 59.697914L343.125 65.916664L342.03125 65.916664L341.04688 62.18229L340.79688 61.135414L339.54688 65.916664L338.4375 65.916664ZM345.5 66.05729L347.98438 57.18229L348.82812 57.18229L346.34375 66.05729L345.5 66.05729ZM349.375 65.916664L349.375 57.322914L350.51562 57.322914L350.51562 61.58854L354.78125 57.322914L356.32812 57.322914L352.71875 60.80729L356.48438 65.916664L354.98438 65.916664L351.92188 61.572914L350.51562 62.93229L350.51562 65.916664L349.375 65.916664ZM359.60938 65.916664L359.60938 58.33854L356.78125 58.33854L356.78125 57.322914L363.59375 57.322914L363.59375 58.33854L360.75 58.33854L360.75 65.916664L359.60938 65.916664ZM364.375 65.916664L364.375 57.322914L365.51562 57.322914L365.51562 64.90104L369.75 64.90104L369.75 65.916664L364.375 65.916664ZM371.04688 63.15104L372.10938 63.05729Q372.1875 63.71354 372.46875 64.11979Q372.75 64.52604 373.32812 64.791664Q373.92188 65.041664 374.65625 65.041664Q375.29688 65.041664 375.79688 64.854164Q376.29688 64.65104 376.53125 64.322914Q376.78125 63.979164 376.78125 63.58854Q376.78125 63.18229 376.54688 62.885414Q376.3125 62.572914 375.78125 62.36979Q375.42188 62.229164 374.23438 61.947914Q373.0625 61.666664 372.59375 61.416664Q371.96875 61.08854 371.67188 60.61979Q371.375 60.135414 371.375 59.541664Q371.375 58.90104 371.73438 58.33854Q372.10938 57.760414 372.8125 57.479164Q373.53125 57.18229 374.39062 57.18229Q375.34375 57.18229 376.07812 57.49479Q376.8125 57.791664 377.20312 58.40104Q377.59375 58.99479 377.625 59.74479L376.53125 59.822914Q376.4375 59.010414 375.92188 58.604164Q375.42188 58.18229 374.4375 58.18229Q373.40625 58.18229 372.9375 58.55729Q372.46875 58.93229 372.46875 59.46354Q372.46875 59.93229 372.79688 60.229164Q373.125 60.52604 374.5 60.83854Q375.89062 61.15104 376.40625 61.385414Q377.15625 61.74479 377.51562 62.27604Q377.875 62.791664 377.875 63.49479Q377.875 64.18229 377.48438 64.791664Q377.09375 65.385414 376.35938 65.729164Q375.625 66.05729 374.70312 66.05729Q373.53125 66.05729 372.73438 65.729164Q371.95312 65.385414 371.5 64.697914Q371.0625 64.010414 371.04688 63.15104Z" fill-rule="nonzero"/><path fill="#757575" d="M197.79688 37.55L197.79688 27.175L199.375 27.175L199.375 28.753124Q199.98438 27.64375 200.5 27.3Q201.01562 26.940624 201.625 26.940624Q202.51562 26.940624 203.4375 27.503124L202.82812 29.14375Q202.1875 28.753124 201.54688 28.753124Q200.96875 28.753124 200.5 29.1125Q200.04688 29.45625 199.84375 30.065624Q199.5625 31.003124 199.5625 32.1125L199.5625 37.55L197.79688 37.55ZM211.92188 34.20625L213.73438 34.440624Q213.3125 36.01875 212.14062 36.909374Q210.98438 37.784374 209.17188 37.784374Q206.90625 37.784374 205.5625 36.39375Q204.23438 34.9875 204.23438 32.45625Q204.23438 29.83125 205.57812 28.39375Q206.92188 26.940624 209.07812 26.940624Q211.15625 26.940624 212.46875 28.3625Q213.79688 29.76875 213.79688 32.346874Q213.79688 32.503124 213.78125 32.815624L206.04688 32.815624Q206.14062 34.51875 207.01562 35.425Q207.89062 36.33125 209.1875 36.33125Q210.15625 36.33125 210.82812 35.83125Q211.51562 35.315624 211.92188 34.20625ZM206.14062 31.3625L211.9375 31.3625Q211.82812 30.065624 211.28125 29.409374Q210.4375 28.39375 209.09375 28.39375Q207.89062 28.39375 207.0625 29.20625Q206.23438 30.003124 206.14062 31.3625ZM222.4375 41.51875L222.4375 36.440624Q222.01562 37.01875 221.28125 37.409374Q220.54688 37.784374 219.71875 37.784374Q217.875 37.784374 216.53125 36.315624Q215.20312 34.83125 215.20312 32.26875Q215.20312 30.70625 215.73438 29.471874Q216.28125 28.221874 217.3125 27.58125Q218.34375 26.940624 219.57812 26.940624Q221.5 26.940624 222.60938 28.565624L222.60938 27.175L224.1875 27.175L224.1875 41.51875L222.4375 41.51875ZM217.01562 32.33125Q217.01562 34.33125 217.84375 35.33125Q218.6875 36.33125 219.85938 36.33125Q220.98438 36.33125 221.79688 35.39375Q222.60938 34.440624 222.60938 32.4875Q222.60938 30.425 221.75 29.378124Q220.89062 28.33125 219.75 28.33125Q218.60938 28.33125 217.8125 29.3Q217.01562 30.26875 217.01562 32.33125ZM233.60938 37.55L233.60938 36.01875Q232.40625 37.784374 230.32812 37.784374Q229.40625 37.784374 228.60938 37.440624Q227.8125 37.08125 227.42188 36.55Q227.04688 36.01875 226.89062 35.2375Q226.78125 34.721874 226.78125 33.596874L226.78125 27.175L228.53125 27.175L228.53125 32.925Q228.53125 34.3 228.64062 34.784374Q228.8125 35.471874 229.34375 35.878124Q229.89062 36.26875 230.67188 36.26875Q231.46875 36.26875 232.15625 35.8625Q232.85938 35.45625 233.14062 34.76875Q233.4375 34.065624 233.4375 32.7375L233.4375 27.175L235.1875 27.175L235.1875 37.55L233.60938 37.55ZM243.92188 34.20625L245.73438 34.440624Q245.3125 36.01875 244.14062 36.909374Q242.98438 37.784374 241.17188 37.784374Q238.90625 37.784374 237.5625 36.39375Q236.23438 34.9875 236.23438 32.45625Q236.23438 29.83125 237.57812 28.39375Q238.92188 26.940624 241.07812 26.940624Q243.15625 26.940624 244.46875 28.3625Q245.79688 29.76875 245.79688 32.346874Q245.79688 32.503124 245.78125 32.815624L238.04688 32.815624Q238.14062 34.51875 239.01562 35.425Q239.89062 36.33125 241.1875 36.33125Q242.15625 36.33125 242.82812 35.83125Q243.51562 35.315624 243.92188 34.20625ZM238.14062 31.3625L243.9375 31.3625Q243.82812 30.065624 243.28125 29.409374Q242.4375 28.39375 241.09375 28.39375Q239.89062 28.39375 239.0625 29.20625Q238.23438 30.003124 238.14062 31.3625ZM247.10938 34.45625L248.85938 34.175Q249.0 35.221874 249.67188 35.784374Q250.34375 36.33125 251.54688 36.33125Q252.75 36.33125 253.32812 35.846874Q253.92188 35.346874 253.92188 34.690624Q253.92188 34.096874 253.40625 33.753124Q253.04688 33.51875 251.60938 33.159374Q249.67188 32.659374 248.92188 32.315624Q248.1875 31.95625 247.79688 31.33125Q247.40625 30.690624 247.40625 29.925Q247.40625 29.2375 247.71875 28.64375Q248.04688 28.05 248.59375 27.659374Q249.0 27.3625 249.70312 27.159374Q250.42188 26.940624 251.23438 26.940624Q252.45312 26.940624 253.375 27.3Q254.29688 27.64375 254.73438 28.253124Q255.17188 28.846874 255.34375 29.846874L253.625 30.08125Q253.5 29.284374 252.9375 28.846874Q252.375 28.39375 251.35938 28.39375Q250.14062 28.39375 249.625 28.8Q249.10938 29.190624 249.10938 29.721874Q249.10938 30.065624 249.32812 30.346874Q249.53125 30.628124 250.0 30.815624Q250.26562 30.909374 251.54688 31.253124Q253.42188 31.753124 254.15625 32.08125Q254.89062 32.39375 255.3125 33.003124Q255.73438 33.596874 255.73438 34.503124Q255.73438 35.378124 255.21875 36.159374Q254.70312 36.940624 253.73438 37.3625Q252.76562 37.784374 251.54688 37.784374Q249.53125 37.784374 248.46875 36.940624Q247.40625 36.096874 247.10938 34.45625ZM261.65625 35.971874L261.90625 37.534374Q261.17188 37.690624 260.57812 37.690624Q259.625 37.690624 259.09375 37.39375Q258.57812 37.08125 258.35938 36.596874Q258.14062 36.096874 258.14062 34.51875L258.14062 28.55L256.85938 28.55L256.85938 27.175L258.14062 27.175L258.14062 24.6125L259.89062 23.55L259.89062 27.175L261.65625 27.175L261.65625 28.55L259.89062 28.55L259.89062 34.6125Q259.89062 35.3625 259.98438 35.58125Q260.07812 35.784374 260.28125 35.925Q260.5 36.05 260.89062 36.05Q261.17188 36.05 261.65625 35.971874ZM263.10938 34.45625L264.85938 34.175Q265.0 35.221874 265.67188 35.784374Q266.34375 36.33125 267.54688 36.33125Q268.75 36.33125 269.32812 35.846874Q269.92188 35.346874 269.92188 34.690624Q269.92188 34.096874 269.40625 33.753124Q269.04688 33.51875 267.60938 33.159374Q265.67188 32.659374 264.92188 32.315624Q264.1875 31.95625 263.79688 31.33125Q263.40625 30.690624 263.40625 29.925Q263.40625 29.2375 263.71875 28.64375Q264.04688 28.05 264.59375 27.659374Q265.0 27.3625 265.70312 27.159374Q266.42188 26.940624 267.23438 26.940624Q268.45312 26.940624 269.375 27.3Q270.29688 27.64375 270.73438 28.253124Q271.17188 28.846874 271.34375 29.846874L269.625 30.08125Q269.5 29.284374 268.9375 28.846874Q268.375 28.39375 267.35938 28.39375Q266.14062 28.39375 265.625 28.8Q265.10938 29.190624 265.10938 29.721874Q265.10938 30.065624 265.32812 30.346874Q265.53125 30.628124 266.0 30.815624Q266.26562 30.909374 267.54688 31.253124Q269.42188 31.753124 270.15625 32.08125Q270.89062 32.39375 271.3125 33.003124Q271.73438 33.596874 271.73438 34.503124Q271.73438 35.378124 271.21875 36.159374Q270.70312 36.940624 269.73438 37.3625Q268.76562 37.784374 267.54688 37.784374Q265.53125 37.784374 264.46875 36.940624Q263.40625 36.096874 263.10938 34.45625ZM272.5 37.8L276.65625 22.9875L278.0625 22.9875L273.92188 37.8L272.5 37.8ZM279.10938 34.45625L280.85938 34.175Q281.0 35.221874 281.67188 35.784374Q282.34375 36.33125 283.54688 36.33125Q284.75 36.33125 285.32812 35.846874Q285.92188 35.346874 285.92188 34.690624Q285.92188 34.096874 285.40625 33.753124Q285.04688 33.51875 283.60938 33.159374Q281.67188 32.659374 280.92188 32.315624Q280.1875 31.95625 279.79688 31.33125Q279.40625 30.690624 279.40625 29.925Q279.40625 29.2375 279.71875 28.64375Q280.04688 28.05 280.59375 27.659374Q281.0 27.3625 281.70312 27.159374Q282.42188 26.940624 283.23438 26.940624Q284.45312 26.940624 285.375 27.3Q286.29688 27.64375 286.73438 28.253124Q287.17188 28.846874 287.34375 29.846874L285.625 30.08125Q285.5 29.284374 284.9375 28.846874Q284.375 28.39375 283.35938 28.39375Q282.14062 28.39375 281.625 28.8Q281.10938 29.190624 281.10938 29.721874Q281.10938 30.065624 281.32812 30.346874Q281.53125 30.628124 282.0 30.815624Q282.26562 30.909374 283.54688 31.253124Q285.42188 31.753124 286.15625 32.08125Q286.89062 32.39375 287.3125 33.003124Q287.73438 33.596874 287.73438 34.503124Q287.73438 35.378124 287.21875 36.159374Q286.70312 36.940624 285.73438 37.3625Q284.76562 37.784374 283.54688 37.784374Q281.53125 37.784374 280.46875 36.940624Q279.40625 36.096874 279.10938 34.45625ZM297.73438 37.55L294.5625 27.175L296.375 27.175L298.03125 33.159374L298.64062 35.39375Q298.6875 35.221874 299.17188 33.253124L300.82812 27.175L302.64062 27.175L304.1875 33.190624L304.70312 35.175L305.29688 33.175L307.07812 27.175L308.78125 27.175L305.54688 37.55L303.71875 37.55L302.0625 31.33125L301.67188 29.565624L299.5625 37.55L297.73438 37.55ZM309.5 37.8L313.65625 22.9875L315.0625 22.9875L310.92188 37.8L309.5 37.8ZM322.8125 37.55L322.8125 23.2375L324.57812 23.2375L324.57812 28.3625Q325.8125 26.940624 327.6875 26.940624Q328.82812 26.940624 329.67188 27.39375Q330.53125 27.846874 330.89062 28.659374Q331.26562 29.45625 331.26562 30.971874L331.26562 37.55L329.51562 37.55L329.51562 30.971874Q329.51562 29.659374 328.9375 29.065624Q328.35938 28.45625 327.32812 28.45625Q326.54688 28.45625 325.84375 28.8625Q325.15625 29.26875 324.85938 29.971874Q324.57812 30.659374 324.57812 31.878124L324.57812 37.55L322.8125 37.55ZM339.60938 37.55L339.60938 36.01875Q338.40625 37.784374 336.32812 37.784374Q335.40625 37.784374 334.60938 37.440624Q333.8125 37.08125 333.42188 36.55Q333.04688 36.01875 332.89062 35.2375Q332.78125 34.721874 332.78125 33.596874L332.78125 27.175L334.53125 27.175L334.53125 32.925Q334.53125 34.3 334.64062 34.784374Q334.8125 35.471874 335.34375 35.878124Q335.89062 36.26875 336.67188 36.26875Q337.46875 36.26875 338.15625 35.8625Q338.85938 35.45625 339.14062 34.76875Q339.4375 34.065624 339.4375 32.7375L339.4375 27.175L341.1875 27.175L341.1875 37.55L339.60938 37.55ZM342.79688 37.55L342.79688 27.175L344.375 27.175L344.375 28.753124Q344.98438 27.64375 345.5 27.3Q346.01562 26.940624 346.625 26.940624Q347.51562 26.940624 348.4375 27.503124L347.82812 29.14375Q347.1875 28.753124 346.54688 28.753124Q345.96875 28.753124 345.5 29.1125Q345.04688 29.45625 344.84375 30.065624Q344.5625 31.003124 344.5625 32.1125L344.5625 37.55L342.79688 37.55ZM349.78125 37.55L349.78125 23.2375L351.53125 23.2375L351.53125 37.55L349.78125 37.55ZM368.45312 26.7375L366.70312 26.878124Q366.46875 25.846874 366.04688 25.378124Q365.32812 24.6125 364.28125 24.6125Q363.4375 24.6125 362.8125 25.08125Q361.98438 25.690624 361.5 26.8625Q361.01562 28.01875 361.0 30.159374Q361.64062 29.20625 362.54688 28.7375Q363.46875 28.26875 364.48438 28.26875Q366.23438 28.26875 367.46875 29.565624Q368.70312 30.846874 368.70312 32.89375Q368.70312 34.253124 368.125 35.409374Q367.54688 36.565624 366.53125 37.190624Q365.51562 37.8 364.21875 37.8Q362.03125 37.8 360.64062 36.190624Q359.25 34.565624 359.25 30.846874Q359.25 26.70625 360.78125 24.815624Q362.125 23.175 364.39062 23.175Q366.07812 23.175 367.15625 24.128124Q368.23438 25.065624 368.45312 26.7375ZM361.28125 32.909374Q361.28125 33.815624 361.65625 34.64375Q362.04688 35.471874 362.73438 35.909374Q363.4375 36.346874 364.1875 36.346874Q365.3125 36.346874 366.10938 35.45625Q366.90625 34.55 366.90625 33.003124Q366.90625 31.51875 366.10938 30.675Q365.32812 29.815624 364.125 29.815624Q362.9375 29.815624 362.10938 30.675Q361.28125 31.51875 361.28125 32.909374ZM375.96875 37.55L375.96875 34.128124L369.75 34.128124L369.75 32.503124L376.28125 23.2375L377.71875 23.2375L377.71875 32.503124L379.65625 32.503124L379.65625 34.128124L377.71875 34.128124L377.71875 37.55L375.96875 37.55ZM375.96875 32.503124L375.96875 26.05L371.48438 32.503124L375.96875 32.503124ZM381.82812 37.55L381.82812 23.2375L383.59375 23.2375L383.59375 31.39375L387.75 27.175L390.01562 27.175L386.0625 31.01875L390.42188 37.55L388.25 37.55L384.82812 32.253124L383.59375 33.440624L383.59375 37.55L381.82812 37.55ZM391.96875 37.55L391.96875 23.2375L397.34375 23.2375Q398.98438 23.2375 399.96875 23.675Q400.95312 24.096874 401.51562 25.003124Q402.07812 25.909374 402.07812 26.89375Q402.07812 27.815624 401.57812 28.628124Q401.09375 29.440624 400.07812 29.925Q401.375 30.315624 402.07812 31.2375Q402.78125 32.14375 402.78125 33.39375Q402.78125 34.409374 402.34375 35.26875Q401.92188 36.128124 401.29688 36.596874Q400.67188 37.065624 399.73438 37.315624Q398.79688 37.55 397.42188 37.55L391.96875 37.55ZM393.85938 29.253124L396.95312 29.253124Q398.21875 29.253124 398.76562 29.08125Q399.48438 28.8625 399.84375 28.378124Q400.21875 27.878124 400.21875 27.1125Q400.21875 26.409374 399.875 25.8625Q399.53125 25.315624 398.89062 25.128124Q398.26562 24.925 396.71875 24.925L393.85938 24.925L393.85938 29.253124ZM393.85938 35.8625L397.42188 35.8625Q398.34375 35.8625 398.71875 35.784374Q399.375 35.675 399.8125 35.409374Q400.25 35.128124 400.53125 34.6125Q400.8125 34.08125 400.8125 33.39375Q400.8125 32.596874 400.40625 32.003124Q400.0 31.409374 399.26562 31.175Q398.53125 30.940624 397.17188 30.940624L393.85938 30.940624L393.85938 35.8625Z" fill-rule="nonzero"/></svg>